<?xml version="1.0" encoding="UTF-8"?><svg id="Layer_2" xmlns="http://www.w3.org/2000/svg" viewBox="0 0 2478.69 348.52"><defs><style>.cls-1{fill:#ffce07;fill-rule:evenodd;}</style></defs><path class="cls-1" d="M863.96,131.71c0,1.06-.82,1.93-1.82,1.93s-1.8-.86-1.8-1.93.81-1.94,1.8-1.94,1.82.86,1.82,1.94Z"/><path class="cls-1" d="M863.35,126.66h-.02c-7.72,0-11.61,6.17-11.61,6.17,0,0,5.38,6.16,11.61,6.16h.02c6.23,0,11.61-6.16,11.61-6.16,0,0-3.89-6.17-11.61-6.17ZM863.32,138.19h0c-2.93,0-5.31-2.37-5.32-5.3,0-2.94,2.39-5.31,5.33-5.31h.02c2.93,0,5.3,2.38,5.3,5.31,0,2.94-2.39,5.31-5.32,5.3Z"/><path class="cls-1" d="M893.07,123.25c-.57-.59-1.42-.79-2.18-.51-.77.29-1.29.99-1.34,1.81-.04.64-.25,1.32-.61,2.03-1.42-2.06-2.05-4.33-2.02-5.62.02-.8-.42-1.54-1.14-1.9-.71-.34-1.57-.25-2.18.25-.58.46-1.65.73-3.02.73-1.28,0-2.7-.23-4.11-.66-.35-.13-.71-.26-1.07-.37-2.41-.89-6.96-3.14-10.34-8.12-.38-.57-1.01-.9-1.69-.9s-1.31.34-1.69.9c-3.44,5.06-8.06,7.3-10.52,8.18-.19.06-.39.13-.56.19-1.53.5-3.07.76-4.46.76s-2.43-.26-3.01-.72c-.62-.5-1.47-.6-2.18-.25-.72.36-1.16,1.1-1.14,1.9.02,1.28-.59,3.54-1.99,5.58-.35-.7-.55-1.37-.59-1.99-.05-.82-.57-1.52-1.34-1.81-.76-.28-1.62-.08-2.18.51-8.38,8.81-11.61,17.07-9.59,24.56.3,1.11.73,2.22,1.27,3.3-.48.33-.8.85-.87,1.43-.27,2.02-.41,4.08-.41,6.13,0,12.94,6.74,24.46,19.5,33.28,9.46,6.54,18.82,9.3,19.22,9.42.38.11.78.11,1.17,0,.39-.12,9.66-3.04,19.18-9.73,12.76-8.97,19.5-20.36,19.5-32.96,0-2.04-.14-4.08-.4-6.1-.08-.58-.4-1.1-.87-1.42.54-1.07.98-2.19,1.29-3.34,2.02-7.49-1.22-15.75-9.59-24.56ZM841.83,120.91c1.82,1.47,5.43,1.6,9.39.31.19-.07.38-.14.58-.2,4.69-1.71,8.73-4.85,11.54-8.98,2.78,4.07,6.75,7.18,11.37,8.91.38.12.74.25,1.1.38,3.82,1.18,7.29,1.01,9.05-.42-.03,1.66.77,4.86,2.95,7.62-.68.83-1.42,1.61-2.22,2.33-5.97-5.22-13.74-8.37-22.25-8.37s-16.26,3.15-22.22,8.36h0c-.85-.79-1.6-1.57-2.22-2.35,2.17-2.74,2.96-5.94,2.93-7.58ZM878.03,132.83s-.82,2.71-6.82,6.72c-4.89,3.27-6.49,5.55-7.85,9.66-1.35-4.1-2.95-6.38-7.83-9.66-6.02-4.01-6.83-6.72-6.83-6.72,0,0,3.83-8.32,14.66-8.32h.03c10.82,0,14.65,8.32,14.65,8.32ZM835.16,124.68c.43,6.77,13.01,13.75,19.6,18.04,6.06,3.94,7.62,9.39,7.62,19.33,0,22.58-8.72,25.42-8.72,25.42,0,0-15.01-4.52-15.01-14.99,0-6.06,8.67-7.95,8.67-7.95,0,0-39.41-11.2-12.16-39.84ZM863.36,199.38s-37.23-10.79-37.23-40.7c0-1.96.13-3.91.38-5.86.82,1.27,1.77,2.46,2.83,3.54,0,.18,0,.36,0,.54,0,18.99,15.23,34.4,34.02,34.4s34.03-15.41,34.03-34.4v-.52c1.06-1.08,2-2.26,2.82-3.53.26,1.9.38,3.85.38,5.82,0,29.08-37.24,40.7-37.24,40.7ZM879.43,164.52s8.67,1.89,8.67,7.95c0,10.47-15.01,14.99-15.01,14.99,0,0-8.72-2.84-8.72-25.42,0-9.94,1.55-15.39,7.62-19.33,6.59-4.29,19.18-11.27,19.6-18.04,27.25,28.64-12.16,39.84-12.16,39.84Z"/></svg>