<?xml version="1.0" encoding="UTF-8"?>
<svg id="Layer_1" xmlns="http://www.w3.org/2000/svg" width="58.27mm" height="57.673mm" version="1.1" viewBox="0 0 165.175 163.483">
  <!-- Generator: Adobe Illustrator 29.6.0, SVG Export Plug-In . SVG Version: 2.1.1 Build 207)  -->
  <g id="CIRCLE">
    <circle cx="32.772" cy="114.963" r="5.669" fill="#652d90"/>
  </g>
  <g id="CIRCLE1">
    <circle cx="132.4" cy="114.963" r="5.669" fill="#652d90"/>
  </g>
  <g id="CIRCLE2">
    <circle cx="132.4" cy="48.52" r="5.669" fill="#652d90"/>
  </g>
  <g id="CIRCLE3">
    <circle cx="32.772" cy="48.52" r="5.669" fill="#652d90"/>
  </g>
  <g id="CIRCLE4">
    <circle cx="82.587" cy="81.741" r="50.315" fill="none" stroke="#ee4036" stroke-linecap="round" stroke-linejoin="round" stroke-width=".3"/>
  </g>
  <g id="CIRCLE5">
    <circle cx="32.772" cy="48.52" r="2.268" fill="none" stroke="#eb008b" stroke-linecap="round" stroke-linejoin="round" stroke-width=".3"/>
  </g>
  <g id="CIRCLE6">
    <circle cx="132.4" cy="48.52" r="2.268" fill="none" stroke="#eb008b" stroke-linecap="round" stroke-linejoin="round" stroke-width=".3"/>
  </g>
  <g id="CIRCLE7">
    <circle cx="32.772" cy="114.963" r="2.268" fill="none" stroke="#eb008b" stroke-linecap="round" stroke-linejoin="round" stroke-width=".3"/>
  </g>
  <g id="CIRCLE8">
    <circle cx="132.4" cy="114.963" r="2.268" fill="none" stroke="#eb008b" stroke-linecap="round" stroke-linejoin="round" stroke-width=".3"/>
  </g>
  <g id="CIRCLE9">
    <circle cx="82.587" cy="81.741" r="77.952" fill="none" stroke="#be1e2d" stroke-linecap="round" stroke-linejoin="round" stroke-width=".3"/>
  </g>
  <g>
    <path d="M82.955,71.311c0,.838-.643,1.519-1.431,1.519-.781,0-1.418-.681-1.418-1.519,0-.845.637-1.525,1.418-1.525.788,0,1.431.681,1.431,1.525Z" fill="#26a9e0" fill-rule="evenodd"/>
    <path d="M82.47,67.328h-.019c-6.082,0-9.144,4.859-9.144,4.859,0,0,4.235,4.853,9.144,4.853h.019c4.909,0,9.144-4.853,9.144-4.853,0,0-3.063-4.859-9.144-4.859ZM82.451,76.409h-.006c-2.307.006-4.185-1.865-4.191-4.178.006-2.313,1.884-4.185,4.197-4.185h.013c2.307,0,4.178,1.878,4.178,4.185-.006,2.313-1.884,4.185-4.191,4.178Z" fill="#26a9e0" fill-rule="evenodd"/>
    <path d="M105.885,64.643c-.447-.466-1.115-.624-1.721-.403-.605.227-1.015.781-1.052,1.424-.032.504-.195,1.04-.479,1.601-1.122-1.62-1.613-3.409-1.594-4.43.013-.63-.334-1.21-.901-1.5-.561-.271-1.235-.195-1.72.195-.454.366-1.298.574-2.382.574-1.008,0-2.13-.183-3.239-.517-.277-.101-.561-.202-.845-.29-1.897-.7-5.483-2.47-8.149-6.397-.296-.447-.794-.712-1.33-.712s-1.034.265-1.33.712c-2.71,3.989-6.353,5.754-8.287,6.447-.151.05-.309.101-.441.151-1.204.391-2.42.599-3.517.599-1.078,0-1.916-.202-2.37-.567-.485-.397-1.16-.473-1.721-.195-.567.284-.914.87-.901,1.5.019,1.008-.466,2.786-1.569,4.399-.277-.555-.435-1.078-.466-1.569-.038-.643-.447-1.197-1.052-1.424-.599-.221-1.273-.063-1.721.403-6.598,6.939-9.144,13.449-7.556,19.348.233.876.574,1.752,1.002,2.603-.378.258-.63.668-.687,1.128-.214,1.588-.321,3.214-.321,4.827,0,10.197,5.313,19.266,15.365,26.217,7.449,5.155,14.829,7.329,15.138,7.418.302.088.618.088.92-.006.309-.095,7.613-2.395,15.112-7.663,10.052-7.065,15.358-16.039,15.358-25.965,0-1.607-.107-3.214-.315-4.802-.063-.46-.315-.863-.687-1.122.429-.845.769-1.727,1.015-2.634,1.588-5.899-.958-12.409-7.556-19.348v-.002ZM65.521,62.803c1.431,1.16,4.279,1.26,7.399.246.151-.057.303-.107.46-.158,3.693-1.349,6.876-3.819,9.094-7.071,2.187,3.208,5.319,5.659,8.955,7.021.296.095.586.195.87.296,3.012.926,5.741.794,7.128-.334-.025,1.305.605,3.832,2.325,6-.536.655-1.122,1.267-1.746,1.834-4.701-4.109-10.821-6.592-17.526-6.592s-12.806,2.483-17.507,6.586h-.006c-.668-.624-1.26-1.235-1.752-1.853,1.708-2.162,2.332-4.676,2.307-5.974h-.001ZM94.037,72.187s-.643,2.136-5.376,5.294c-3.851,2.578-5.111,4.374-6.182,7.607-1.065-3.233-2.325-5.029-6.17-7.607-4.739-3.157-5.382-5.294-5.382-5.294,0,0,3.019-6.554,11.545-6.554h.025c8.52,0,11.539,6.554,11.539,6.554h0ZM60.265,65.771c.34,5.332,10.247,10.833,15.44,14.211,4.777,3.101,6,7.399,6,15.226,0,17.785-6.869,20.022-6.869,20.022,0,0-11.823-3.561-11.823-11.81,0-4.777,6.832-6.264,6.832-6.264,0,0-31.044-8.823-9.579-31.385h0ZM82.479,124.614s-29.33-8.502-29.33-32.065c0-1.544.101-3.082.303-4.613.649,1.002,1.393,1.935,2.231,2.786-.006.139-.006.284-.006.429,0,14.961,11.999,27.099,26.803,27.099s26.809-12.138,26.809-27.099v-.41c.832-.851,1.576-1.777,2.225-2.779.202,1.5.302,3.031.302,4.588,0,22.908-29.336,32.065-29.336,32.065h0ZM95.14,97.156s6.832,1.487,6.832,6.264c0,8.249-11.823,11.81-11.823,11.81,0,0-6.869-2.237-6.869-20.022,0-7.827,1.223-12.125,6-15.226,5.193-3.378,15.106-8.88,15.44-14.211,21.465,22.562-9.579,31.385-9.579,31.385h0Z" fill="#26a9e0" fill-rule="evenodd"/>
  </g>
  <g id="CIRCLE31">
    <circle cx="82.492" cy="43.306" r="4.961" fill="none" stroke="#eb008b" stroke-miterlimit="10" stroke-width="1"/>
  </g>
</svg>