<?xml version="1.0" encoding="UTF-8"?>
<svg id="Layer_1" xmlns="http://www.w3.org/2000/svg" width="165.176" height="163.482" version="1.1" viewBox="0 0 165.176 163.482">
  <!-- Generator: Adobe Illustrator 29.6.0, SVG Export Plug-In . SVG Version: 2.1.1 Build 207)  -->
  <polygon points="35.749 109.063 29.092 109.335 26 115.234 29.562 120.863 36.219 120.591 39.312 114.692 35.749 109.063" fill="#4478bb" fill-rule="evenodd"/>
  <polygon points="36.646 43.1 30.016 42.454 26.142 47.873 28.896 53.938 35.527 54.584 39.402 49.165 36.646 43.1" fill="#4478bb" fill-rule="evenodd"/>
  <polygon points="135.251 42.498 128.611 43.041 125.762 49.062 129.551 54.54 136.191 53.997 139.04 47.976 135.251 42.498" fill="#4478bb" fill-rule="evenodd"/>
  <polygon points="136.194 109.487 129.554 108.94 125.762 114.416 128.607 120.439 135.247 120.986 139.04 115.51 136.194 109.487" fill="#4478bb" fill-rule="evenodd"/>
  <g>
    <path d="M53.88,25.865l2.612,5.003-.352.184-2.611-5.004-1.381.721-.167-.319,3.112-1.625.167.319-1.381.721Z" fill="#231f20"/>
    <path d="M63.987,24.416c.621,1.611-.157,3.367-1.794,3.998-1.645.634-3.393-.148-4.014-1.759s.154-3.375,1.791-4.006,3.396.156,4.017,1.768ZM63.601,24.564c-.554-1.435-2.058-2.137-3.501-1.581-1.443.556-2.088,2.086-1.534,3.521.55,1.427,2.054,2.129,3.497,1.573,1.444-.557,2.088-2.087,1.538-3.514Z" fill="#231f20"/>
    <path d="M67.361,26.507l-.636-6.219,3.712,4.886,1.377-5.979,1.975,5.931-.388.083-1.533-4.607s-1.238,5.424-1.247,5.426l-3.367-4.435.495,4.831-.388.083Z" fill="#231f20"/>
    <path d="M82.203,21.477c.1,1.726-1.179,3.161-2.932,3.262-1.762.102-3.188-1.177-3.287-2.903s1.179-3.17,2.931-3.271c1.753-.101,3.188,1.187,3.288,2.913ZM81.79,21.5c-.089-1.537-1.309-2.666-2.854-2.576-1.546.089-2.627,1.351-2.538,2.888.088,1.528,1.308,2.657,2.854,2.567s2.627-1.351,2.539-2.879Z" fill="#231f20"/>
    <path d="M87.383,24.729l-1.769-2.95-.18-.011-.173,2.831-.396-.024.366-5.995.863.053c.458.028.869.089,1.248.383.448.352.57.855.542,1.323-.036.593-.334,1.188-1.096,1.395-.321.089-.609.08-.744.072l1.786,2.951-.449-.028ZM85.458,21.409l.575.035c.854.052,1.394-.366,1.44-1.139.037-.602-.24-.935-.466-1.075-.243-.159-.673-.222-.906-.236l-.494-.03-.149,2.445Z" fill="#231f20"/>
    <path d="M92.795,25.447l-1.474-3.108-.179-.028-.446,2.802-.392-.062.946-5.934.854.136c.453.072.856.173,1.206.502.411.394.484.907.41,1.37-.094.587-.448,1.151-1.226,1.282-.329.057-.615.021-.748,0l1.492,3.112-.445-.071ZM91.2,21.954l.569.091c.845.135,1.423-.229,1.545-.994.095-.596-.149-.954-.36-1.116-.227-.182-.647-.286-.879-.323l-.489-.078-.386,2.42Z" fill="#231f20"/>
    <path d="M102.056,24.709c-.475,1.661-2.154,2.594-3.841,2.112-1.696-.484-2.62-2.162-2.146-3.823s2.156-2.603,3.844-2.121c1.687.482,2.617,2.17,2.143,3.832ZM101.659,24.596c.423-1.479-.356-2.946-1.844-3.372-1.488-.425-2.925.409-3.348,1.889-.42,1.471.358,2.938,1.847,3.363s2.925-.409,3.345-1.88Z" fill="#231f20"/>
    <path d="M105.861,22.859l-.668,5.316,4.269-3.982-.464,5.771,3.871-3.812.391.184-4.744,4.654.479-5.804-4.342,3.988.817-6.5.391.184Z" fill="#231f20"/>
  </g>
  <g>
    <path d="M52.905,21.076l-2.062,1.062.172,1.923-.349.18-.527-6.041,4.58,3.955-.349.179-1.465-1.258ZM52.639,20.845l-2.09-1.828.26,2.77,1.83-.942Z" fill="#231f20"/>
    <path d="M57.894,20.731l-1.301-5.514,3.908,3.956.537-5.534,2.469,5.099-.338.12-1.918-3.961s-.478,5.02-.485,5.022l-3.544-3.591,1.01,4.283-.338.12Z" fill="#231f20"/>
    <path d="M66.514,12.695l-2.182.556.487,1.913,2.135-.544.08.316-2.134.544.614,2.411,2.182-.556.08.316-2.529.645-1.343-5.272,2.529-.645.08.316Z" fill="#231f20"/>
    <path d="M69.202,17.284l-.283-5.658,3.129,4.596,1.528-5.346,1.507,5.46-.354.057-1.17-4.242s-1.377,4.85-1.385,4.852l-2.837-4.172.22,4.395-.354.057Z" fill="#231f20"/>
    <path d="M82.056,13.217c.076,1.564-1.095,2.854-2.684,2.932-1.597.078-2.879-1.093-2.955-2.658s1.094-2.863,2.683-2.94c1.589-.077,2.88,1.102,2.956,2.666ZM81.681,13.235c-.068-1.394-1.164-2.426-2.565-2.358s-2.392,1.203-2.323,2.596c.067,1.385,1.163,2.418,2.564,2.35s2.392-1.203,2.324-2.588Z" fill="#231f20"/>
    <path d="M86.024,16.063l-1.672-2.634-.163-.006-.092,2.572-.359-.013.193-5.445.784.028c.416.015.791.061,1.141.318.414.309.537.763.522,1.188-.02.539-.275,1.085-.962,1.29-.289.088-.55.086-.673.083l1.688,2.634-.408-.014ZM84.201,13.097l.522.019c.775.028,1.255-.364,1.28-1.066.019-.547-.24-.842-.448-.964-.225-.139-.615-.186-.827-.193l-.449-.016-.078,2.22Z" fill="#231f20"/>
    <path d="M89.081,13.964l-1.475-3.275.406.04,1.291,2.888,1.858-2.58.406.04-2.13,2.922-.226,2.313-.357-.035.226-2.313Z" fill="#231f20"/>
    <path d="M97.766,12.486l-1.811-.362-.388,1.938,1.763.353-.064.32-1.763-.352-.553,2.764-.353-.071,1.069-5.343,2.162.433-.063.321Z" fill="#231f20"/>
    <path d="M100.44,18.44l-1.046-2.937-.157-.042-.659,2.485-.347-.092,1.395-5.262.757.201c.402.106.757.234,1.042.563.335.393.354.862.245,1.272-.138.521-.509.997-1.223,1.044-.301.021-.556-.038-.674-.069l1.062,2.94-.395-.104ZM99.32,15.146l.505.134c.75.199,1.304-.077,1.483-.755.141-.529-.047-.874-.223-1.039-.188-.185-.558-.316-.763-.371l-.434-.115-.569,2.146Z" fill="#231f20"/>
    <path d="M108.142,18.166c-.527,1.477-2.103,2.223-3.603,1.688-1.507-.538-2.246-2.111-1.719-3.588s2.106-2.231,3.605-1.695c1.5.536,2.243,2.119,1.716,3.596ZM107.789,18.041c.47-1.315-.149-2.689-1.472-3.162-1.323-.473-2.673.199-3.143,1.514-.467,1.308.152,2.682,1.476,3.154,1.322.473,2.672-.199,3.139-1.506Z" fill="#231f20"/>
    <path d="M108.562,21.27l3.032-4.792-.092,5.565,4.334-3.492-1.917,5.336-.322-.158,1.488-4.146s-3.924,3.174-3.931,3.171l.085-5.05-2.355,3.723-.322-.158Z" fill="#231f20"/>
  </g>
  <g id="CIRCLE">
    <circle cx="82.587" cy="81.741" r="52.441" fill="none" stroke="#ee4036" stroke-linecap="round" stroke-linejoin="round" stroke-width=".3"/>
  </g>
  <g id="CIRCLE1" data-name="CIRCLE">
    <circle cx="32.772" cy="48.519" r="2.268" fill="none" stroke="#eb008b" stroke-linecap="round" stroke-linejoin="round" stroke-width=".3"/>
  </g>
  <g id="CIRCLE2" data-name="CIRCLE">
    <circle cx="132.401" cy="48.519" r="2.268" fill="none" stroke="#eb008b" stroke-linecap="round" stroke-linejoin="round" stroke-width=".3"/>
  </g>
  <g id="CIRCLE3" data-name="CIRCLE">
    <circle cx="32.772" cy="114.963" r="2.268" fill="none" stroke="#eb008b" stroke-linecap="round" stroke-linejoin="round" stroke-width=".3"/>
  </g>
  <g id="CIRCLE4" data-name="CIRCLE">
    <circle cx="132.401" cy="114.963" r="2.268" fill="none" stroke="#eb008b" stroke-linecap="round" stroke-linejoin="round" stroke-width=".3"/>
  </g>
  <g id="CIRCLE5" data-name="CIRCLE">
    <circle cx="48.34" cy="133.876" r="2.551" fill="none" stroke="#eb008b" stroke-linecap="round" stroke-linejoin="round" stroke-width=".3"/>
  </g>
  <g id="CIRCLE6" data-name="CIRCLE">
    <circle cx="116.833" cy="133.876" r="2.551" fill="none" stroke="#eb008b" stroke-linecap="round" stroke-linejoin="round" stroke-width=".3"/>
  </g>
  <g id="CIRCLE7" data-name="CIRCLE">
    <circle cx="82.588" cy="81.741" r="77.953" fill="none" stroke="#be1e2d" stroke-linecap="round" stroke-linejoin="round" stroke-width=".3"/>
  </g>
</svg>