M48
; DRILL file {KiCad 8.0.5} date 2025-07-02T22:11:08-0400
; FORMAT={-:-/ absolute / inch / decimal}
; #@! TF.CreationDate,2025-07-02T22:11:08-04:00
; #@! TF.GenerationSoftware,Kicad,Pcbnew,8.0.5
; #@! TF.FileFunction,Plated,1,2,PTH
FMAT,2
INCH
; #@! TA.AperFunction,Plated,PTH,ViaDrill
T1C0.0118
; #@! TA.AperFunction,Plated,PTH,ComponentDrill
T2C0.0276
; #@! TA.AperFunction,Plated,PTH,ComponentDrill
T3C0.0591
%
G90
G05
T1
X4.9877Y-4.3518
X4.9883Y-4.0651
X5.0141Y-3.9542
X5.0656Y-4.2119
X5.0889Y-4.6751
X5.1684Y-4.167
X5.1869Y-3.6273
X5.3327Y-4.7563
X5.3409Y-3.7146
X5.3512Y-4.9746
X5.4411Y-4.8375
X5.4709Y-3.3919
X5.6816Y-5.1357
X5.729Y-3.4627
X5.7855Y-3.4725
X5.8223Y-3.2926
X5.8388Y-5.0068
X5.9804Y-3.4574
X6.0163Y-3.3897
X6.0463Y-3.2961
X6.0486Y-5.158
X6.0518Y-3.4481
X6.0829Y-3.3213
X6.1908Y-3.3087
X6.2284Y-3.3803
X6.3962Y-5.0382
X6.4758Y-4.7776
X6.5156Y-3.4878
X6.6561Y-4.821
X6.6729Y-4.4745
X6.7526Y-3.7719
X6.7778Y-4.2371
X6.8325Y-4.464
X6.8549Y-4.0971
T2
X5.1266Y-4.0497
X5.1644Y-3.9575
X5.2038Y-3.8658
T3
X5.4668Y-3.5449
X6.3967Y-3.5438
M30
