%TF.GenerationSoftware,KiCad,Pcbnew,8.0.5*%
%TF.CreationDate,2025-07-02T22:11:17-04:00*%
%TF.ProjectId,tomorrowland_pendant,746f6d6f-7272-46f7-976c-616e645f7065,rev?*%
%TF.SameCoordinates,Original*%
%TF.FileFunction,Copper,L2,Bot*%
%TF.FilePolarity,Positive*%
%FSLAX46Y46*%
G04 Gerber Fmt 4.6, Leading zero omitted, Abs format (unit mm)*
G04 Created by KiCad (PCBNEW 8.0.5) date 2025-07-02 22:11:17*
%MOMM*%
%LPD*%
G01*
G04 APERTURE LIST*
G04 Aperture macros list*
%AMRoundRect*
0 Rectangle with rounded corners*
0 $1 Rounding radius*
0 $2 $3 $4 $5 $6 $7 $8 $9 X,Y pos of 4 corners*
0 Add a 4 corners polygon primitive as box body*
4,1,4,$2,$3,$4,$5,$6,$7,$8,$9,$2,$3,0*
0 Add four circle primitives for the rounded corners*
1,1,$1+$1,$2,$3*
1,1,$1+$1,$4,$5*
1,1,$1+$1,$6,$7*
1,1,$1+$1,$8,$9*
0 Add four rect primitives between the rounded corners*
20,1,$1+$1,$2,$3,$4,$5,0*
20,1,$1+$1,$4,$5,$6,$7,0*
20,1,$1+$1,$6,$7,$8,$9,0*
20,1,$1+$1,$8,$9,$2,$3,0*%
%AMRotRect*
0 Rectangle, with rotation*
0 The origin of the aperture is its center*
0 $1 length*
0 $2 width*
0 $3 Rotation angle, in degrees counterclockwise*
0 Add horizontal line*
21,1,$1,$2,0,0,$3*%
%AMFreePoly0*
4,1,14,0.385355,0.085355,0.400000,0.050000,0.400000,0.000711,0.385355,-0.034644,0.334644,-0.085355,0.299289,-0.100000,-0.350000,-0.100000,-0.385355,-0.085355,-0.400000,-0.050000,-0.400000,0.050000,-0.385355,0.085355,-0.350000,0.100000,0.350000,0.100000,0.385355,0.085355,0.385355,0.085355,$1*%
%AMFreePoly1*
4,1,14,0.334644,0.085355,0.385355,0.034644,0.400000,-0.000711,0.400000,-0.050000,0.385355,-0.085355,0.350000,-0.100000,-0.350000,-0.100000,-0.385355,-0.085355,-0.400000,-0.050000,-0.400000,0.050000,-0.385355,0.085355,-0.350000,0.100000,0.299289,0.100000,0.334644,0.085355,0.334644,0.085355,$1*%
%AMFreePoly2*
4,1,14,0.085355,0.385355,0.100000,0.350000,0.100000,-0.350000,0.085355,-0.385355,0.050000,-0.400000,0.000711,-0.400000,-0.034644,-0.385355,-0.085355,-0.334644,-0.100000,-0.299289,-0.100000,0.350000,-0.085355,0.385355,-0.050000,0.400000,0.050000,0.400000,0.085355,0.385355,0.085355,0.385355,$1*%
%AMFreePoly3*
4,1,14,0.085355,0.385355,0.100000,0.350000,0.100000,-0.299289,0.085355,-0.334644,0.034644,-0.385355,-0.000711,-0.400000,-0.050000,-0.400000,-0.085355,-0.385355,-0.100000,-0.350000,-0.100000,0.350000,-0.085355,0.385355,-0.050000,0.400000,0.050000,0.400000,0.085355,0.385355,0.085355,0.385355,$1*%
%AMFreePoly4*
4,1,14,0.385355,0.085355,0.400000,0.050000,0.400000,-0.050000,0.385355,-0.085355,0.350000,-0.100000,-0.350000,-0.100000,-0.385355,-0.085355,-0.400000,-0.050000,-0.400000,-0.000711,-0.385355,0.034644,-0.334644,0.085355,-0.299289,0.100000,0.350000,0.100000,0.385355,0.085355,0.385355,0.085355,$1*%
%AMFreePoly5*
4,1,14,0.385355,0.085355,0.400000,0.050000,0.400000,-0.050000,0.385355,-0.085355,0.350000,-0.100000,-0.299289,-0.100000,-0.334644,-0.085355,-0.385355,-0.034644,-0.400000,0.000711,-0.400000,0.050000,-0.385355,0.085355,-0.350000,0.100000,0.350000,0.100000,0.385355,0.085355,0.385355,0.085355,$1*%
%AMFreePoly6*
4,1,14,0.034644,0.385355,0.085355,0.334644,0.100000,0.299289,0.100000,-0.350000,0.085355,-0.385355,0.050000,-0.400000,-0.050000,-0.400000,-0.085355,-0.385355,-0.100000,-0.350000,-0.100000,0.350000,-0.085355,0.385355,-0.050000,0.400000,-0.000711,0.400000,0.034644,0.385355,0.034644,0.385355,$1*%
%AMFreePoly7*
4,1,14,0.085355,0.385355,0.100000,0.350000,0.100000,-0.350000,0.085355,-0.385355,0.050000,-0.400000,-0.050000,-0.400000,-0.085355,-0.385355,-0.100000,-0.350000,-0.100000,0.299289,-0.085355,0.334644,-0.034644,0.385355,0.000711,0.400000,0.050000,0.400000,0.085355,0.385355,0.085355,0.385355,$1*%
G04 Aperture macros list end*
%TA.AperFunction,Conductor*%
%ADD10C,0.150000*%
%TD*%
%TA.AperFunction,ComponentPad*%
%ADD11C,2.500000*%
%TD*%
%TA.AperFunction,ComponentPad*%
%ADD12RotRect,2.500000X2.500000X32.000000*%
%TD*%
%TA.AperFunction,SMDPad,CuDef*%
%ADD13FreePoly0,225.000000*%
%TD*%
%TA.AperFunction,SMDPad,CuDef*%
%ADD14RoundRect,0.050000X0.212132X0.282843X-0.282843X-0.212132X-0.212132X-0.282843X0.282843X0.212132X0*%
%TD*%
%TA.AperFunction,SMDPad,CuDef*%
%ADD15FreePoly1,225.000000*%
%TD*%
%TA.AperFunction,SMDPad,CuDef*%
%ADD16FreePoly2,225.000000*%
%TD*%
%TA.AperFunction,SMDPad,CuDef*%
%ADD17RoundRect,0.050000X-0.212132X0.282843X-0.282843X0.212132X0.212132X-0.282843X0.282843X-0.212132X0*%
%TD*%
%TA.AperFunction,SMDPad,CuDef*%
%ADD18FreePoly3,225.000000*%
%TD*%
%TA.AperFunction,SMDPad,CuDef*%
%ADD19FreePoly4,225.000000*%
%TD*%
%TA.AperFunction,SMDPad,CuDef*%
%ADD20FreePoly5,225.000000*%
%TD*%
%TA.AperFunction,SMDPad,CuDef*%
%ADD21FreePoly6,225.000000*%
%TD*%
%TA.AperFunction,SMDPad,CuDef*%
%ADD22FreePoly7,225.000000*%
%TD*%
%TA.AperFunction,HeatsinkPad*%
%ADD23RotRect,1.700000X1.700000X225.000000*%
%TD*%
%TA.AperFunction,SMDPad,CuDef*%
%ADD24RotRect,1.000000X0.750000X33.000000*%
%TD*%
%TA.AperFunction,SMDPad,CuDef*%
%ADD25R,0.800000X0.750000*%
%TD*%
%TA.AperFunction,SMDPad,CuDef*%
%ADD26R,0.800000X0.600000*%
%TD*%
%TA.AperFunction,SMDPad,CuDef*%
%ADD27R,0.800000X0.400000*%
%TD*%
%TA.AperFunction,SMDPad,CuDef*%
%ADD28R,0.800000X0.800000*%
%TD*%
%TA.AperFunction,ComponentPad*%
%ADD29C,1.500000*%
%TD*%
%TA.AperFunction,SMDPad,CuDef*%
%ADD30RoundRect,0.140000X-0.219203X-0.021213X-0.021213X-0.219203X0.219203X0.021213X0.021213X0.219203X0*%
%TD*%
%TA.AperFunction,SMDPad,CuDef*%
%ADD31RotRect,1.000000X0.750000X327.000000*%
%TD*%
%TA.AperFunction,ViaPad*%
%ADD32C,0.600000*%
%TD*%
%TA.AperFunction,Conductor*%
%ADD33C,0.200000*%
%TD*%
G04 APERTURE END LIST*
D10*
%TO.N,Net-(LED19-DOUT)*%
X169463212Y-109337027D02*
G75*
G02*
X131266354Y-108251566I-19056862J2005457D01*
G01*
%TO.N,Net-(LED16-DOUT)*%
X153366346Y-85631567D02*
G75*
G02*
X157472806Y-86609413I-3000046J-21710133D01*
G01*
%TO.N,UPDI*%
X133675538Y-98181123D02*
G75*
G02*
X146006356Y-88781610I16730762J-9160477D01*
G01*
%TD*%
D11*
%TO.P,J2,1,Pin_1*%
%TO.N,GND*%
X162476346Y-90011566D03*
%TD*%
D12*
%TO.P,J1,1,Pin_1*%
%TO.N,vReg*%
X138856346Y-90041567D03*
%TD*%
D13*
%TO.P,U1,1,PA2*%
%TO.N,unconnected-(U1-PA2-Pad1)*%
X150856955Y-84060195D03*
D14*
%TO.P,U1,2,PA3*%
%TO.N,unconnected-(U1-PA3-Pad2)*%
X151139798Y-84343037D03*
%TO.P,U1,3,GND*%
%TO.N,GND*%
X151422641Y-84625880D03*
%TO.P,U1,4,VCC*%
%TO.N,vReg*%
X151705484Y-84908723D03*
D15*
%TO.P,U1,5,PA4*%
%TO.N,unconnected-(U1-PA4-Pad5)*%
X151988326Y-85191566D03*
D16*
%TO.P,U1,6,PA5*%
%TO.N,LEDDAT*%
X151988326Y-86110804D03*
D17*
%TO.P,U1,7,PA6*%
%TO.N,unconnected-(U1-PA6-Pad7)*%
X151705484Y-86393647D03*
%TO.P,U1,8,PA7*%
%TO.N,BTN1*%
X151422641Y-86676490D03*
%TO.P,U1,9,PB5*%
%TO.N,unconnected-(U1-PB5-Pad9)*%
X151139798Y-86959333D03*
D18*
%TO.P,U1,10,PB4*%
%TO.N,unconnected-(U1-PB4-Pad10)*%
X150856955Y-87242175D03*
D19*
%TO.P,U1,11,PB3*%
%TO.N,unconnected-(U1-PB3-Pad11)*%
X149937717Y-87242175D03*
D14*
%TO.P,U1,12,PB2*%
%TO.N,unconnected-(U1-PB2-Pad12)*%
X149654874Y-86959333D03*
%TO.P,U1,13,PB1*%
%TO.N,BTN2*%
X149372031Y-86676490D03*
%TO.P,U1,14,PB0*%
%TO.N,unconnected-(U1-PB0-Pad14)*%
X149089188Y-86393647D03*
D20*
%TO.P,U1,15,PC0*%
%TO.N,unconnected-(U1-PC0-Pad15)*%
X148806346Y-86110804D03*
D21*
%TO.P,U1,16,PC1*%
%TO.N,unconnected-(U1-PC1-Pad16)*%
X148806346Y-85191566D03*
D17*
%TO.P,U1,17,PC2*%
%TO.N,unconnected-(U1-PC2-Pad17)*%
X149089188Y-84908723D03*
%TO.P,U1,18,PC3*%
%TO.N,unconnected-(U1-PC3-Pad18)*%
X149372031Y-84625880D03*
%TO.P,U1,19,~{RESET}/PA0*%
%TO.N,UPDI*%
X149654874Y-84343037D03*
D22*
%TO.P,U1,20,PA1*%
%TO.N,unconnected-(U1-PA1-Pad20)*%
X149937717Y-84060195D03*
D23*
%TO.P,U1,21,GND*%
%TO.N,GND*%
X150397336Y-85651185D03*
%TD*%
D24*
%TO.P,SW1,A*%
%TO.N,GND*%
X160998743Y-128936580D03*
%TO.P,SW1,B*%
X166030766Y-125668746D03*
%TO.P,SW1,C*%
%TO.N,BTN1*%
X158956346Y-125791566D03*
%TO.P,SW1,D*%
X163988369Y-122523732D03*
%TD*%
D25*
%TO.P,LED19,1,DIN*%
%TO.N,Net-(LED18-DOUT)*%
X129606346Y-105841566D03*
D26*
%TO.P,LED19,2,VDD*%
%TO.N,vReg*%
X129606346Y-106966566D03*
D27*
%TO.P,LED19,3,DOUT*%
%TO.N,Net-(LED19-DOUT)*%
X129606346Y-107846566D03*
D28*
%TO.P,LED19,4,GND*%
%TO.N,GND*%
X129606346Y-108826566D03*
%TD*%
D29*
%TO.P,TP3,1,1*%
%TO.N,GND*%
X130216346Y-102861566D03*
%TD*%
%TO.P,TP2,1,1*%
%TO.N,UPDI*%
X132176346Y-98191566D03*
%TD*%
D25*
%TO.P,LED20,1,DIN*%
%TO.N,Net-(LED19-DOUT)*%
X171206346Y-108755566D03*
D26*
%TO.P,LED20,2,VDD*%
%TO.N,vReg*%
X171206346Y-107630566D03*
D27*
%TO.P,LED20,3,DOUT*%
%TO.N,unconnected-(LED20-DOUT-Pad3)*%
X171206346Y-106750566D03*
D28*
%TO.P,LED20,4,GND*%
%TO.N,GND*%
X171206346Y-105770566D03*
%TD*%
D30*
%TO.P,C17,1*%
%TO.N,GND*%
X152307524Y-83642744D03*
%TO.P,C17,2*%
%TO.N,vReg*%
X152986346Y-84321566D03*
%TD*%
D29*
%TO.P,TP1,1,1*%
%TO.N,vReg*%
X131176346Y-100521566D03*
%TD*%
D31*
%TO.P,SW2,A*%
%TO.N,GND*%
X134969136Y-125730158D03*
%TO.P,SW2,B*%
X140001160Y-128997990D03*
%TO.P,SW2,C*%
%TO.N,BTN2*%
X137011532Y-122585142D03*
%TO.P,SW2,D*%
X142043556Y-125852974D03*
%TD*%
D32*
%TO.N,GND*%
X169491681Y-113651566D03*
X162463282Y-127970575D03*
X126686461Y-110534733D03*
X127358623Y-100437406D03*
X153634733Y-131013539D03*
X147886346Y-83631566D03*
X148306346Y-127171566D03*
X165497360Y-88591089D03*
X153716346Y-87581566D03*
X135919297Y-126355306D03*
X157246346Y-84041566D03*
X144313725Y-130446332D03*
X173546332Y-113386275D03*
X131746137Y-92132874D03*
X138961506Y-86153779D03*
X171515888Y-95807288D03*
X129258495Y-118746923D03*
X126702089Y-103254486D03*
X169064126Y-122454122D03*
X135658857Y-94349913D03*
X135450829Y-120809811D03*
X145516346Y-87951566D03*
X174113539Y-104065267D03*
%TO.N,vReg*%
X172156346Y-107621566D03*
X153576346Y-83721566D03*
X128666346Y-106981566D03*
%TO.N,BTN1*%
X164486346Y-121351566D03*
X151903309Y-87818112D03*
%TO.N,BTN2*%
X146951346Y-88201566D03*
X138202860Y-122873317D03*
%TO.N,LEDDAT*%
X154506346Y-84361566D03*
%TO.N,Net-(LED16-DOUT)*%
X158202075Y-85858355D03*
X152813542Y-86098762D03*
%TO.N,Net-(LED18-DOUT)*%
X131276346Y-105841566D03*
%TD*%
D10*
%TO.N,Net-(LED16-DOUT)*%
X158202075Y-85880142D02*
X158202075Y-85858355D01*
X157472807Y-86609410D02*
X158202075Y-85880142D01*
%TO.N,vReg*%
X152292641Y-84321566D02*
X152986346Y-84321566D01*
X151705484Y-84908723D02*
X152292641Y-84321566D01*
%TO.N,Net-(LED16-DOUT)*%
X152899151Y-86098762D02*
X153366346Y-85631567D01*
X152813542Y-86098762D02*
X152899151Y-86098762D01*
%TO.N,BTN1*%
X151610416Y-86864265D02*
G75*
G02*
X151903326Y-87571372I-707116J-707135D01*
G01*
%TO.N,BTN2*%
X147432741Y-88201566D02*
G75*
G03*
X148139820Y-87908645I-41J999966D01*
G01*
X137914686Y-122585143D02*
X137011532Y-122585143D01*
X138202860Y-122873317D02*
X137914686Y-122585143D01*
%TO.N,GND*%
X151422641Y-84625880D02*
X152307524Y-83740997D01*
X152307524Y-83740997D02*
X152307524Y-83642744D01*
%TO.N,vReg*%
X152986346Y-84311566D02*
X153576346Y-83721566D01*
X131176346Y-100521566D02*
X131079840Y-100425060D01*
D33*
X171206346Y-107630566D02*
X172147346Y-107630566D01*
D10*
X152986346Y-84321566D02*
X152986346Y-84311566D01*
D33*
X128666346Y-106981566D02*
X129591346Y-106981566D01*
X129591346Y-106981566D02*
X129606346Y-106966566D01*
D10*
X152706855Y-84321566D02*
X152986346Y-84321566D01*
D33*
X172147346Y-107630566D02*
X172156346Y-107621566D01*
D10*
%TO.N,unconnected-(U1-PA6-Pad7)*%
X151705484Y-86393647D02*
X151710739Y-86393647D01*
%TO.N,BTN1*%
X151903309Y-87818112D02*
X151903309Y-87571372D01*
X164486346Y-121351566D02*
X164486346Y-122025755D01*
X151610416Y-86864265D02*
X151422641Y-86676490D01*
X164486346Y-122025755D02*
X163988369Y-122523732D01*
%TO.N,BTN2*%
X146951346Y-88201566D02*
X147432741Y-88201566D01*
X148139848Y-87908673D02*
X149372031Y-86676490D01*
%TO.N,LEDDAT*%
X154506346Y-84361566D02*
X154151778Y-84361566D01*
X153444671Y-84654459D02*
X151988326Y-86110804D01*
%TO.N,Net-(LED18-DOUT)*%
X131276346Y-105841566D02*
X129606346Y-105841566D01*
%TO.N,Net-(LED19-DOUT)*%
X130861346Y-107846566D02*
X129606346Y-107846566D01*
X169463212Y-109337027D02*
X170044673Y-108755566D01*
X170044673Y-108755566D02*
X171206346Y-108755566D01*
X131266346Y-108251566D02*
X130861346Y-107846566D01*
%TO.N,UPDI*%
X133676347Y-98181566D02*
X133666347Y-98191566D01*
X133666347Y-98191566D02*
X132176346Y-98191566D01*
D33*
%TO.N,Net-(LED16-DOUT)*%
X158202075Y-85858355D02*
X158363135Y-85858355D01*
D10*
%TO.N,UPDI*%
X146276346Y-88511566D02*
X146006346Y-88781566D01*
X149012116Y-84017058D02*
X146862132Y-86167042D01*
X146862132Y-86167042D02*
G75*
G03*
X146276301Y-87581255I1414168J-1414258D01*
G01*
X149328895Y-84017058D02*
X149012116Y-84017058D01*
X146276346Y-87581255D02*
X146276346Y-88511566D01*
X149654874Y-84343037D02*
X149328895Y-84017058D01*
%TO.N,LEDDAT*%
X153444671Y-84654459D02*
G75*
G02*
X154151778Y-84361560I707129J-707141D01*
G01*
%TD*%
%TA.AperFunction,Conductor*%
%TO.N,GND*%
G36*
X150452532Y-84699534D02*
G01*
X150462783Y-84705933D01*
X150488967Y-84734490D01*
X150491079Y-84732956D01*
X150551470Y-84816076D01*
X150666759Y-84931364D01*
X150675084Y-84937413D01*
X150706088Y-84974549D01*
X150763791Y-85094368D01*
X150783277Y-85117887D01*
X150786244Y-85120854D01*
X150786245Y-85120854D01*
X150851725Y-85055375D01*
X150906242Y-85027598D01*
X150921728Y-85026379D01*
X150923142Y-85026379D01*
X150981333Y-85045286D01*
X151017297Y-85094786D01*
X151022142Y-85125379D01*
X151022142Y-85126792D01*
X151003235Y-85184983D01*
X150993145Y-85196796D01*
X150927666Y-85262274D01*
X150930651Y-85265259D01*
X150954149Y-85284729D01*
X151073968Y-85342430D01*
X151111105Y-85373433D01*
X151117158Y-85381764D01*
X151117159Y-85381765D01*
X151117160Y-85381766D01*
X151117162Y-85381769D01*
X151159219Y-85423825D01*
X151232443Y-85497048D01*
X151309262Y-85552862D01*
X151309263Y-85552862D01*
X151313692Y-85556080D01*
X151345744Y-85595466D01*
X151347214Y-85598726D01*
X151349640Y-85602944D01*
X151347940Y-85603921D01*
X151364002Y-85654774D01*
X151348985Y-85706383D01*
X151342587Y-85716632D01*
X151314033Y-85742820D01*
X151315565Y-85744928D01*
X151232444Y-85805319D01*
X151117159Y-85920605D01*
X151056766Y-86003728D01*
X151054211Y-86001872D01*
X151030866Y-86025217D01*
X151032722Y-86027771D01*
X150949601Y-86088162D01*
X150834316Y-86203448D01*
X150834315Y-86203450D01*
X150796440Y-86255580D01*
X150773923Y-86286571D01*
X150771368Y-86284715D01*
X150748023Y-86308060D01*
X150749879Y-86310614D01*
X150666758Y-86371005D01*
X150551473Y-86486291D01*
X150492440Y-86567541D01*
X150453058Y-86599591D01*
X150449797Y-86601061D01*
X150445577Y-86603489D01*
X150444602Y-86601795D01*
X150393718Y-86617850D01*
X150342135Y-86602832D01*
X150331885Y-86596434D01*
X150305706Y-86567880D01*
X150303594Y-86569415D01*
X150243201Y-86486293D01*
X150127915Y-86371008D01*
X150092068Y-86344963D01*
X150051096Y-86315194D01*
X150051094Y-86315193D01*
X150044793Y-86310615D01*
X150046655Y-86308052D01*
X150023315Y-86284706D01*
X150020750Y-86286571D01*
X149960358Y-86203450D01*
X149845072Y-86088165D01*
X149829894Y-86077137D01*
X149768253Y-86032351D01*
X149768251Y-86032350D01*
X149761950Y-86027772D01*
X149763812Y-86025209D01*
X149740472Y-86001863D01*
X149737907Y-86003728D01*
X149677515Y-85920607D01*
X149562229Y-85805322D01*
X149562225Y-85805319D01*
X149485410Y-85749508D01*
X149485409Y-85749507D01*
X149480979Y-85746289D01*
X149448924Y-85706897D01*
X149447454Y-85703638D01*
X149445032Y-85699426D01*
X149446732Y-85698447D01*
X149430669Y-85647607D01*
X149445685Y-85595989D01*
X149452085Y-85585735D01*
X149480651Y-85559569D01*
X149479106Y-85557443D01*
X149532551Y-85518611D01*
X149562229Y-85497049D01*
X149677513Y-85381764D01*
X149733327Y-85304945D01*
X149733327Y-85304944D01*
X149737907Y-85298641D01*
X149740478Y-85300509D01*
X149763811Y-85277161D01*
X149761950Y-85274599D01*
X149807245Y-85241689D01*
X149845072Y-85214206D01*
X149960356Y-85098921D01*
X150016170Y-85022102D01*
X150016170Y-85022101D01*
X150020750Y-85015798D01*
X150023321Y-85017666D01*
X150046654Y-84994318D01*
X150044793Y-84991756D01*
X150119588Y-84937413D01*
X150127915Y-84931363D01*
X150243199Y-84816078D01*
X150299013Y-84739259D01*
X150299013Y-84739257D01*
X150302232Y-84734828D01*
X150341632Y-84702769D01*
X150344879Y-84701305D01*
X150344884Y-84701301D01*
X150349093Y-84698882D01*
X150350072Y-84700585D01*
X150400897Y-84684518D01*
X150452532Y-84699534D01*
G37*
%TD.AperFunction*%
%TA.AperFunction,Conductor*%
G36*
X151402944Y-82562138D02*
G01*
X151406918Y-82562298D01*
X152399875Y-82622361D01*
X152403827Y-82622680D01*
X153393648Y-82722685D01*
X153397552Y-82723159D01*
X154382531Y-82862938D01*
X154386411Y-82863569D01*
X155364939Y-83042891D01*
X155368781Y-83043675D01*
X156339319Y-83262258D01*
X156343165Y-83263205D01*
X157304119Y-83520693D01*
X157307887Y-83521785D01*
X158257650Y-83817743D01*
X158261404Y-83818996D01*
X159198528Y-84152974D01*
X159202189Y-84154363D01*
X160106667Y-84518384D01*
X160125076Y-84525793D01*
X160128744Y-84527356D01*
X161035885Y-84935627D01*
X161039487Y-84937336D01*
X161153583Y-84994318D01*
X161912696Y-85373434D01*
X161929470Y-85381811D01*
X161932999Y-85383663D01*
X162794814Y-85858355D01*
X162804357Y-85863611D01*
X162807804Y-85865601D01*
X163659140Y-86380251D01*
X163662477Y-86382362D01*
X164492417Y-86930887D01*
X164495660Y-86933124D01*
X165101238Y-87369387D01*
X165302838Y-87514621D01*
X165306025Y-87517016D01*
X165425107Y-87610311D01*
X166089115Y-88130528D01*
X166092181Y-88133031D01*
X166834111Y-88764120D01*
X166849929Y-88777575D01*
X166852909Y-88780215D01*
X167467214Y-89346925D01*
X167584092Y-89454748D01*
X167586968Y-89457510D01*
X168290401Y-90160943D01*
X168293163Y-90163819D01*
X168967693Y-90894998D01*
X168970336Y-90897982D01*
X169614871Y-91655719D01*
X169617393Y-91658808D01*
X170230895Y-92441886D01*
X170233290Y-92445073D01*
X170814773Y-93252232D01*
X170817031Y-93255505D01*
X171365539Y-94085418D01*
X171367668Y-94088785D01*
X171465774Y-94251072D01*
X171882306Y-94940101D01*
X171884300Y-94943554D01*
X172364247Y-95814911D01*
X172366100Y-95818441D01*
X172810575Y-96708424D01*
X172812284Y-96712026D01*
X173220555Y-97619167D01*
X173222118Y-97622835D01*
X173369279Y-97988483D01*
X173532746Y-98394648D01*
X173593535Y-98545688D01*
X173594946Y-98549410D01*
X173625797Y-98635973D01*
X173928910Y-99486493D01*
X173930172Y-99490275D01*
X174226117Y-100439993D01*
X174227227Y-100443823D01*
X174484702Y-101404733D01*
X174485656Y-101408604D01*
X174704229Y-102379098D01*
X174705026Y-102383005D01*
X174884337Y-103361472D01*
X174884977Y-103365407D01*
X175024748Y-104350332D01*
X175025229Y-104354290D01*
X175125230Y-105344072D01*
X175125550Y-105348047D01*
X175185612Y-106340988D01*
X175185773Y-106344971D01*
X175205805Y-107339572D01*
X175205805Y-107343560D01*
X175185773Y-108338160D01*
X175185612Y-108342143D01*
X175125550Y-109335084D01*
X175125230Y-109339059D01*
X175025229Y-110328841D01*
X175024748Y-110332799D01*
X174884977Y-111317724D01*
X174884337Y-111321659D01*
X174705026Y-112300126D01*
X174704229Y-112304033D01*
X174485656Y-113274527D01*
X174484702Y-113278398D01*
X174227227Y-114239308D01*
X174226117Y-114243138D01*
X173930172Y-115192856D01*
X173928910Y-115196638D01*
X173594949Y-116133715D01*
X173593535Y-116137443D01*
X173222118Y-117060296D01*
X173220555Y-117063964D01*
X172812284Y-117971105D01*
X172810575Y-117974707D01*
X172366100Y-118864690D01*
X172364247Y-118868220D01*
X171884300Y-119739577D01*
X171882306Y-119743030D01*
X171367670Y-120594343D01*
X171365539Y-120597713D01*
X170817038Y-121427617D01*
X170814773Y-121430899D01*
X170233290Y-122238058D01*
X170230895Y-122241245D01*
X169617393Y-123024323D01*
X169614871Y-123027412D01*
X168970336Y-123785149D01*
X168967693Y-123788133D01*
X168293163Y-124519312D01*
X168290401Y-124522188D01*
X167586968Y-125225621D01*
X167584092Y-125228383D01*
X167184555Y-125596964D01*
X167128964Y-125622523D01*
X167068966Y-125610526D01*
X167027479Y-125565555D01*
X167026986Y-125564465D01*
X167006955Y-125519474D01*
X167006954Y-125519472D01*
X166894497Y-125346305D01*
X166894496Y-125346305D01*
X166001363Y-125926313D01*
X166001359Y-125926314D01*
X165384890Y-126326653D01*
X165384890Y-126326654D01*
X165497344Y-126499818D01*
X165497348Y-126499823D01*
X165560804Y-126570301D01*
X165670536Y-126633654D01*
X165711106Y-126642277D01*
X165764095Y-126672869D01*
X165788982Y-126728765D01*
X165776261Y-126788613D01*
X165751579Y-126817045D01*
X165306025Y-127166115D01*
X165302838Y-127168510D01*
X164495679Y-127749993D01*
X164492397Y-127752258D01*
X163662493Y-128300759D01*
X163659123Y-128302890D01*
X162807810Y-128817526D01*
X162804358Y-128819520D01*
X162156682Y-129176263D01*
X162096589Y-129187776D01*
X162041206Y-129161769D01*
X162011687Y-129108176D01*
X162012081Y-129068963D01*
X162026748Y-128999957D01*
X162013504Y-128873942D01*
X161974932Y-128787308D01*
X161974931Y-128787306D01*
X161862474Y-128614139D01*
X161862473Y-128614139D01*
X160969340Y-129194147D01*
X160969336Y-129194148D01*
X160352867Y-129594487D01*
X160352867Y-129594488D01*
X160465321Y-129767652D01*
X160465325Y-129767657D01*
X160526156Y-129835220D01*
X160551041Y-129891116D01*
X160538318Y-129950964D01*
X160493214Y-129991740D01*
X160128744Y-130155775D01*
X160125076Y-130157338D01*
X159202223Y-130528755D01*
X159198495Y-130530169D01*
X158261418Y-130864130D01*
X158257636Y-130865392D01*
X157307918Y-131161337D01*
X157304088Y-131162447D01*
X156343178Y-131419922D01*
X156339307Y-131420876D01*
X155368813Y-131639449D01*
X155364906Y-131640246D01*
X154386439Y-131819557D01*
X154382504Y-131820197D01*
X153397579Y-131959968D01*
X153393621Y-131960449D01*
X152403839Y-132060450D01*
X152399864Y-132060770D01*
X151406923Y-132120832D01*
X151402940Y-132120993D01*
X150408340Y-132141025D01*
X150404352Y-132141025D01*
X149409751Y-132120993D01*
X149405768Y-132120832D01*
X148412827Y-132060770D01*
X148408852Y-132060450D01*
X147419070Y-131960449D01*
X147415112Y-131959968D01*
X146430187Y-131820197D01*
X146426252Y-131819557D01*
X145447785Y-131640246D01*
X145443878Y-131639449D01*
X144473384Y-131420876D01*
X144469513Y-131419922D01*
X143508603Y-131162447D01*
X143504773Y-131161337D01*
X142555055Y-130865392D01*
X142551273Y-130864130D01*
X141614196Y-130530169D01*
X141610468Y-130528755D01*
X140687615Y-130157338D01*
X140683947Y-130155775D01*
X140490425Y-130068678D01*
X140445121Y-130027554D01*
X140432641Y-129967655D01*
X140457752Y-129911860D01*
X140468757Y-129901460D01*
X140471122Y-129899544D01*
X140534573Y-129829073D01*
X140534577Y-129829068D01*
X140647035Y-129655897D01*
X140010571Y-129242573D01*
X140010568Y-129242572D01*
X139543389Y-128939182D01*
X140277821Y-128939182D01*
X140277821Y-128939183D01*
X140864890Y-129320429D01*
X140864891Y-129320429D01*
X140977346Y-129147265D01*
X141015921Y-129060627D01*
X141029165Y-128934611D01*
X141016112Y-128873201D01*
X159970737Y-128873201D01*
X159983981Y-128999217D01*
X160022553Y-129085851D01*
X160022554Y-129085853D01*
X160135010Y-129259019D01*
X160135011Y-129259019D01*
X160722080Y-128877773D01*
X160722080Y-128877772D01*
X160408914Y-128395538D01*
X160408913Y-128395538D01*
X160130916Y-128576072D01*
X160130911Y-128576076D01*
X160060433Y-128639532D01*
X159997080Y-128749264D01*
X159970737Y-128873201D01*
X141016112Y-128873201D01*
X141002822Y-128810674D01*
X140939468Y-128700941D01*
X140868997Y-128637490D01*
X140868983Y-128637479D01*
X140590989Y-128456948D01*
X140590988Y-128456948D01*
X140277821Y-128939182D01*
X139543389Y-128939182D01*
X139137429Y-128675548D01*
X139137427Y-128675548D01*
X139024971Y-128848719D01*
X138986398Y-128935352D01*
X138973154Y-129061368D01*
X138997862Y-129177611D01*
X138991466Y-129238461D01*
X138950525Y-129283931D01*
X138890676Y-129296652D01*
X138853262Y-129284910D01*
X138008334Y-128819520D01*
X138004881Y-128817526D01*
X137215088Y-128340080D01*
X139355284Y-128340080D01*
X139355284Y-128340081D01*
X139942352Y-128721327D01*
X139942353Y-128721327D01*
X140255520Y-128239093D01*
X140255519Y-128239091D01*
X140160956Y-128177681D01*
X160744382Y-128177681D01*
X160744382Y-128177682D01*
X161057548Y-128659917D01*
X161057549Y-128659917D01*
X161644617Y-128278671D01*
X161644617Y-128278670D01*
X161532164Y-128105507D01*
X161532160Y-128105502D01*
X161468704Y-128035024D01*
X161358972Y-127971671D01*
X161235035Y-127945328D01*
X161109019Y-127958572D01*
X161022385Y-127997144D01*
X161022377Y-127997149D01*
X160744382Y-128177681D01*
X140160956Y-128177681D01*
X139977521Y-128058557D01*
X139890883Y-128019982D01*
X139764867Y-128006738D01*
X139640930Y-128033081D01*
X139531197Y-128096435D01*
X139467746Y-128166906D01*
X139467735Y-128166920D01*
X139355284Y-128340080D01*
X137215088Y-128340080D01*
X137153568Y-128302890D01*
X137150198Y-128300759D01*
X137116778Y-128278671D01*
X136320285Y-127752251D01*
X136317012Y-127749993D01*
X135509853Y-127168510D01*
X135506666Y-127166115D01*
X135162722Y-126896652D01*
X135128576Y-126845881D01*
X135130793Y-126784736D01*
X135168527Y-126736572D01*
X135203194Y-126721884D01*
X135329365Y-126695065D01*
X135439098Y-126631712D01*
X135502549Y-126561241D01*
X135502553Y-126561236D01*
X135615011Y-126388065D01*
X134978547Y-125974741D01*
X134978544Y-125974740D01*
X134511365Y-125671350D01*
X135245797Y-125671350D01*
X135245797Y-125671351D01*
X135832866Y-126052597D01*
X135832867Y-126052597D01*
X135945322Y-125879433D01*
X135983897Y-125792795D01*
X135997141Y-125666779D01*
X135970798Y-125542842D01*
X135907444Y-125433109D01*
X135836973Y-125369658D01*
X135836959Y-125369647D01*
X135558965Y-125189116D01*
X135558964Y-125189116D01*
X135245797Y-125671350D01*
X134511365Y-125671350D01*
X134105405Y-125407716D01*
X134105403Y-125407716D01*
X133992947Y-125580887D01*
X133954374Y-125667520D01*
X133952915Y-125681408D01*
X133928027Y-125737303D01*
X133875039Y-125767895D01*
X133814189Y-125761498D01*
X133787329Y-125743824D01*
X133228599Y-125228383D01*
X133225723Y-125225621D01*
X133072350Y-125072248D01*
X134323260Y-125072248D01*
X134323260Y-125072249D01*
X134910328Y-125453495D01*
X134910329Y-125453495D01*
X135223496Y-124971261D01*
X135223495Y-124971259D01*
X134945497Y-124790725D01*
X134858859Y-124752150D01*
X134732843Y-124738906D01*
X134608906Y-124765249D01*
X134499173Y-124828603D01*
X134435722Y-124899074D01*
X134435711Y-124899088D01*
X134323260Y-125072248D01*
X133072350Y-125072248D01*
X132522290Y-124522188D01*
X132519528Y-124519312D01*
X132076421Y-124038992D01*
X131844995Y-123788129D01*
X131842355Y-123785149D01*
X131620064Y-123523816D01*
X131197811Y-123027401D01*
X131195298Y-123024323D01*
X131100375Y-122903163D01*
X130581796Y-122241245D01*
X130579401Y-122238058D01*
X130386100Y-121969736D01*
X129997904Y-121430880D01*
X129995667Y-121427637D01*
X129447142Y-120597697D01*
X129445021Y-120594343D01*
X129426174Y-120563167D01*
X128930381Y-119743024D01*
X128928391Y-119739577D01*
X128840740Y-119580445D01*
X128448443Y-118868219D01*
X128446591Y-118864690D01*
X128002116Y-117974707D01*
X128000407Y-117971105D01*
X127592136Y-117063964D01*
X127590573Y-117060296D01*
X127568549Y-117005573D01*
X127219143Y-116137409D01*
X127217754Y-116133748D01*
X126883776Y-115196624D01*
X126882519Y-115192856D01*
X126771588Y-114836866D01*
X126586565Y-114243107D01*
X126585473Y-114239339D01*
X126327985Y-113278385D01*
X126327035Y-113274527D01*
X126108455Y-112304001D01*
X126107671Y-112300159D01*
X125928349Y-111321631D01*
X125927718Y-111317751D01*
X125787939Y-110332772D01*
X125787465Y-110328868D01*
X125687460Y-109339047D01*
X125687141Y-109335084D01*
X125682481Y-109258051D01*
X125668479Y-109026567D01*
X128806347Y-109026567D01*
X128806347Y-109258051D01*
X128821179Y-109351707D01*
X128821182Y-109351717D01*
X128878704Y-109464609D01*
X128968302Y-109554207D01*
X129081194Y-109611729D01*
X129081198Y-109611730D01*
X129174861Y-109626565D01*
X129406344Y-109626565D01*
X129406346Y-109626564D01*
X129406346Y-109026567D01*
X129806346Y-109026567D01*
X129806346Y-109626564D01*
X129806347Y-109626565D01*
X130037829Y-109626565D01*
X130037831Y-109626564D01*
X130131487Y-109611732D01*
X130131497Y-109611729D01*
X130244389Y-109554207D01*
X130333987Y-109464609D01*
X130391509Y-109351717D01*
X130391510Y-109351713D01*
X130406346Y-109258050D01*
X130406346Y-109026567D01*
X130406345Y-109026566D01*
X129806347Y-109026566D01*
X129806346Y-109026567D01*
X129406346Y-109026567D01*
X129406345Y-109026566D01*
X128806348Y-109026566D01*
X128806347Y-109026567D01*
X125668479Y-109026567D01*
X125627078Y-108342138D01*
X125626918Y-108338160D01*
X125626676Y-108326120D01*
X125606886Y-107343552D01*
X125606886Y-107339572D01*
X125610019Y-107184045D01*
X125614097Y-106981564D01*
X128011068Y-106981564D01*
X128011068Y-106981567D01*
X128030108Y-107138382D01*
X128030109Y-107138383D01*
X128086126Y-107286089D01*
X128175861Y-107416094D01*
X128175862Y-107416095D01*
X128175863Y-107416096D01*
X128294106Y-107520849D01*
X128433981Y-107594262D01*
X128587361Y-107632066D01*
X128587364Y-107632066D01*
X128751319Y-107632066D01*
X128751319Y-107633374D01*
X128804944Y-107643863D01*
X128846620Y-107688661D01*
X128855846Y-107730394D01*
X128855846Y-108079826D01*
X128865773Y-108147959D01*
X128865773Y-108147960D01*
X128865774Y-108147962D01*
X128866598Y-108150629D01*
X128866558Y-108153346D01*
X128866882Y-108155566D01*
X128866525Y-108155617D01*
X128865711Y-108211808D01*
X128860220Y-108224799D01*
X128821181Y-108301416D01*
X128821181Y-108301418D01*
X128806346Y-108395081D01*
X128806346Y-108626565D01*
X128806347Y-108626566D01*
X130406344Y-108626566D01*
X130406345Y-108626565D01*
X130406345Y-108395082D01*
X130404994Y-108386552D01*
X130414566Y-108326120D01*
X130457831Y-108282856D01*
X130502775Y-108272066D01*
X130644090Y-108272066D01*
X130702281Y-108290973D01*
X130714094Y-108301062D01*
X130822196Y-108409164D01*
X130849973Y-108463681D01*
X130851078Y-108474412D01*
X130862332Y-108708436D01*
X130943174Y-109578606D01*
X131062734Y-110444269D01*
X131220785Y-111303785D01*
X131416997Y-112155353D01*
X131650996Y-112997350D01*
X131742786Y-113278398D01*
X131922306Y-113828068D01*
X132007160Y-114053308D01*
X132230392Y-114645867D01*
X132465637Y-115194774D01*
X132574636Y-115449104D01*
X132906716Y-116137443D01*
X132954361Y-116236201D01*
X133368798Y-117005567D01*
X133764435Y-117667519D01*
X133778059Y-117727168D01*
X133754020Y-117783433D01*
X133701501Y-117814823D01*
X133640561Y-117809348D01*
X133632344Y-117805380D01*
X133559670Y-117766051D01*
X133461159Y-117712739D01*
X133225957Y-117631994D01*
X132980681Y-117591066D01*
X132732011Y-117591066D01*
X132486734Y-117631994D01*
X132251532Y-117712739D01*
X132032836Y-117831092D01*
X132032833Y-117831094D01*
X131836605Y-117983825D01*
X131836602Y-117983827D01*
X131836602Y-117983828D01*
X131668182Y-118166781D01*
X131532173Y-118374959D01*
X131471731Y-118512754D01*
X131432283Y-118602686D01*
X131371237Y-118843746D01*
X131350703Y-119091566D01*
X131371237Y-119339385D01*
X131401364Y-119458355D01*
X131432283Y-119580447D01*
X131532173Y-119808173D01*
X131668182Y-120016351D01*
X131836602Y-120199304D01*
X132032837Y-120352040D01*
X132251536Y-120470394D01*
X132486732Y-120551137D01*
X132732011Y-120592066D01*
X132980681Y-120592066D01*
X133225960Y-120551137D01*
X133461156Y-120470394D01*
X133679855Y-120352040D01*
X133876090Y-120199304D01*
X134044510Y-120016351D01*
X134180519Y-119808173D01*
X134280409Y-119580447D01*
X134341454Y-119339387D01*
X134361989Y-119091566D01*
X134342683Y-118858577D01*
X134356721Y-118799025D01*
X134403082Y-118759096D01*
X134464058Y-118754044D01*
X134516359Y-118785797D01*
X134521460Y-118792243D01*
X134811880Y-119192300D01*
X135356291Y-119875896D01*
X135478772Y-120016351D01*
X135930653Y-120534545D01*
X136517788Y-121150125D01*
X136533815Y-121166928D01*
X136852601Y-121472623D01*
X136881515Y-121526545D01*
X136873212Y-121587164D01*
X136830864Y-121631326D01*
X136788444Y-121642982D01*
X136780774Y-121643320D01*
X136666351Y-121667641D01*
X136566031Y-121727795D01*
X136566030Y-121727795D01*
X136566030Y-121727796D01*
X136520597Y-121779531D01*
X136520596Y-121779533D01*
X136520588Y-121779542D01*
X136075890Y-122464315D01*
X136075885Y-122464324D01*
X136047106Y-122526868D01*
X136032957Y-122642985D01*
X136032957Y-122642986D01*
X136057277Y-122757408D01*
X136102428Y-122832708D01*
X136117432Y-122857730D01*
X136169167Y-122903163D01*
X136169174Y-122903167D01*
X136169178Y-122903171D01*
X137063619Y-123484029D01*
X137063628Y-123484034D01*
X137104069Y-123502642D01*
X137126174Y-123512814D01*
X137242290Y-123526964D01*
X137356711Y-123502643D01*
X137457034Y-123442488D01*
X137502467Y-123390753D01*
X137551464Y-123315303D01*
X137599011Y-123276801D01*
X137660113Y-123273598D01*
X137708590Y-123303573D01*
X137712374Y-123307844D01*
X137712376Y-123307846D01*
X137712377Y-123307847D01*
X137830620Y-123412600D01*
X137970495Y-123486013D01*
X138123875Y-123523817D01*
X138123878Y-123523817D01*
X138281842Y-123523817D01*
X138281845Y-123523817D01*
X138435225Y-123486013D01*
X138575100Y-123412600D01*
X138693343Y-123307847D01*
X138761963Y-123208433D01*
X138810578Y-123171284D01*
X138871746Y-123169805D01*
X138901808Y-123184710D01*
X139099916Y-123329340D01*
X139209643Y-123409447D01*
X139937723Y-123892736D01*
X139937728Y-123892739D01*
X140686652Y-124343091D01*
X141454913Y-124759598D01*
X141454918Y-124759600D01*
X141454921Y-124759602D01*
X141586954Y-124823737D01*
X141631035Y-124866169D01*
X141641757Y-124926408D01*
X141615023Y-124981444D01*
X141603732Y-124990433D01*
X141603958Y-124990704D01*
X141598056Y-124995625D01*
X141577327Y-125019229D01*
X141552621Y-125047363D01*
X141552620Y-125047365D01*
X141552612Y-125047374D01*
X141107914Y-125732147D01*
X141107909Y-125732156D01*
X141079130Y-125794700D01*
X141069142Y-125876673D01*
X141064981Y-125910819D01*
X141070271Y-125935707D01*
X141089301Y-126025240D01*
X141134452Y-126100540D01*
X141149456Y-126125562D01*
X141201191Y-126170995D01*
X141201198Y-126170999D01*
X141201202Y-126171003D01*
X142095643Y-126751861D01*
X142095652Y-126751866D01*
X142136093Y-126770474D01*
X142158198Y-126780646D01*
X142274314Y-126794796D01*
X142388735Y-126770475D01*
X142489058Y-126710320D01*
X142534491Y-126658585D01*
X142545082Y-126642277D01*
X142979197Y-125973800D01*
X142979202Y-125973791D01*
X143001049Y-125926313D01*
X143007982Y-125911246D01*
X143022131Y-125795129D01*
X142997811Y-125680709D01*
X142989458Y-125666779D01*
X142981432Y-125653393D01*
X142967723Y-125593763D01*
X142991681Y-125537464D01*
X143044156Y-125505999D01*
X143101488Y-125509932D01*
X143173980Y-125537464D01*
X143860263Y-125798111D01*
X144690251Y-126071650D01*
X145448852Y-126284666D01*
X145531625Y-126307909D01*
X146382663Y-126506406D01*
X146567308Y-126540871D01*
X147241733Y-126666760D01*
X148107093Y-126788646D01*
X148977027Y-126871821D01*
X149849805Y-126916121D01*
X150247025Y-126918546D01*
X150723678Y-126921457D01*
X150723679Y-126921456D01*
X150723690Y-126921457D01*
X151596944Y-126887819D01*
X151596952Y-126887818D01*
X151596960Y-126887818D01*
X152032386Y-126851546D01*
X152467828Y-126815273D01*
X153334612Y-126703964D01*
X154195570Y-126554114D01*
X155048989Y-126366020D01*
X155893171Y-126140056D01*
X156726438Y-125876673D01*
X157547130Y-125576395D01*
X157910376Y-125424798D01*
X157971355Y-125419836D01*
X158023610Y-125451666D01*
X158047175Y-125508131D01*
X158033408Y-125567072D01*
X158002091Y-125619300D01*
X157977771Y-125733721D01*
X157977771Y-125733722D01*
X157991920Y-125849839D01*
X158020699Y-125912383D01*
X158020704Y-125912392D01*
X158465402Y-126597165D01*
X158465406Y-126597170D01*
X158465411Y-126597177D01*
X158510844Y-126648912D01*
X158611165Y-126709066D01*
X158611166Y-126709066D01*
X158611167Y-126709067D01*
X158725588Y-126733388D01*
X158841704Y-126719238D01*
X158880323Y-126701466D01*
X158904249Y-126690458D01*
X158904258Y-126690453D01*
X159798699Y-126109595D01*
X159798699Y-126109594D01*
X159798711Y-126109587D01*
X159850446Y-126064154D01*
X159910601Y-125963831D01*
X159934921Y-125849411D01*
X159920772Y-125733294D01*
X159906399Y-125702059D01*
X159891992Y-125670748D01*
X159891987Y-125670739D01*
X159849534Y-125605367D01*
X165002760Y-125605367D01*
X165016004Y-125731383D01*
X165054576Y-125818017D01*
X165054577Y-125818019D01*
X165167033Y-125991185D01*
X165167034Y-125991185D01*
X165754103Y-125609939D01*
X165754103Y-125609938D01*
X165440937Y-125127704D01*
X165440936Y-125127704D01*
X165162939Y-125308238D01*
X165162934Y-125308242D01*
X165092456Y-125371698D01*
X165029103Y-125481430D01*
X165002760Y-125605367D01*
X159849534Y-125605367D01*
X159447289Y-124985966D01*
X159447285Y-124985962D01*
X159447281Y-124985955D01*
X159401848Y-124934220D01*
X159373238Y-124917065D01*
X159366952Y-124909847D01*
X165776405Y-124909847D01*
X165776405Y-124909848D01*
X166089571Y-125392083D01*
X166089572Y-125392083D01*
X166676640Y-125010837D01*
X166676640Y-125010836D01*
X166564187Y-124837673D01*
X166564183Y-124837668D01*
X166500727Y-124767190D01*
X166390995Y-124703837D01*
X166267058Y-124677494D01*
X166141042Y-124690738D01*
X166054408Y-124729310D01*
X166054400Y-124729315D01*
X165776405Y-124909847D01*
X159366952Y-124909847D01*
X159333056Y-124870925D01*
X159327668Y-124809977D01*
X159359133Y-124757503D01*
X159378030Y-124744560D01*
X159917581Y-124460518D01*
X160671948Y-124019346D01*
X160671946Y-124019346D01*
X160671955Y-124019342D01*
X161262024Y-123637960D01*
X161405893Y-123544973D01*
X162117953Y-123038343D01*
X162806713Y-122500465D01*
X162854147Y-122459890D01*
X162910655Y-122436433D01*
X162970161Y-122450671D01*
X163009933Y-122497166D01*
X163016771Y-122523147D01*
X163023943Y-122582004D01*
X163052722Y-122644549D01*
X163052727Y-122644558D01*
X163497425Y-123329331D01*
X163497429Y-123329336D01*
X163497434Y-123329343D01*
X163542867Y-123381078D01*
X163643188Y-123441232D01*
X163643189Y-123441232D01*
X163643190Y-123441233D01*
X163757611Y-123465554D01*
X163873727Y-123451404D01*
X163912346Y-123433632D01*
X163936272Y-123422624D01*
X163936281Y-123422619D01*
X164830722Y-122841761D01*
X164830722Y-122841760D01*
X164830734Y-122841753D01*
X164882469Y-122796320D01*
X164942624Y-122695997D01*
X164966944Y-122581577D01*
X164952795Y-122465460D01*
X164924013Y-122402912D01*
X164870187Y-122320028D01*
X164854352Y-122260931D01*
X164867480Y-122216611D01*
X164882849Y-122189992D01*
X164911846Y-122081773D01*
X164911846Y-121969736D01*
X164911846Y-121888221D01*
X164930753Y-121830030D01*
X164945192Y-121814123D01*
X164976829Y-121786096D01*
X165066566Y-121656089D01*
X165122583Y-121508384D01*
X165141624Y-121351566D01*
X165122583Y-121194748D01*
X165066566Y-121047043D01*
X164976829Y-120917036D01*
X164858586Y-120812283D01*
X164814440Y-120789113D01*
X164771703Y-120745329D01*
X164762863Y-120684786D01*
X164786632Y-120635486D01*
X165302094Y-120058752D01*
X165854818Y-119381848D01*
X166291608Y-118795365D01*
X166341529Y-118759989D01*
X166402711Y-118760713D01*
X166451782Y-118797259D01*
X166470000Y-118855669D01*
X166469669Y-118862674D01*
X166450703Y-119091565D01*
X166471237Y-119339385D01*
X166501364Y-119458355D01*
X166532283Y-119580447D01*
X166632173Y-119808173D01*
X166768182Y-120016351D01*
X166936602Y-120199304D01*
X167132837Y-120352040D01*
X167351536Y-120470394D01*
X167586732Y-120551137D01*
X167832011Y-120592066D01*
X168080681Y-120592066D01*
X168325960Y-120551137D01*
X168561156Y-120470394D01*
X168779855Y-120352040D01*
X168976090Y-120199304D01*
X169144510Y-120016351D01*
X169280519Y-119808173D01*
X169380409Y-119580447D01*
X169441454Y-119339387D01*
X169461989Y-119091566D01*
X169441454Y-118843745D01*
X169380409Y-118602685D01*
X169280519Y-118374959D01*
X169144510Y-118166781D01*
X168976090Y-117983828D01*
X168779855Y-117831092D01*
X168739676Y-117809348D01*
X168561159Y-117712739D01*
X168325957Y-117631994D01*
X168080681Y-117591066D01*
X167832011Y-117591066D01*
X167586734Y-117631994D01*
X167351532Y-117712739D01*
X167175771Y-117807857D01*
X167115595Y-117818924D01*
X167060406Y-117792507D01*
X167031285Y-117738696D01*
X167039355Y-117678045D01*
X167044300Y-117668965D01*
X167092160Y-117591066D01*
X167324490Y-117212912D01*
X167748298Y-116448654D01*
X168137604Y-115666257D01*
X168233830Y-115449093D01*
X168491628Y-114867291D01*
X168578149Y-114645862D01*
X168809682Y-114053308D01*
X169091116Y-113225964D01*
X169335377Y-112386893D01*
X169541979Y-111537765D01*
X169710510Y-110680268D01*
X169840635Y-109816109D01*
X169866935Y-109566237D01*
X169891829Y-109510346D01*
X169895367Y-109506618D01*
X170191925Y-109210062D01*
X170246441Y-109182285D01*
X170261928Y-109181066D01*
X170379094Y-109181066D01*
X170437285Y-109199973D01*
X170468034Y-109236585D01*
X170517148Y-109337049D01*
X170599863Y-109419764D01*
X170653631Y-109446049D01*
X170704950Y-109471138D01*
X170704951Y-109471138D01*
X170704953Y-109471139D01*
X170773086Y-109481066D01*
X170773089Y-109481066D01*
X171639603Y-109481066D01*
X171639606Y-109481066D01*
X171707739Y-109471139D01*
X171812829Y-109419764D01*
X171895544Y-109337049D01*
X171946919Y-109231959D01*
X171956846Y-109163826D01*
X171956846Y-108368725D01*
X171975753Y-108310534D01*
X172025253Y-108274570D01*
X172071229Y-108272906D01*
X172071419Y-108271344D01*
X172077358Y-108272065D01*
X172077361Y-108272066D01*
X172077364Y-108272066D01*
X172235328Y-108272066D01*
X172235331Y-108272066D01*
X172388711Y-108234262D01*
X172528586Y-108160849D01*
X172646829Y-108056096D01*
X172736566Y-107926089D01*
X172792583Y-107778384D01*
X172811624Y-107621566D01*
X172792583Y-107464748D01*
X172736566Y-107317043D01*
X172646829Y-107187036D01*
X172528586Y-107082283D01*
X172458648Y-107045576D01*
X172388710Y-107008869D01*
X172235333Y-106971066D01*
X172235331Y-106971066D01*
X172077361Y-106971066D01*
X172077357Y-106971066D01*
X172071421Y-106971788D01*
X172071194Y-106969926D01*
X172018497Y-106966091D01*
X171971739Y-106926627D01*
X171956846Y-106874406D01*
X171956846Y-106517309D01*
X171955689Y-106509365D01*
X171946919Y-106449173D01*
X171946918Y-106449170D01*
X171946095Y-106446507D01*
X171946134Y-106443790D01*
X171945810Y-106441565D01*
X171946167Y-106441512D01*
X171946978Y-106385328D01*
X171952472Y-106372330D01*
X171991509Y-106295717D01*
X171991510Y-106295713D01*
X172006346Y-106202050D01*
X172006346Y-105970567D01*
X172006345Y-105970566D01*
X170406348Y-105970566D01*
X170406347Y-105970567D01*
X170406347Y-106202051D01*
X170421179Y-106295707D01*
X170421182Y-106295717D01*
X170460219Y-106372330D01*
X170469791Y-106432762D01*
X170466600Y-106446495D01*
X170465774Y-106449167D01*
X170465774Y-106449170D01*
X170465773Y-106449173D01*
X170455846Y-106517306D01*
X170455846Y-106983826D01*
X170458407Y-107001400D01*
X170465774Y-107051963D01*
X170487833Y-107097087D01*
X170496403Y-107157669D01*
X170487833Y-107184045D01*
X170465774Y-107229168D01*
X170465773Y-107229172D01*
X170465773Y-107229173D01*
X170455846Y-107297306D01*
X170455846Y-107963826D01*
X170457583Y-107975748D01*
X170465773Y-108031961D01*
X170504944Y-108112086D01*
X170513515Y-108172668D01*
X170504944Y-108199046D01*
X170468035Y-108274546D01*
X170425492Y-108318520D01*
X170379094Y-108330066D01*
X170100691Y-108330066D01*
X169988655Y-108330066D01*
X169943583Y-108342143D01*
X169880431Y-108359064D01*
X169783410Y-108415080D01*
X169211750Y-108986738D01*
X169157234Y-109014515D01*
X169096802Y-109004944D01*
X169053537Y-108961679D01*
X169042985Y-108909879D01*
X169091877Y-108205497D01*
X169091879Y-108205462D01*
X169091880Y-108205450D01*
X169111839Y-107341566D01*
X169091880Y-106477682D01*
X169090658Y-106460083D01*
X169032047Y-105615673D01*
X169032045Y-105615641D01*
X169006697Y-105397159D01*
X168999959Y-105339081D01*
X170406346Y-105339081D01*
X170406346Y-105570565D01*
X170406347Y-105570566D01*
X171006345Y-105570566D01*
X171006346Y-105570565D01*
X171006346Y-104970567D01*
X171406346Y-104970567D01*
X171406346Y-105570565D01*
X171406347Y-105570566D01*
X172006344Y-105570566D01*
X172006345Y-105570565D01*
X172006345Y-105339082D01*
X172006344Y-105339080D01*
X171991512Y-105245424D01*
X171991509Y-105245414D01*
X171933987Y-105132522D01*
X171844389Y-105042924D01*
X171731497Y-104985402D01*
X171731493Y-104985401D01*
X171637830Y-104970566D01*
X171406347Y-104970566D01*
X171406346Y-104970567D01*
X171006346Y-104970567D01*
X171006345Y-104970566D01*
X170774863Y-104970566D01*
X170774860Y-104970567D01*
X170681204Y-104985399D01*
X170681194Y-104985402D01*
X170568302Y-105042924D01*
X170478704Y-105132522D01*
X170421182Y-105245414D01*
X170421181Y-105245418D01*
X170406346Y-105339081D01*
X168999959Y-105339081D01*
X168932464Y-104757303D01*
X168932461Y-104757283D01*
X168793342Y-103904441D01*
X168614985Y-103058933D01*
X168397769Y-102222565D01*
X168142158Y-101397121D01*
X168142153Y-101397107D01*
X168142148Y-101397091D01*
X168142145Y-101397084D01*
X167848703Y-100584373D01*
X167848699Y-100584364D01*
X167848699Y-100584363D01*
X167518016Y-99786024D01*
X167513773Y-99776986D01*
X167183554Y-99073547D01*
X167150817Y-99003810D01*
X167029359Y-98773387D01*
X166747892Y-98239403D01*
X166719780Y-98191566D01*
X166310077Y-97494393D01*
X165838330Y-96770411D01*
X165333652Y-96068988D01*
X164995095Y-95641566D01*
X166450703Y-95641566D01*
X166471237Y-95889385D01*
X166501108Y-96007340D01*
X166532283Y-96130447D01*
X166632173Y-96358173D01*
X166768182Y-96566351D01*
X166936602Y-96749304D01*
X167132837Y-96902040D01*
X167351536Y-97020394D01*
X167586732Y-97101137D01*
X167832011Y-97142066D01*
X168080681Y-97142066D01*
X168325960Y-97101137D01*
X168561156Y-97020394D01*
X168779855Y-96902040D01*
X168976090Y-96749304D01*
X169144510Y-96566351D01*
X169280519Y-96358173D01*
X169380409Y-96130447D01*
X169441454Y-95889387D01*
X169461989Y-95641566D01*
X169441454Y-95393745D01*
X169380409Y-95152685D01*
X169280519Y-94924959D01*
X169144510Y-94716781D01*
X168976090Y-94533828D01*
X168779855Y-94381092D01*
X168561159Y-94262739D01*
X168325957Y-94181994D01*
X168080681Y-94141066D01*
X167832011Y-94141066D01*
X167586734Y-94181994D01*
X167351532Y-94262739D01*
X167132836Y-94381092D01*
X167132833Y-94381094D01*
X166936605Y-94533825D01*
X166768181Y-94716782D01*
X166737237Y-94764146D01*
X166632173Y-94924959D01*
X166571731Y-95062754D01*
X166532283Y-95152686D01*
X166471237Y-95393746D01*
X166450703Y-95641566D01*
X164995095Y-95641566D01*
X164797117Y-95391622D01*
X164797113Y-95391617D01*
X164797104Y-95391606D01*
X164229878Y-94739764D01*
X164229857Y-94739741D01*
X163887406Y-94381092D01*
X163633127Y-94114785D01*
X163320641Y-93816412D01*
X163008170Y-93518054D01*
X163008147Y-93518033D01*
X162356305Y-92950807D01*
X162356290Y-92950795D01*
X161678924Y-92414260D01*
X160977501Y-91909582D01*
X160604704Y-91666667D01*
X160253524Y-91437838D01*
X159508508Y-91000019D01*
X158744105Y-90597096D01*
X157961909Y-90229905D01*
X157961892Y-90229898D01*
X157961894Y-90229898D01*
X157961888Y-90229896D01*
X157434793Y-90011566D01*
X160821244Y-90011566D01*
X160841620Y-90270479D01*
X160902250Y-90523022D01*
X161001637Y-90762964D01*
X161001643Y-90762976D01*
X161137334Y-90984403D01*
X161137344Y-90984416D01*
X161175719Y-91029347D01*
X161822334Y-90382731D01*
X161893783Y-90489663D01*
X161998249Y-90594129D01*
X162105177Y-90665576D01*
X161458563Y-91312190D01*
X161503502Y-91350572D01*
X161503508Y-91350577D01*
X161724935Y-91486268D01*
X161724947Y-91486274D01*
X161964889Y-91585661D01*
X161964888Y-91585661D01*
X162217432Y-91646291D01*
X162476346Y-91666667D01*
X162735259Y-91646291D01*
X162987802Y-91585661D01*
X163227744Y-91486274D01*
X163227756Y-91486268D01*
X163449183Y-91350577D01*
X163449197Y-91350567D01*
X163494127Y-91312192D01*
X163494127Y-91312191D01*
X162847512Y-90665576D01*
X162954443Y-90594129D01*
X163058909Y-90489663D01*
X163130356Y-90382732D01*
X163776971Y-91029347D01*
X163776972Y-91029347D01*
X163815347Y-90984417D01*
X163815357Y-90984403D01*
X163951048Y-90762976D01*
X163951054Y-90762964D01*
X164050441Y-90523022D01*
X164111071Y-90270479D01*
X164131447Y-90011566D01*
X164111071Y-89752652D01*
X164050441Y-89500109D01*
X163951054Y-89260167D01*
X163951048Y-89260155D01*
X163815357Y-89038728D01*
X163815352Y-89038722D01*
X163776970Y-88993783D01*
X163130356Y-89640397D01*
X163058909Y-89533469D01*
X162954443Y-89429003D01*
X162847511Y-89357554D01*
X163494127Y-88710939D01*
X163449196Y-88672564D01*
X163449183Y-88672554D01*
X163227756Y-88536863D01*
X163227744Y-88536857D01*
X162987802Y-88437470D01*
X162987803Y-88437470D01*
X162735259Y-88376840D01*
X162476346Y-88356464D01*
X162217432Y-88376840D01*
X161964889Y-88437470D01*
X161724947Y-88536857D01*
X161724935Y-88536863D01*
X161503505Y-88672556D01*
X161458563Y-88710939D01*
X162105179Y-89357555D01*
X161998249Y-89429003D01*
X161893783Y-89533469D01*
X161822335Y-89640399D01*
X161175719Y-88993783D01*
X161137336Y-89038725D01*
X161001643Y-89260155D01*
X161001637Y-89260167D01*
X160902250Y-89500109D01*
X160841620Y-89752652D01*
X160821244Y-90011566D01*
X157434793Y-90011566D01*
X157163549Y-89899213D01*
X157163547Y-89899212D01*
X157163538Y-89899208D01*
X156350827Y-89605766D01*
X156350820Y-89605763D01*
X156117361Y-89533469D01*
X155525347Y-89350143D01*
X155525340Y-89350141D01*
X155525333Y-89350139D01*
X154689012Y-89132935D01*
X154688963Y-89132923D01*
X153843490Y-88954574D01*
X153843489Y-88954573D01*
X153843471Y-88954570D01*
X153310141Y-88867571D01*
X152990608Y-88815447D01*
X152132303Y-88715870D01*
X152132238Y-88715864D01*
X151270277Y-88656034D01*
X151270242Y-88656032D01*
X150406346Y-88636073D01*
X149542449Y-88656032D01*
X149542414Y-88656034D01*
X148680453Y-88715864D01*
X148680388Y-88715870D01*
X147822079Y-88815448D01*
X147445578Y-88876864D01*
X147385103Y-88867571D01*
X147341639Y-88824507D01*
X147331788Y-88764120D01*
X147359314Y-88709475D01*
X147363978Y-88705064D01*
X147423878Y-88651998D01*
X147479972Y-88627564D01*
X147489515Y-88627102D01*
X147526189Y-88627101D01*
X147526193Y-88627101D01*
X147526196Y-88627100D01*
X147711461Y-88602702D01*
X147891959Y-88554329D01*
X148064599Y-88482810D01*
X148226427Y-88389368D01*
X148374674Y-88275602D01*
X148440735Y-88209533D01*
X148440738Y-88209532D01*
X149076158Y-87574110D01*
X149130675Y-87546332D01*
X149191107Y-87555903D01*
X149204354Y-87564021D01*
X149263085Y-87606693D01*
X149295135Y-87646073D01*
X149296605Y-87649333D01*
X149352606Y-87727766D01*
X149364607Y-87744574D01*
X149435318Y-87815285D01*
X149451378Y-87830380D01*
X149550651Y-87892349D01*
X149585749Y-87906887D01*
X149589549Y-87908461D01*
X149589552Y-87908462D01*
X149631209Y-87922762D01*
X149642147Y-87923896D01*
X149747612Y-87934835D01*
X149861628Y-87908458D01*
X149900519Y-87892349D01*
X149920611Y-87883287D01*
X150015853Y-87815285D01*
X150327333Y-87503803D01*
X150381848Y-87476027D01*
X150442280Y-87485598D01*
X150467339Y-87503805D01*
X150778810Y-87815277D01*
X150781827Y-87818112D01*
X150794880Y-87830380D01*
X150894153Y-87892349D01*
X150929976Y-87907187D01*
X150933051Y-87908461D01*
X150933054Y-87908462D01*
X150974711Y-87922762D01*
X151013512Y-87926786D01*
X151091114Y-87934835D01*
X151091114Y-87934834D01*
X151091116Y-87934835D01*
X151091117Y-87934835D01*
X151154673Y-87920131D01*
X151215628Y-87925435D01*
X151261824Y-87965555D01*
X151269555Y-87981477D01*
X151323089Y-88122635D01*
X151412824Y-88252640D01*
X151412825Y-88252641D01*
X151412826Y-88252642D01*
X151531069Y-88357395D01*
X151670944Y-88430808D01*
X151824324Y-88468612D01*
X151824327Y-88468612D01*
X151982291Y-88468612D01*
X151982294Y-88468612D01*
X152135674Y-88430808D01*
X152275549Y-88357395D01*
X152393792Y-88252642D01*
X152483529Y-88122635D01*
X152539546Y-87974930D01*
X152558587Y-87818112D01*
X152558245Y-87815298D01*
X152539546Y-87661295D01*
X152539546Y-87661294D01*
X152483529Y-87513589D01*
X152393792Y-87383582D01*
X152330831Y-87327804D01*
X152300854Y-87279326D01*
X152256059Y-87112164D01*
X152243136Y-87080967D01*
X152220530Y-87026396D01*
X152215729Y-86965401D01*
X152241988Y-86918508D01*
X152293809Y-86866688D01*
X152349623Y-86789869D01*
X152349623Y-86789866D01*
X152352843Y-86785436D01*
X152392236Y-86753380D01*
X152395483Y-86751916D01*
X152457226Y-86707831D01*
X152515570Y-86689405D01*
X152560760Y-86700742D01*
X152581177Y-86711458D01*
X152734557Y-86749262D01*
X152734560Y-86749262D01*
X152892524Y-86749262D01*
X152892527Y-86749262D01*
X153045907Y-86711458D01*
X153185782Y-86638045D01*
X153304025Y-86533292D01*
X153393762Y-86403285D01*
X153449779Y-86255580D01*
X153458873Y-86180677D01*
X153484654Y-86125193D01*
X153538128Y-86095457D01*
X153572586Y-86094824D01*
X154125206Y-86182083D01*
X154128873Y-86182734D01*
X154938569Y-86342816D01*
X154942233Y-86343614D01*
X155745108Y-86534798D01*
X155748767Y-86535744D01*
X156543662Y-86757752D01*
X156547295Y-86758843D01*
X157289023Y-86997201D01*
X157308232Y-87005718D01*
X157308570Y-87005913D01*
X157345347Y-87015766D01*
X157351800Y-87017734D01*
X157392706Y-87031757D01*
X157392709Y-87031758D01*
X157396701Y-87031936D01*
X157411150Y-87034167D01*
X157416786Y-87034910D01*
X157416789Y-87034910D01*
X157461100Y-87034910D01*
X157465515Y-87035008D01*
X157475930Y-87035474D01*
X157514940Y-87037216D01*
X157514940Y-87037215D01*
X157514942Y-87037216D01*
X157514943Y-87037215D01*
X157515653Y-87037145D01*
X157524542Y-87035474D01*
X157528826Y-87034910D01*
X157577640Y-87021830D01*
X157579591Y-87021328D01*
X157633763Y-87008016D01*
X157686219Y-86977521D01*
X157734070Y-86949895D01*
X157734072Y-86949892D01*
X157738300Y-86947452D01*
X157738755Y-86947147D01*
X157739542Y-86946524D01*
X157739543Y-86946523D01*
X157776850Y-86907161D01*
X157778625Y-86905338D01*
X158146114Y-86537851D01*
X158200630Y-86510074D01*
X158216117Y-86508855D01*
X158281057Y-86508855D01*
X158281060Y-86508855D01*
X158434440Y-86471051D01*
X158574315Y-86397638D01*
X158692558Y-86292885D01*
X158782295Y-86162878D01*
X158838312Y-86015173D01*
X158854792Y-85879449D01*
X158857353Y-85858356D01*
X158857353Y-85858353D01*
X158838900Y-85706383D01*
X158838312Y-85701537D01*
X158782295Y-85553832D01*
X158692558Y-85423825D01*
X158574315Y-85319072D01*
X158480854Y-85270019D01*
X158434439Y-85245658D01*
X158281062Y-85207855D01*
X158281060Y-85207855D01*
X158123090Y-85207855D01*
X158123087Y-85207855D01*
X157969710Y-85245658D01*
X157829833Y-85319073D01*
X157711590Y-85423826D01*
X157621855Y-85553831D01*
X157565838Y-85701537D01*
X157565837Y-85701538D01*
X157546797Y-85858352D01*
X157546797Y-85858356D01*
X157549141Y-85877664D01*
X157537385Y-85937710D01*
X157520867Y-85959600D01*
X157403330Y-86077137D01*
X157348813Y-86104914D01*
X157301222Y-86100783D01*
X157271010Y-86090426D01*
X156584274Y-85879443D01*
X155891163Y-85690659D01*
X155192336Y-85524252D01*
X154488488Y-85380388D01*
X153780408Y-85259228D01*
X153680042Y-85245363D01*
X153624986Y-85218670D01*
X153596135Y-85164714D01*
X153604508Y-85104104D01*
X153623583Y-85077293D01*
X153742106Y-84958770D01*
X153749283Y-84952266D01*
X153825073Y-84890067D01*
X153841195Y-84879295D01*
X153923338Y-84835389D01*
X153941256Y-84827968D01*
X153970669Y-84819045D01*
X154031842Y-84820245D01*
X154065055Y-84839676D01*
X154134106Y-84900849D01*
X154273981Y-84974262D01*
X154427361Y-85012066D01*
X154427364Y-85012066D01*
X154585328Y-85012066D01*
X154585331Y-85012066D01*
X154738711Y-84974262D01*
X154878586Y-84900849D01*
X154996829Y-84796096D01*
X155086566Y-84666089D01*
X155142583Y-84518384D01*
X155161624Y-84361566D01*
X155142583Y-84204748D01*
X155086566Y-84057043D01*
X155017314Y-83956714D01*
X154996830Y-83927037D01*
X154961265Y-83895529D01*
X154878586Y-83822283D01*
X154787491Y-83774472D01*
X154738710Y-83748869D01*
X154585333Y-83711066D01*
X154585331Y-83711066D01*
X154427361Y-83711066D01*
X154344573Y-83731471D01*
X154283548Y-83727038D01*
X154236784Y-83687582D01*
X154222604Y-83647280D01*
X154222053Y-83642744D01*
X154212583Y-83564748D01*
X154156566Y-83417043D01*
X154066829Y-83287036D01*
X153948586Y-83182283D01*
X153878648Y-83145576D01*
X153808710Y-83108869D01*
X153655333Y-83071066D01*
X153655331Y-83071066D01*
X153497361Y-83071066D01*
X153497358Y-83071066D01*
X153343981Y-83108869D01*
X153204104Y-83182284D01*
X153085647Y-83287227D01*
X153029552Y-83311662D01*
X152969808Y-83298459D01*
X152953081Y-83283838D01*
X152949487Y-83283623D01*
X152366041Y-83867070D01*
X152311524Y-83894847D01*
X152296037Y-83896066D01*
X152236622Y-83896066D01*
X152171599Y-83913489D01*
X152128399Y-83925064D01*
X152031376Y-83981081D01*
X152031369Y-83981089D01*
X151967256Y-84045201D01*
X151912739Y-84072978D01*
X151852307Y-84063406D01*
X151809043Y-84020141D01*
X151803098Y-84005789D01*
X151795070Y-83981082D01*
X151787153Y-83956713D01*
X151787154Y-83895529D01*
X151811305Y-83856118D01*
X152024680Y-83642744D01*
X151685269Y-83303333D01*
X151676589Y-83312014D01*
X151622595Y-83380745D01*
X151622595Y-83380746D01*
X151568628Y-83504990D01*
X151528102Y-83550830D01*
X151468372Y-83564096D01*
X151412253Y-83539719D01*
X151407836Y-83535567D01*
X151359354Y-83487085D01*
X151343294Y-83471990D01*
X151343293Y-83471989D01*
X151244025Y-83410023D01*
X151244022Y-83410022D01*
X151244021Y-83410021D01*
X151231057Y-83404651D01*
X151205122Y-83393908D01*
X151205119Y-83393907D01*
X151163462Y-83379607D01*
X151057997Y-83368669D01*
X151047060Y-83367535D01*
X151047059Y-83367535D01*
X150933045Y-83393911D01*
X150894154Y-83410020D01*
X150874061Y-83419083D01*
X150874057Y-83419085D01*
X150778819Y-83487084D01*
X150467339Y-83798564D01*
X150412823Y-83826341D01*
X150352391Y-83816770D01*
X150327332Y-83798564D01*
X150015844Y-83487076D01*
X149999793Y-83471991D01*
X149999792Y-83471990D01*
X149900519Y-83410021D01*
X149882607Y-83402601D01*
X149861620Y-83393908D01*
X149861617Y-83393907D01*
X149819960Y-83379607D01*
X149714495Y-83368669D01*
X149703558Y-83367535D01*
X149703557Y-83367535D01*
X149589543Y-83393911D01*
X149550645Y-83410023D01*
X149530559Y-83419083D01*
X149435321Y-83487082D01*
X149364590Y-83557813D01*
X149362194Y-83560363D01*
X149308562Y-83589813D01*
X149290059Y-83591558D01*
X149068135Y-83591558D01*
X148956098Y-83591558D01*
X148889864Y-83609305D01*
X148847874Y-83620556D01*
X148750855Y-83676571D01*
X146517405Y-85910020D01*
X146516967Y-85910518D01*
X146464977Y-85962506D01*
X146295121Y-86175486D01*
X146295115Y-86175494D01*
X146150176Y-86406149D01*
X146031967Y-86651595D01*
X145941982Y-86908735D01*
X145881357Y-87174320D01*
X145881356Y-87174327D01*
X145850849Y-87445027D01*
X145850848Y-87445040D01*
X145850847Y-87520338D01*
X145850846Y-87520362D01*
X145850846Y-87525237D01*
X145850846Y-87564553D01*
X145850846Y-87581245D01*
X145850845Y-87629241D01*
X145850844Y-87650388D01*
X145850846Y-87650413D01*
X145850846Y-88294310D01*
X145831939Y-88352501D01*
X145821846Y-88364317D01*
X145810565Y-88375597D01*
X145763408Y-88401919D01*
X145490166Y-88466713D01*
X144663637Y-88701548D01*
X143848237Y-88972563D01*
X143045572Y-89279225D01*
X142257209Y-89620932D01*
X141484633Y-89997044D01*
X140992294Y-90264168D01*
X140932130Y-90275300D01*
X140876913Y-90248942D01*
X140861125Y-90229613D01*
X139533623Y-88105165D01*
X139489099Y-88052645D01*
X139489096Y-88052643D01*
X139489097Y-88052643D01*
X139389844Y-87990750D01*
X139389843Y-87990749D01*
X139389842Y-87990749D01*
X139275863Y-87964435D01*
X139275861Y-87964435D01*
X139159519Y-87976554D01*
X139159515Y-87976555D01*
X139096483Y-88004237D01*
X139096482Y-88004238D01*
X136919945Y-89364289D01*
X136867422Y-89408816D01*
X136805529Y-89508068D01*
X136805528Y-89508070D01*
X136805528Y-89508071D01*
X136790500Y-89573161D01*
X136779214Y-89622049D01*
X136779214Y-89622053D01*
X136791333Y-89738393D01*
X136791334Y-89738397D01*
X136819016Y-89801429D01*
X136819017Y-89801430D01*
X136819020Y-89801434D01*
X136819021Y-89801437D01*
X138179069Y-91977969D01*
X138200736Y-92003528D01*
X138223943Y-92060140D01*
X138209441Y-92119582D01*
X138186957Y-92144937D01*
X137910283Y-92365643D01*
X137262835Y-92930527D01*
X137241560Y-92950807D01*
X136646480Y-93518054D01*
X136640867Y-93523404D01*
X136045647Y-94143063D01*
X135478270Y-94788367D01*
X135185363Y-95152686D01*
X134954742Y-95439533D01*
X134939875Y-95458024D01*
X134493401Y-96066389D01*
X134443729Y-96102115D01*
X134382544Y-96101822D01*
X134333217Y-96065621D01*
X134314589Y-96007340D01*
X134317618Y-95983511D01*
X134341452Y-95889394D01*
X134341454Y-95889385D01*
X134345248Y-95843599D01*
X134361989Y-95641566D01*
X134341454Y-95393745D01*
X134280409Y-95152685D01*
X134180519Y-94924959D01*
X134044510Y-94716781D01*
X133876090Y-94533828D01*
X133679855Y-94381092D01*
X133461159Y-94262739D01*
X133225957Y-94181994D01*
X132980681Y-94141066D01*
X132732011Y-94141066D01*
X132486734Y-94181994D01*
X132251532Y-94262739D01*
X132032836Y-94381092D01*
X132032833Y-94381094D01*
X131836605Y-94533825D01*
X131668181Y-94716782D01*
X131637237Y-94764146D01*
X131532173Y-94924959D01*
X131471731Y-95062754D01*
X131432283Y-95152686D01*
X131371237Y-95393746D01*
X131350703Y-95641566D01*
X131371237Y-95889385D01*
X131401108Y-96007340D01*
X131432283Y-96130447D01*
X131532173Y-96358173D01*
X131668182Y-96566351D01*
X131836602Y-96749304D01*
X132032837Y-96902040D01*
X132032841Y-96902042D01*
X132057304Y-96915281D01*
X132099483Y-96959605D01*
X132107553Y-97020256D01*
X132078432Y-97074067D01*
X132028377Y-97099663D01*
X131873892Y-97128541D01*
X131838980Y-97142066D01*
X131683709Y-97202218D01*
X131588689Y-97261052D01*
X131510305Y-97309585D01*
X131359583Y-97446986D01*
X131236674Y-97609743D01*
X131236669Y-97609752D01*
X131145765Y-97792313D01*
X131145764Y-97792316D01*
X131089949Y-97988483D01*
X131071131Y-98191566D01*
X131089949Y-98394649D01*
X131145764Y-98590816D01*
X131236673Y-98773387D01*
X131359582Y-98936145D01*
X131510305Y-99073547D01*
X131683709Y-99180914D01*
X131873890Y-99254590D01*
X132074370Y-99292066D01*
X132278322Y-99292066D01*
X132478802Y-99254590D01*
X132668983Y-99180914D01*
X132842387Y-99073547D01*
X132993110Y-98936145D01*
X133116019Y-98773387D01*
X133166534Y-98671937D01*
X133209396Y-98628276D01*
X133255155Y-98617066D01*
X133701635Y-98617066D01*
X133759826Y-98635973D01*
X133795790Y-98685473D01*
X133795790Y-98746659D01*
X133789213Y-98762229D01*
X133661894Y-99003770D01*
X133661876Y-99003807D01*
X133294685Y-99786002D01*
X133294678Y-99786019D01*
X132963992Y-100584364D01*
X132963988Y-100584373D01*
X132670546Y-101397084D01*
X132670543Y-101397091D01*
X132414919Y-102222578D01*
X132197715Y-103058899D01*
X132197703Y-103058948D01*
X132021254Y-103895413D01*
X132019350Y-103904441D01*
X131949790Y-104330862D01*
X131880227Y-104757303D01*
X131823184Y-105248987D01*
X131797697Y-105304611D01*
X131744382Y-105334631D01*
X131683604Y-105327580D01*
X131659196Y-105311682D01*
X131648587Y-105302284D01*
X131648586Y-105302283D01*
X131568182Y-105260083D01*
X131508710Y-105228869D01*
X131355333Y-105191066D01*
X131355331Y-105191066D01*
X131197361Y-105191066D01*
X131197358Y-105191066D01*
X131043981Y-105228869D01*
X130904104Y-105302284D01*
X130847077Y-105352805D01*
X130803772Y-105391169D01*
X130747680Y-105415604D01*
X130738125Y-105416066D01*
X130433598Y-105416066D01*
X130375407Y-105397159D01*
X130344657Y-105360546D01*
X130317312Y-105304611D01*
X130295544Y-105260083D01*
X130212829Y-105177368D01*
X130212827Y-105177367D01*
X130107741Y-105125993D01*
X130080485Y-105122022D01*
X130039606Y-105116066D01*
X129173086Y-105116066D01*
X129139019Y-105121029D01*
X129104950Y-105125993D01*
X128999864Y-105177367D01*
X128917147Y-105260084D01*
X128865773Y-105365170D01*
X128855846Y-105433309D01*
X128855846Y-106232737D01*
X128836939Y-106290928D01*
X128787439Y-106326892D01*
X128751319Y-106330394D01*
X128751319Y-106331066D01*
X128587358Y-106331066D01*
X128433981Y-106368869D01*
X128294104Y-106442284D01*
X128175861Y-106547037D01*
X128086126Y-106677042D01*
X128030109Y-106824748D01*
X128030108Y-106824749D01*
X128011068Y-106981564D01*
X125614097Y-106981564D01*
X125626918Y-106344965D01*
X125627079Y-106340988D01*
X125629176Y-106306326D01*
X125687142Y-105348032D01*
X125687461Y-105344072D01*
X125687965Y-105339082D01*
X125787465Y-104354257D01*
X125787938Y-104350365D01*
X125927719Y-103365372D01*
X125928348Y-103361508D01*
X126019966Y-102861566D01*
X129061419Y-102861566D01*
X129081084Y-103073782D01*
X129139410Y-103278776D01*
X129234405Y-103469553D01*
X129234414Y-103469568D01*
X129273603Y-103521462D01*
X129870799Y-102924266D01*
X129890198Y-102996661D01*
X129936276Y-103076471D01*
X130001441Y-103141636D01*
X130081251Y-103187714D01*
X130153642Y-103207111D01*
X129555667Y-103805087D01*
X129701548Y-103895412D01*
X129701550Y-103895413D01*
X129900287Y-103972404D01*
X130109783Y-104011566D01*
X130322909Y-104011566D01*
X130532404Y-103972404D01*
X130731141Y-103895413D01*
X130731146Y-103895410D01*
X130877023Y-103805087D01*
X130279047Y-103207111D01*
X130351441Y-103187714D01*
X130431251Y-103141636D01*
X130496416Y-103076471D01*
X130542494Y-102996661D01*
X130561891Y-102924267D01*
X131159086Y-103521462D01*
X131198287Y-103469552D01*
X131293281Y-103278776D01*
X131351607Y-103073782D01*
X131371272Y-102861566D01*
X131351607Y-102649349D01*
X131293281Y-102444355D01*
X131198286Y-102253578D01*
X131198277Y-102253563D01*
X131159086Y-102201667D01*
X130561891Y-102798862D01*
X130542494Y-102726471D01*
X130496416Y-102646661D01*
X130431251Y-102581496D01*
X130351441Y-102535418D01*
X130279046Y-102516019D01*
X130877023Y-101918043D01*
X130731143Y-101827719D01*
X130731141Y-101827718D01*
X130532404Y-101750727D01*
X130322909Y-101711566D01*
X130109783Y-101711566D01*
X129900287Y-101750727D01*
X129701550Y-101827718D01*
X129701548Y-101827719D01*
X129555667Y-101918043D01*
X130153644Y-102516020D01*
X130081251Y-102535418D01*
X130001441Y-102581496D01*
X129936276Y-102646661D01*
X129890198Y-102726471D01*
X129870800Y-102798864D01*
X129273604Y-102201668D01*
X129234412Y-102253567D01*
X129234403Y-102253582D01*
X129139410Y-102444355D01*
X129081084Y-102649349D01*
X129061419Y-102861566D01*
X126019966Y-102861566D01*
X126107673Y-102382962D01*
X126108453Y-102379140D01*
X126327040Y-101408580D01*
X126327982Y-101404757D01*
X126564633Y-100521566D01*
X130071131Y-100521566D01*
X130089949Y-100724649D01*
X130145764Y-100920816D01*
X130236673Y-101103387D01*
X130359582Y-101266145D01*
X130510305Y-101403547D01*
X130683709Y-101510914D01*
X130873890Y-101584590D01*
X131074370Y-101622066D01*
X131278322Y-101622066D01*
X131478802Y-101584590D01*
X131668983Y-101510914D01*
X131842387Y-101403547D01*
X131993110Y-101266145D01*
X132116019Y-101103387D01*
X132206928Y-100920816D01*
X132262743Y-100724649D01*
X132281561Y-100521566D01*
X132262743Y-100318483D01*
X132206928Y-100122316D01*
X132116019Y-99939745D01*
X131993110Y-99776987D01*
X131842387Y-99639585D01*
X131668983Y-99532218D01*
X131478802Y-99458542D01*
X131478801Y-99458541D01*
X131478799Y-99458541D01*
X131278322Y-99421066D01*
X131074370Y-99421066D01*
X130873892Y-99458541D01*
X130803978Y-99485625D01*
X130683709Y-99532218D01*
X130510305Y-99639585D01*
X130359582Y-99776987D01*
X130352758Y-99786024D01*
X130236674Y-99939743D01*
X130236669Y-99939752D01*
X130145765Y-100122313D01*
X130145764Y-100122316D01*
X130089949Y-100318483D01*
X130071131Y-100521566D01*
X126564633Y-100521566D01*
X126585476Y-100443779D01*
X126586560Y-100440038D01*
X126882528Y-99490246D01*
X126883771Y-99486522D01*
X127217760Y-98549366D01*
X127219136Y-98545738D01*
X127590581Y-97622815D01*
X127592136Y-97619167D01*
X127596374Y-97609752D01*
X128000415Y-96712008D01*
X128002116Y-96708424D01*
X128446601Y-95818420D01*
X128448432Y-95814932D01*
X128928406Y-94943527D01*
X128930368Y-94940128D01*
X129445045Y-94088749D01*
X129447127Y-94085456D01*
X129995682Y-93255470D01*
X129997888Y-93252274D01*
X130579414Y-92445055D01*
X130581782Y-92441904D01*
X131195327Y-91658771D01*
X131197790Y-91655754D01*
X131842379Y-90897954D01*
X131844972Y-90895026D01*
X132519552Y-90163793D01*
X132522265Y-90160968D01*
X133225748Y-89457485D01*
X133228573Y-89454772D01*
X133959806Y-88780192D01*
X133962734Y-88777599D01*
X134720534Y-88133010D01*
X134723551Y-88130547D01*
X135506684Y-87517002D01*
X135509835Y-87514634D01*
X136317054Y-86933108D01*
X136320250Y-86930902D01*
X137150236Y-86382347D01*
X137153529Y-86380265D01*
X138004908Y-85865588D01*
X138008307Y-85863626D01*
X138879712Y-85383652D01*
X138883200Y-85381821D01*
X139773222Y-84937327D01*
X139776788Y-84935635D01*
X140683966Y-84527347D01*
X140687595Y-84525801D01*
X141610518Y-84154356D01*
X141614146Y-84152980D01*
X142551302Y-83818991D01*
X142555026Y-83817748D01*
X143504818Y-83521780D01*
X143508559Y-83520696D01*
X144469537Y-83263202D01*
X144473360Y-83262260D01*
X145443920Y-83043673D01*
X145447742Y-83042893D01*
X145569991Y-83020490D01*
X151968114Y-83020490D01*
X152307524Y-83359900D01*
X152666643Y-83000781D01*
X152666642Y-83000780D01*
X152611952Y-82957817D01*
X152475795Y-82898676D01*
X152328737Y-82878463D01*
X152181678Y-82898676D01*
X152045523Y-82957816D01*
X151976798Y-83011805D01*
X151968114Y-83020490D01*
X145569991Y-83020490D01*
X146426288Y-82863568D01*
X146430152Y-82862939D01*
X147415145Y-82723158D01*
X147419037Y-82722685D01*
X148408868Y-82622679D01*
X148412812Y-82622362D01*
X149405775Y-82562298D01*
X149409745Y-82562138D01*
X150404360Y-82542106D01*
X150408332Y-82542106D01*
X151402944Y-82562138D01*
G37*
%TD.AperFunction*%
%TD*%
%TA.AperFunction,NonConductor*%
G36*
X148342173Y-85385490D02*
G01*
X148367232Y-85403697D01*
X148544715Y-85581181D01*
X148572492Y-85635697D01*
X148562921Y-85696129D01*
X148544715Y-85721187D01*
X148233243Y-86032659D01*
X148218142Y-86048727D01*
X148156173Y-86148000D01*
X148140059Y-86186900D01*
X148140058Y-86186903D01*
X148125758Y-86228560D01*
X148113686Y-86344963D01*
X148140062Y-86458977D01*
X148156174Y-86497875D01*
X148165234Y-86517961D01*
X148224569Y-86601065D01*
X148233236Y-86613203D01*
X148303947Y-86683914D01*
X148303961Y-86683927D01*
X148320007Y-86699009D01*
X148412170Y-86756540D01*
X148438356Y-86785100D01*
X148440469Y-86783566D01*
X148484498Y-86844166D01*
X148503406Y-86902356D01*
X148484499Y-86960547D01*
X148474410Y-86972361D01*
X147886058Y-87560713D01*
X147886014Y-87560753D01*
X147842393Y-87604378D01*
X147835195Y-87610902D01*
X147759438Y-87673080D01*
X147743303Y-87683863D01*
X147661177Y-87727766D01*
X147643247Y-87735194D01*
X147554136Y-87762230D01*
X147535099Y-87766017D01*
X147493136Y-87770151D01*
X147433372Y-87757040D01*
X147417781Y-87745731D01*
X147323587Y-87662284D01*
X147323586Y-87662283D01*
X147224563Y-87610311D01*
X147183710Y-87588869D01*
X147030333Y-87551066D01*
X147030331Y-87551066D01*
X146872361Y-87551066D01*
X146832385Y-87560918D01*
X146771361Y-87556486D01*
X146724597Y-87517030D01*
X146709907Y-87458318D01*
X146710778Y-87445040D01*
X146714897Y-87382215D01*
X146716585Y-87369399D01*
X146754240Y-87180115D01*
X146757587Y-87167629D01*
X146819626Y-86984884D01*
X146824581Y-86972923D01*
X146828291Y-86965401D01*
X146909938Y-86799847D01*
X146916403Y-86788649D01*
X147023632Y-86628179D01*
X147031507Y-86617918D01*
X147161338Y-86469883D01*
X147165766Y-86465156D01*
X147206257Y-86424668D01*
X147206257Y-86424665D01*
X147212922Y-86418002D01*
X147212935Y-86417985D01*
X148227226Y-85403694D01*
X148281741Y-85375919D01*
X148342173Y-85385490D01*
G37*
%TD.AperFunction*%
%TA.AperFunction,NonConductor*%
G36*
X133849139Y-96856964D02*
G01*
X133886720Y-96905248D01*
X133888744Y-96966399D01*
X133878287Y-96990261D01*
X133508664Y-97599955D01*
X133445877Y-97714616D01*
X133401344Y-97756574D01*
X133359044Y-97766066D01*
X133255155Y-97766066D01*
X133196964Y-97747159D01*
X133166534Y-97711194D01*
X133116022Y-97609751D01*
X133116021Y-97609750D01*
X133116019Y-97609745D01*
X132993110Y-97446987D01*
X132847477Y-97314225D01*
X132817213Y-97261052D01*
X132823984Y-97200243D01*
X132865204Y-97155026D01*
X132914175Y-97142066D01*
X132980681Y-97142066D01*
X133225960Y-97101137D01*
X133461156Y-97020394D01*
X133679855Y-96902040D01*
X133732823Y-96860813D01*
X133790354Y-96839992D01*
X133849139Y-96856964D01*
G37*
%TD.AperFunction*%
%TA.AperFunction,NonConductor*%
G36*
X130796316Y-106285973D02*
G01*
X130803766Y-106291957D01*
X130904106Y-106380849D01*
X131043981Y-106454262D01*
X131197361Y-106492066D01*
X131197364Y-106492066D01*
X131355328Y-106492066D01*
X131355331Y-106492066D01*
X131508711Y-106454262D01*
X131575101Y-106419417D01*
X131635409Y-106409117D01*
X131690258Y-106436233D01*
X131718693Y-106490409D01*
X131720080Y-106509365D01*
X131700853Y-107341566D01*
X131712713Y-107854916D01*
X131695154Y-107913528D01*
X131646498Y-107950626D01*
X131585329Y-107952039D01*
X131543736Y-107927207D01*
X131122608Y-107506080D01*
X131025586Y-107450064D01*
X131025588Y-107450064D01*
X130983597Y-107438813D01*
X130917364Y-107421066D01*
X130917362Y-107421066D01*
X130453651Y-107421066D01*
X130395460Y-107402159D01*
X130359496Y-107352659D01*
X130355685Y-107307794D01*
X130356846Y-107299826D01*
X130356846Y-106633306D01*
X130346919Y-106565173D01*
X130307747Y-106485046D01*
X130299176Y-106424465D01*
X130307744Y-106398091D01*
X130344658Y-106322583D01*
X130387201Y-106278611D01*
X130433598Y-106267066D01*
X130738125Y-106267066D01*
X130796316Y-106285973D01*
G37*
%TD.AperFunction*%
M02*
