%TF.GenerationSoftware,KiCad,Pcbnew,8.0.5*%
%TF.CreationDate,2025-07-02T22:11:17-04:00*%
%TF.ProjectId,tomorrowland_pendant,746f6d6f-7272-46f7-976c-616e645f7065,rev?*%
%TF.SameCoordinates,Original*%
%TF.FileFunction,Copper,L1,Top*%
%TF.FilePolarity,Positive*%
%FSLAX46Y46*%
G04 Gerber Fmt 4.6, Leading zero omitted, Abs format (unit mm)*
G04 Created by KiCad (PCBNEW 8.0.5) date 2025-07-02 22:11:17*
%MOMM*%
%LPD*%
G01*
G04 APERTURE LIST*
G04 Aperture macros list*
%AMRoundRect*
0 Rectangle with rounded corners*
0 $1 Rounding radius*
0 $2 $3 $4 $5 $6 $7 $8 $9 X,Y pos of 4 corners*
0 Add a 4 corners polygon primitive as box body*
4,1,4,$2,$3,$4,$5,$6,$7,$8,$9,$2,$3,0*
0 Add four circle primitives for the rounded corners*
1,1,$1+$1,$2,$3*
1,1,$1+$1,$4,$5*
1,1,$1+$1,$6,$7*
1,1,$1+$1,$8,$9*
0 Add four rect primitives between the rounded corners*
20,1,$1+$1,$2,$3,$4,$5,0*
20,1,$1+$1,$4,$5,$6,$7,0*
20,1,$1+$1,$6,$7,$8,$9,0*
20,1,$1+$1,$8,$9,$2,$3,0*%
%AMRotRect*
0 Rectangle, with rotation*
0 The origin of the aperture is its center*
0 $1 length*
0 $2 width*
0 $3 Rotation angle, in degrees counterclockwise*
0 Add horizontal line*
21,1,$1,$2,0,0,$3*%
G04 Aperture macros list end*
%TA.AperFunction,Conductor*%
%ADD10C,0.200000*%
%TD*%
%TA.AperFunction,Conductor*%
%ADD11C,0.150000*%
%TD*%
%TA.AperFunction,SMDPad,CuDef*%
%ADD12RotRect,0.750000X0.800000X45.000000*%
%TD*%
%TA.AperFunction,SMDPad,CuDef*%
%ADD13RotRect,0.600000X0.800000X45.000000*%
%TD*%
%TA.AperFunction,SMDPad,CuDef*%
%ADD14RotRect,0.400000X0.800000X45.000000*%
%TD*%
%TA.AperFunction,SMDPad,CuDef*%
%ADD15RotRect,0.800000X0.800000X45.000000*%
%TD*%
%TA.AperFunction,SMDPad,CuDef*%
%ADD16RoundRect,0.140000X-0.098360X0.197042X-0.212246X-0.058751X0.098360X-0.197042X0.212246X0.058751X0*%
%TD*%
%TA.AperFunction,SMDPad,CuDef*%
%ADD17RoundRect,0.140000X0.170000X-0.140000X0.170000X0.140000X-0.170000X0.140000X-0.170000X-0.140000X0*%
%TD*%
%TA.AperFunction,SMDPad,CuDef*%
%ADD18RoundRect,0.140000X0.091230X0.200442X-0.179229X0.127973X-0.091230X-0.200442X0.179229X-0.127973X0*%
%TD*%
%TA.AperFunction,SMDPad,CuDef*%
%ADD19RotRect,0.750000X0.800000X157.500000*%
%TD*%
%TA.AperFunction,SMDPad,CuDef*%
%ADD20RotRect,0.600000X0.800000X157.500000*%
%TD*%
%TA.AperFunction,SMDPad,CuDef*%
%ADD21RotRect,0.400000X0.800000X157.500000*%
%TD*%
%TA.AperFunction,SMDPad,CuDef*%
%ADD22RotRect,0.800000X0.800000X157.500000*%
%TD*%
%TA.AperFunction,SMDPad,CuDef*%
%ADD23R,0.800000X0.750000*%
%TD*%
%TA.AperFunction,SMDPad,CuDef*%
%ADD24R,0.800000X0.600000*%
%TD*%
%TA.AperFunction,SMDPad,CuDef*%
%ADD25R,0.800000X0.400000*%
%TD*%
%TA.AperFunction,SMDPad,CuDef*%
%ADD26R,0.800000X0.800000*%
%TD*%
%TA.AperFunction,SMDPad,CuDef*%
%ADD27RoundRect,0.140000X-0.219203X-0.021213X-0.021213X-0.219203X0.219203X0.021213X0.021213X0.219203X0*%
%TD*%
%TA.AperFunction,SMDPad,CuDef*%
%ADD28RoundRect,0.140000X-0.198819X0.094715X-0.131081X-0.176968X0.198819X-0.094715X0.131081X0.176968X0*%
%TD*%
%TA.AperFunction,SMDPad,CuDef*%
%ADD29RoundRect,0.140000X-0.137177X0.172286X-0.195393X-0.101596X0.137177X-0.172286X0.195393X0.101596X0*%
%TD*%
%TA.AperFunction,SMDPad,CuDef*%
%ADD30RotRect,0.750000X0.800000X202.500000*%
%TD*%
%TA.AperFunction,SMDPad,CuDef*%
%ADD31RotRect,0.600000X0.800000X202.500000*%
%TD*%
%TA.AperFunction,SMDPad,CuDef*%
%ADD32RotRect,0.400000X0.800000X202.500000*%
%TD*%
%TA.AperFunction,SMDPad,CuDef*%
%ADD33RotRect,0.800000X0.800000X202.500000*%
%TD*%
%TA.AperFunction,SMDPad,CuDef*%
%ADD34RoundRect,0.140000X0.013339X0.219823X-0.213186X0.055243X-0.013339X-0.219823X0.213186X-0.055243X0*%
%TD*%
%TA.AperFunction,SMDPad,CuDef*%
%ADD35RotRect,0.750000X0.800000X112.500000*%
%TD*%
%TA.AperFunction,SMDPad,CuDef*%
%ADD36RotRect,0.600000X0.800000X112.500000*%
%TD*%
%TA.AperFunction,SMDPad,CuDef*%
%ADD37RotRect,0.400000X0.800000X112.500000*%
%TD*%
%TA.AperFunction,SMDPad,CuDef*%
%ADD38RotRect,0.800000X0.800000X112.500000*%
%TD*%
%TA.AperFunction,SMDPad,CuDef*%
%ADD39RoundRect,0.140000X0.021213X-0.219203X0.219203X-0.021213X-0.021213X0.219203X-0.219203X0.021213X0*%
%TD*%
%TA.AperFunction,SMDPad,CuDef*%
%ADD40R,0.750000X0.800000*%
%TD*%
%TA.AperFunction,SMDPad,CuDef*%
%ADD41R,0.600000X0.800000*%
%TD*%
%TA.AperFunction,SMDPad,CuDef*%
%ADD42R,0.400000X0.800000*%
%TD*%
%TA.AperFunction,ComponentPad*%
%ADD43C,2.500000*%
%TD*%
%TA.AperFunction,ComponentPad*%
%ADD44RotRect,2.500000X2.500000X32.000000*%
%TD*%
%TA.AperFunction,SMDPad,CuDef*%
%ADD45RoundRect,0.140000X0.198819X-0.094715X0.131081X0.176968X-0.198819X0.094715X-0.131081X-0.176968X0*%
%TD*%
%TA.AperFunction,SMDPad,CuDef*%
%ADD46RotRect,0.750000X0.800000X225.000000*%
%TD*%
%TA.AperFunction,SMDPad,CuDef*%
%ADD47RotRect,0.600000X0.800000X225.000000*%
%TD*%
%TA.AperFunction,SMDPad,CuDef*%
%ADD48RotRect,0.400000X0.800000X225.000000*%
%TD*%
%TA.AperFunction,SMDPad,CuDef*%
%ADD49RotRect,0.800000X0.800000X225.000000*%
%TD*%
%TA.AperFunction,SMDPad,CuDef*%
%ADD50RotRect,0.750000X0.800000X337.500000*%
%TD*%
%TA.AperFunction,SMDPad,CuDef*%
%ADD51RotRect,0.600000X0.800000X337.500000*%
%TD*%
%TA.AperFunction,SMDPad,CuDef*%
%ADD52RotRect,0.400000X0.800000X337.500000*%
%TD*%
%TA.AperFunction,SMDPad,CuDef*%
%ADD53RotRect,0.800000X0.800000X337.500000*%
%TD*%
%TA.AperFunction,SMDPad,CuDef*%
%ADD54RoundRect,0.140000X0.206244X0.077224X-0.036244X0.217224X-0.206244X-0.077224X0.036244X-0.217224X0*%
%TD*%
%TA.AperFunction,SMDPad,CuDef*%
%ADD55RotRect,0.750000X0.800000X22.500000*%
%TD*%
%TA.AperFunction,SMDPad,CuDef*%
%ADD56RotRect,0.600000X0.800000X22.500000*%
%TD*%
%TA.AperFunction,SMDPad,CuDef*%
%ADD57RotRect,0.400000X0.800000X22.500000*%
%TD*%
%TA.AperFunction,SMDPad,CuDef*%
%ADD58RotRect,0.800000X0.800000X22.500000*%
%TD*%
%TA.AperFunction,SMDPad,CuDef*%
%ADD59RoundRect,0.140000X0.193489X0.105176X-0.066123X0.210066X-0.193489X-0.105176X0.066123X-0.210066X0*%
%TD*%
%TA.AperFunction,SMDPad,CuDef*%
%ADD60RotRect,0.750000X0.800000X135.000000*%
%TD*%
%TA.AperFunction,SMDPad,CuDef*%
%ADD61RotRect,0.600000X0.800000X135.000000*%
%TD*%
%TA.AperFunction,SMDPad,CuDef*%
%ADD62RotRect,0.400000X0.800000X135.000000*%
%TD*%
%TA.AperFunction,SMDPad,CuDef*%
%ADD63RotRect,0.800000X0.800000X135.000000*%
%TD*%
%TA.AperFunction,SMDPad,CuDef*%
%ADD64RoundRect,0.140000X-0.148861X0.162297X-0.187830X-0.114978X0.148861X-0.162297X0.187830X0.114978X0*%
%TD*%
%TA.AperFunction,SMDPad,CuDef*%
%ADD65RoundRect,0.140000X0.164870X0.146006X-0.111683X0.189808X-0.164870X-0.146006X0.111683X-0.189808X0*%
%TD*%
%TA.AperFunction,SMDPad,CuDef*%
%ADD66RotRect,0.750000X0.800000X315.000000*%
%TD*%
%TA.AperFunction,SMDPad,CuDef*%
%ADD67RotRect,0.600000X0.800000X315.000000*%
%TD*%
%TA.AperFunction,SMDPad,CuDef*%
%ADD68RotRect,0.400000X0.800000X315.000000*%
%TD*%
%TA.AperFunction,SMDPad,CuDef*%
%ADD69RotRect,0.800000X0.800000X315.000000*%
%TD*%
%TA.AperFunction,SMDPad,CuDef*%
%ADD70RoundRect,0.140000X-0.077026X-0.206318X0.187719X-0.115159X0.077026X0.206318X-0.187719X0.115159X0*%
%TD*%
%TA.AperFunction,SMDPad,CuDef*%
%ADD71RotRect,0.750000X0.800000X292.500000*%
%TD*%
%TA.AperFunction,SMDPad,CuDef*%
%ADD72RotRect,0.600000X0.800000X292.500000*%
%TD*%
%TA.AperFunction,SMDPad,CuDef*%
%ADD73RotRect,0.400000X0.800000X292.500000*%
%TD*%
%TA.AperFunction,SMDPad,CuDef*%
%ADD74RotRect,0.800000X0.800000X292.500000*%
%TD*%
%TA.AperFunction,SMDPad,CuDef*%
%ADD75RotRect,0.750000X0.800000X67.500000*%
%TD*%
%TA.AperFunction,SMDPad,CuDef*%
%ADD76RotRect,0.600000X0.800000X67.500000*%
%TD*%
%TA.AperFunction,SMDPad,CuDef*%
%ADD77RotRect,0.400000X0.800000X67.500000*%
%TD*%
%TA.AperFunction,SMDPad,CuDef*%
%ADD78RotRect,0.800000X0.800000X67.500000*%
%TD*%
%TA.AperFunction,SMDPad,CuDef*%
%ADD79RotRect,0.750000X0.800000X247.500000*%
%TD*%
%TA.AperFunction,SMDPad,CuDef*%
%ADD80RotRect,0.600000X0.800000X247.500000*%
%TD*%
%TA.AperFunction,SMDPad,CuDef*%
%ADD81RotRect,0.400000X0.800000X247.500000*%
%TD*%
%TA.AperFunction,SMDPad,CuDef*%
%ADD82RotRect,0.800000X0.800000X247.500000*%
%TD*%
%TA.AperFunction,SMDPad,CuDef*%
%ADD83RoundRect,0.140000X-0.021213X0.219203X-0.219203X0.021213X0.021213X-0.219203X0.219203X-0.021213X0*%
%TD*%
%TA.AperFunction,ComponentPad*%
%ADD84C,1.500000*%
%TD*%
%TA.AperFunction,ViaPad*%
%ADD85C,0.600000*%
%TD*%
%TA.AperFunction,Conductor*%
%ADD86C,0.180000*%
%TD*%
G04 APERTURE END LIST*
D10*
%TO.N,GND*%
X160506346Y-90071567D02*
X161366346Y-90071566D01*
X158282065Y-88951584D02*
G75*
G02*
X160506346Y-90071567I-7865719J-18389982D01*
G01*
D11*
%TO.N,BTN1*%
X152436346Y-88001566D02*
G75*
G02*
X164593107Y-120641657I-2030006J-19340004D01*
G01*
%TO.N,Net-(LED6-DOUT)*%
X131769923Y-123387677D02*
G75*
G02*
X128007865Y-117528969I18652977J16114877D01*
G01*
D10*
%TO.N,GND*%
X173888434Y-111846346D02*
G75*
G02*
X173097968Y-114898684I-22287734J4143346D01*
G01*
X137211089Y-127260672D02*
G75*
G02*
X134693594Y-125362297I12357011J19005472D01*
G01*
X155188358Y-130740295D02*
G75*
G02*
X152065867Y-131178072I-4701158J22176895D01*
G01*
D11*
%TO.N,Net-(LED3-DOUT)*%
X128407502Y-96244541D02*
G75*
G02*
X132380573Y-90526829I22026398J-11066259D01*
G01*
%TO.N,Net-(LED1-DOUT)*%
X142666346Y-83931566D02*
G75*
G02*
X149518765Y-82697928I7749954J-23400034D01*
G01*
D10*
%TO.N,GND*%
X162555386Y-91342826D02*
G75*
G02*
X164606346Y-93131566I-12138986J-15988674D01*
G01*
D11*
%TO.N,Net-(LED8-DOUT)*%
X148602252Y-131849159D02*
G75*
G02*
X141799346Y-130366598I1794748J24584659D01*
G01*
%TO.N,Net-(LED14-DOUT)*%
X169030077Y-91212323D02*
G75*
G02*
X172792135Y-97071031I-18652977J-16114877D01*
G01*
%TO.N,BTN2*%
X131504975Y-104713022D02*
G75*
G02*
X146456346Y-88671566I18901375J-2628538D01*
G01*
%TO.N,Net-(LED15-DOUT)*%
X161455459Y-85307502D02*
G75*
G02*
X167173171Y-89280573I-11066259J-22026398D01*
G01*
%TO.N,Net-(LED17-DOUT)*%
X151556346Y-88371566D02*
G75*
G02*
X152726367Y-126224916I-1139996J-18979994D01*
G01*
%TO.N,Net-(LED10-DIN)*%
X158133654Y-130668434D02*
G75*
G02*
X151281235Y-131902072I-7749954J23400034D01*
G01*
D10*
%TO.N,GND*%
X144246346Y-88601566D02*
X145526346Y-88221566D01*
D11*
%TO.N,Net-(LED18-DOUT)*%
X149572448Y-126484309D02*
G75*
G02*
X131286347Y-105841566I803892J19132739D01*
G01*
%TO.N,Net-(LED2-DOUT)*%
X134312323Y-88669923D02*
G75*
G02*
X140171031Y-84907865I16114877J-18652977D01*
G01*
%TO.N,Net-(LED7-DOUT)*%
X139344541Y-129292498D02*
G75*
G02*
X133626829Y-125319427I11066259J22026398D01*
G01*
%TO.N,Net-(LED4-DOUT)*%
X125850841Y-105502252D02*
G75*
G02*
X127333402Y-98699346I24584659J-1794748D01*
G01*
%TO.N,Net-(LED10-DOUT)*%
X166487677Y-125930077D02*
G75*
G02*
X160628969Y-129692135I-16114877J18652977D01*
G01*
D10*
%TO.N,GND*%
X163794078Y-127123583D02*
G75*
G02*
X161076806Y-128722971I-12829978J18689483D01*
G01*
X145853654Y-130788434D02*
G75*
G02*
X142801316Y-129997968I4143346J22287734D01*
G01*
D11*
%TO.N,BTN2*%
X136326347Y-120881565D02*
G75*
G02*
X130888920Y-106607525I14089953J13539965D01*
G01*
%TO.N,Net-(LED13-DOUT)*%
X173768434Y-99566346D02*
G75*
G02*
X175002072Y-106418765I-23400034J-7749954D01*
G01*
%TO.N,Net-(LED5-DOUT)*%
X127031566Y-115033654D02*
G75*
G02*
X125797928Y-108181235I23400034J7749954D01*
G01*
D10*
%TO.N,GND*%
X126959705Y-112088358D02*
G75*
G02*
X126521928Y-108965867I22176895J4701158D01*
G01*
X145526346Y-88221566D02*
X145506346Y-87941566D01*
D11*
%TO.N,Net-(LED12-DOUT)*%
X174949159Y-109097748D02*
G75*
G02*
X173466598Y-115900654I-24584659J1794748D01*
G01*
%TO.N,Net-(LED11-DOUT)*%
X172392498Y-118355459D02*
G75*
G02*
X168419427Y-124073171I-22026398J11066259D01*
G01*
D10*
%TO.N,GND*%
X173840295Y-102511642D02*
G75*
G02*
X174278072Y-105634133I-22176895J-4701158D01*
G01*
%TD*%
D12*
%TO.P,LED11,1,DIN*%
%TO.N,Net-(LED10-DOUT)*%
X166127532Y-125044689D03*
D13*
%TO.P,LED11,2,VDD*%
%TO.N,vReg*%
X166923027Y-124249194D03*
D14*
%TO.P,LED11,3,DOUT*%
%TO.N,Net-(LED11-DOUT)*%
X167545281Y-123626940D03*
D15*
%TO.P,LED11,4,GND*%
%TO.N,GND*%
X168238245Y-122933976D03*
%TD*%
D16*
%TO.P,C16,2*%
%TO.N,GND*%
X158221114Y-88940067D03*
%TO.P,C16,1*%
%TO.N,vReg*%
X158611578Y-88063065D03*
%TD*%
D17*
%TO.P,C1,1*%
%TO.N,vReg*%
X146726348Y-84651562D03*
%TO.P,C1,2*%
%TO.N,GND*%
X146726346Y-83691566D03*
%TD*%
D18*
%TO.P,C10,1*%
%TO.N,vReg*%
X156196162Y-130466430D03*
%TO.P,C10,2*%
%TO.N,GND*%
X155268876Y-130714898D03*
%TD*%
D19*
%TO.P,LED16,1,DIN*%
%TO.N,Net-(LED15-DOUT)*%
X160775289Y-85979058D03*
D20*
%TO.P,LED16,2,VDD*%
%TO.N,vReg*%
X159735925Y-85548539D03*
D21*
%TO.P,LED16,3,DOUT*%
%TO.N,Net-(LED16-DOUT)*%
X158922911Y-85211777D03*
D22*
%TO.P,LED16,4,GND*%
%TO.N,GND*%
X158017509Y-84836748D03*
%TD*%
D23*
%TO.P,LED5,1,DIN*%
%TO.N,Net-(LED4-DOUT)*%
X126731566Y-105873654D03*
D24*
%TO.P,LED5,2,VDD*%
%TO.N,vReg*%
X126731566Y-106998654D03*
D25*
%TO.P,LED5,3,DOUT*%
%TO.N,Net-(LED5-DOUT)*%
X126731566Y-107878654D03*
D26*
%TO.P,LED5,4,GND*%
%TO.N,GND*%
X126731566Y-108858654D03*
%TD*%
D27*
%TO.P,C3,1*%
%TO.N,vReg*%
X135496935Y-92622156D03*
%TO.P,C3,2*%
%TO.N,GND*%
X136175757Y-93300976D03*
%TD*%
D23*
%TO.P,LED13,1,DIN*%
%TO.N,Net-(LED12-DOUT)*%
X174068434Y-108726346D03*
D24*
%TO.P,LED13,2,VDD*%
%TO.N,vReg*%
X174068434Y-107601346D03*
D25*
%TO.P,LED13,3,DOUT*%
%TO.N,Net-(LED13-DOUT)*%
X174068434Y-106721346D03*
D26*
%TO.P,LED13,4,GND*%
%TO.N,GND*%
X174068434Y-105741346D03*
%TD*%
D28*
%TO.P,C14,1*%
%TO.N,vReg*%
X173540224Y-101505825D03*
%TO.P,C14,2*%
%TO.N,GND*%
X173772468Y-102437307D03*
%TD*%
D29*
%TO.P,C4,1*%
%TO.N,vReg*%
X127146141Y-101552056D03*
%TO.P,C4,2*%
%TO.N,GND*%
X126946551Y-102491076D03*
%TD*%
D30*
%TO.P,LED2,1,DIN*%
%TO.N,Net-(LED1-DOUT)*%
X142660254Y-84887379D03*
D31*
%TO.P,LED2,2,VDD*%
%TO.N,vReg*%
X141620890Y-85317898D03*
D32*
%TO.P,LED2,3,DOUT*%
%TO.N,Net-(LED2-DOUT)*%
X140807876Y-85654660D03*
D33*
%TO.P,LED2,4,GND*%
%TO.N,GND*%
X139902474Y-86029689D03*
%TD*%
D34*
%TO.P,C11,1*%
%TO.N,vReg*%
X164627883Y-126494964D03*
%TO.P,C11,2*%
%TO.N,GND*%
X163851229Y-127059238D03*
%TD*%
D35*
%TO.P,LED14,1,DIN*%
%TO.N,Net-(LED13-DOUT)*%
X172812621Y-99560254D03*
D36*
%TO.P,LED14,2,VDD*%
%TO.N,vReg*%
X172382102Y-98520890D03*
D37*
%TO.P,LED14,3,DOUT*%
%TO.N,Net-(LED14-DOUT)*%
X172045340Y-97707876D03*
D38*
%TO.P,LED14,4,GND*%
%TO.N,GND*%
X171670311Y-96802474D03*
%TD*%
D39*
%TO.P,C7,1*%
%TO.N,vReg*%
X135386936Y-122100977D03*
%TO.P,C7,2*%
%TO.N,GND*%
X136065756Y-121422155D03*
%TD*%
D40*
%TO.P,LED9,1,DIN*%
%TO.N,Net-(LED8-DOUT)*%
X148973654Y-130968434D03*
D41*
%TO.P,LED9,2,VDD*%
%TO.N,vReg*%
X150098654Y-130968434D03*
D42*
%TO.P,LED9,3,DOUT*%
%TO.N,Net-(LED10-DIN)*%
X150978654Y-130968434D03*
D26*
%TO.P,LED9,4,GND*%
%TO.N,GND*%
X151958654Y-130968434D03*
%TD*%
D40*
%TO.P,LED17,1,DIN*%
%TO.N,Net-(LED16-DOUT)*%
X148836346Y-86821566D03*
D41*
%TO.P,LED17,2,VDD*%
%TO.N,vReg*%
X149961346Y-86821566D03*
D42*
%TO.P,LED17,3,DOUT*%
%TO.N,Net-(LED17-DOUT)*%
X150841346Y-86821566D03*
D26*
%TO.P,LED17,4,GND*%
%TO.N,GND*%
X151821346Y-86821566D03*
%TD*%
D17*
%TO.P,C5,1*%
%TO.N,vReg*%
X130276346Y-108021566D03*
%TO.P,C5,2*%
%TO.N,GND*%
X130276344Y-107061570D03*
%TD*%
D43*
%TO.P,J2,1,Pin_1*%
%TO.N,GND*%
X162476346Y-90011566D03*
%TD*%
D44*
%TO.P,J1,1,Pin_1*%
%TO.N,vReg*%
X138856346Y-90041567D03*
%TD*%
D45*
%TO.P,C6,1*%
%TO.N,vReg*%
X127225459Y-113098260D03*
%TO.P,C6,2*%
%TO.N,GND*%
X126993213Y-112166778D03*
%TD*%
D46*
%TO.P,LED3,1,DIN*%
%TO.N,Net-(LED2-DOUT)*%
X134672468Y-89555311D03*
D47*
%TO.P,LED3,2,VDD*%
%TO.N,vReg*%
X133876973Y-90350806D03*
D48*
%TO.P,LED3,3,DOUT*%
%TO.N,Net-(LED3-DOUT)*%
X133254719Y-90973060D03*
D49*
%TO.P,LED3,4,GND*%
%TO.N,GND*%
X132561755Y-91666024D03*
%TD*%
D50*
%TO.P,LED8,1,DIN*%
%TO.N,Net-(LED7-DOUT)*%
X140024711Y-128620942D03*
D51*
%TO.P,LED8,2,VDD*%
%TO.N,vReg*%
X141064075Y-129051461D03*
D52*
%TO.P,LED8,3,DOUT*%
%TO.N,Net-(LED8-DOUT)*%
X141877089Y-129388223D03*
D53*
%TO.P,LED8,4,GND*%
%TO.N,GND*%
X142782491Y-129763252D03*
%TD*%
D54*
%TO.P,C8,1*%
%TO.N,vReg*%
X138117364Y-127779645D03*
%TO.P,C8,2*%
%TO.N,GND*%
X137285984Y-127299647D03*
%TD*%
D55*
%TO.P,LED10,1,DIN*%
%TO.N,Net-(LED10-DIN)*%
X158139746Y-129712621D03*
D56*
%TO.P,LED10,2,VDD*%
%TO.N,vReg*%
X159179110Y-129282102D03*
D57*
%TO.P,LED10,3,DOUT*%
%TO.N,Net-(LED10-DOUT)*%
X159992124Y-128945340D03*
D58*
%TO.P,LED10,4,GND*%
%TO.N,GND*%
X160897526Y-128570311D03*
%TD*%
D59*
%TO.P,C12,2*%
%TO.N,GND*%
X169101300Y-114571757D03*
%TO.P,C12,1*%
%TO.N,vReg*%
X169991392Y-114931375D03*
%TD*%
D60*
%TO.P,LED15,1,DIN*%
%TO.N,Net-(LED14-DOUT)*%
X168144689Y-91572468D03*
D61*
%TO.P,LED15,2,VDD*%
%TO.N,vReg*%
X167349194Y-90776973D03*
D62*
%TO.P,LED15,3,DOUT*%
%TO.N,Net-(LED15-DOUT)*%
X166726940Y-90154719D03*
D63*
%TO.P,LED15,4,GND*%
%TO.N,GND*%
X166033976Y-89461755D03*
%TD*%
D64*
%TO.P,C13,1*%
%TO.N,vReg*%
X174025236Y-110811018D03*
%TO.P,C13,2*%
%TO.N,GND*%
X173891632Y-111761674D03*
%TD*%
D40*
%TO.P,LED1,1,DIN*%
%TO.N,LEDDAT*%
X151826346Y-83631566D03*
D41*
%TO.P,LED1,2,VDD*%
%TO.N,vReg*%
X150701346Y-83631566D03*
D42*
%TO.P,LED1,3,DOUT*%
%TO.N,Net-(LED1-DOUT)*%
X149821346Y-83631566D03*
D26*
%TO.P,LED1,4,GND*%
%TO.N,GND*%
X148841346Y-83631566D03*
%TD*%
D40*
%TO.P,LED18,1,DIN*%
%TO.N,Net-(LED17-DOUT)*%
X151976346Y-127861566D03*
D41*
%TO.P,LED18,2,VDD*%
%TO.N,vReg*%
X150851346Y-127861566D03*
D42*
%TO.P,LED18,3,DOUT*%
%TO.N,Net-(LED18-DOUT)*%
X149971346Y-127861566D03*
D26*
%TO.P,LED18,4,GND*%
%TO.N,GND*%
X148991346Y-127861566D03*
%TD*%
D65*
%TO.P,C9,1*%
%TO.N,vReg*%
X146880435Y-130956653D03*
%TO.P,C9,2*%
%TO.N,GND*%
X145932257Y-130806479D03*
%TD*%
D66*
%TO.P,LED7,1,DIN*%
%TO.N,Net-(LED6-DOUT)*%
X132655311Y-123027532D03*
D67*
%TO.P,LED7,2,VDD*%
%TO.N,vReg*%
X133450806Y-123823027D03*
D68*
%TO.P,LED7,3,DOUT*%
%TO.N,Net-(LED7-DOUT)*%
X134073060Y-124445281D03*
D69*
%TO.P,LED7,4,GND*%
%TO.N,GND*%
X134766024Y-125138245D03*
%TD*%
D70*
%TO.P,C2,1*%
%TO.N,vReg*%
X143322498Y-88937839D03*
%TO.P,C2,2*%
%TO.N,GND*%
X144230194Y-88625293D03*
%TD*%
D71*
%TO.P,LED6,1,DIN*%
%TO.N,Net-(LED5-DOUT)*%
X127987379Y-115039746D03*
D72*
%TO.P,LED6,2,VDD*%
%TO.N,vReg*%
X128417898Y-116079110D03*
D73*
%TO.P,LED6,3,DOUT*%
%TO.N,Net-(LED6-DOUT)*%
X128754660Y-116892124D03*
D74*
%TO.P,LED6,4,GND*%
%TO.N,GND*%
X129129689Y-117797526D03*
%TD*%
D75*
%TO.P,LED12,1,DIN*%
%TO.N,Net-(LED11-DOUT)*%
X171720942Y-117675289D03*
D76*
%TO.P,LED12,2,VDD*%
%TO.N,vReg*%
X172151461Y-116635925D03*
D77*
%TO.P,LED12,3,DOUT*%
%TO.N,Net-(LED12-DOUT)*%
X172488223Y-115822911D03*
D78*
%TO.P,LED12,4,GND*%
%TO.N,GND*%
X172863252Y-114917509D03*
%TD*%
D79*
%TO.P,LED4,1,DIN*%
%TO.N,Net-(LED3-DOUT)*%
X129079058Y-96924711D03*
D80*
%TO.P,LED4,2,VDD*%
%TO.N,vReg*%
X128648539Y-97964075D03*
D81*
%TO.P,LED4,3,DOUT*%
%TO.N,Net-(LED4-DOUT)*%
X128311777Y-98777089D03*
D82*
%TO.P,LED4,4,GND*%
%TO.N,GND*%
X127936748Y-99682491D03*
%TD*%
D83*
%TO.P,C15,1*%
%TO.N,vReg*%
X165225756Y-92502155D03*
%TO.P,C15,2*%
%TO.N,GND*%
X164546936Y-93180977D03*
%TD*%
D84*
%TO.P,TP3,1,1*%
%TO.N,GND*%
X130216346Y-102861566D03*
%TD*%
%TO.P,TP2,1,1*%
%TO.N,UPDI*%
X132176346Y-98191566D03*
%TD*%
%TO.P,TP1,1,1*%
%TO.N,vReg*%
X131176346Y-100521566D03*
%TD*%
D85*
%TO.N,GND*%
X169491681Y-113651566D03*
X162463282Y-127970575D03*
X126686461Y-110534733D03*
X127358623Y-100437406D03*
X153634733Y-131013539D03*
X147886346Y-83631566D03*
X148306346Y-127171566D03*
X165497360Y-88591089D03*
X153716346Y-87581566D03*
X135919297Y-126355306D03*
X157246346Y-84041566D03*
X144313725Y-130446332D03*
X173546332Y-113386275D03*
X131746137Y-92132874D03*
X138961506Y-86153779D03*
X171515888Y-95807288D03*
X129258495Y-118746923D03*
X126702089Y-103254486D03*
X169064126Y-122454122D03*
X135658857Y-94349913D03*
X135450829Y-120809811D03*
X145516346Y-87951566D03*
X174113539Y-104065267D03*
%TO.N,vReg*%
X172156346Y-107621566D03*
X153576346Y-83721566D03*
X128666346Y-106981566D03*
%TO.N,BTN1*%
X164486346Y-121351566D03*
X151903309Y-87818112D03*
%TO.N,BTN2*%
X146951346Y-88201566D03*
X138202860Y-122873317D03*
%TO.N,LEDDAT*%
X154506346Y-84361566D03*
%TO.N,Net-(LED16-DOUT)*%
X158202075Y-85858355D03*
X152813542Y-86098762D03*
%TO.N,Net-(LED18-DOUT)*%
X131276346Y-105841566D03*
%TD*%
D11*
%TO.N,BTN2*%
X130701346Y-106419963D02*
X130888908Y-106607525D01*
X130701346Y-105516651D02*
X130701346Y-106419963D01*
X131504975Y-104713022D02*
X130701346Y-105516651D01*
X146481346Y-88671566D02*
X146951346Y-88201566D01*
X146456346Y-88671566D02*
X146481346Y-88671566D01*
D10*
%TO.N,GND*%
X136175757Y-93302155D02*
X136175757Y-93300976D01*
X135658857Y-93819055D02*
X136175757Y-93302155D01*
X135658857Y-94349913D02*
X135658857Y-93819055D01*
X169491681Y-114181376D02*
X169101300Y-114571757D01*
X169491681Y-113651566D02*
X169491681Y-114181376D01*
X135450829Y-120809811D02*
X136094046Y-121453028D01*
D11*
%TO.N,BTN2*%
X138202860Y-122758078D02*
X136326347Y-120881565D01*
X138202860Y-122873317D02*
X138202860Y-122758078D01*
D86*
%TO.N,GND*%
X131746137Y-92245347D02*
X131746137Y-92132874D01*
D10*
X139778384Y-86153779D02*
X139902474Y-86029689D01*
X171670311Y-95961711D02*
X171670311Y-96802474D01*
X127936748Y-99859281D02*
X127936748Y-99682491D01*
X126702089Y-103254486D02*
X126946551Y-103010024D01*
X166033976Y-89127705D02*
X165497360Y-88591089D01*
X171515888Y-95807288D02*
X171670311Y-95961711D01*
D11*
X132561755Y-91666024D02*
X132561755Y-91715522D01*
D10*
X166033976Y-89461755D02*
X166033976Y-89127705D01*
X129258495Y-118746923D02*
X129129689Y-118618117D01*
X130276344Y-107061570D02*
X130276344Y-102921564D01*
X147886346Y-83631566D02*
X148841346Y-83631566D01*
X138961506Y-86153779D02*
X139778384Y-86153779D01*
X127358623Y-100437406D02*
X127936748Y-99859281D01*
X147886346Y-83631566D02*
X146786346Y-83631566D01*
D86*
X148991346Y-127856566D02*
X148991346Y-127861566D01*
D10*
X131746137Y-92132874D02*
X132144403Y-92132874D01*
X168584272Y-122933976D02*
X168238245Y-122933976D01*
X169064126Y-122454122D02*
X168584272Y-122933976D01*
D86*
X148306346Y-127171566D02*
X148991346Y-127856566D01*
D10*
X126946551Y-103010024D02*
X126946551Y-102491076D01*
X162406346Y-90611566D02*
X162406346Y-89991566D01*
D11*
X152581346Y-87581566D02*
X153716346Y-87581566D01*
D10*
X162556346Y-90141566D02*
X162406346Y-89991566D01*
X162556346Y-91341567D02*
X162556346Y-90141566D01*
X132144403Y-92132874D02*
X132561755Y-91715522D01*
X157246346Y-84065585D02*
X158017509Y-84836748D01*
D11*
X151821346Y-86821566D02*
X152581346Y-87581566D01*
D10*
X146786346Y-83631566D02*
X146726346Y-83691566D01*
X129129689Y-118618117D02*
X129129689Y-117797526D01*
X157246346Y-84041566D02*
X157246346Y-84065585D01*
D11*
%TO.N,BTN1*%
X164486346Y-121351566D02*
X164486346Y-120748410D01*
X151903309Y-87818112D02*
X152252892Y-87818112D01*
X152252892Y-87818112D02*
X152436346Y-88001566D01*
X164486346Y-120748410D02*
X164593105Y-120641651D01*
%TO.N,Net-(LED1-DOUT)*%
X149518764Y-82697913D02*
X149831346Y-83010495D01*
X142478151Y-84421613D02*
X142683806Y-83925119D01*
X149831346Y-83010495D02*
X149831346Y-83621566D01*
X142665666Y-84874314D02*
X142478151Y-84421613D01*
%TO.N,LEDDAT*%
X154506346Y-83838393D02*
X153814519Y-83146566D01*
X153814519Y-83146566D02*
X152311346Y-83146566D01*
X152311346Y-83146566D02*
X151826346Y-83631566D01*
X154506346Y-84361566D02*
X154506346Y-83838393D01*
%TO.N,Net-(LED2-DOUT)*%
X134325986Y-89194686D02*
X134325986Y-88657285D01*
X140171033Y-84907870D02*
X140579441Y-85077038D01*
X140579441Y-85077038D02*
X140813288Y-85641594D01*
X134672469Y-89541169D02*
X134325987Y-89194687D01*
%TO.N,Net-(LED3-DOUT)*%
X132380569Y-90526825D02*
X132822627Y-90526825D01*
X129073645Y-96911645D02*
X128620944Y-96724130D01*
X128620944Y-96724130D02*
X128415289Y-96227636D01*
X132822627Y-90526825D02*
X133254719Y-90958917D01*
%TO.N,Net-(LED4-DOUT)*%
X126231566Y-105863654D02*
X125851566Y-105483654D01*
X127741809Y-98530177D02*
X128306365Y-98764024D01*
X127333401Y-98699345D02*
X127741809Y-98530177D01*
X126721566Y-105863654D02*
X126231566Y-105863654D01*
%TO.N,Net-(LED5-DOUT)*%
X125797913Y-108181236D02*
X126110495Y-107868654D01*
X127974314Y-115034334D02*
X127521613Y-115221849D01*
X126110495Y-107868654D02*
X126721566Y-107868654D01*
X127521613Y-115221849D02*
X127025119Y-115016194D01*
%TO.N,Net-(LED6-DOUT)*%
X128177038Y-117120559D02*
X128741594Y-116886712D01*
X132294686Y-123374014D02*
X131757285Y-123374014D01*
X132641169Y-123027531D02*
X132294687Y-123374013D01*
X128007870Y-117528967D02*
X128177038Y-117120559D01*
%TO.N,Net-(LED7-DOUT)*%
X139824130Y-129079056D02*
X139327636Y-129284711D01*
X133626825Y-125319431D02*
X133626825Y-124877373D01*
X140011645Y-128626355D02*
X139824130Y-129079056D01*
X133626825Y-124877373D02*
X134058917Y-124445281D01*
%TO.N,Net-(LED8-DOUT)*%
X148963654Y-130978434D02*
X148963654Y-131468434D01*
X141630177Y-129958191D02*
X141864024Y-129393635D01*
X148963654Y-131468434D02*
X148583654Y-131848434D01*
X141799345Y-130366599D02*
X141630177Y-129958191D01*
%TO.N,Net-(LED10-DIN)*%
X151281236Y-131902087D02*
X150968654Y-131589505D01*
X158134334Y-129725686D02*
X158321849Y-130178387D01*
X158321849Y-130178387D02*
X158116194Y-130674881D01*
X150968654Y-131589505D02*
X150968654Y-130978434D01*
%TO.N,Net-(LED10-DOUT)*%
X166127531Y-125058831D02*
X166474013Y-125405313D01*
X160628967Y-129692130D02*
X160220559Y-129522962D01*
X166474014Y-125405314D02*
X166474014Y-125942715D01*
X160220559Y-129522962D02*
X159986712Y-128958406D01*
%TO.N,Net-(LED11-DOUT)*%
X172179056Y-117875870D02*
X172384711Y-118372364D01*
X168419431Y-124073175D02*
X167977373Y-124073175D01*
X167977373Y-124073175D02*
X167545281Y-123641083D01*
X171726355Y-117688355D02*
X172179056Y-117875870D01*
%TO.N,Net-(LED12-DOUT)*%
X174078434Y-108736346D02*
X174568434Y-108736346D01*
X174568434Y-108736346D02*
X174948434Y-109116346D01*
X173058191Y-116069823D02*
X172493635Y-115835976D01*
X173466599Y-115900655D02*
X173058191Y-116069823D01*
%TO.N,Net-(LED13-DOUT)*%
X174689505Y-106731346D02*
X174078434Y-106731346D01*
X172825686Y-99565666D02*
X173278387Y-99378151D01*
X175002087Y-106418764D02*
X174689505Y-106731346D01*
X173278387Y-99378151D02*
X173774881Y-99583806D01*
%TO.N,Net-(LED14-DOUT)*%
X168505314Y-91225986D02*
X169042715Y-91225986D01*
X168158831Y-91572469D02*
X168505313Y-91225987D01*
X172792130Y-97071033D02*
X172622962Y-97479441D01*
X172622962Y-97479441D02*
X172058406Y-97713288D01*
%TO.N,Net-(LED15-DOUT)*%
X167173175Y-89280569D02*
X167173175Y-89722627D01*
X160975870Y-85520944D02*
X161472364Y-85315289D01*
X160788355Y-85973645D02*
X160975870Y-85520944D01*
X167173175Y-89722627D02*
X166741083Y-90154719D01*
%TO.N,Net-(LED16-DOUT)*%
X152813542Y-86098762D02*
X152806346Y-86091566D01*
X152806346Y-86091566D02*
X149566346Y-86091566D01*
X149566346Y-86091566D02*
X148836346Y-86821566D01*
%TO.N,Net-(LED17-DOUT)*%
X152727951Y-126237874D02*
X151976346Y-126989479D01*
X150841346Y-87656566D02*
X151556346Y-88371566D01*
X151976346Y-126989479D02*
X151976346Y-127861566D01*
X150841346Y-86821566D02*
X150841346Y-87656566D01*
%TO.N,Net-(LED18-DOUT)*%
X149971346Y-127861566D02*
X149971346Y-126883207D01*
X149971346Y-126883207D02*
X149572448Y-126484309D01*
%TO.N,Net-(LED16-DOUT)*%
X158276333Y-85858355D02*
X158922911Y-85211777D01*
X158202075Y-85858355D02*
X158276333Y-85858355D01*
%TD*%
%TA.AperFunction,Conductor*%
%TO.N,vReg*%
G36*
X154467877Y-82878498D02*
G01*
X155364432Y-83042799D01*
X155369317Y-83043796D01*
X156338825Y-83262146D01*
X156343652Y-83263336D01*
X156735275Y-83368271D01*
X156794935Y-83404636D01*
X156825464Y-83467483D01*
X156817169Y-83536859D01*
X156785408Y-83580861D01*
X156777992Y-83587431D01*
X156755862Y-83607036D01*
X156666127Y-83737041D01*
X156666126Y-83737042D01*
X156610108Y-83884747D01*
X156591068Y-84041565D01*
X156591068Y-84041566D01*
X156610108Y-84198384D01*
X156657015Y-84322065D01*
X156666126Y-84346089D01*
X156755863Y-84476096D01*
X156874106Y-84580849D01*
X156874108Y-84580850D01*
X157013980Y-84654262D01*
X157013979Y-84654262D01*
X157115939Y-84679392D01*
X157176320Y-84714548D01*
X157208109Y-84776767D01*
X157201213Y-84846296D01*
X157200827Y-84847241D01*
X157158336Y-84949825D01*
X157141434Y-85016568D01*
X157141434Y-85016569D01*
X157141434Y-85016570D01*
X157147393Y-85112550D01*
X157148682Y-85133321D01*
X157193447Y-85241393D01*
X157246329Y-85301276D01*
X157270877Y-85329073D01*
X157270878Y-85329074D01*
X157270880Y-85329075D01*
X157330021Y-85364316D01*
X157330023Y-85364316D01*
X157330025Y-85364318D01*
X157533200Y-85448475D01*
X157587602Y-85492316D01*
X157609667Y-85558610D01*
X157601688Y-85607007D01*
X157565838Y-85701536D01*
X157546797Y-85858354D01*
X157546797Y-85858355D01*
X157565837Y-86015173D01*
X157612159Y-86137313D01*
X157621855Y-86162878D01*
X157711592Y-86292885D01*
X157829835Y-86397638D01*
X157829837Y-86397639D01*
X157969709Y-86471051D01*
X158123089Y-86508855D01*
X158123090Y-86508855D01*
X158281060Y-86508855D01*
X158434440Y-86471051D01*
X158460819Y-86457206D01*
X158574315Y-86397638D01*
X158692558Y-86292885D01*
X158769578Y-86181301D01*
X158823858Y-86137313D01*
X158893306Y-86129653D01*
X158955872Y-86160756D01*
X158956121Y-86160987D01*
X159017593Y-86218219D01*
X159070152Y-86246920D01*
X159160539Y-86284360D01*
X159160540Y-86284359D01*
X159553173Y-85336458D01*
X159597014Y-85282055D01*
X159663308Y-85259990D01*
X159715187Y-85269350D01*
X159948005Y-85365787D01*
X160002408Y-85409628D01*
X160024473Y-85475922D01*
X160015113Y-85527801D01*
X159622479Y-86475701D01*
X159622480Y-86475702D01*
X159712856Y-86513137D01*
X159712870Y-86513142D01*
X159770323Y-86530011D01*
X159914009Y-86535144D01*
X159914012Y-86535143D01*
X160024669Y-86506900D01*
X160094494Y-86509393D01*
X160106756Y-86514478D01*
X160106757Y-86514478D01*
X160110901Y-86516194D01*
X160110902Y-86516195D01*
X160865268Y-86828664D01*
X160932014Y-86845566D01*
X161048765Y-86838318D01*
X161156837Y-86793553D01*
X161244517Y-86716123D01*
X161279762Y-86656975D01*
X161554859Y-85992830D01*
X161598699Y-85938429D01*
X161664993Y-85916364D01*
X161727040Y-85930486D01*
X162022350Y-86085462D01*
X162026153Y-86087544D01*
X162767645Y-86510826D01*
X162771388Y-86513052D01*
X163099543Y-86716119D01*
X163497361Y-86962293D01*
X163501055Y-86964670D01*
X164210680Y-87439354D01*
X164214287Y-87441861D01*
X164309788Y-87510762D01*
X164906629Y-87941363D01*
X164910131Y-87943985D01*
X164976059Y-87995196D01*
X165016927Y-88051866D01*
X165020669Y-88121636D01*
X165002042Y-88163563D01*
X164917141Y-88286564D01*
X164917140Y-88286565D01*
X164861122Y-88434270D01*
X164842082Y-88591088D01*
X164842082Y-88591089D01*
X164861122Y-88747907D01*
X164896183Y-88840353D01*
X164917140Y-88895612D01*
X165006877Y-89025619D01*
X165125120Y-89130372D01*
X165125121Y-89130372D01*
X165130734Y-89135345D01*
X165128672Y-89137672D01*
X165163742Y-89180972D01*
X165171383Y-89250423D01*
X165158957Y-89286597D01*
X165155770Y-89292633D01*
X165117791Y-89403263D01*
X165117791Y-89520246D01*
X165155769Y-89630874D01*
X165155772Y-89630879D01*
X165155773Y-89630881D01*
X165167965Y-89647232D01*
X165196928Y-89686075D01*
X165809655Y-90298802D01*
X165821283Y-90307472D01*
X165864850Y-90339958D01*
X165864853Y-90339959D01*
X165864855Y-90339960D01*
X165900799Y-90352300D01*
X165957814Y-90392685D01*
X165977816Y-90429315D01*
X165985189Y-90450790D01*
X165990159Y-90465266D01*
X165998435Y-90476365D01*
X166031314Y-90520460D01*
X166318305Y-90807451D01*
X166351790Y-90868774D01*
X166353362Y-90877485D01*
X166369538Y-90989998D01*
X166369540Y-90990005D01*
X166429262Y-91120778D01*
X166429267Y-91120785D01*
X166466844Y-91167416D01*
X166536021Y-91236593D01*
X167261513Y-90511101D01*
X167322836Y-90477616D01*
X167392528Y-90482600D01*
X167436875Y-90511101D01*
X167615066Y-90689292D01*
X167648551Y-90750615D01*
X167643567Y-90820307D01*
X167615066Y-90864654D01*
X166889574Y-91590146D01*
X166958750Y-91659322D01*
X167005381Y-91696899D01*
X167005388Y-91696904D01*
X167136161Y-91756626D01*
X167136169Y-91756628D01*
X167249209Y-91772880D01*
X167312765Y-91801904D01*
X167322148Y-91811296D01*
X167322149Y-91811296D01*
X167902691Y-92391837D01*
X167924767Y-92408298D01*
X167957886Y-92432993D01*
X168040863Y-92461479D01*
X168068522Y-92470975D01*
X168068523Y-92470975D01*
X168185501Y-92470975D01*
X168207627Y-92463378D01*
X168296137Y-92432993D01*
X168351334Y-92391835D01*
X168859647Y-91883520D01*
X168920968Y-91850037D01*
X168990659Y-91855021D01*
X169042579Y-91891813D01*
X169256076Y-92147970D01*
X169258828Y-92151393D01*
X169781873Y-92826180D01*
X169784496Y-92829690D01*
X170038543Y-93182578D01*
X170283310Y-93522577D01*
X170285812Y-93526187D01*
X170759734Y-94236248D01*
X170762108Y-94239944D01*
X170943550Y-94533828D01*
X171147903Y-94864822D01*
X171210613Y-94966393D01*
X171212854Y-94970171D01*
X171264002Y-95059985D01*
X171280072Y-95127982D01*
X171256830Y-95193872D01*
X171213877Y-95231145D01*
X171143649Y-95268004D01*
X171143648Y-95268005D01*
X171029871Y-95368802D01*
X171025404Y-95372759D01*
X170935669Y-95502763D01*
X170935668Y-95502764D01*
X170879650Y-95650469D01*
X170860610Y-95807287D01*
X170860610Y-95807288D01*
X170879650Y-95964106D01*
X170935668Y-96111811D01*
X170935669Y-96111814D01*
X170953881Y-96138197D01*
X170975765Y-96204551D01*
X170958300Y-96272203D01*
X170930997Y-96304079D01*
X170923678Y-96310149D01*
X170846249Y-96397828D01*
X170801484Y-96505900D01*
X170794236Y-96622653D01*
X170811139Y-96689400D01*
X171142742Y-97489961D01*
X171177982Y-97549102D01*
X171177986Y-97549106D01*
X171206474Y-97574263D01*
X171243695Y-97633394D01*
X171248157Y-97674891D01*
X171245802Y-97712830D01*
X171262705Y-97779580D01*
X171262706Y-97779581D01*
X171418021Y-98154547D01*
X171425490Y-98224016D01*
X171423608Y-98232665D01*
X171395497Y-98342802D01*
X171395496Y-98342805D01*
X171400629Y-98486490D01*
X171400629Y-98486492D01*
X171417497Y-98543939D01*
X171417505Y-98543963D01*
X171454937Y-98634333D01*
X171454938Y-98634334D01*
X172402839Y-98241701D01*
X172472309Y-98234232D01*
X172534788Y-98265507D01*
X172564853Y-98308809D01*
X172661290Y-98541627D01*
X172668759Y-98611096D01*
X172637484Y-98673576D01*
X172594182Y-98703641D01*
X171646279Y-99096273D01*
X171683716Y-99186651D01*
X171712424Y-99239225D01*
X171810391Y-99344450D01*
X171810392Y-99344451D01*
X171908611Y-99402726D01*
X171956221Y-99453863D01*
X171961296Y-99466130D01*
X171961298Y-99466130D01*
X172275485Y-100224644D01*
X172310725Y-100283786D01*
X172310727Y-100283788D01*
X172310728Y-100283789D01*
X172398409Y-100361219D01*
X172506481Y-100405984D01*
X172623232Y-100413232D01*
X172689978Y-100396330D01*
X173354119Y-100121232D01*
X173423585Y-100113764D01*
X173486065Y-100145039D01*
X173519953Y-100198900D01*
X173619176Y-100517279D01*
X173620408Y-100521492D01*
X173630459Y-100558280D01*
X173629139Y-100628137D01*
X173614543Y-100658949D01*
X173594391Y-100689685D01*
X173813279Y-101567601D01*
X173810397Y-101637411D01*
X173770231Y-101694581D01*
X173722960Y-101717916D01*
X173389808Y-101800980D01*
X173389804Y-101800980D01*
X172820095Y-101943025D01*
X172896674Y-102074602D01*
X173010214Y-102189738D01*
X173023461Y-102197698D01*
X173070787Y-102249099D01*
X173082810Y-102317925D01*
X173078330Y-102357523D01*
X173078330Y-102357532D01*
X173086367Y-102415724D01*
X173086368Y-102415729D01*
X173086369Y-102415734D01*
X173176807Y-102778458D01*
X173197034Y-102833624D01*
X173276831Y-102949929D01*
X173276833Y-102949930D01*
X173276834Y-102949932D01*
X173386162Y-103039040D01*
X173431343Y-103058049D01*
X173485503Y-103102191D01*
X173504989Y-103148745D01*
X173546328Y-103361977D01*
X173547076Y-103366227D01*
X173587494Y-103622064D01*
X173578512Y-103691354D01*
X173567066Y-103711850D01*
X173533319Y-103760744D01*
X173477301Y-103908448D01*
X173458261Y-104065266D01*
X173458261Y-104065267D01*
X173477301Y-104222085D01*
X173533319Y-104369790D01*
X173533320Y-104369791D01*
X173623055Y-104499796D01*
X173688767Y-104558011D01*
X173725894Y-104617201D01*
X173729620Y-104635749D01*
X173756083Y-104851768D01*
X173744696Y-104920704D01*
X173697847Y-104972540D01*
X173639543Y-104988999D01*
X173639654Y-104990521D01*
X173635174Y-104990845D01*
X173567042Y-105000772D01*
X173461948Y-105052149D01*
X173379237Y-105134860D01*
X173327860Y-105239954D01*
X173317934Y-105308085D01*
X173317934Y-106174606D01*
X173327860Y-106242738D01*
X173327860Y-106242739D01*
X173344554Y-106276887D01*
X173356312Y-106345760D01*
X173344554Y-106385805D01*
X173327860Y-106419952D01*
X173327860Y-106419953D01*
X173317934Y-106488085D01*
X173317934Y-106893950D01*
X173298249Y-106960989D01*
X173293201Y-106968261D01*
X173225080Y-107059257D01*
X173225079Y-107059259D01*
X173174837Y-107193966D01*
X173174835Y-107193973D01*
X173168434Y-107253501D01*
X173168434Y-107351346D01*
X174194434Y-107351346D01*
X174261473Y-107371031D01*
X174307228Y-107423835D01*
X174318434Y-107475346D01*
X174318434Y-107727346D01*
X174298749Y-107794385D01*
X174245945Y-107840140D01*
X174194434Y-107851346D01*
X173168434Y-107851346D01*
X173168434Y-107949190D01*
X173174835Y-108008718D01*
X173174837Y-108008725D01*
X173225079Y-108143432D01*
X173225080Y-108143434D01*
X173293522Y-108234860D01*
X173317939Y-108300324D01*
X173317932Y-108313599D01*
X173317934Y-108313599D01*
X173317934Y-109134606D01*
X173327860Y-109202737D01*
X173379237Y-109307831D01*
X173461948Y-109390542D01*
X173461949Y-109390542D01*
X173461951Y-109390544D01*
X173567041Y-109441919D01*
X173601107Y-109446882D01*
X173635173Y-109451846D01*
X173635174Y-109451846D01*
X174354035Y-109451846D01*
X174421074Y-109471531D01*
X174466829Y-109524335D01*
X174477526Y-109587062D01*
X174463931Y-109736728D01*
X174447358Y-109919188D01*
X174446883Y-109923556D01*
X174439177Y-109984379D01*
X174411222Y-110048412D01*
X174386841Y-110070676D01*
X174381188Y-110074597D01*
X174255267Y-110970584D01*
X174226444Y-111034232D01*
X174167786Y-111072193D01*
X174115217Y-111076120D01*
X173788788Y-111030244D01*
X173788785Y-111030242D01*
X173193766Y-110946618D01*
X173193765Y-110946619D01*
X173215478Y-111097299D01*
X173215479Y-111097301D01*
X173277622Y-111246587D01*
X173286924Y-111258932D01*
X173311548Y-111324319D01*
X173296914Y-111392633D01*
X173277923Y-111427678D01*
X173263573Y-111484651D01*
X173211549Y-111854835D01*
X173211547Y-111854856D01*
X173209635Y-111913566D01*
X173209636Y-111913573D01*
X173240054Y-112051299D01*
X173308043Y-112174879D01*
X173313383Y-112181965D01*
X173311453Y-112183419D01*
X173338881Y-112233270D01*
X173339299Y-112284796D01*
X173291433Y-112519475D01*
X173290497Y-112523688D01*
X173231478Y-112769102D01*
X173196664Y-112829680D01*
X173179689Y-112841894D01*
X173180266Y-112842730D01*
X173174095Y-112846989D01*
X173055848Y-112951746D01*
X172966113Y-113081750D01*
X172966112Y-113081751D01*
X172910094Y-113229456D01*
X172891054Y-113386274D01*
X172891054Y-113386275D01*
X172910095Y-113543093D01*
X172967990Y-113695751D01*
X172973357Y-113765414D01*
X172971529Y-113772892D01*
X172915110Y-113976117D01*
X172878210Y-114035448D01*
X172815091Y-114065410D01*
X172754917Y-114058302D01*
X172754437Y-114059750D01*
X172750180Y-114058337D01*
X172683431Y-114041434D01*
X172683430Y-114041434D01*
X172625054Y-114045058D01*
X172566678Y-114048682D01*
X172458606Y-114093447D01*
X172370928Y-114170875D01*
X172370924Y-114170880D01*
X172335683Y-114230021D01*
X172004080Y-115030582D01*
X171987177Y-115097330D01*
X171989532Y-115135269D01*
X171974038Y-115203399D01*
X171947852Y-115235894D01*
X171919360Y-115261055D01*
X171919358Y-115261058D01*
X171884117Y-115320199D01*
X171728797Y-115695173D01*
X171684956Y-115749576D01*
X171677509Y-115754362D01*
X171579751Y-115812363D01*
X171579750Y-115812364D01*
X171481783Y-115917589D01*
X171453075Y-115970163D01*
X171415639Y-116060539D01*
X172027443Y-116313957D01*
X172027447Y-116313958D01*
X173078623Y-116749369D01*
X173116059Y-116658992D01*
X173116064Y-116658979D01*
X173132933Y-116601527D01*
X173132933Y-116601526D01*
X173133790Y-116577531D01*
X173155853Y-116511236D01*
X173210252Y-116467395D01*
X173234045Y-116457540D01*
X173238176Y-116455828D01*
X173307643Y-116448363D01*
X173370121Y-116479641D01*
X173405771Y-116539731D01*
X173403274Y-116609556D01*
X173400654Y-116616689D01*
X173222311Y-117059818D01*
X173220354Y-117064412D01*
X173133023Y-117258453D01*
X173087558Y-117311508D01*
X173020628Y-117331560D01*
X172957315Y-117313347D01*
X173006641Y-117339133D01*
X173041230Y-117399840D01*
X173037508Y-117469610D01*
X173033637Y-117479278D01*
X172860708Y-117863513D01*
X172815244Y-117916567D01*
X172748313Y-117936620D01*
X172681167Y-117917304D01*
X172635122Y-117864752D01*
X172633071Y-117860075D01*
X172569254Y-117706008D01*
X172569254Y-117706007D01*
X172564559Y-117694672D01*
X172557090Y-117625202D01*
X172564561Y-117599763D01*
X172572267Y-117581161D01*
X172573180Y-117581539D01*
X172610317Y-117527933D01*
X172624952Y-117517760D01*
X172723172Y-117459484D01*
X172826428Y-117348579D01*
X172827764Y-117349823D01*
X172875131Y-117313009D01*
X172944721Y-117306763D01*
X172952023Y-117310580D01*
X172907437Y-117259692D01*
X172905386Y-117255016D01*
X172887281Y-117211308D01*
X172225526Y-116937201D01*
X172225525Y-116937201D01*
X171224297Y-116522479D01*
X171224296Y-116522480D01*
X171186864Y-116612851D01*
X171186856Y-116612875D01*
X171169988Y-116670322D01*
X171169988Y-116670324D01*
X171164855Y-116814009D01*
X171164856Y-116814012D01*
X171193099Y-116924669D01*
X171190605Y-116994495D01*
X171185520Y-117006756D01*
X171185522Y-117006757D01*
X171183805Y-117010901D01*
X171183805Y-117010902D01*
X171142740Y-117110042D01*
X170871337Y-117765265D01*
X170854434Y-117832012D01*
X170854434Y-117832013D01*
X170854434Y-117832014D01*
X170861682Y-117948765D01*
X170906447Y-118056837D01*
X170983877Y-118144517D01*
X170983878Y-118144518D01*
X170983880Y-118144519D01*
X171043021Y-118179760D01*
X171043023Y-118179760D01*
X171043025Y-118179762D01*
X171707168Y-118454859D01*
X171761570Y-118498699D01*
X171783635Y-118564993D01*
X171769513Y-118627040D01*
X171614543Y-118922339D01*
X171612433Y-118926192D01*
X171189189Y-119667616D01*
X171186944Y-119671392D01*
X170737706Y-120397361D01*
X170735329Y-120401055D01*
X170260645Y-121110680D01*
X170258138Y-121114287D01*
X169758634Y-121806633D01*
X169756001Y-121810149D01*
X169658679Y-121935439D01*
X169602009Y-121976307D01*
X169532239Y-121980049D01*
X169478526Y-121952188D01*
X169436366Y-121914839D01*
X169436364Y-121914837D01*
X169296491Y-121841425D01*
X169143112Y-121803622D01*
X169143111Y-121803622D01*
X168985141Y-121803622D01*
X168985140Y-121803622D01*
X168831760Y-121841425D01*
X168691888Y-121914837D01*
X168573638Y-122019596D01*
X168573476Y-122019832D01*
X168573312Y-122019964D01*
X168568669Y-122025206D01*
X168567796Y-122024433D01*
X168519186Y-122063814D01*
X168449737Y-122071462D01*
X168413545Y-122059033D01*
X168407362Y-122055768D01*
X168296735Y-122017791D01*
X168296733Y-122017791D01*
X168179757Y-122017791D01*
X168179755Y-122017791D01*
X168069125Y-122055769D01*
X168069120Y-122055772D01*
X168013924Y-122096928D01*
X167401197Y-122709655D01*
X167360044Y-122764847D01*
X167360042Y-122764850D01*
X167348629Y-122798094D01*
X167347700Y-122800801D01*
X167307313Y-122857816D01*
X167270684Y-122877817D01*
X167234734Y-122890159D01*
X167234730Y-122890161D01*
X167179544Y-122931310D01*
X166892547Y-123218306D01*
X166831224Y-123251790D01*
X166822513Y-123253362D01*
X166710002Y-123269538D01*
X166709994Y-123269540D01*
X166579221Y-123329262D01*
X166579214Y-123329267D01*
X166532583Y-123366844D01*
X166532579Y-123366848D01*
X166463407Y-123436021D01*
X167188899Y-124161513D01*
X167222384Y-124222836D01*
X167217400Y-124292528D01*
X167188899Y-124336875D01*
X167010708Y-124515066D01*
X166949385Y-124548551D01*
X166879693Y-124543567D01*
X166835346Y-124515066D01*
X166109854Y-123789574D01*
X166040681Y-123858746D01*
X166040677Y-123858750D01*
X166003100Y-123905381D01*
X166003095Y-123905388D01*
X165943373Y-124036161D01*
X165943371Y-124036168D01*
X165927119Y-124149210D01*
X165898094Y-124212766D01*
X165888703Y-124222148D01*
X165888704Y-124222149D01*
X165308162Y-124802691D01*
X165281802Y-124838044D01*
X165267007Y-124857886D01*
X165267006Y-124857889D01*
X165229025Y-124968521D01*
X165229025Y-124968523D01*
X165229025Y-125085500D01*
X165267007Y-125196137D01*
X165283470Y-125218215D01*
X165308162Y-125251331D01*
X165816476Y-125759645D01*
X165849961Y-125820968D01*
X165844977Y-125890660D01*
X165808185Y-125942579D01*
X165552016Y-126156087D01*
X165548593Y-126158839D01*
X165481176Y-126211096D01*
X165416131Y-126236609D01*
X165409309Y-126236239D01*
X164930893Y-126583828D01*
X164930834Y-126583874D01*
X164672892Y-126771279D01*
X164607086Y-126794759D01*
X164539032Y-126778933D01*
X164499689Y-126743846D01*
X164290227Y-126455546D01*
X164290226Y-126455544D01*
X163952751Y-125991052D01*
X163859443Y-126111344D01*
X163859442Y-126111346D01*
X163795224Y-126259744D01*
X163792805Y-126275016D01*
X163762873Y-126338149D01*
X163703567Y-126375076D01*
X163665170Y-126385758D01*
X163614218Y-126415012D01*
X163614214Y-126415015D01*
X163311778Y-126634750D01*
X163311771Y-126634755D01*
X163268209Y-126674166D01*
X163268205Y-126674170D01*
X163190268Y-126791718D01*
X163190265Y-126791724D01*
X163148598Y-126926477D01*
X163148324Y-126945654D01*
X163127683Y-127012405D01*
X163092727Y-127047316D01*
X162895955Y-127177419D01*
X162892314Y-127179736D01*
X162672577Y-127314275D01*
X162605125Y-127332494D01*
X162578153Y-127328920D01*
X162575978Y-127328384D01*
X162542267Y-127320075D01*
X162384297Y-127320075D01*
X162384296Y-127320075D01*
X162230916Y-127357878D01*
X162091044Y-127431290D01*
X161972798Y-127536046D01*
X161883062Y-127666050D01*
X161843369Y-127770712D01*
X161801190Y-127826414D01*
X161788458Y-127834681D01*
X161599860Y-127941316D01*
X161531814Y-127957176D01*
X161465996Y-127933731D01*
X161428469Y-127886155D01*
X161427109Y-127886838D01*
X161425096Y-127882827D01*
X161389853Y-127823682D01*
X161389849Y-127823677D01*
X161302171Y-127746249D01*
X161194099Y-127701484D01*
X161194100Y-127701484D01*
X161155182Y-127699068D01*
X161077348Y-127694236D01*
X161077347Y-127694236D01*
X161077346Y-127694236D01*
X161032078Y-127705699D01*
X161010602Y-127711138D01*
X161010600Y-127711138D01*
X161010599Y-127711139D01*
X160210038Y-128042742D01*
X160150897Y-128077983D01*
X160150894Y-128077985D01*
X160125733Y-128106477D01*
X160066602Y-128143696D01*
X160025108Y-128148157D01*
X159998010Y-128146474D01*
X159987170Y-128145802D01*
X159987169Y-128145802D01*
X159920419Y-128162705D01*
X159920418Y-128162706D01*
X159545452Y-128318021D01*
X159475983Y-128325490D01*
X159467334Y-128323608D01*
X159357197Y-128295497D01*
X159357194Y-128295496D01*
X159213509Y-128300629D01*
X159213507Y-128300629D01*
X159156060Y-128317497D01*
X159156036Y-128317505D01*
X159065665Y-128354937D01*
X159065664Y-128354938D01*
X159505751Y-129417401D01*
X159754493Y-130017922D01*
X159754494Y-130017923D01*
X159844881Y-129980483D01*
X159844883Y-129980482D01*
X159897437Y-129951784D01*
X159897441Y-129951782D01*
X159915013Y-129935422D01*
X159977492Y-129904146D01*
X160046961Y-129911614D01*
X160067206Y-129919999D01*
X160105777Y-129935976D01*
X160160180Y-129979816D01*
X160182246Y-130046109D01*
X160164968Y-130113809D01*
X160113831Y-130161420D01*
X160104622Y-130165570D01*
X159202685Y-130528569D01*
X159198015Y-130530340D01*
X158802456Y-130671311D01*
X158732699Y-130675274D01*
X158671873Y-130640895D01*
X158639290Y-130579087D01*
X158645294Y-130509476D01*
X158646233Y-130507139D01*
X158694532Y-130390538D01*
X158705922Y-130363039D01*
X158722568Y-130322851D01*
X158766410Y-130268449D01*
X158789675Y-130255746D01*
X158804133Y-130249758D01*
X158804132Y-130249758D01*
X158808281Y-130248040D01*
X158808658Y-130248950D01*
X158872836Y-130237309D01*
X158890365Y-130240463D01*
X159001022Y-130268706D01*
X159001025Y-130268707D01*
X159144710Y-130263574D01*
X159144712Y-130263574D01*
X159202164Y-130246705D01*
X159202177Y-130246700D01*
X159292554Y-130209264D01*
X158852469Y-129146803D01*
X158603724Y-128546280D01*
X158513348Y-128583716D01*
X158460774Y-128612424D01*
X158355549Y-128710391D01*
X158355548Y-128710392D01*
X158297273Y-128808611D01*
X158246136Y-128856222D01*
X158233869Y-128861297D01*
X158233870Y-128861298D01*
X157475355Y-129175485D01*
X157416213Y-129210725D01*
X157338780Y-129298410D01*
X157313846Y-129358607D01*
X157294016Y-129406481D01*
X157286768Y-129523232D01*
X157303670Y-129589978D01*
X157465146Y-129979816D01*
X157578765Y-130254116D01*
X157586234Y-130323586D01*
X157554959Y-130386065D01*
X157501099Y-130419953D01*
X157182721Y-130519176D01*
X157178506Y-130520408D01*
X157131319Y-130533300D01*
X157061462Y-130531980D01*
X157032470Y-130518554D01*
X157013120Y-130506345D01*
X156433195Y-130661734D01*
X156433193Y-130661736D01*
X156139159Y-130740522D01*
X156069310Y-130738859D01*
X156011447Y-130699697D01*
X155987291Y-130652840D01*
X155746459Y-129754040D01*
X155616241Y-129832904D01*
X155503100Y-129948439D01*
X155495371Y-129961827D01*
X155444802Y-130010041D01*
X155376201Y-130023262D01*
X155336529Y-130019474D01*
X155336528Y-130019474D01*
X155336527Y-130019474D01*
X155316154Y-130022651D01*
X155278476Y-130028526D01*
X155278472Y-130028526D01*
X155278472Y-130028527D01*
X155212856Y-130046109D01*
X154917373Y-130125284D01*
X154862576Y-130146467D01*
X154862569Y-130146471D01*
X154747684Y-130228280D01*
X154747684Y-130228281D01*
X154747682Y-130228282D01*
X154747682Y-130228283D01*
X154701204Y-130287385D01*
X154660486Y-130339162D01*
X154659724Y-130340483D01*
X154658622Y-130341533D01*
X154655012Y-130346124D01*
X154654351Y-130345604D01*
X154609151Y-130388692D01*
X154575945Y-130400202D01*
X154338022Y-130446328D01*
X154333772Y-130447076D01*
X154083370Y-130486636D01*
X154014080Y-130477654D01*
X154006394Y-130473951D01*
X153867098Y-130400842D01*
X153713719Y-130363039D01*
X153713718Y-130363039D01*
X153555748Y-130363039D01*
X153555747Y-130363039D01*
X153402367Y-130400842D01*
X153262495Y-130474254D01*
X153144250Y-130579008D01*
X153139278Y-130584622D01*
X153138013Y-130583501D01*
X153090837Y-130621723D01*
X153058163Y-130630366D01*
X152848232Y-130656083D01*
X152779296Y-130644696D01*
X152727460Y-130597847D01*
X152711000Y-130539543D01*
X152709479Y-130539654D01*
X152709154Y-130535174D01*
X152704010Y-130499866D01*
X152699227Y-130467041D01*
X152647852Y-130361951D01*
X152647850Y-130361949D01*
X152647850Y-130361948D01*
X152565139Y-130279237D01*
X152542255Y-130268050D01*
X152460047Y-130227861D01*
X152460045Y-130227860D01*
X152391915Y-130217934D01*
X152391914Y-130217934D01*
X151525394Y-130217934D01*
X151525393Y-130217934D01*
X151457261Y-130227860D01*
X151457260Y-130227860D01*
X151423113Y-130244554D01*
X151354240Y-130256312D01*
X151314195Y-130244554D01*
X151280047Y-130227860D01*
X151211915Y-130217934D01*
X151211914Y-130217934D01*
X150806049Y-130217934D01*
X150739010Y-130198249D01*
X150731737Y-130193200D01*
X150640743Y-130125081D01*
X150640740Y-130125079D01*
X150506033Y-130074837D01*
X150506026Y-130074835D01*
X150446498Y-130068434D01*
X150348654Y-130068434D01*
X150348654Y-131868434D01*
X150446482Y-131868434D01*
X150446498Y-131868433D01*
X150506026Y-131862032D01*
X150528524Y-131853641D01*
X150598216Y-131848655D01*
X150659540Y-131882139D01*
X150659541Y-131882141D01*
X150702559Y-131925159D01*
X150736044Y-131986482D01*
X150731060Y-132056174D01*
X150689188Y-132112107D01*
X150623724Y-132136524D01*
X150617375Y-132136815D01*
X150408842Y-132141015D01*
X150403848Y-132141015D01*
X149410270Y-132121004D01*
X149405280Y-132120803D01*
X149216123Y-132109361D01*
X149150394Y-132085664D01*
X149107911Y-132030194D01*
X149102162Y-131960561D01*
X149134971Y-131898874D01*
X149135798Y-131898036D01*
X149278585Y-131755250D01*
X149339906Y-131721768D01*
X149366264Y-131718934D01*
X149386401Y-131718934D01*
X149386401Y-131719926D01*
X149450126Y-131733709D01*
X149465141Y-131743346D01*
X149556564Y-131811786D01*
X149556567Y-131811788D01*
X149691274Y-131862030D01*
X149691281Y-131862032D01*
X149750809Y-131868433D01*
X149750826Y-131868434D01*
X149848654Y-131868434D01*
X149848654Y-130068434D01*
X149750809Y-130068434D01*
X149691281Y-130074835D01*
X149691274Y-130074837D01*
X149556567Y-130125079D01*
X149556565Y-130125080D01*
X149465140Y-130193522D01*
X149399676Y-130217939D01*
X149386401Y-130217932D01*
X149386401Y-130217934D01*
X148565393Y-130217934D01*
X148497262Y-130227860D01*
X148392168Y-130279237D01*
X148309457Y-130361948D01*
X148258080Y-130467042D01*
X148248154Y-130535173D01*
X148248154Y-131254034D01*
X148228469Y-131321073D01*
X148175665Y-131366828D01*
X148112937Y-131377526D01*
X147780809Y-131347358D01*
X147776441Y-131346883D01*
X147626948Y-131327944D01*
X147623135Y-131327400D01*
X147031837Y-131233747D01*
X147031785Y-131233741D01*
X146716876Y-131183863D01*
X146653741Y-131153934D01*
X146616810Y-131094622D01*
X146613801Y-131041992D01*
X146660232Y-130748837D01*
X147166464Y-130748837D01*
X147166466Y-130748839D01*
X147688744Y-130831559D01*
X147688745Y-130831559D01*
X147690392Y-130810650D01*
X147690391Y-130810641D01*
X147670127Y-130650223D01*
X147610599Y-130499875D01*
X147610594Y-130499866D01*
X147515555Y-130369056D01*
X147390958Y-130265980D01*
X147253207Y-130201161D01*
X147166464Y-130748837D01*
X146660232Y-130748837D01*
X146759365Y-130122943D01*
X146759364Y-130122942D01*
X146608330Y-130142023D01*
X146608321Y-130142025D01*
X146457981Y-130201550D01*
X146457980Y-130201551D01*
X146445471Y-130210639D01*
X146379663Y-130234115D01*
X146311616Y-130218290D01*
X146276914Y-130198693D01*
X146257797Y-130193522D01*
X146220196Y-130183351D01*
X146220191Y-130183350D01*
X146220183Y-130183348D01*
X145850983Y-130124873D01*
X145850966Y-130124871D01*
X145792288Y-130121935D01*
X145792279Y-130121936D01*
X145654052Y-130149943D01*
X145654048Y-130149944D01*
X145654047Y-130149945D01*
X145611318Y-130172491D01*
X145529293Y-130215771D01*
X145523163Y-130220225D01*
X145457355Y-130243699D01*
X145425505Y-130241400D01*
X145180524Y-130191433D01*
X145176311Y-130190497D01*
X144924154Y-130129857D01*
X144863576Y-130095043D01*
X144851098Y-130079734D01*
X144819385Y-130033790D01*
X144804208Y-130011802D01*
X144685965Y-129907049D01*
X144685963Y-129907048D01*
X144685962Y-129907047D01*
X144546090Y-129833635D01*
X144392711Y-129795832D01*
X144392710Y-129795832D01*
X144234740Y-129795832D01*
X144081357Y-129833636D01*
X144024251Y-129863608D01*
X143955742Y-129877332D01*
X143933455Y-129873292D01*
X143723882Y-129815110D01*
X143664552Y-129778210D01*
X143634590Y-129715090D01*
X143641702Y-129654919D01*
X143640250Y-129654438D01*
X143641662Y-129650181D01*
X143641662Y-129650180D01*
X143641664Y-129650176D01*
X143648132Y-129624633D01*
X156229422Y-129624633D01*
X156372938Y-130160242D01*
X156883710Y-130023382D01*
X156876708Y-130003606D01*
X156876705Y-130003600D01*
X156792944Y-129865295D01*
X156677409Y-129752155D01*
X156537374Y-129671306D01*
X156537375Y-129671306D01*
X156381629Y-129627821D01*
X156381633Y-129627821D01*
X156229422Y-129624633D01*
X143648132Y-129624633D01*
X143658566Y-129583430D01*
X143651318Y-129466679D01*
X143606553Y-129358607D01*
X143529123Y-129270927D01*
X143529122Y-129270926D01*
X143529119Y-129270924D01*
X143469978Y-129235683D01*
X142903845Y-129001183D01*
X142669415Y-128904079D01*
X142602669Y-128887177D01*
X142564730Y-128889532D01*
X142496600Y-128874038D01*
X142464102Y-128847849D01*
X142438945Y-128819361D01*
X142438941Y-128819357D01*
X142379800Y-128784117D01*
X142004827Y-128628798D01*
X141950424Y-128584957D01*
X141945638Y-128577510D01*
X141887636Y-128479751D01*
X141887635Y-128479750D01*
X141782410Y-128381783D01*
X141729839Y-128353077D01*
X141639459Y-128315639D01*
X141376320Y-128950913D01*
X141376320Y-128950915D01*
X140950629Y-129978623D01*
X140950630Y-129978624D01*
X141041006Y-130016059D01*
X141041020Y-130016064D01*
X141098473Y-130032933D01*
X141122468Y-130033790D01*
X141188763Y-130055853D01*
X141232606Y-130110255D01*
X141251801Y-130156596D01*
X141252090Y-130157294D01*
X141259558Y-130226764D01*
X141228282Y-130289243D01*
X141168193Y-130324895D01*
X141098368Y-130322400D01*
X141091231Y-130319779D01*
X140688093Y-130157531D01*
X140683499Y-130155574D01*
X140670987Y-130149943D01*
X140389514Y-130023262D01*
X139820686Y-129767253D01*
X139767631Y-129721788D01*
X139747579Y-129654858D01*
X139766895Y-129587711D01*
X139819447Y-129541667D01*
X139824098Y-129539627D01*
X140005330Y-129464558D01*
X140074798Y-129457090D01*
X140100231Y-129464559D01*
X140114690Y-129470548D01*
X140118840Y-129472267D01*
X140118460Y-129473182D01*
X140172061Y-129510309D01*
X140182238Y-129524951D01*
X140240511Y-129623168D01*
X140240514Y-129623171D01*
X140345741Y-129721140D01*
X140398302Y-129749842D01*
X140488689Y-129787281D01*
X140800418Y-129034704D01*
X141177519Y-128124297D01*
X141177518Y-128124296D01*
X141087148Y-128086864D01*
X141087124Y-128086856D01*
X141029676Y-128069988D01*
X140885990Y-128064855D01*
X140885987Y-128064856D01*
X140775330Y-128093100D01*
X140705505Y-128090606D01*
X140693243Y-128085520D01*
X140693243Y-128085522D01*
X140643351Y-128064856D01*
X139934732Y-127771336D01*
X139890620Y-127760165D01*
X139867987Y-127754434D01*
X139867986Y-127754434D01*
X139809610Y-127758058D01*
X139751234Y-127761682D01*
X139643162Y-127806447D01*
X139555484Y-127883875D01*
X139555480Y-127883880D01*
X139520239Y-127943021D01*
X139245140Y-128607167D01*
X139201299Y-128661570D01*
X139135005Y-128683635D01*
X139072957Y-128669513D01*
X138777661Y-128514543D01*
X138773809Y-128512433D01*
X138731335Y-128488187D01*
X138682873Y-128437857D01*
X138671867Y-128407867D01*
X138666815Y-128385546D01*
X138146871Y-128085355D01*
X138146868Y-128085354D01*
X137883244Y-127933150D01*
X137835028Y-127882583D01*
X137821806Y-127813976D01*
X137837857Y-127763763D01*
X137881520Y-127688137D01*
X138458869Y-127688137D01*
X138458869Y-127688138D01*
X138916815Y-127952532D01*
X138925847Y-127933599D01*
X138925850Y-127933591D01*
X138964418Y-127776572D01*
X138964420Y-127776561D01*
X138962725Y-127614873D01*
X138920874Y-127458680D01*
X138841495Y-127317804D01*
X138841493Y-127317801D01*
X138736122Y-127207922D01*
X138736121Y-127207922D01*
X138458869Y-127688137D01*
X137881520Y-127688137D01*
X138303109Y-126957922D01*
X138155265Y-126921608D01*
X138155261Y-126921607D01*
X137993571Y-126923302D01*
X137978643Y-126927302D01*
X137908793Y-126925637D01*
X137850935Y-126886476D01*
X137825560Y-126855744D01*
X137825560Y-126855743D01*
X137778100Y-126821090D01*
X137454356Y-126634178D01*
X137400627Y-126610409D01*
X137400624Y-126610408D01*
X137261534Y-126587019D01*
X137261532Y-126587018D01*
X137121475Y-126603764D01*
X137119994Y-126604161D01*
X137118463Y-126604124D01*
X137112679Y-126604816D01*
X137112579Y-126603983D01*
X137050144Y-126602489D01*
X137018527Y-126587149D01*
X136817659Y-126451518D01*
X136814125Y-126449041D01*
X136607525Y-126298816D01*
X136564881Y-126243470D01*
X136557353Y-126213471D01*
X136555534Y-126198488D01*
X136499517Y-126050783D01*
X136409780Y-125920776D01*
X136291537Y-125816023D01*
X136291535Y-125816022D01*
X136291534Y-125816021D01*
X136151662Y-125742609D01*
X135998283Y-125704806D01*
X135998282Y-125704806D01*
X135861250Y-125704806D01*
X135794211Y-125685121D01*
X135784881Y-125678498D01*
X135771407Y-125667965D01*
X135615911Y-125546408D01*
X135575219Y-125489614D01*
X135571692Y-125419833D01*
X135601293Y-125366961D01*
X135600136Y-125365960D01*
X135603068Y-125362569D01*
X135612965Y-125349296D01*
X135644227Y-125307371D01*
X135644228Y-125307366D01*
X135644230Y-125307364D01*
X135682208Y-125196736D01*
X135682209Y-125196734D01*
X135682209Y-125079755D01*
X135682208Y-125079753D01*
X135644230Y-124969125D01*
X135644227Y-124969120D01*
X135644227Y-124969119D01*
X135619761Y-124936308D01*
X135603071Y-124913924D01*
X134990344Y-124301197D01*
X134954994Y-124274839D01*
X134935150Y-124260042D01*
X134899198Y-124247699D01*
X134842184Y-124207314D01*
X134822181Y-124170680D01*
X134809842Y-124134736D01*
X134809841Y-124134735D01*
X134809841Y-124134734D01*
X134773530Y-124086037D01*
X134768685Y-124079539D01*
X134481694Y-123792548D01*
X134448209Y-123731225D01*
X134446637Y-123722513D01*
X134430461Y-123610002D01*
X134430459Y-123609994D01*
X134370737Y-123479221D01*
X134370732Y-123479214D01*
X134333155Y-123432583D01*
X134263979Y-123363407D01*
X133538487Y-124088899D01*
X133477164Y-124122384D01*
X133407472Y-124117400D01*
X133363125Y-124088899D01*
X133184934Y-123910708D01*
X133151449Y-123849385D01*
X133156433Y-123779693D01*
X133184934Y-123735346D01*
X133910426Y-123009854D01*
X133841249Y-122940677D01*
X133794618Y-122903100D01*
X133794611Y-122903095D01*
X133663838Y-122843373D01*
X133663831Y-122843371D01*
X133559976Y-122828440D01*
X135013023Y-122828440D01*
X135028972Y-122842062D01*
X135028982Y-122842069D01*
X135170673Y-122919965D01*
X135170683Y-122919968D01*
X135327294Y-122960179D01*
X135327302Y-122960180D01*
X135489000Y-122960180D01*
X135489005Y-122960179D01*
X135645623Y-122919966D01*
X135779031Y-122846624D01*
X135386937Y-122454530D01*
X135386936Y-122454530D01*
X135013023Y-122828440D01*
X133559976Y-122828440D01*
X133550788Y-122827119D01*
X133487233Y-122798094D01*
X133477851Y-122788704D01*
X133477851Y-122788705D01*
X132897308Y-122208162D01*
X132864192Y-122183470D01*
X132842114Y-122167007D01*
X132754425Y-122136903D01*
X132731478Y-122129025D01*
X132731477Y-122129025D01*
X132614500Y-122129025D01*
X132614499Y-122129025D01*
X132591552Y-122136903D01*
X132503863Y-122167007D01*
X132503860Y-122167008D01*
X132503860Y-122167009D01*
X132448668Y-122208162D01*
X132448667Y-122208162D01*
X131940353Y-122716476D01*
X131879030Y-122749961D01*
X131809338Y-122744977D01*
X131757419Y-122708185D01*
X131543923Y-122452029D01*
X131541171Y-122448606D01*
X131192598Y-121998907D01*
X134527733Y-121998907D01*
X134527733Y-122160618D01*
X134567944Y-122317229D01*
X134567947Y-122317239D01*
X134645844Y-122458932D01*
X134645850Y-122458941D01*
X134659469Y-122474888D01*
X135033383Y-122100977D01*
X134641287Y-121708881D01*
X134641286Y-121708881D01*
X134567946Y-121842290D01*
X134527733Y-121998907D01*
X131192598Y-121998907D01*
X131018126Y-121773819D01*
X131015510Y-121770319D01*
X130516683Y-121077414D01*
X130514187Y-121073812D01*
X130496320Y-121047043D01*
X130040262Y-120363747D01*
X130037891Y-120360055D01*
X129956417Y-120228091D01*
X129589369Y-119633578D01*
X129587162Y-119629857D01*
X129510025Y-119494409D01*
X129493956Y-119426415D01*
X129517198Y-119360524D01*
X129560150Y-119323251D01*
X129630735Y-119286206D01*
X129748978Y-119181453D01*
X129838715Y-119051446D01*
X129894732Y-118903741D01*
X129913773Y-118746923D01*
X129896260Y-118602685D01*
X129894732Y-118590104D01*
X129848264Y-118467579D01*
X129838715Y-118442400D01*
X129838714Y-118442399D01*
X129836055Y-118435387D01*
X129838548Y-118434441D01*
X129827291Y-118378307D01*
X129852770Y-118313249D01*
X129871657Y-118293719D01*
X129876322Y-118289850D01*
X129884426Y-118280672D01*
X129953751Y-118202171D01*
X129998516Y-118094099D01*
X130005764Y-117977348D01*
X129988862Y-117910602D01*
X129657259Y-117110042D01*
X129653017Y-117102923D01*
X129622017Y-117050897D01*
X129622011Y-117050891D01*
X129593523Y-117025733D01*
X129556304Y-116966602D01*
X129551842Y-116925108D01*
X129554198Y-116887170D01*
X129537296Y-116820424D01*
X129381977Y-116445451D01*
X129374509Y-116375984D01*
X129376391Y-116367334D01*
X129404503Y-116257195D01*
X129404503Y-116257194D01*
X129399370Y-116113509D01*
X129399370Y-116113507D01*
X129382501Y-116056055D01*
X129382496Y-116056041D01*
X129345061Y-115965665D01*
X129345060Y-115965664D01*
X128397160Y-116358298D01*
X128327690Y-116365767D01*
X128265211Y-116334492D01*
X128235146Y-116291190D01*
X128138709Y-116058372D01*
X128131240Y-115988903D01*
X128162515Y-115926423D01*
X128205817Y-115896358D01*
X129153718Y-115503725D01*
X129153719Y-115503724D01*
X129116279Y-115413337D01*
X129087577Y-115360776D01*
X128989608Y-115255549D01*
X128989605Y-115255546D01*
X128891388Y-115197273D01*
X128843777Y-115146137D01*
X128838703Y-115133870D01*
X128838702Y-115133871D01*
X128823567Y-115097331D01*
X128524516Y-114375359D01*
X128524514Y-114375355D01*
X128489274Y-114316213D01*
X128489272Y-114316211D01*
X128401591Y-114238781D01*
X128293519Y-114194016D01*
X128293520Y-114194016D01*
X128254602Y-114191600D01*
X128176768Y-114186768D01*
X128176767Y-114186768D01*
X128176766Y-114186768D01*
X128131498Y-114198231D01*
X128110022Y-114203670D01*
X128110020Y-114203670D01*
X128110019Y-114203671D01*
X127445882Y-114478765D01*
X127376412Y-114486234D01*
X127313933Y-114454959D01*
X127280045Y-114401098D01*
X127180825Y-114082728D01*
X127179593Y-114078513D01*
X127160234Y-114007652D01*
X127161555Y-113937795D01*
X127171755Y-113916261D01*
X127013206Y-113280353D01*
X127528512Y-113280353D01*
X127656437Y-113793435D01*
X127656439Y-113793436D01*
X127676326Y-113786783D01*
X127676329Y-113786782D01*
X127816087Y-113705442D01*
X127931225Y-113591899D01*
X128014506Y-113453296D01*
X128060702Y-113298337D01*
X128060703Y-113298334D01*
X128066546Y-113146206D01*
X127528512Y-113280353D01*
X127013206Y-113280353D01*
X126952403Y-113036483D01*
X126955285Y-112966673D01*
X126995451Y-112909503D01*
X127042722Y-112886168D01*
X127407552Y-112795206D01*
X127945586Y-112661058D01*
X127869008Y-112529482D01*
X127755466Y-112414344D01*
X127742218Y-112406384D01*
X127694893Y-112354983D01*
X127682870Y-112286159D01*
X127687351Y-112246556D01*
X127679312Y-112188351D01*
X127588874Y-111825627D01*
X127568647Y-111770461D01*
X127488850Y-111654156D01*
X127488847Y-111654153D01*
X127488846Y-111654152D01*
X127379520Y-111565045D01*
X127372560Y-111562117D01*
X127318403Y-111517972D01*
X127298920Y-111471423D01*
X127272291Y-111334065D01*
X127253667Y-111237999D01*
X127252924Y-111233777D01*
X127249047Y-111209240D01*
X127212504Y-110977933D01*
X127221486Y-110908644D01*
X127232933Y-110888147D01*
X127266681Y-110839256D01*
X127322698Y-110691551D01*
X127341739Y-110534733D01*
X127324039Y-110388955D01*
X127322698Y-110377914D01*
X127297936Y-110312622D01*
X127266681Y-110230210D01*
X127176944Y-110100203D01*
X127176942Y-110100201D01*
X127111231Y-110041986D01*
X127074104Y-109982797D01*
X127070380Y-109964258D01*
X127043916Y-109748229D01*
X127055303Y-109679296D01*
X127102152Y-109627460D01*
X127160456Y-109611000D01*
X127160346Y-109609479D01*
X127164825Y-109609154D01*
X127164826Y-109609154D01*
X127232959Y-109599227D01*
X127338049Y-109547852D01*
X127420764Y-109465137D01*
X127472139Y-109360047D01*
X127482066Y-109291914D01*
X127482066Y-108425394D01*
X127472139Y-108357261D01*
X127455445Y-108323114D01*
X127446643Y-108271566D01*
X129471842Y-108271566D01*
X129514314Y-108417761D01*
X129596624Y-108556940D01*
X129596631Y-108556949D01*
X129710962Y-108671280D01*
X129710971Y-108671287D01*
X129850150Y-108753597D01*
X130005435Y-108798711D01*
X130026346Y-108800355D01*
X130026346Y-108271566D01*
X129471842Y-108271566D01*
X127446643Y-108271566D01*
X127443685Y-108254244D01*
X127455444Y-108214194D01*
X127472139Y-108180047D01*
X127482066Y-108111914D01*
X127482066Y-107706049D01*
X127501751Y-107639010D01*
X127506800Y-107631737D01*
X127574918Y-107540743D01*
X127574920Y-107540740D01*
X127625162Y-107406033D01*
X127625164Y-107406026D01*
X127631565Y-107346498D01*
X127631566Y-107346481D01*
X127631566Y-107248654D01*
X126605566Y-107248654D01*
X126538527Y-107228969D01*
X126492772Y-107176165D01*
X126481566Y-107124654D01*
X126481566Y-106872654D01*
X126501251Y-106805615D01*
X126554055Y-106759860D01*
X126605566Y-106748654D01*
X127631566Y-106748654D01*
X127631566Y-106650826D01*
X127631565Y-106650809D01*
X127625164Y-106591281D01*
X127625162Y-106591274D01*
X127574920Y-106456567D01*
X127574918Y-106456564D01*
X127506478Y-106365141D01*
X127482060Y-106299677D01*
X127482068Y-106286401D01*
X127482066Y-106286401D01*
X127482066Y-105465393D01*
X127472139Y-105397262D01*
X127428544Y-105308086D01*
X127420764Y-105292171D01*
X127420762Y-105292169D01*
X127420762Y-105292168D01*
X127338051Y-105209457D01*
X127232957Y-105158080D01*
X127164827Y-105148154D01*
X127164826Y-105148154D01*
X126445965Y-105148154D01*
X126378926Y-105128469D01*
X126333171Y-105075665D01*
X126322473Y-105012937D01*
X126324509Y-104990521D01*
X126352645Y-104680764D01*
X126353111Y-104676486D01*
X126438563Y-104001948D01*
X126466517Y-103937915D01*
X126524653Y-103899159D01*
X126591255Y-103897136D01*
X126623104Y-103904986D01*
X126781074Y-103904986D01*
X126934454Y-103867182D01*
X127074329Y-103793769D01*
X127192572Y-103689016D01*
X127282309Y-103559009D01*
X127338326Y-103411304D01*
X127357367Y-103254486D01*
X127356838Y-103250128D01*
X127365092Y-103200475D01*
X127362125Y-103199680D01*
X127375772Y-103148745D01*
X127397051Y-103069333D01*
X127397051Y-103069328D01*
X127397222Y-103068690D01*
X127433586Y-103009029D01*
X127435249Y-103007545D01*
X127459776Y-102986088D01*
X127482770Y-102949932D01*
X127535464Y-102867074D01*
X127535464Y-102867072D01*
X127535466Y-102867070D01*
X127537269Y-102861565D01*
X129111131Y-102861565D01*
X129111131Y-102861566D01*
X129129948Y-103064648D01*
X129185763Y-103260813D01*
X129185768Y-103260826D01*
X129276673Y-103443387D01*
X129399583Y-103606147D01*
X129550304Y-103743546D01*
X129550306Y-103743548D01*
X129578079Y-103760744D01*
X129723709Y-103850914D01*
X129746637Y-103859796D01*
X129802039Y-103902368D01*
X129825630Y-103968134D01*
X129825844Y-103975423D01*
X129825844Y-106456768D01*
X129806159Y-106523807D01*
X129776156Y-106556034D01*
X129755941Y-106571166D01*
X129755939Y-106571168D01*
X129671414Y-106684082D01*
X129671413Y-106684084D01*
X129622126Y-106816231D01*
X129622125Y-106816235D01*
X129615844Y-106874655D01*
X129615844Y-106874662D01*
X129615844Y-106874663D01*
X129615844Y-107248481D01*
X129615845Y-107248488D01*
X129622124Y-107306905D01*
X129636053Y-107344248D01*
X129641037Y-107413939D01*
X129607555Y-107475260D01*
X129596628Y-107486187D01*
X129596623Y-107486193D01*
X129514314Y-107625370D01*
X129471842Y-107771566D01*
X130329510Y-107771566D01*
X130396549Y-107791251D01*
X130442304Y-107844055D01*
X130453373Y-107889745D01*
X130490099Y-108671280D01*
X130491470Y-108700436D01*
X130566682Y-109541131D01*
X130615103Y-109907245D01*
X130677349Y-110377901D01*
X130823274Y-111209238D01*
X130895079Y-111536437D01*
X131004198Y-112033674D01*
X131089086Y-112354983D01*
X131219797Y-112849736D01*
X131469680Y-113655940D01*
X131753406Y-114450868D01*
X131892176Y-114793229D01*
X132070475Y-115233114D01*
X132420310Y-116001255D01*
X132802289Y-116753927D01*
X133176057Y-117419174D01*
X133191733Y-117487263D01*
X133168110Y-117553017D01*
X133112687Y-117595562D01*
X133047543Y-117602222D01*
X132980682Y-117591066D01*
X132980681Y-117591066D01*
X132732011Y-117591066D01*
X132486729Y-117631995D01*
X132251543Y-117712735D01*
X132251534Y-117712738D01*
X132032839Y-117831090D01*
X131836603Y-117983827D01*
X131668179Y-118166783D01*
X131532172Y-118374959D01*
X131432282Y-118602684D01*
X131371238Y-118843741D01*
X131371236Y-118843753D01*
X131350703Y-119091560D01*
X131350703Y-119091571D01*
X131371236Y-119339378D01*
X131371238Y-119339390D01*
X131432282Y-119580447D01*
X131532172Y-119808172D01*
X131668179Y-120016348D01*
X131668182Y-120016351D01*
X131836602Y-120199304D01*
X132032837Y-120352040D01*
X132251536Y-120470394D01*
X132486732Y-120551137D01*
X132732011Y-120592066D01*
X132980681Y-120592066D01*
X133225960Y-120551137D01*
X133461156Y-120470394D01*
X133679855Y-120352040D01*
X133876090Y-120199304D01*
X134044510Y-120016351D01*
X134180519Y-119808173D01*
X134280409Y-119580447D01*
X134306461Y-119477570D01*
X134341999Y-119417416D01*
X134404419Y-119386023D01*
X134473903Y-119393361D01*
X134526222Y-119434088D01*
X134637174Y-119583514D01*
X135070973Y-120118902D01*
X135097883Y-120183382D01*
X135085660Y-120252174D01*
X135056856Y-120289780D01*
X134960347Y-120375279D01*
X134870610Y-120505286D01*
X134870609Y-120505287D01*
X134814591Y-120652992D01*
X134795551Y-120809810D01*
X134795551Y-120809811D01*
X134814591Y-120966629D01*
X134870609Y-121114334D01*
X134870610Y-121114335D01*
X134960347Y-121244343D01*
X134965320Y-121249956D01*
X134962887Y-121252111D01*
X134992213Y-121298921D01*
X134995604Y-121349951D01*
X134994838Y-121355326D01*
X136132583Y-122493071D01*
X136205925Y-122359664D01*
X136246138Y-122203046D01*
X136246139Y-122203041D01*
X136246139Y-122187586D01*
X136265824Y-122120547D01*
X136318628Y-122074792D01*
X136318627Y-122074792D01*
X136354881Y-122058236D01*
X136400631Y-122021368D01*
X136544834Y-121877162D01*
X136606157Y-121843678D01*
X136675849Y-121848662D01*
X136720197Y-121877163D01*
X137523162Y-122680128D01*
X137556647Y-122741451D01*
X137558577Y-122782754D01*
X137547582Y-122873316D01*
X137547582Y-122873317D01*
X137566622Y-123030135D01*
X137622640Y-123177840D01*
X137712377Y-123307847D01*
X137830620Y-123412600D01*
X137830622Y-123412601D01*
X137970494Y-123486013D01*
X138123874Y-123523817D01*
X138123875Y-123523817D01*
X138281845Y-123523817D01*
X138435225Y-123486013D01*
X138470252Y-123467629D01*
X138575100Y-123412600D01*
X138693343Y-123307847D01*
X138733364Y-123249865D01*
X138787646Y-123205876D01*
X138857095Y-123198216D01*
X138906131Y-123218448D01*
X139470107Y-123610002D01*
X139562034Y-123673824D01*
X140281260Y-124128177D01*
X141019543Y-124550859D01*
X141775491Y-124941072D01*
X142547675Y-125298079D01*
X143334638Y-125621207D01*
X144134895Y-125909845D01*
X144946934Y-126163448D01*
X145769224Y-126381538D01*
X146600210Y-126563703D01*
X147438325Y-126709599D01*
X147559384Y-126725290D01*
X147613890Y-126732355D01*
X147677843Y-126760493D01*
X147716431Y-126818740D01*
X147717402Y-126888603D01*
X147713893Y-126899297D01*
X147670109Y-127014747D01*
X147651068Y-127171565D01*
X147651068Y-127171566D01*
X147670108Y-127328384D01*
X147719524Y-127458680D01*
X147726126Y-127476089D01*
X147815863Y-127606096D01*
X147934106Y-127710849D01*
X147934108Y-127710850D01*
X148073980Y-127784262D01*
X148073979Y-127784262D01*
X148146520Y-127802141D01*
X148206901Y-127837297D01*
X148238690Y-127899516D01*
X148240846Y-127922538D01*
X148240846Y-128294826D01*
X148250772Y-128362957D01*
X148302149Y-128468051D01*
X148384860Y-128550762D01*
X148384861Y-128550762D01*
X148384863Y-128550764D01*
X148489953Y-128602139D01*
X148513618Y-128605587D01*
X148558085Y-128612066D01*
X148558086Y-128612066D01*
X149424601Y-128612066D01*
X149424606Y-128612066D01*
X149492739Y-128602139D01*
X149526885Y-128585445D01*
X149595756Y-128573685D01*
X149635805Y-128585444D01*
X149669953Y-128602139D01*
X149738086Y-128612066D01*
X149738091Y-128612066D01*
X150143951Y-128612066D01*
X150210990Y-128631751D01*
X150218263Y-128636800D01*
X150309256Y-128704918D01*
X150309259Y-128704920D01*
X150443966Y-128755162D01*
X150443973Y-128755164D01*
X150503501Y-128761565D01*
X150503518Y-128761566D01*
X150601346Y-128761566D01*
X150601346Y-126961566D01*
X150520846Y-126961566D01*
X150453807Y-126941881D01*
X150408052Y-126889077D01*
X150396846Y-126837566D01*
X150396846Y-126827191D01*
X150396846Y-126827189D01*
X150367849Y-126718970D01*
X150311831Y-126621944D01*
X150232609Y-126542722D01*
X149939909Y-126250022D01*
X149906424Y-126188699D01*
X149911408Y-126119007D01*
X149953280Y-126063074D01*
X150018744Y-126038657D01*
X150030444Y-126038374D01*
X150406346Y-126047059D01*
X151270230Y-126027100D01*
X151270244Y-126027099D01*
X151270245Y-126027099D01*
X151329329Y-126022997D01*
X152085946Y-125970480D01*
X152154186Y-125985475D01*
X152203488Y-126034984D01*
X152218196Y-126103288D01*
X152193642Y-126168701D01*
X152182212Y-126181863D01*
X151715083Y-126648994D01*
X151635863Y-126728213D01*
X151635859Y-126728219D01*
X151579844Y-126825239D01*
X151579843Y-126825240D01*
X151551202Y-126932132D01*
X151514837Y-126991792D01*
X151451989Y-127022321D01*
X151388094Y-127016220D01*
X151258726Y-126967969D01*
X151258718Y-126967967D01*
X151199190Y-126961566D01*
X151101346Y-126961566D01*
X151101346Y-128761566D01*
X151199174Y-128761566D01*
X151199190Y-128761565D01*
X151258718Y-128755164D01*
X151258725Y-128755162D01*
X151393432Y-128704920D01*
X151393435Y-128704918D01*
X151484858Y-128636478D01*
X151550322Y-128612060D01*
X151563599Y-128612067D01*
X151563599Y-128612066D01*
X152384607Y-128612066D01*
X152407317Y-128608757D01*
X152452739Y-128602139D01*
X152557829Y-128550764D01*
X152640544Y-128468049D01*
X152691919Y-128362959D01*
X152701846Y-128294826D01*
X152701846Y-127428306D01*
X152691919Y-127360173D01*
X152640544Y-127255083D01*
X152640542Y-127255081D01*
X152640542Y-127255080D01*
X152564198Y-127178736D01*
X152530713Y-127117413D01*
X152535697Y-127047721D01*
X152564198Y-127003374D01*
X152730006Y-126837566D01*
X152909934Y-126657637D01*
X152971255Y-126624154D01*
X152982543Y-126622239D01*
X153210798Y-126594306D01*
X154070652Y-126449682D01*
X154773363Y-126298816D01*
X154923132Y-126266662D01*
X154923136Y-126266660D01*
X154923159Y-126266656D01*
X155766603Y-126045596D01*
X156599288Y-125786946D01*
X156848339Y-125697158D01*
X164357261Y-125697158D01*
X164683190Y-126145761D01*
X165110989Y-125834947D01*
X165097368Y-125818997D01*
X165097367Y-125818996D01*
X164969598Y-125719887D01*
X164821193Y-125655667D01*
X164661487Y-125630372D01*
X164661486Y-125630372D01*
X164500498Y-125645590D01*
X164357261Y-125697158D01*
X156848339Y-125697158D01*
X157419542Y-125491227D01*
X157419551Y-125491222D01*
X157419560Y-125491220D01*
X157865741Y-125307364D01*
X158225713Y-125159032D01*
X159016181Y-124791030D01*
X159789357Y-124387961D01*
X160543685Y-123950635D01*
X161277650Y-123479931D01*
X161989774Y-122976797D01*
X162678627Y-122442244D01*
X163342823Y-121877347D01*
X163686145Y-121557746D01*
X163748625Y-121526478D01*
X163818094Y-121533951D01*
X163872494Y-121577796D01*
X163886575Y-121604537D01*
X163906127Y-121656091D01*
X163946516Y-121714604D01*
X163995863Y-121786096D01*
X164114106Y-121890849D01*
X164114108Y-121890850D01*
X164253980Y-121964262D01*
X164407360Y-122002066D01*
X164407361Y-122002066D01*
X164565331Y-122002066D01*
X164718711Y-121964262D01*
X164812881Y-121914837D01*
X164858586Y-121890849D01*
X164976829Y-121786096D01*
X165066566Y-121656089D01*
X165122583Y-121508384D01*
X165141624Y-121351566D01*
X165129287Y-121249956D01*
X165122583Y-121194747D01*
X165092068Y-121114287D01*
X165066566Y-121047043D01*
X165035506Y-121002045D01*
X165008759Y-120963294D01*
X164986876Y-120896939D01*
X165004342Y-120829287D01*
X165020336Y-120808056D01*
X165205188Y-120610855D01*
X165779407Y-119941120D01*
X166061865Y-119580446D01*
X166261538Y-119325482D01*
X166318370Y-119284838D01*
X166388153Y-119281372D01*
X166448733Y-119316185D01*
X166479369Y-119371496D01*
X166532282Y-119580447D01*
X166632172Y-119808172D01*
X166768179Y-120016348D01*
X166768182Y-120016351D01*
X166936602Y-120199304D01*
X167132837Y-120352040D01*
X167351536Y-120470394D01*
X167586732Y-120551137D01*
X167832011Y-120592066D01*
X168080681Y-120592066D01*
X168325960Y-120551137D01*
X168561156Y-120470394D01*
X168779855Y-120352040D01*
X168976090Y-120199304D01*
X169144510Y-120016351D01*
X169280519Y-119808173D01*
X169380409Y-119580447D01*
X169441454Y-119339387D01*
X169445974Y-119284838D01*
X169461989Y-119091571D01*
X169461989Y-119091560D01*
X169441455Y-118843753D01*
X169441453Y-118843741D01*
X169380409Y-118602684D01*
X169280519Y-118374959D01*
X169144512Y-118166783D01*
X169122903Y-118143310D01*
X168976090Y-117983828D01*
X168779855Y-117831092D01*
X168779853Y-117831091D01*
X168779852Y-117831090D01*
X168561157Y-117712738D01*
X168561148Y-117712735D01*
X168325962Y-117631995D01*
X168080681Y-117591066D01*
X167832011Y-117591066D01*
X167650434Y-117621365D01*
X167581069Y-117612983D01*
X167527247Y-117568430D01*
X167506057Y-117501851D01*
X167523113Y-117436240D01*
X167763040Y-117027889D01*
X168175753Y-116248184D01*
X168401849Y-115770951D01*
X169921816Y-115770951D01*
X170073268Y-115786335D01*
X170073272Y-115786335D01*
X170233161Y-115762155D01*
X170382004Y-115698973D01*
X170382015Y-115698967D01*
X170510461Y-115600763D01*
X170510464Y-115600760D01*
X170610460Y-115473688D01*
X170610466Y-115473679D01*
X170619822Y-115454912D01*
X170619821Y-115454911D01*
X170129537Y-115256822D01*
X169921816Y-115770951D01*
X168401849Y-115770951D01*
X168553462Y-115450934D01*
X168645582Y-115231857D01*
X168689712Y-115177693D01*
X168756123Y-115155983D01*
X168806334Y-115164954D01*
X169027176Y-115254180D01*
X169083696Y-115270242D01*
X169083695Y-115270242D01*
X169084697Y-115270269D01*
X169123535Y-115271317D01*
X169190017Y-115292800D01*
X169234333Y-115346818D01*
X169234334Y-115346822D01*
X169240368Y-115361038D01*
X169338583Y-115489501D01*
X169458223Y-115583646D01*
X169665944Y-115069519D01*
X169777572Y-114793228D01*
X170316838Y-114793228D01*
X170316839Y-114793229D01*
X170807124Y-114991317D01*
X170807125Y-114991317D01*
X170813434Y-114971309D01*
X170829775Y-114810443D01*
X170829775Y-114810441D01*
X170805594Y-114650555D01*
X170742411Y-114501705D01*
X170742410Y-114501703D01*
X170644200Y-114373248D01*
X170524559Y-114279102D01*
X170316838Y-114793228D01*
X169777572Y-114793228D01*
X170061916Y-114089445D01*
X170045976Y-114028840D01*
X170067556Y-113962386D01*
X170067880Y-113961915D01*
X170071899Y-113956093D01*
X170071899Y-113956092D01*
X170071899Y-113956091D01*
X170071901Y-113956089D01*
X170127918Y-113808384D01*
X170146959Y-113651566D01*
X170127918Y-113494748D01*
X170071901Y-113347043D01*
X169982164Y-113217036D01*
X169863921Y-113112283D01*
X169863919Y-113112282D01*
X169863918Y-113112281D01*
X169724047Y-113038870D01*
X169591087Y-113006099D01*
X169530707Y-112970943D01*
X169498918Y-112908724D01*
X169501086Y-112853242D01*
X169700439Y-112118343D01*
X169893394Y-111257506D01*
X170036833Y-110451485D01*
X173263353Y-110451485D01*
X173263353Y-110451486D01*
X173812460Y-110528658D01*
X173812461Y-110528657D01*
X173886054Y-110005013D01*
X173886053Y-110005012D01*
X173865126Y-110003731D01*
X173865110Y-110003732D01*
X173705072Y-110026793D01*
X173705069Y-110026794D01*
X173555782Y-110088937D01*
X173426644Y-110186250D01*
X173426641Y-110186253D01*
X173325761Y-110312622D01*
X173325759Y-110312625D01*
X173263353Y-110451485D01*
X170036833Y-110451485D01*
X170047961Y-110388955D01*
X170163836Y-109514400D01*
X170240790Y-108635566D01*
X170278672Y-107754182D01*
X170277407Y-106871986D01*
X170236998Y-105990714D01*
X170157525Y-105112104D01*
X170039143Y-104237886D01*
X169882087Y-103369781D01*
X169857337Y-103260826D01*
X169686666Y-102509502D01*
X169511830Y-101872218D01*
X169453263Y-101658739D01*
X169388446Y-101457877D01*
X172699135Y-101457877D01*
X173237169Y-101323730D01*
X173109243Y-100810647D01*
X173089351Y-100817304D01*
X172949596Y-100898641D01*
X172834457Y-101012185D01*
X172751176Y-101150788D01*
X172704980Y-101305746D01*
X172704979Y-101305749D01*
X172699135Y-101457877D01*
X169388446Y-101457877D01*
X169182339Y-100819172D01*
X168874429Y-99992454D01*
X168530138Y-99180212D01*
X168530135Y-99180205D01*
X168150147Y-98384051D01*
X167735196Y-97605523D01*
X167556084Y-97302669D01*
X167538900Y-97234946D01*
X167561059Y-97168683D01*
X167615524Y-97124919D01*
X167683223Y-97117238D01*
X167832011Y-97142066D01*
X167832012Y-97142066D01*
X168080681Y-97142066D01*
X168325960Y-97101137D01*
X168561156Y-97020394D01*
X168779855Y-96902040D01*
X168976090Y-96749304D01*
X169144510Y-96566351D01*
X169280519Y-96358173D01*
X169380409Y-96130447D01*
X169441454Y-95889387D01*
X169441455Y-95889378D01*
X169461989Y-95641571D01*
X169461989Y-95641560D01*
X169441455Y-95393753D01*
X169441453Y-95393741D01*
X169380409Y-95152684D01*
X169280519Y-94924959D01*
X169144512Y-94716783D01*
X169022312Y-94584039D01*
X168976090Y-94533828D01*
X168779855Y-94381092D01*
X168779853Y-94381091D01*
X168779852Y-94381090D01*
X168561157Y-94262738D01*
X168561148Y-94262735D01*
X168325962Y-94181995D01*
X168080681Y-94141066D01*
X167832011Y-94141066D01*
X167586729Y-94181995D01*
X167351543Y-94262735D01*
X167351534Y-94262738D01*
X167132839Y-94381090D01*
X166936603Y-94533827D01*
X166768179Y-94716783D01*
X166632172Y-94924959D01*
X166532281Y-95152688D01*
X166532281Y-95152689D01*
X166489276Y-95322509D01*
X166453737Y-95382664D01*
X166391316Y-95414056D01*
X166321833Y-95406718D01*
X166271665Y-95368802D01*
X166101412Y-95152684D01*
X165743221Y-94697998D01*
X165167084Y-94029912D01*
X164990049Y-93842155D01*
X164958382Y-93779878D01*
X164965411Y-93710363D01*
X164992585Y-93669413D01*
X165146147Y-93515852D01*
X165183017Y-93470102D01*
X165199575Y-93433846D01*
X165245330Y-93381042D01*
X165312369Y-93361358D01*
X165327820Y-93361358D01*
X165327825Y-93361357D01*
X165484443Y-93321144D01*
X165617850Y-93247802D01*
X164872202Y-92502154D01*
X165579309Y-92502154D01*
X165579309Y-92502155D01*
X165971403Y-92894250D01*
X166044745Y-92760842D01*
X166084958Y-92604224D01*
X166084959Y-92604219D01*
X166084959Y-92442521D01*
X166084958Y-92442513D01*
X166044747Y-92285902D01*
X166044744Y-92285892D01*
X165966847Y-92144199D01*
X165966845Y-92144195D01*
X165953219Y-92128241D01*
X165579309Y-92502154D01*
X164872202Y-92502154D01*
X164480107Y-92110059D01*
X164480105Y-92110059D01*
X164458270Y-92149779D01*
X164408724Y-92199043D01*
X164340409Y-92213700D01*
X164275015Y-92189097D01*
X164264983Y-92180676D01*
X164169681Y-92091693D01*
X164169675Y-92091687D01*
X163834314Y-91799203D01*
X163785357Y-91756505D01*
X164833660Y-91756505D01*
X164833660Y-91756506D01*
X165225756Y-92148602D01*
X165225757Y-92148602D01*
X165599667Y-91774689D01*
X165583718Y-91761067D01*
X165442018Y-91683166D01*
X165442008Y-91683163D01*
X165285397Y-91642952D01*
X165123686Y-91642952D01*
X164967069Y-91683165D01*
X164833660Y-91756505D01*
X163785357Y-91756505D01*
X163644971Y-91634068D01*
X163451088Y-91476222D01*
X163411527Y-91418632D01*
X163409383Y-91348795D01*
X163445335Y-91288885D01*
X163448844Y-91285771D01*
X163451378Y-91283607D01*
X163611570Y-91146790D01*
X163775182Y-90955225D01*
X163906812Y-90740425D01*
X164003219Y-90507677D01*
X164062029Y-90262714D01*
X164081795Y-90011566D01*
X164062029Y-89760418D01*
X164003219Y-89515455D01*
X163956995Y-89403860D01*
X163906812Y-89282706D01*
X163775185Y-89067912D01*
X163775184Y-89067909D01*
X163661412Y-88934700D01*
X163611570Y-88876342D01*
X163423677Y-88715866D01*
X163420002Y-88712727D01*
X163419999Y-88712726D01*
X163205205Y-88581099D01*
X162972456Y-88484692D01*
X162727497Y-88425883D01*
X162476346Y-88406117D01*
X162225194Y-88425883D01*
X161980235Y-88484692D01*
X161747486Y-88581099D01*
X161532692Y-88712726D01*
X161532689Y-88712727D01*
X161341122Y-88876342D01*
X161177507Y-89067909D01*
X161177506Y-89067912D01*
X161045879Y-89282706D01*
X160949472Y-89515455D01*
X160949471Y-89515457D01*
X160946938Y-89526011D01*
X160912148Y-89586604D01*
X160850123Y-89618769D01*
X160826364Y-89621066D01*
X160661859Y-89621066D01*
X160599308Y-89604133D01*
X160458577Y-89521915D01*
X160446688Y-89515457D01*
X159898758Y-89217817D01*
X159898747Y-89217811D01*
X159329751Y-88931306D01*
X159226356Y-88883220D01*
X159173870Y-88837101D01*
X159154650Y-88769927D01*
X159174798Y-88703026D01*
X159183936Y-88690749D01*
X159244845Y-88618671D01*
X158676774Y-88365751D01*
X158676773Y-88365751D01*
X157774940Y-87964229D01*
X157754279Y-88115062D01*
X157772865Y-88275689D01*
X157778404Y-88290119D01*
X157784052Y-88359760D01*
X157751155Y-88421396D01*
X157723241Y-88449847D01*
X157723238Y-88449852D01*
X157693746Y-88500653D01*
X157693744Y-88500657D01*
X157607687Y-88693945D01*
X157562436Y-88747182D01*
X157495587Y-88767503D01*
X157449462Y-88759077D01*
X157197914Y-88661249D01*
X156362351Y-88378296D01*
X156362349Y-88378295D01*
X156362336Y-88378291D01*
X155665209Y-88176220D01*
X155515004Y-88132681D01*
X154704850Y-87936360D01*
X158941647Y-87936360D01*
X158941648Y-87936361D01*
X159448213Y-88161898D01*
X159468875Y-88011064D01*
X159450289Y-87850436D01*
X159392340Y-87699476D01*
X159298671Y-87567670D01*
X159175164Y-87463298D01*
X159175160Y-87463295D01*
X159156725Y-87453286D01*
X158941647Y-87936360D01*
X154704850Y-87936360D01*
X154657632Y-87924918D01*
X154450481Y-87884358D01*
X154388473Y-87852159D01*
X154353717Y-87791547D01*
X154353872Y-87746096D01*
X154351679Y-87745830D01*
X154371624Y-87581566D01*
X154371624Y-87581565D01*
X154362626Y-87507457D01*
X157978310Y-87507457D01*
X158484874Y-87732993D01*
X158699953Y-87249918D01*
X158680184Y-87242918D01*
X158680178Y-87242917D01*
X158519970Y-87220971D01*
X158359341Y-87239557D01*
X158208381Y-87297506D01*
X158076576Y-87391174D01*
X157978310Y-87507457D01*
X154362626Y-87507457D01*
X154352583Y-87424747D01*
X154320013Y-87338869D01*
X154296566Y-87277043D01*
X154206829Y-87147036D01*
X154088586Y-87042283D01*
X154088584Y-87042282D01*
X154088583Y-87042281D01*
X153948711Y-86968869D01*
X153795332Y-86931066D01*
X153795331Y-86931066D01*
X153637361Y-86931066D01*
X153637360Y-86931066D01*
X153483980Y-86968869D01*
X153344108Y-87042280D01*
X153290552Y-87089726D01*
X153250868Y-87124883D01*
X153187638Y-87154603D01*
X153168644Y-87156066D01*
X152808955Y-87156066D01*
X152741916Y-87136381D01*
X152721279Y-87119751D01*
X152608163Y-87006635D01*
X152574680Y-86945314D01*
X152571846Y-86918956D01*
X152571846Y-86867431D01*
X152591531Y-86800392D01*
X152644335Y-86754637D01*
X152713493Y-86744693D01*
X152725504Y-86747030D01*
X152734557Y-86749262D01*
X152734560Y-86749262D01*
X152892527Y-86749262D01*
X153045907Y-86711458D01*
X153119448Y-86672860D01*
X153185782Y-86638045D01*
X153304025Y-86533292D01*
X153393762Y-86403285D01*
X153449779Y-86255580D01*
X153468820Y-86098762D01*
X153466663Y-86080993D01*
X153449779Y-85941943D01*
X153426997Y-85881872D01*
X153393762Y-85794239D01*
X153304025Y-85664232D01*
X153185782Y-85559479D01*
X153185780Y-85559478D01*
X153185779Y-85559477D01*
X153045907Y-85486065D01*
X152892528Y-85448262D01*
X152892527Y-85448262D01*
X152734557Y-85448262D01*
X152734556Y-85448262D01*
X152581176Y-85486065D01*
X152441303Y-85559477D01*
X152441301Y-85559479D01*
X152356190Y-85634881D01*
X152292957Y-85664603D01*
X152273963Y-85666066D01*
X149510328Y-85666066D01*
X149402109Y-85695063D01*
X149402106Y-85695064D01*
X149305086Y-85751079D01*
X149305080Y-85751083D01*
X149021417Y-86034747D01*
X148960094Y-86068232D01*
X148933736Y-86071066D01*
X148428085Y-86071066D01*
X148359954Y-86080992D01*
X148254860Y-86132369D01*
X148172149Y-86215080D01*
X148120772Y-86320174D01*
X148110846Y-86388305D01*
X148110846Y-87254826D01*
X148120772Y-87322957D01*
X148172149Y-87428051D01*
X148254860Y-87510762D01*
X148254861Y-87510762D01*
X148254863Y-87510764D01*
X148359953Y-87562139D01*
X148394019Y-87567102D01*
X148428085Y-87572066D01*
X149249093Y-87572066D01*
X149249093Y-87573058D01*
X149312818Y-87586841D01*
X149327833Y-87596478D01*
X149419256Y-87664918D01*
X149419259Y-87664920D01*
X149553966Y-87715162D01*
X149553973Y-87715164D01*
X149613501Y-87721565D01*
X149613518Y-87721566D01*
X149711346Y-87721566D01*
X149711346Y-86695566D01*
X149731031Y-86628527D01*
X149783835Y-86582772D01*
X149835346Y-86571566D01*
X150087346Y-86571566D01*
X150154385Y-86591251D01*
X150200140Y-86644055D01*
X150211346Y-86695566D01*
X150211346Y-87721566D01*
X150309174Y-87721566D01*
X150309181Y-87721565D01*
X150309633Y-87721517D01*
X150309737Y-87721535D01*
X150312499Y-87721388D01*
X150312533Y-87722040D01*
X150378394Y-87733916D01*
X150429536Y-87781521D01*
X150442674Y-87812709D01*
X150444842Y-87820800D01*
X150444844Y-87820805D01*
X150457347Y-87842461D01*
X150500861Y-87917829D01*
X150500863Y-87917831D01*
X151019531Y-88436499D01*
X151053016Y-88497822D01*
X151048032Y-88567514D01*
X151006160Y-88623447D01*
X150940696Y-88647864D01*
X150928986Y-88648147D01*
X150406346Y-88636073D01*
X149542446Y-88656032D01*
X148680427Y-88715866D01*
X147822054Y-88815451D01*
X147530858Y-88862952D01*
X147461524Y-88854318D01*
X147407865Y-88809569D01*
X147386917Y-88742913D01*
X147405331Y-88675514D01*
X147428668Y-88647755D01*
X147441829Y-88636096D01*
X147531566Y-88506089D01*
X147587583Y-88358384D01*
X147606624Y-88201566D01*
X147603547Y-88176220D01*
X147587583Y-88044747D01*
X147560593Y-87973582D01*
X147531566Y-87897043D01*
X147441829Y-87767036D01*
X147323586Y-87662283D01*
X147323584Y-87662282D01*
X147323583Y-87662281D01*
X147183711Y-87588869D01*
X147030332Y-87551066D01*
X147030331Y-87551066D01*
X146872361Y-87551066D01*
X146872360Y-87551066D01*
X146718980Y-87588869D01*
X146579108Y-87662281D01*
X146460863Y-87767035D01*
X146381573Y-87881907D01*
X146327289Y-87925897D01*
X146257841Y-87933556D01*
X146195276Y-87902452D01*
X146159459Y-87842461D01*
X146156427Y-87826410D01*
X146155746Y-87820803D01*
X146152583Y-87794748D01*
X146152581Y-87794744D01*
X146131207Y-87738384D01*
X146096566Y-87647043D01*
X146006829Y-87517036D01*
X145888586Y-87412283D01*
X145888584Y-87412282D01*
X145888583Y-87412281D01*
X145748711Y-87338869D01*
X145595332Y-87301066D01*
X145595331Y-87301066D01*
X145437361Y-87301066D01*
X145437360Y-87301066D01*
X145283980Y-87338869D01*
X145144108Y-87412281D01*
X145025862Y-87517037D01*
X144936127Y-87647041D01*
X144936126Y-87647042D01*
X144880109Y-87794744D01*
X144880108Y-87794749D01*
X144871180Y-87868277D01*
X144843557Y-87932455D01*
X144785623Y-87971510D01*
X144783374Y-87972201D01*
X144658133Y-88009382D01*
X144588264Y-88009591D01*
X144553178Y-87993091D01*
X144524455Y-87973584D01*
X144524451Y-87973582D01*
X144390172Y-87930423D01*
X144390168Y-87930422D01*
X144249172Y-87926843D01*
X144249165Y-87926844D01*
X144191898Y-87939921D01*
X144191876Y-87939927D01*
X143838435Y-88061628D01*
X143838412Y-88061637D01*
X143785233Y-88086588D01*
X143785232Y-88086589D01*
X143754453Y-88111919D01*
X143690180Y-88139319D01*
X143621304Y-88127624D01*
X143607415Y-88120850D01*
X143607410Y-88120848D01*
X143449020Y-88088335D01*
X143449010Y-88088335D01*
X143296956Y-88095770D01*
X143296956Y-88095771D01*
X143477486Y-88620067D01*
X143563669Y-88870360D01*
X143563670Y-88870362D01*
X143584473Y-88930780D01*
X143587686Y-89000575D01*
X143552655Y-89061028D01*
X143508546Y-89088063D01*
X143504707Y-89089419D01*
X142713588Y-89408498D01*
X142688202Y-89420051D01*
X142677208Y-89424434D01*
X142644164Y-89435810D01*
X142640637Y-89439998D01*
X142623512Y-89449491D01*
X141937175Y-89761845D01*
X141176955Y-90148782D01*
X141139811Y-90169780D01*
X141071764Y-90185635D01*
X141005947Y-90162183D01*
X140973632Y-90127544D01*
X140472909Y-89326220D01*
X139588655Y-89878763D01*
X139577524Y-89822800D01*
X139520987Y-89686309D01*
X139438909Y-89563470D01*
X139334443Y-89459004D01*
X139325950Y-89453329D01*
X140207949Y-88902196D01*
X140127333Y-88773183D01*
X142491593Y-88773183D01*
X142491593Y-88773192D01*
X142499492Y-88934700D01*
X142504743Y-88955007D01*
X142504745Y-88955008D01*
X143004725Y-88782851D01*
X143004725Y-88782850D01*
X142824197Y-88258555D01*
X142699794Y-88346312D01*
X142594991Y-88469455D01*
X142524106Y-88614794D01*
X142491593Y-88773183D01*
X140127333Y-88773183D01*
X139652688Y-88013592D01*
X139652683Y-88013586D01*
X139615699Y-87966480D01*
X139615699Y-87966479D01*
X139501705Y-87878863D01*
X139367638Y-87826913D01*
X139367637Y-87826912D01*
X139224368Y-87814835D01*
X139083503Y-87843610D01*
X139029602Y-87869742D01*
X138140999Y-88425002D01*
X138693542Y-89309257D01*
X138637579Y-89320389D01*
X138501088Y-89376926D01*
X138378249Y-89459004D01*
X138273783Y-89563470D01*
X138268109Y-89571961D01*
X137716975Y-88689962D01*
X136828371Y-89245224D01*
X136828365Y-89245229D01*
X136781259Y-89282213D01*
X136781258Y-89282213D01*
X136693642Y-89396207D01*
X136641692Y-89530274D01*
X136641691Y-89530275D01*
X136629614Y-89673544D01*
X136658389Y-89814409D01*
X136684521Y-89868310D01*
X137239781Y-90756912D01*
X138124035Y-90204368D01*
X138135168Y-90260334D01*
X138191705Y-90396825D01*
X138273783Y-90519664D01*
X138378249Y-90624130D01*
X138386739Y-90629802D01*
X137504741Y-91180936D01*
X138060003Y-92069541D01*
X138060007Y-92069547D01*
X138064767Y-92075610D01*
X138090680Y-92140497D01*
X138077398Y-92209093D01*
X138046105Y-92247861D01*
X137668202Y-92559378D01*
X137040550Y-93124610D01*
X136977561Y-93154845D01*
X136908225Y-93146226D01*
X136854556Y-93101489D01*
X136844780Y-93083984D01*
X136811838Y-93011851D01*
X136811836Y-93011847D01*
X136787259Y-92981351D01*
X136774970Y-92966101D01*
X136510632Y-92701765D01*
X136510626Y-92701760D01*
X136510623Y-92701757D01*
X136464882Y-92664895D01*
X136464880Y-92664894D01*
X136428626Y-92648337D01*
X136375822Y-92602582D01*
X136356138Y-92535543D01*
X136356138Y-92520091D01*
X136356137Y-92520086D01*
X136315923Y-92363466D01*
X136315923Y-92363465D01*
X136242583Y-92230060D01*
X135496935Y-92975709D01*
X135104839Y-93367804D01*
X135217313Y-93429636D01*
X135266577Y-93479181D01*
X135281234Y-93547496D01*
X135264963Y-93600298D01*
X135239060Y-93645162D01*
X135239058Y-93645168D01*
X135233449Y-93666096D01*
X135233450Y-93666097D01*
X135208357Y-93759746D01*
X135208357Y-93824153D01*
X135188672Y-93891192D01*
X135173010Y-93909469D01*
X135173348Y-93909769D01*
X135168372Y-93915385D01*
X135078638Y-94045388D01*
X135078637Y-94045389D01*
X135022619Y-94193094D01*
X135003579Y-94349912D01*
X135003579Y-94349913D01*
X135022619Y-94506731D01*
X135037799Y-94546756D01*
X135078637Y-94654436D01*
X135106433Y-94694707D01*
X135168374Y-94784444D01*
X135253386Y-94859756D01*
X135290513Y-94918945D01*
X135289747Y-94988811D01*
X135268906Y-95028873D01*
X134765726Y-95673476D01*
X134567688Y-95951413D01*
X134512754Y-95994588D01*
X134443199Y-96001209D01*
X134381105Y-95969175D01*
X134346188Y-95908656D01*
X134343125Y-95869217D01*
X134361989Y-95641571D01*
X134361989Y-95641560D01*
X134341455Y-95393753D01*
X134341453Y-95393741D01*
X134280409Y-95152684D01*
X134180519Y-94924959D01*
X134044512Y-94716783D01*
X133922312Y-94584039D01*
X133876090Y-94533828D01*
X133679855Y-94381092D01*
X133679853Y-94381091D01*
X133679852Y-94381090D01*
X133461157Y-94262738D01*
X133461148Y-94262735D01*
X133225962Y-94181995D01*
X132980681Y-94141066D01*
X132732011Y-94141066D01*
X132486729Y-94181995D01*
X132251543Y-94262735D01*
X132251534Y-94262738D01*
X132032839Y-94381090D01*
X131836603Y-94533827D01*
X131668179Y-94716783D01*
X131532172Y-94924959D01*
X131432282Y-95152684D01*
X131371238Y-95393741D01*
X131371236Y-95393753D01*
X131350703Y-95641560D01*
X131350703Y-95641571D01*
X131371236Y-95889378D01*
X131371238Y-95889390D01*
X131432282Y-96130447D01*
X131532172Y-96358172D01*
X131668179Y-96566348D01*
X131668182Y-96566351D01*
X131836602Y-96749304D01*
X132019398Y-96891580D01*
X132060209Y-96948288D01*
X132063884Y-97018061D01*
X132029253Y-97078744D01*
X131967311Y-97111071D01*
X131966020Y-97111319D01*
X131873891Y-97128541D01*
X131683710Y-97202217D01*
X131683703Y-97202221D01*
X131510306Y-97309583D01*
X131510304Y-97309585D01*
X131359583Y-97446984D01*
X131236673Y-97609744D01*
X131145768Y-97792305D01*
X131145763Y-97792318D01*
X131089948Y-97988483D01*
X131071131Y-98191565D01*
X131071131Y-98191566D01*
X131089948Y-98394648D01*
X131145763Y-98590813D01*
X131145768Y-98590826D01*
X131236673Y-98773387D01*
X131359583Y-98936147D01*
X131511877Y-99074981D01*
X131548159Y-99134692D01*
X131546398Y-99204540D01*
X131507155Y-99262347D01*
X131442888Y-99289762D01*
X131399597Y-99286635D01*
X131399569Y-99286795D01*
X131398013Y-99286520D01*
X131396245Y-99286393D01*
X131394236Y-99285854D01*
X131394230Y-99285853D01*
X131176347Y-99266791D01*
X131176345Y-99266791D01*
X130958461Y-99285853D01*
X130958451Y-99285855D01*
X130747195Y-99342460D01*
X130747186Y-99342464D01*
X130548959Y-99434899D01*
X130486774Y-99478440D01*
X131176346Y-100168012D01*
X131176347Y-100168012D01*
X131865917Y-99478440D01*
X131864264Y-99459548D01*
X131852835Y-99445249D01*
X131845643Y-99375751D01*
X131877165Y-99313396D01*
X131937395Y-99277983D01*
X131990366Y-99276363D01*
X132074370Y-99292066D01*
X132074372Y-99292066D01*
X132278320Y-99292066D01*
X132278322Y-99292066D01*
X132432285Y-99263285D01*
X132501798Y-99270316D01*
X132556476Y-99313814D01*
X132578959Y-99379967D01*
X132569256Y-99433518D01*
X132419630Y-99786931D01*
X132375366Y-99840991D01*
X132308902Y-99862539D01*
X132241339Y-99844732D01*
X132228560Y-99832789D01*
X132219470Y-99831993D01*
X131526346Y-100525118D01*
X131526346Y-100475488D01*
X131502494Y-100386471D01*
X131456416Y-100306661D01*
X131391251Y-100241496D01*
X131311441Y-100195418D01*
X131222424Y-100171566D01*
X131130268Y-100171566D01*
X131041251Y-100195418D01*
X130961441Y-100241496D01*
X130896276Y-100306661D01*
X130850198Y-100386471D01*
X130826346Y-100475488D01*
X130826346Y-100567644D01*
X130850198Y-100656661D01*
X130896276Y-100736471D01*
X130961441Y-100801636D01*
X131041251Y-100847714D01*
X131130268Y-100871566D01*
X131179899Y-100871566D01*
X131176346Y-100875119D01*
X130486773Y-101564690D01*
X130488160Y-101580542D01*
X130504771Y-101601323D01*
X130511965Y-101670821D01*
X130480442Y-101733176D01*
X130420213Y-101768590D01*
X130367239Y-101770210D01*
X130339474Y-101765020D01*
X130318322Y-101761066D01*
X130114370Y-101761066D01*
X129913890Y-101798542D01*
X129913887Y-101798542D01*
X129913887Y-101798543D01*
X129723710Y-101872217D01*
X129723703Y-101872221D01*
X129550306Y-101979583D01*
X129550304Y-101979585D01*
X129399583Y-102116984D01*
X129276673Y-102279744D01*
X129185768Y-102462305D01*
X129185763Y-102462318D01*
X129129948Y-102658483D01*
X129111131Y-102861565D01*
X127537269Y-102861565D01*
X127553756Y-102811232D01*
X127631478Y-102445572D01*
X127637482Y-102387122D01*
X127631621Y-102347694D01*
X127641234Y-102278492D01*
X127686735Y-102225470D01*
X127686743Y-102225465D01*
X127699697Y-102217053D01*
X127809147Y-102098028D01*
X127809149Y-102098025D01*
X127881087Y-101963858D01*
X126983321Y-101773032D01*
X126921839Y-101739840D01*
X126888063Y-101678677D01*
X126888432Y-101623197D01*
X126946459Y-101377898D01*
X126981048Y-101317192D01*
X127042967Y-101284822D01*
X127092910Y-101285155D01*
X127985042Y-101474783D01*
X127985043Y-101474783D01*
X127973894Y-101322956D01*
X127973893Y-101322950D01*
X127922319Y-101169701D01*
X127922318Y-101169699D01*
X127830983Y-101029057D01*
X127810979Y-100962112D01*
X127830344Y-100894979D01*
X127844747Y-100878096D01*
X127844132Y-100877551D01*
X127849104Y-100871938D01*
X127849104Y-100871937D01*
X127849106Y-100871936D01*
X127938843Y-100741929D01*
X127978658Y-100636944D01*
X128020834Y-100581243D01*
X128086432Y-100557185D01*
X128106849Y-100559054D01*
X128106978Y-100557672D01*
X128116563Y-100558565D01*
X128116565Y-100558564D01*
X128116570Y-100558566D01*
X128233321Y-100551318D01*
X128305151Y-100521565D01*
X129921571Y-100521565D01*
X129921571Y-100521566D01*
X129940633Y-100739450D01*
X129940635Y-100739460D01*
X129997240Y-100950716D01*
X129997244Y-100950725D01*
X130089679Y-101148953D01*
X130133220Y-101211137D01*
X130822792Y-100521566D01*
X130133220Y-99831994D01*
X130089679Y-99894179D01*
X129997244Y-100092406D01*
X129997240Y-100092415D01*
X129940635Y-100303671D01*
X129940633Y-100303681D01*
X129921571Y-100521565D01*
X128305151Y-100521565D01*
X128341393Y-100506553D01*
X128429073Y-100429123D01*
X128464318Y-100369975D01*
X128795921Y-99569415D01*
X128812823Y-99502669D01*
X128810467Y-99464730D01*
X128825960Y-99396602D01*
X128852147Y-99364105D01*
X128880639Y-99338945D01*
X128915884Y-99279797D01*
X129071201Y-98904827D01*
X129115041Y-98850425D01*
X129122489Y-98845639D01*
X129220246Y-98787638D01*
X129220249Y-98787635D01*
X129318218Y-98682408D01*
X129318220Y-98682405D01*
X129346919Y-98629848D01*
X129346920Y-98629846D01*
X129384360Y-98539459D01*
X129384359Y-98539458D01*
X128436458Y-98146826D01*
X128382055Y-98102985D01*
X128359990Y-98036691D01*
X128369350Y-97984812D01*
X128465787Y-97751994D01*
X128509628Y-97697591D01*
X128575922Y-97675526D01*
X128627801Y-97684886D01*
X129575701Y-98077519D01*
X129613137Y-97987142D01*
X129613142Y-97987129D01*
X129630011Y-97929677D01*
X129630011Y-97929675D01*
X129635144Y-97785990D01*
X129635143Y-97785987D01*
X129606900Y-97675330D01*
X129609394Y-97605505D01*
X129614479Y-97593243D01*
X129614478Y-97593243D01*
X129675060Y-97446985D01*
X129928664Y-96834732D01*
X129945566Y-96767986D01*
X129938318Y-96651235D01*
X129893553Y-96543163D01*
X129816123Y-96455483D01*
X129816122Y-96455482D01*
X129816119Y-96455480D01*
X129756978Y-96420239D01*
X129092832Y-96145140D01*
X129038429Y-96101299D01*
X129016364Y-96035005D01*
X129030486Y-95972957D01*
X129035131Y-95964106D01*
X129185489Y-95677597D01*
X129187530Y-95673870D01*
X129610840Y-94932329D01*
X129613037Y-94928636D01*
X130062312Y-94202608D01*
X130064650Y-94198974D01*
X130539369Y-93489296D01*
X130541845Y-93485734D01*
X131041383Y-92793342D01*
X131043953Y-92789908D01*
X131151488Y-92651469D01*
X131208157Y-92610603D01*
X131277926Y-92606861D01*
X131331640Y-92634722D01*
X131373896Y-92672156D01*
X131373898Y-92672158D01*
X131513771Y-92745570D01*
X131667151Y-92783374D01*
X131667152Y-92783374D01*
X131825122Y-92783374D01*
X131978502Y-92745570D01*
X132118375Y-92672158D01*
X132118374Y-92672158D01*
X132118377Y-92672157D01*
X132203158Y-92597048D01*
X132253290Y-92570088D01*
X132281559Y-92562514D01*
X132294077Y-92559160D01*
X132294078Y-92559159D01*
X132318290Y-92552673D01*
X132318297Y-92552668D01*
X132319778Y-92552056D01*
X132321139Y-92551909D01*
X132326148Y-92550568D01*
X132326356Y-92551348D01*
X132389247Y-92544583D01*
X132407502Y-92549333D01*
X132503265Y-92582209D01*
X132503267Y-92582209D01*
X132620244Y-92582209D01*
X132620246Y-92582208D01*
X132677614Y-92562514D01*
X134637732Y-92562514D01*
X134637732Y-92724225D01*
X134677945Y-92880844D01*
X134751285Y-93014250D01*
X134751286Y-93014250D01*
X135143382Y-92622156D01*
X135143382Y-92622155D01*
X134769470Y-92248243D01*
X134755842Y-92264200D01*
X134677946Y-92405893D01*
X134677943Y-92405903D01*
X134637732Y-92562514D01*
X132677614Y-92562514D01*
X132730874Y-92544230D01*
X132730876Y-92544228D01*
X132730881Y-92544227D01*
X132786078Y-92503069D01*
X133394457Y-91894690D01*
X135123021Y-91894690D01*
X135496935Y-92268603D01*
X135496936Y-92268603D01*
X135889029Y-91876507D01*
X135889029Y-91876506D01*
X135755623Y-91803166D01*
X135599004Y-91762953D01*
X135437293Y-91762953D01*
X135280682Y-91803164D01*
X135280672Y-91803167D01*
X135138978Y-91881064D01*
X135123021Y-91894690D01*
X133394457Y-91894690D01*
X133398800Y-91890347D01*
X133439958Y-91835150D01*
X133452298Y-91799202D01*
X133492682Y-91742186D01*
X133529320Y-91722181D01*
X133565266Y-91709841D01*
X133620463Y-91668683D01*
X133907456Y-91381689D01*
X133968773Y-91348208D01*
X133977487Y-91346636D01*
X134089997Y-91330461D01*
X134090005Y-91330459D01*
X134220778Y-91270737D01*
X134220785Y-91270732D01*
X134267416Y-91233155D01*
X134267420Y-91233151D01*
X134336593Y-91163979D01*
X133611101Y-90438487D01*
X133577616Y-90377164D01*
X133582600Y-90307472D01*
X133611101Y-90263125D01*
X133789292Y-90084934D01*
X133850615Y-90051449D01*
X133920307Y-90056433D01*
X133964654Y-90084934D01*
X134690146Y-90810426D01*
X134759318Y-90741253D01*
X134759322Y-90741249D01*
X134796899Y-90694618D01*
X134796904Y-90694611D01*
X134856626Y-90563838D01*
X134856628Y-90563830D01*
X134872880Y-90450790D01*
X134901904Y-90387234D01*
X134911295Y-90377851D01*
X135187821Y-90101325D01*
X135491835Y-89797311D01*
X135532993Y-89742114D01*
X135570975Y-89631477D01*
X135570975Y-89514500D01*
X135570975Y-89514498D01*
X135543960Y-89435810D01*
X135532993Y-89403863D01*
X135506630Y-89368508D01*
X135491837Y-89348668D01*
X134983522Y-88840353D01*
X134950037Y-88779030D01*
X134955021Y-88709338D01*
X134991810Y-88657422D01*
X135248022Y-88443879D01*
X135251374Y-88441184D01*
X135926226Y-87918090D01*
X135929653Y-87915530D01*
X136622611Y-87416665D01*
X136626151Y-87414211D01*
X137336278Y-86940245D01*
X137339914Y-86937909D01*
X138066446Y-86489354D01*
X138070117Y-86487176D01*
X138209831Y-86407610D01*
X138277826Y-86391541D01*
X138343716Y-86414783D01*
X138376461Y-86452518D01*
X138377025Y-86452129D01*
X138380530Y-86457206D01*
X138380990Y-86457737D01*
X138381284Y-86458299D01*
X138381286Y-86458302D01*
X138471023Y-86588309D01*
X138589266Y-86693062D01*
X138589268Y-86693063D01*
X138729140Y-86766475D01*
X138882520Y-86804279D01*
X138882521Y-86804279D01*
X139040491Y-86804279D01*
X139193871Y-86766475D01*
X139250139Y-86736942D01*
X139318645Y-86723217D01*
X139383698Y-86748708D01*
X139402603Y-86770065D01*
X139404000Y-86768907D01*
X139410148Y-86776320D01*
X139410149Y-86776321D01*
X139497829Y-86853751D01*
X139605901Y-86898516D01*
X139722652Y-86905764D01*
X139789398Y-86888862D01*
X140589958Y-86557259D01*
X140649106Y-86522014D01*
X140674265Y-86493523D01*
X140733394Y-86456304D01*
X140774890Y-86451842D01*
X140812830Y-86454198D01*
X140879576Y-86437296D01*
X141254549Y-86281977D01*
X141324012Y-86274509D01*
X141332662Y-86276391D01*
X141442802Y-86304502D01*
X141442805Y-86304503D01*
X141586490Y-86299370D01*
X141586492Y-86299370D01*
X141643944Y-86282501D01*
X141643957Y-86282496D01*
X141734334Y-86245060D01*
X141341701Y-85297160D01*
X141334232Y-85227690D01*
X141365507Y-85165211D01*
X141408809Y-85135146D01*
X141641627Y-85038709D01*
X141711096Y-85031240D01*
X141773576Y-85062515D01*
X141803641Y-85105817D01*
X142196273Y-86053718D01*
X142196274Y-86053719D01*
X142286661Y-86016279D01*
X142286663Y-86016278D01*
X142339220Y-85987579D01*
X142339223Y-85987577D01*
X142444449Y-85889609D01*
X142502725Y-85791388D01*
X142553862Y-85743777D01*
X142566129Y-85738703D01*
X142566129Y-85738702D01*
X142570272Y-85736985D01*
X142570275Y-85736985D01*
X143324641Y-85424516D01*
X143383789Y-85389272D01*
X143461219Y-85301591D01*
X143505984Y-85193519D01*
X143513232Y-85076768D01*
X143496330Y-85010022D01*
X143451404Y-84901562D01*
X145921844Y-84901562D01*
X145964316Y-85047757D01*
X146046626Y-85186936D01*
X146046633Y-85186945D01*
X146160964Y-85301276D01*
X146160973Y-85301283D01*
X146300152Y-85383593D01*
X146455437Y-85428707D01*
X146476348Y-85430351D01*
X146976348Y-85430351D01*
X146997258Y-85428707D01*
X147152543Y-85383593D01*
X147291722Y-85301283D01*
X147291731Y-85301276D01*
X147406062Y-85186945D01*
X147406069Y-85186936D01*
X147488379Y-85047757D01*
X147530852Y-84901562D01*
X146976348Y-84901562D01*
X146976348Y-85430351D01*
X146476348Y-85430351D01*
X146476348Y-84901562D01*
X145921844Y-84901562D01*
X143451404Y-84901562D01*
X143221232Y-84345879D01*
X143213764Y-84276413D01*
X143245039Y-84213933D01*
X143298898Y-84180045D01*
X143617281Y-84080821D01*
X143621476Y-84079595D01*
X144445097Y-83854587D01*
X144449280Y-83853524D01*
X145280309Y-83657838D01*
X145284597Y-83656909D01*
X145917720Y-83531311D01*
X145987306Y-83537574D01*
X146042461Y-83580466D01*
X146065672Y-83646367D01*
X146065846Y-83652940D01*
X146065846Y-83878477D01*
X146065847Y-83878484D01*
X146072126Y-83936901D01*
X146086055Y-83974244D01*
X146091039Y-84043935D01*
X146057557Y-84105256D01*
X146046630Y-84116183D01*
X146046625Y-84116189D01*
X145964316Y-84255366D01*
X145921844Y-84401562D01*
X147530853Y-84401562D01*
X147532123Y-84399870D01*
X147532306Y-84336008D01*
X147570249Y-84277338D01*
X147633887Y-84248495D01*
X147680855Y-84250885D01*
X147807361Y-84282066D01*
X147965331Y-84282066D01*
X148082617Y-84253158D01*
X148152418Y-84256227D01*
X148199972Y-84285874D01*
X148234860Y-84320762D01*
X148234861Y-84320762D01*
X148234863Y-84320764D01*
X148339953Y-84372139D01*
X148345252Y-84372911D01*
X148408085Y-84382066D01*
X148408086Y-84382066D01*
X149274601Y-84382066D01*
X149274606Y-84382066D01*
X149342739Y-84372139D01*
X149376885Y-84355445D01*
X149445756Y-84343685D01*
X149485805Y-84355444D01*
X149519953Y-84372139D01*
X149588086Y-84382066D01*
X149588091Y-84382066D01*
X149993951Y-84382066D01*
X150060990Y-84401751D01*
X150068263Y-84406800D01*
X150159256Y-84474918D01*
X150159259Y-84474920D01*
X150293966Y-84525162D01*
X150293973Y-84525164D01*
X150353501Y-84531565D01*
X150353518Y-84531566D01*
X150451346Y-84531566D01*
X150451346Y-83505566D01*
X150471031Y-83438527D01*
X150523835Y-83392772D01*
X150575346Y-83381566D01*
X150827346Y-83381566D01*
X150894385Y-83401251D01*
X150940140Y-83454055D01*
X150951346Y-83505566D01*
X150951346Y-84531566D01*
X151049174Y-84531566D01*
X151049190Y-84531565D01*
X151108718Y-84525164D01*
X151108725Y-84525162D01*
X151243432Y-84474920D01*
X151243435Y-84474918D01*
X151334858Y-84406478D01*
X151400322Y-84382060D01*
X151413599Y-84382067D01*
X151413599Y-84382066D01*
X152234607Y-84382066D01*
X152257317Y-84378757D01*
X152302739Y-84372139D01*
X152407829Y-84320764D01*
X152490544Y-84238049D01*
X152541919Y-84132959D01*
X152551846Y-84064826D01*
X152551846Y-83696066D01*
X152571531Y-83629027D01*
X152624335Y-83583272D01*
X152675846Y-83572066D01*
X153586909Y-83572066D01*
X153653948Y-83591751D01*
X153674590Y-83608385D01*
X153933551Y-83867346D01*
X153967036Y-83928669D01*
X153962052Y-83998361D01*
X153947922Y-84025463D01*
X153926127Y-84057039D01*
X153926127Y-84057041D01*
X153926126Y-84057043D01*
X153917779Y-84079050D01*
X153870108Y-84204747D01*
X153851068Y-84361565D01*
X153851068Y-84361566D01*
X153870108Y-84518384D01*
X153917337Y-84642915D01*
X153926126Y-84666089D01*
X154015863Y-84796096D01*
X154134106Y-84900849D01*
X154146083Y-84907135D01*
X154273980Y-84974262D01*
X154427360Y-85012066D01*
X154427361Y-85012066D01*
X154585331Y-85012066D01*
X154738711Y-84974262D01*
X154785273Y-84949824D01*
X154878586Y-84900849D01*
X154996829Y-84796096D01*
X155086566Y-84666089D01*
X155142583Y-84518384D01*
X155161624Y-84361566D01*
X155159543Y-84344423D01*
X155142583Y-84204747D01*
X155108995Y-84116183D01*
X155086566Y-84057043D01*
X154996829Y-83927036D01*
X154973617Y-83906472D01*
X154936492Y-83847283D01*
X154931846Y-83813658D01*
X154931846Y-83782376D01*
X154931845Y-83782372D01*
X154922868Y-83748870D01*
X154922867Y-83748868D01*
X154921860Y-83745109D01*
X154902849Y-83674156D01*
X154846831Y-83577130D01*
X154357850Y-83088149D01*
X154324365Y-83026826D01*
X154329349Y-82957134D01*
X154371221Y-82901201D01*
X154436685Y-82876784D01*
X154467877Y-82878498D01*
G37*
%TD.AperFunction*%
%TD*%
%TA.AperFunction,NonConductor*%
G36*
X151402451Y-82562128D02*
G01*
X151407380Y-82562326D01*
X151968264Y-82596254D01*
X152033990Y-82619950D01*
X152076473Y-82675420D01*
X152082222Y-82745053D01*
X152049413Y-82806740D01*
X152048456Y-82807707D01*
X152011418Y-82844746D01*
X151950096Y-82878232D01*
X151923736Y-82881066D01*
X151413599Y-82881066D01*
X151413599Y-82880079D01*
X151349849Y-82866277D01*
X151334860Y-82856654D01*
X151237259Y-82783590D01*
X151195388Y-82727656D01*
X151190404Y-82657964D01*
X151223889Y-82596641D01*
X151285213Y-82563157D01*
X151314065Y-82560348D01*
X151402451Y-82562128D01*
G37*
%TD.AperFunction*%
%TA.AperFunction,NonConductor*%
G36*
X158042480Y-83750693D02*
G01*
X158257174Y-83817595D01*
X158261896Y-83819171D01*
X159198046Y-84152802D01*
X159202654Y-84154550D01*
X159586856Y-84309178D01*
X159622374Y-84323473D01*
X159677216Y-84366764D01*
X159699947Y-84432833D01*
X159683350Y-84500703D01*
X159632695Y-84548826D01*
X159571651Y-84562427D01*
X159557840Y-84561933D01*
X159557837Y-84561934D01*
X159447700Y-84590045D01*
X159377875Y-84587551D01*
X159369582Y-84584458D01*
X158994616Y-84429143D01*
X158994615Y-84429142D01*
X158927865Y-84412239D01*
X158889926Y-84414594D01*
X158821796Y-84399100D01*
X158789298Y-84372911D01*
X158788616Y-84372139D01*
X158764141Y-84344423D01*
X158764137Y-84344419D01*
X158704996Y-84309179D01*
X157960206Y-84000677D01*
X157905803Y-83956836D01*
X157884563Y-83901058D01*
X157882495Y-83884021D01*
X157893958Y-83815098D01*
X157940863Y-83763314D01*
X158008320Y-83745109D01*
X158042480Y-83750693D01*
G37*
%TD.AperFunction*%
%TA.AperFunction,NonConductor*%
G36*
X173567937Y-98528127D02*
G01*
X173606936Y-98583052D01*
X173709959Y-98872129D01*
X173713922Y-98941886D01*
X173679543Y-99002712D01*
X173617736Y-99035295D01*
X173548124Y-99029291D01*
X173545703Y-99028317D01*
X173481708Y-99001809D01*
X173481686Y-99001802D01*
X173422855Y-98977433D01*
X173368453Y-98933594D01*
X173355747Y-98910326D01*
X173348041Y-98891722D01*
X173348949Y-98891345D01*
X173337310Y-98827151D01*
X173340463Y-98809634D01*
X173368706Y-98698977D01*
X173368707Y-98698974D01*
X173366211Y-98629106D01*
X173383489Y-98561407D01*
X173434626Y-98513796D01*
X173503386Y-98501389D01*
X173567937Y-98528127D01*
G37*
%TD.AperFunction*%
%TA.AperFunction,NonConductor*%
G36*
X125848313Y-106082159D02*
G01*
X125849281Y-106083117D01*
X125944747Y-106178583D01*
X125978232Y-106239906D01*
X125981066Y-106266264D01*
X125981066Y-106286401D01*
X125980079Y-106286401D01*
X125966277Y-106350151D01*
X125956654Y-106365140D01*
X125888212Y-106456565D01*
X125864468Y-106520227D01*
X125822596Y-106576160D01*
X125757132Y-106600577D01*
X125688859Y-106585725D01*
X125639454Y-106536320D01*
X125624311Y-106474396D01*
X125624670Y-106456567D01*
X125626908Y-106345456D01*
X125627106Y-106340533D01*
X125637826Y-106163310D01*
X125661523Y-106097582D01*
X125716993Y-106055099D01*
X125786626Y-106049350D01*
X125848313Y-106082159D01*
G37*
%TD.AperFunction*%
%TA.AperFunction,NonConductor*%
G36*
X175126324Y-107973556D02*
G01*
X175175730Y-108022961D01*
X175190874Y-108084886D01*
X175185784Y-108337641D01*
X175185583Y-108342632D01*
X175178882Y-108453398D01*
X175155185Y-108519126D01*
X175099714Y-108561609D01*
X175030081Y-108567358D01*
X174968394Y-108534548D01*
X174967514Y-108533678D01*
X174855252Y-108421416D01*
X174821768Y-108360093D01*
X174818934Y-108333735D01*
X174818934Y-108313599D01*
X174819925Y-108313599D01*
X174833710Y-108249871D01*
X174843346Y-108234858D01*
X174911786Y-108143435D01*
X174911789Y-108143430D01*
X174950717Y-108039057D01*
X174992587Y-107983123D01*
X175058051Y-107958705D01*
X175126324Y-107973556D01*
G37*
%TD.AperFunction*%
%TA.AperFunction,NonConductor*%
G36*
X127232005Y-115562477D02*
G01*
X127234426Y-115563450D01*
X127295741Y-115588847D01*
X127295750Y-115588853D01*
X127307027Y-115593523D01*
X127315861Y-115597182D01*
X127315866Y-115597186D01*
X127315867Y-115597185D01*
X127377143Y-115622566D01*
X127431547Y-115666406D01*
X127444251Y-115689671D01*
X127451958Y-115708276D01*
X127451049Y-115708652D01*
X127462689Y-115772848D01*
X127459536Y-115790364D01*
X127431293Y-115901020D01*
X127431292Y-115901026D01*
X127435674Y-116023706D01*
X127418395Y-116091406D01*
X127367257Y-116139016D01*
X127298498Y-116151421D01*
X127233947Y-116124683D01*
X127194950Y-116069761D01*
X127070170Y-115719636D01*
X127066208Y-115649882D01*
X127100587Y-115589056D01*
X127162394Y-115556473D01*
X127232005Y-115562477D01*
G37*
%TD.AperFunction*%
%TA.AperFunction,NonConductor*%
G36*
X132381603Y-123819199D02*
G01*
X132402245Y-123835833D01*
X132416484Y-123850072D01*
X132415786Y-123850769D01*
X132451102Y-123905603D01*
X132454898Y-123923009D01*
X132471150Y-124036052D01*
X132471152Y-124036059D01*
X132530874Y-124166832D01*
X132534956Y-124173439D01*
X132532493Y-124174959D01*
X132554019Y-124226926D01*
X132548018Y-124260178D01*
X132556955Y-124257250D01*
X132624575Y-124274839D01*
X132648495Y-124293509D01*
X133060362Y-124705376D01*
X133106993Y-124742953D01*
X133106992Y-124742953D01*
X133128834Y-124752927D01*
X133181639Y-124798681D01*
X133201325Y-124865720D01*
X133201325Y-124901861D01*
X133181640Y-124968900D01*
X133128836Y-125014655D01*
X133059678Y-125024599D01*
X132996122Y-124995574D01*
X132989644Y-124989542D01*
X132522667Y-124522565D01*
X132519207Y-124518964D01*
X132500490Y-124498675D01*
X132469672Y-124465269D01*
X132438685Y-124402648D01*
X132443499Y-124359711D01*
X132426302Y-124364101D01*
X132360008Y-124342036D01*
X132339588Y-124324260D01*
X132047456Y-124007594D01*
X132016468Y-123944972D01*
X132024254Y-123875537D01*
X132068344Y-123821335D01*
X132134738Y-123799574D01*
X132138597Y-123799514D01*
X132314564Y-123799514D01*
X132381603Y-123819199D01*
G37*
%TD.AperFunction*%
%TA.AperFunction,NonConductor*%
G36*
X168081592Y-124518360D02*
G01*
X168127347Y-124571164D01*
X168137291Y-124640322D01*
X168108266Y-124703878D01*
X168102234Y-124710356D01*
X167587333Y-125225256D01*
X167583732Y-125228716D01*
X167548918Y-125260832D01*
X167107592Y-125667965D01*
X167044972Y-125698953D01*
X166975537Y-125691167D01*
X166921335Y-125647077D01*
X166899574Y-125580683D01*
X166899514Y-125576824D01*
X166899514Y-125385436D01*
X166919199Y-125318397D01*
X166935836Y-125297752D01*
X166950075Y-125283514D01*
X166950775Y-125284214D01*
X167005589Y-125248901D01*
X167023011Y-125245101D01*
X167136051Y-125228849D01*
X167136059Y-125228847D01*
X167266832Y-125169125D01*
X167266839Y-125169120D01*
X167313470Y-125131543D01*
X167805376Y-124639637D01*
X167842953Y-124593006D01*
X167842956Y-124593001D01*
X167852930Y-124571163D01*
X167898685Y-124518359D01*
X167965724Y-124498675D01*
X168014553Y-124498675D01*
X168081592Y-124518360D01*
G37*
%TD.AperFunction*%
%TA.AperFunction,NonConductor*%
G36*
X133764607Y-96938597D02*
G01*
X133806268Y-96994687D01*
X133810990Y-97064397D01*
X133796809Y-97100446D01*
X133406758Y-97763647D01*
X133355804Y-97811454D01*
X133287093Y-97824125D01*
X133222439Y-97797635D01*
X133188873Y-97756056D01*
X133157986Y-97694027D01*
X133116019Y-97609745D01*
X132993110Y-97446987D01*
X132895170Y-97357703D01*
X132858888Y-97297992D01*
X132860649Y-97228145D01*
X132899892Y-97170337D01*
X132964159Y-97142923D01*
X132978708Y-97142066D01*
X132980681Y-97142066D01*
X133225960Y-97101137D01*
X133461156Y-97020394D01*
X133630908Y-96928528D01*
X133699234Y-96913934D01*
X133764607Y-96938597D01*
G37*
%TD.AperFunction*%
%TA.AperFunction,NonConductor*%
G36*
X131595218Y-101723803D02*
G01*
X131653080Y-101762965D01*
X131680585Y-101827193D01*
X131676992Y-101874910D01*
X131500635Y-102513785D01*
X131463821Y-102573170D01*
X131400746Y-102603225D01*
X131331435Y-102594407D01*
X131277894Y-102549517D01*
X131261842Y-102514732D01*
X131246928Y-102462316D01*
X131156019Y-102279745D01*
X131088049Y-102189738D01*
X131033108Y-102116984D01*
X130878151Y-101975723D01*
X130879269Y-101974496D01*
X130842250Y-101924601D01*
X130837564Y-101854889D01*
X130871311Y-101793709D01*
X130932777Y-101760487D01*
X130969424Y-101758237D01*
X131176345Y-101776341D01*
X131176347Y-101776341D01*
X131394230Y-101757278D01*
X131394236Y-101757277D01*
X131525368Y-101722140D01*
X131595218Y-101723803D01*
G37*
%TD.AperFunction*%
%TA.AperFunction,NonConductor*%
G36*
X131162685Y-103586109D02*
G01*
X131216625Y-103630519D01*
X131237993Y-103697041D01*
X131235986Y-103722597D01*
X131142298Y-104231963D01*
X131108925Y-104471863D01*
X131080191Y-104535550D01*
X131073790Y-104542458D01*
X130938524Y-104677723D01*
X130877203Y-104711208D01*
X130807511Y-104706224D01*
X130751577Y-104664353D01*
X130727160Y-104598889D01*
X130726844Y-104590042D01*
X130726844Y-103908921D01*
X130746529Y-103841882D01*
X130785562Y-103803497D01*
X130882387Y-103743547D01*
X131030495Y-103608528D01*
X131093298Y-103577912D01*
X131162685Y-103586109D01*
G37*
%TD.AperFunction*%
M02*
