%TF.GenerationSoftware,KiCad,Pcbnew,8.0.5*%
%TF.CreationDate,2025-07-02T22:11:18-04:00*%
%TF.ProjectId,tomorrowland_pendant,746f6d6f-7272-46f7-976c-616e645f7065,rev?*%
%TF.SameCoordinates,Original*%
%TF.FileFunction,Legend,Top*%
%TF.FilePolarity,Positive*%
%FSLAX46Y46*%
G04 Gerber Fmt 4.6, Leading zero omitted, Abs format (unit mm)*
G04 Created by KiCad (PCBNEW 8.0.5) date 2025-07-02 22:11:18*
%MOMM*%
%LPD*%
G01*
G04 APERTURE LIST*
%ADD10C,0.260000*%
%ADD11C,0.200000*%
%ADD12C,0.300000*%
%ADD13C,0.125000*%
%ADD14C,0.100000*%
%ADD15C,0.120000*%
G04 APERTURE END LIST*
D10*
G36*
X137134865Y-88439101D02*
G01*
X137208787Y-88484285D01*
X137274675Y-88589729D01*
X137282881Y-88675980D01*
X137272679Y-88720171D01*
X137227495Y-88794093D01*
X136943781Y-88971377D01*
X136720710Y-88614389D01*
X136960060Y-88464827D01*
X137100022Y-88431057D01*
X137134865Y-88439101D01*
G37*
G36*
X136754322Y-87946924D02*
G01*
X136828244Y-87992108D01*
X136861327Y-88045053D01*
X136869533Y-88131304D01*
X136859331Y-88175495D01*
X136814147Y-88249417D01*
X136582931Y-88393897D01*
X136392665Y-88089407D01*
X136623880Y-87944928D01*
X136710131Y-87936722D01*
X136754322Y-87946924D01*
G37*
G36*
X139220915Y-88025378D02*
G01*
X136815116Y-89528688D01*
X135887431Y-88044081D01*
X136083591Y-88044081D01*
X136091962Y-88094109D01*
X136103284Y-88116941D01*
X136792179Y-89219403D01*
X136807737Y-89239587D01*
X136849032Y-89269042D01*
X136898455Y-89280453D01*
X136948483Y-89272081D01*
X136971315Y-89260759D01*
X137391299Y-88998323D01*
X137411484Y-88982765D01*
X137414195Y-88978963D01*
X137417972Y-88976213D01*
X137433330Y-88955876D01*
X137505522Y-88837769D01*
X137511137Y-88826159D01*
X137513131Y-88823364D01*
X137514606Y-88818986D01*
X137516618Y-88814827D01*
X137517151Y-88811435D01*
X137521270Y-88799214D01*
X137540964Y-88713911D01*
X137542619Y-88701120D01*
X137543627Y-88697838D01*
X137543642Y-88693215D01*
X137544235Y-88688637D01*
X137543668Y-88685254D01*
X137543712Y-88672354D01*
X137530601Y-88534553D01*
X137525712Y-88509541D01*
X137523523Y-88505414D01*
X137522753Y-88500809D01*
X137511431Y-88477977D01*
X137413019Y-88320482D01*
X137397460Y-88300297D01*
X137393658Y-88297585D01*
X137390908Y-88293809D01*
X137370571Y-88278451D01*
X137252463Y-88206259D01*
X137240851Y-88200643D01*
X137238057Y-88198650D01*
X137233679Y-88197174D01*
X137229520Y-88195163D01*
X137226127Y-88194629D01*
X137213907Y-88190511D01*
X137128605Y-88170818D01*
X137127289Y-88170647D01*
X137127616Y-88169235D01*
X137129271Y-88156444D01*
X137130279Y-88153162D01*
X137130294Y-88148539D01*
X137130887Y-88143961D01*
X137130320Y-88140578D01*
X137130364Y-88127678D01*
X137121799Y-88037662D01*
X137612512Y-88037662D01*
X137620883Y-88087689D01*
X137647763Y-88130706D01*
X137689057Y-88160161D01*
X137738481Y-88171571D01*
X137788508Y-88163200D01*
X137811340Y-88151878D01*
X138121080Y-87958331D01*
X138314626Y-88268071D01*
X138330185Y-88288256D01*
X138371479Y-88317711D01*
X138420903Y-88329121D01*
X138470930Y-88320749D01*
X138513947Y-88293870D01*
X138543402Y-88252575D01*
X138554812Y-88203152D01*
X138546440Y-88153124D01*
X138535119Y-88130292D01*
X138341572Y-87820552D01*
X138651312Y-87627007D01*
X138671497Y-87611448D01*
X138700952Y-87570154D01*
X138712362Y-87520730D01*
X138703990Y-87470703D01*
X138677111Y-87427686D01*
X138635816Y-87398231D01*
X138586393Y-87386821D01*
X138536365Y-87395193D01*
X138513533Y-87406514D01*
X138203793Y-87600060D01*
X138010247Y-87290321D01*
X137994689Y-87270136D01*
X137953395Y-87240681D01*
X137903971Y-87229271D01*
X137853944Y-87237642D01*
X137810927Y-87264522D01*
X137781472Y-87305816D01*
X137770062Y-87355240D01*
X137778433Y-87405267D01*
X137789755Y-87428099D01*
X137983301Y-87737839D01*
X137673562Y-87931386D01*
X137653377Y-87946944D01*
X137623922Y-87988238D01*
X137612512Y-88037662D01*
X137121799Y-88037662D01*
X137117253Y-87989877D01*
X137112364Y-87964865D01*
X137110175Y-87960738D01*
X137109405Y-87956132D01*
X137098083Y-87933300D01*
X137032474Y-87828304D01*
X137016916Y-87808120D01*
X137013114Y-87805408D01*
X137010364Y-87801632D01*
X136990027Y-87786274D01*
X136871920Y-87714082D01*
X136860310Y-87708466D01*
X136857515Y-87706473D01*
X136853137Y-87704997D01*
X136848978Y-87702986D01*
X136845586Y-87702452D01*
X136833365Y-87698334D01*
X136748062Y-87678640D01*
X136735271Y-87676984D01*
X136731989Y-87675977D01*
X136727366Y-87675961D01*
X136722788Y-87675369D01*
X136719405Y-87675935D01*
X136706505Y-87675892D01*
X136568704Y-87689003D01*
X136543692Y-87693892D01*
X136539565Y-87696080D01*
X136534959Y-87696851D01*
X136512127Y-87708173D01*
X136144640Y-87937805D01*
X136124456Y-87953363D01*
X136095001Y-87994658D01*
X136083591Y-88044081D01*
X135887431Y-88044081D01*
X135835355Y-87960742D01*
X138241154Y-86457432D01*
X139220915Y-88025378D01*
G37*
D11*
G36*
X130871007Y-97079406D02*
G01*
X130953537Y-97114438D01*
X131060334Y-97195020D01*
X131097938Y-97239150D01*
X131123379Y-97302118D01*
X131116961Y-97382499D01*
X131087951Y-97450843D01*
X130535647Y-97216404D01*
X130564657Y-97148060D01*
X130618019Y-97087607D01*
X130680989Y-97062165D01*
X130738851Y-97058560D01*
X130871007Y-97079406D01*
G37*
G36*
X131581794Y-97055210D02*
G01*
X128955343Y-103242741D01*
X128105100Y-102881834D01*
X128469859Y-102881834D01*
X128484475Y-102918011D01*
X128511823Y-102945841D01*
X128547740Y-102961087D01*
X128586756Y-102961427D01*
X128622933Y-102946811D01*
X128650763Y-102919463D01*
X128660154Y-102902255D01*
X128898314Y-102341186D01*
X128904169Y-102322478D01*
X128904509Y-102283461D01*
X128889893Y-102247284D01*
X128862545Y-102219454D01*
X128826628Y-102204208D01*
X128787612Y-102203868D01*
X128751435Y-102218485D01*
X128723605Y-102245833D01*
X128714213Y-102263040D01*
X128476054Y-102824109D01*
X128470199Y-102842818D01*
X128469859Y-102881834D01*
X128105100Y-102881834D01*
X127850739Y-102773864D01*
X128837864Y-100448342D01*
X129171734Y-100448342D01*
X129186350Y-100484519D01*
X129213698Y-100512349D01*
X129230906Y-100521740D01*
X129419389Y-100601746D01*
X129339383Y-100790232D01*
X129333528Y-100808941D01*
X129333188Y-100847957D01*
X129347804Y-100884134D01*
X129375152Y-100911964D01*
X129411069Y-100927210D01*
X129450085Y-100927550D01*
X129486262Y-100912934D01*
X129514092Y-100885586D01*
X129523483Y-100868378D01*
X129603490Y-100679892D01*
X129791975Y-100759900D01*
X129810683Y-100765755D01*
X129849700Y-100766095D01*
X129885877Y-100751479D01*
X129913707Y-100724131D01*
X129928953Y-100688214D01*
X129929293Y-100649198D01*
X129914676Y-100613021D01*
X129887328Y-100585191D01*
X129870121Y-100575799D01*
X129681636Y-100495792D01*
X129761643Y-100307308D01*
X129767498Y-100288600D01*
X129767838Y-100249583D01*
X129753222Y-100213406D01*
X129725874Y-100185576D01*
X129689957Y-100170330D01*
X129650941Y-100169990D01*
X129614764Y-100184607D01*
X129586933Y-100211955D01*
X129577542Y-100229162D01*
X129497535Y-100417646D01*
X129309052Y-100337640D01*
X129290343Y-100331785D01*
X129251327Y-100331445D01*
X129215150Y-100346061D01*
X129187320Y-100373409D01*
X129172074Y-100409326D01*
X129171734Y-100448342D01*
X128837864Y-100448342D01*
X129107615Y-99812848D01*
X129234559Y-99812848D01*
X129249175Y-99849025D01*
X129276523Y-99876855D01*
X129312440Y-99892101D01*
X129351456Y-99892441D01*
X129387633Y-99877825D01*
X129415463Y-99850477D01*
X129424854Y-99833269D01*
X129532251Y-99580257D01*
X129612628Y-99746420D01*
X129618034Y-99755264D01*
X129619020Y-99757704D01*
X129620357Y-99759065D01*
X129622852Y-99763146D01*
X129634983Y-99773949D01*
X129646368Y-99785535D01*
X129649473Y-99786853D01*
X129651991Y-99789095D01*
X129667326Y-99794430D01*
X129682285Y-99800780D01*
X129685658Y-99800809D01*
X129688842Y-99801917D01*
X129705055Y-99800978D01*
X129721302Y-99801120D01*
X129724428Y-99799856D01*
X129727795Y-99799662D01*
X129742420Y-99792587D01*
X129757478Y-99786504D01*
X129759882Y-99784141D01*
X129762920Y-99782672D01*
X129773720Y-99770543D01*
X129785309Y-99759156D01*
X129787601Y-99754955D01*
X129788869Y-99753532D01*
X129789732Y-99751050D01*
X129794700Y-99741948D01*
X129830130Y-99658477D01*
X129864648Y-99629063D01*
X129884505Y-99621041D01*
X129929767Y-99618221D01*
X130061643Y-99674199D01*
X130091055Y-99708715D01*
X130099079Y-99728575D01*
X130101898Y-99773834D01*
X130031036Y-99940776D01*
X129996518Y-99970190D01*
X129961613Y-99984293D01*
X129944244Y-99993382D01*
X129916415Y-100020731D01*
X129901169Y-100056647D01*
X129900829Y-100095664D01*
X129915445Y-100131841D01*
X129942794Y-100159670D01*
X129978710Y-100174916D01*
X130017727Y-100175256D01*
X130036535Y-100169729D01*
X130086487Y-100149547D01*
X130095278Y-100144946D01*
X130097789Y-100144134D01*
X130100703Y-100142107D01*
X130103856Y-100140458D01*
X130105741Y-100138604D01*
X130113885Y-100132943D01*
X130178722Y-100077694D01*
X130192325Y-100063579D01*
X130193960Y-100060378D01*
X130196522Y-100057861D01*
X130205913Y-100040653D01*
X130295223Y-99830252D01*
X130301078Y-99811544D01*
X130301109Y-99807949D01*
X130302275Y-99804552D01*
X130302979Y-99784961D01*
X130297682Y-99699942D01*
X130296097Y-99690148D01*
X130296121Y-99687507D01*
X130295119Y-99684099D01*
X130294552Y-99680590D01*
X130293390Y-99678215D01*
X130290594Y-99668699D01*
X130270412Y-99618747D01*
X130265812Y-99609957D01*
X130264999Y-99607444D01*
X130262970Y-99604527D01*
X130261323Y-99601378D01*
X130259470Y-99599493D01*
X130253808Y-99591349D01*
X130198560Y-99526514D01*
X130184445Y-99512910D01*
X130181244Y-99511274D01*
X130178727Y-99508713D01*
X130161519Y-99499322D01*
X129986184Y-99424896D01*
X129967475Y-99419042D01*
X129963882Y-99419010D01*
X129960485Y-99417845D01*
X129940894Y-99417140D01*
X129855876Y-99422436D01*
X129846079Y-99424021D01*
X129843440Y-99423998D01*
X129840032Y-99424999D01*
X129836524Y-99425567D01*
X129834150Y-99426727D01*
X129824632Y-99429525D01*
X129774680Y-99449707D01*
X129765888Y-99454307D01*
X129763378Y-99455120D01*
X129760464Y-99457145D01*
X129757311Y-99458796D01*
X129755423Y-99460650D01*
X129747283Y-99466311D01*
X129713306Y-99495262D01*
X129616330Y-99294782D01*
X129610923Y-99285937D01*
X129609938Y-99283498D01*
X129608600Y-99282136D01*
X129606106Y-99278056D01*
X129593973Y-99267251D01*
X129582590Y-99255668D01*
X129579484Y-99254349D01*
X129576966Y-99252107D01*
X129561630Y-99246771D01*
X129546673Y-99240422D01*
X129543298Y-99240392D01*
X129540115Y-99239285D01*
X129523902Y-99240223D01*
X129507657Y-99240082D01*
X129504530Y-99241344D01*
X129501162Y-99241540D01*
X129486531Y-99248616D01*
X129471480Y-99254698D01*
X129469075Y-99257060D01*
X129466038Y-99258530D01*
X129455233Y-99270662D01*
X129443650Y-99282046D01*
X129441359Y-99286243D01*
X129440089Y-99287670D01*
X129439223Y-99290156D01*
X129434259Y-99299254D01*
X129240754Y-99755123D01*
X129234899Y-99773832D01*
X129234559Y-99812848D01*
X129107615Y-99812848D01*
X129393406Y-99139566D01*
X129516298Y-99139566D01*
X129528314Y-99176688D01*
X129553620Y-99206386D01*
X129588366Y-99224140D01*
X129607660Y-99227608D01*
X130448259Y-99294725D01*
X130467859Y-99294363D01*
X130474658Y-99292162D01*
X130481788Y-99291718D01*
X130493052Y-99286207D01*
X130504981Y-99282347D01*
X130510417Y-99277714D01*
X130516838Y-99274574D01*
X130525140Y-99265167D01*
X130534679Y-99257040D01*
X130537927Y-99250681D01*
X130542659Y-99245322D01*
X130546729Y-99233457D01*
X130552433Y-99222295D01*
X130553001Y-99215173D01*
X130555320Y-99208415D01*
X130554540Y-99195900D01*
X130555538Y-99183401D01*
X130553337Y-99176601D01*
X130552893Y-99169472D01*
X130547384Y-99158209D01*
X130543523Y-99146279D01*
X130538890Y-99140842D01*
X130535750Y-99134422D01*
X130522395Y-99120071D01*
X129890186Y-98562018D01*
X129874289Y-98550548D01*
X129837382Y-98537887D01*
X129798439Y-98540313D01*
X129763389Y-98557457D01*
X129737568Y-98586709D01*
X129724907Y-98623616D01*
X129727333Y-98662559D01*
X129744477Y-98697609D01*
X129757832Y-98711960D01*
X130165128Y-99071481D01*
X129623578Y-99028242D01*
X129603978Y-99028604D01*
X129566856Y-99040620D01*
X129537158Y-99065926D01*
X129519404Y-99100672D01*
X129516298Y-99139566D01*
X129393406Y-99139566D01*
X130179335Y-97288034D01*
X130306279Y-97288034D01*
X130320895Y-97324211D01*
X130348243Y-97352041D01*
X130365451Y-97361432D01*
X131101855Y-97674017D01*
X131120563Y-97679872D01*
X131159580Y-97680212D01*
X131195757Y-97665596D01*
X131223587Y-97638248D01*
X131232978Y-97621040D01*
X131307403Y-97445706D01*
X131310365Y-97436238D01*
X131311568Y-97433886D01*
X131312196Y-97430388D01*
X131313258Y-97426997D01*
X131313281Y-97424355D01*
X131315036Y-97414592D01*
X131324624Y-97294506D01*
X131324262Y-97274906D01*
X131323154Y-97271485D01*
X131323186Y-97267894D01*
X131317659Y-97249086D01*
X131277295Y-97149182D01*
X131272695Y-97140392D01*
X131271882Y-97137879D01*
X131269853Y-97134962D01*
X131268206Y-97131813D01*
X131266353Y-97129928D01*
X131260691Y-97121784D01*
X131205443Y-97056949D01*
X131204345Y-97055890D01*
X131203977Y-97055265D01*
X131197571Y-97049362D01*
X131191328Y-97043345D01*
X131190684Y-97043016D01*
X131189561Y-97041981D01*
X131064178Y-96947374D01*
X131061259Y-96945591D01*
X131060227Y-96944541D01*
X131053760Y-96941011D01*
X131047448Y-96937157D01*
X131046016Y-96936785D01*
X131043019Y-96935150D01*
X130937819Y-96890495D01*
X130934559Y-96889474D01*
X130933298Y-96888703D01*
X130926146Y-96886841D01*
X130919111Y-96884640D01*
X130917636Y-96884627D01*
X130914327Y-96883766D01*
X130759174Y-96859293D01*
X130757647Y-96859203D01*
X130756966Y-96858970D01*
X130748306Y-96858658D01*
X130739604Y-96858151D01*
X130738898Y-96858320D01*
X130737375Y-96858266D01*
X130652356Y-96863563D01*
X130642567Y-96865146D01*
X130639922Y-96865123D01*
X130636507Y-96866126D01*
X130633004Y-96866693D01*
X130630633Y-96867852D01*
X130621114Y-96870650D01*
X130521211Y-96911013D01*
X130503842Y-96920103D01*
X130501279Y-96922620D01*
X130498051Y-96924200D01*
X130483700Y-96937555D01*
X130403978Y-97027871D01*
X130398172Y-97035916D01*
X130396290Y-97037767D01*
X130394589Y-97040883D01*
X130392508Y-97043768D01*
X130391649Y-97046269D01*
X130386899Y-97054975D01*
X130312474Y-97230309D01*
X130306619Y-97249018D01*
X130306279Y-97288034D01*
X130179335Y-97288034D01*
X130477189Y-96586333D01*
X131581794Y-97055210D01*
G37*
D12*
G36*
X163130832Y-87558784D02*
G01*
X163212808Y-87667313D01*
X163217872Y-87694640D01*
X163207012Y-87772560D01*
X163141936Y-87867246D01*
X163073083Y-87905310D01*
X163034873Y-87912391D01*
X162956953Y-87901531D01*
X162701616Y-87726043D01*
X162917390Y-87412090D01*
X163130832Y-87558784D01*
G37*
G36*
X163472343Y-87042342D02*
G01*
X163510406Y-87111194D01*
X163517487Y-87149404D01*
X163506627Y-87227323D01*
X163476614Y-87270992D01*
X163407761Y-87309056D01*
X163369551Y-87316137D01*
X163291631Y-87305277D01*
X163087312Y-87164852D01*
X163268022Y-86901917D01*
X163472343Y-87042342D01*
G37*
G36*
X165531791Y-87911728D02*
G01*
X164455619Y-89477569D01*
X162075877Y-87842017D01*
X162130364Y-87762738D01*
X162343050Y-87762738D01*
X162353715Y-87820284D01*
X162385591Y-87869369D01*
X162408076Y-87888320D01*
X162816214Y-88168826D01*
X162841964Y-88183026D01*
X162847233Y-88184146D01*
X162851882Y-88186877D01*
X162880468Y-88193771D01*
X163017566Y-88212880D01*
X163032436Y-88213479D01*
X163036309Y-88214303D01*
X163041618Y-88213850D01*
X163046947Y-88214065D01*
X163050781Y-88213068D01*
X163065608Y-88211804D01*
X163151689Y-88195850D01*
X163165982Y-88191718D01*
X163169921Y-88191274D01*
X163174817Y-88189164D01*
X163179938Y-88187684D01*
X163183260Y-88185526D01*
X163196926Y-88179638D01*
X163318070Y-88112667D01*
X163342286Y-88095986D01*
X163345644Y-88091772D01*
X163346944Y-88090928D01*
X163694920Y-88090928D01*
X163705585Y-88148474D01*
X163737461Y-88197559D01*
X163759946Y-88216510D01*
X164576223Y-88777522D01*
X164601973Y-88791722D01*
X164659221Y-88803890D01*
X164716767Y-88793225D01*
X164765852Y-88761349D01*
X164799003Y-88713114D01*
X164811171Y-88655866D01*
X164800506Y-88598320D01*
X164768630Y-88549235D01*
X164746145Y-88530284D01*
X163929868Y-87969272D01*
X163904118Y-87955072D01*
X163846870Y-87942904D01*
X163789324Y-87953569D01*
X163740239Y-87985445D01*
X163707088Y-88033680D01*
X163694920Y-88090928D01*
X163346944Y-88090928D01*
X163350166Y-88088837D01*
X163369117Y-88066352D01*
X163474307Y-87913300D01*
X163488507Y-87887551D01*
X163489627Y-87882279D01*
X163492358Y-87877632D01*
X163499252Y-87849046D01*
X163518361Y-87711948D01*
X163518960Y-87697077D01*
X163519784Y-87693205D01*
X163519331Y-87687895D01*
X163519546Y-87682567D01*
X163518549Y-87678732D01*
X163517285Y-87663906D01*
X163504519Y-87595028D01*
X163504599Y-87595020D01*
X163509495Y-87592910D01*
X163514616Y-87591430D01*
X163517938Y-87589272D01*
X163531604Y-87583384D01*
X163652748Y-87516413D01*
X163676964Y-87499732D01*
X163680322Y-87495518D01*
X163684844Y-87492583D01*
X163703795Y-87470098D01*
X163773922Y-87368063D01*
X163788122Y-87342314D01*
X163789242Y-87337042D01*
X163791973Y-87332395D01*
X163798867Y-87303809D01*
X163817976Y-87166711D01*
X163818575Y-87151840D01*
X163819399Y-87147968D01*
X163818946Y-87142658D01*
X163819161Y-87137330D01*
X163818164Y-87133495D01*
X163816900Y-87118669D01*
X163800946Y-87032589D01*
X163796814Y-87018295D01*
X163796370Y-87014357D01*
X163794260Y-87009461D01*
X163792780Y-87004340D01*
X163790621Y-87001015D01*
X163784733Y-86987351D01*
X163717761Y-86866207D01*
X163701081Y-86841991D01*
X163696866Y-86838630D01*
X163693932Y-86834112D01*
X163671447Y-86815161D01*
X163314326Y-86569718D01*
X163288576Y-86555518D01*
X163231328Y-86543350D01*
X163173782Y-86554015D01*
X163124697Y-86585891D01*
X163105746Y-86608376D01*
X162369418Y-87679740D01*
X162355218Y-87705490D01*
X162343050Y-87762738D01*
X162130364Y-87762738D01*
X163152049Y-86276177D01*
X165531791Y-87911728D01*
G37*
D13*
X166688131Y-122469104D02*
X166856490Y-122300745D01*
X166856490Y-122300745D02*
X167210044Y-122654299D01*
X166755475Y-122772150D02*
X166637624Y-122890001D01*
X166401921Y-122755314D02*
X166570280Y-122586955D01*
X166570280Y-122586955D02*
X166923834Y-122940509D01*
X166923834Y-122940509D02*
X166755475Y-123108867D01*
X166250398Y-122906837D02*
X166603952Y-123260390D01*
X166603952Y-123260390D02*
X166519773Y-123344570D01*
X166519773Y-123344570D02*
X166452429Y-123378241D01*
X166452429Y-123378241D02*
X166385085Y-123378241D01*
X166385085Y-123378241D02*
X166334578Y-123361405D01*
X166334578Y-123361405D02*
X166250398Y-123310898D01*
X166250398Y-123310898D02*
X166199891Y-123260390D01*
X166199891Y-123260390D02*
X166149383Y-123176211D01*
X166149383Y-123176211D02*
X166132547Y-123125703D01*
X166132547Y-123125703D02*
X166132547Y-123058360D01*
X166132547Y-123058360D02*
X166166219Y-122991016D01*
X166166219Y-122991016D02*
X166250398Y-122906837D01*
X165711650Y-123445585D02*
X165913681Y-123243554D01*
X165812666Y-123344570D02*
X166166219Y-123698123D01*
X166166219Y-123698123D02*
X166149383Y-123613944D01*
X166149383Y-123613944D02*
X166149383Y-123546600D01*
X166149383Y-123546600D02*
X166166219Y-123496092D01*
X165374933Y-123782302D02*
X165576964Y-123580272D01*
X165475949Y-123681287D02*
X165829502Y-124034840D01*
X165829502Y-124034840D02*
X165812666Y-123950661D01*
X165812666Y-123950661D02*
X165812666Y-123883317D01*
X165812666Y-123883317D02*
X165829502Y-123832810D01*
X159211793Y-89240407D02*
X159223860Y-89271842D01*
X159223860Y-89271842D02*
X159216559Y-89346779D01*
X159216559Y-89346779D02*
X159197190Y-89390281D01*
X159197190Y-89390281D02*
X159146387Y-89445850D01*
X159146387Y-89445850D02*
X159083516Y-89469984D01*
X159083516Y-89469984D02*
X159030330Y-89472367D01*
X159030330Y-89472367D02*
X158933641Y-89455381D01*
X158933641Y-89455381D02*
X158868388Y-89426329D01*
X158868388Y-89426329D02*
X158791068Y-89365841D01*
X158791068Y-89365841D02*
X158757250Y-89324721D01*
X158757250Y-89324721D02*
X158733116Y-89261851D01*
X158733116Y-89261851D02*
X158740418Y-89186913D01*
X158740418Y-89186913D02*
X158759786Y-89143411D01*
X158759786Y-89143411D02*
X158810590Y-89087842D01*
X158810590Y-89087842D02*
X158842025Y-89075775D01*
X159448980Y-88824753D02*
X159332769Y-89085766D01*
X159390875Y-88955260D02*
X158934102Y-88751891D01*
X158934102Y-88751891D02*
X158979987Y-88824446D01*
X158979987Y-88824446D02*
X159004120Y-88887317D01*
X159004120Y-88887317D02*
X159006503Y-88940503D01*
X159166523Y-88229866D02*
X159127786Y-88316870D01*
X159127786Y-88316870D02*
X159130168Y-88370057D01*
X159130168Y-88370057D02*
X159142235Y-88401492D01*
X159142235Y-88401492D02*
X159188120Y-88474047D01*
X159188120Y-88474047D02*
X159265440Y-88534535D01*
X159265440Y-88534535D02*
X159439449Y-88612008D01*
X159439449Y-88612008D02*
X159492635Y-88609626D01*
X159492635Y-88609626D02*
X159524071Y-88597559D01*
X159524071Y-88597559D02*
X159565190Y-88563741D01*
X159565190Y-88563741D02*
X159603927Y-88476736D01*
X159603927Y-88476736D02*
X159601544Y-88423550D01*
X159601544Y-88423550D02*
X159589477Y-88392115D01*
X159589477Y-88392115D02*
X159555659Y-88350995D01*
X159555659Y-88350995D02*
X159446904Y-88302574D01*
X159446904Y-88302574D02*
X159393718Y-88304957D01*
X159393718Y-88304957D02*
X159362282Y-88317024D01*
X159362282Y-88317024D02*
X159321163Y-88350842D01*
X159321163Y-88350842D02*
X159282426Y-88437846D01*
X159282426Y-88437846D02*
X159284809Y-88491032D01*
X159284809Y-88491032D02*
X159296876Y-88522468D01*
X159296876Y-88522468D02*
X159330693Y-88563587D01*
X146053536Y-84224898D02*
X146077346Y-84248707D01*
X146077346Y-84248707D02*
X146101155Y-84320136D01*
X146101155Y-84320136D02*
X146101155Y-84367755D01*
X146101155Y-84367755D02*
X146077346Y-84439183D01*
X146077346Y-84439183D02*
X146029726Y-84486802D01*
X146029726Y-84486802D02*
X145982107Y-84510612D01*
X145982107Y-84510612D02*
X145886869Y-84534421D01*
X145886869Y-84534421D02*
X145815441Y-84534421D01*
X145815441Y-84534421D02*
X145720203Y-84510612D01*
X145720203Y-84510612D02*
X145672584Y-84486802D01*
X145672584Y-84486802D02*
X145624965Y-84439183D01*
X145624965Y-84439183D02*
X145601155Y-84367755D01*
X145601155Y-84367755D02*
X145601155Y-84320136D01*
X145601155Y-84320136D02*
X145624965Y-84248707D01*
X145624965Y-84248707D02*
X145648774Y-84224898D01*
X146101155Y-83748707D02*
X146101155Y-84034421D01*
X146101155Y-83891564D02*
X145601155Y-83891564D01*
X145601155Y-83891564D02*
X145672584Y-83939183D01*
X145672584Y-83939183D02*
X145720203Y-83986802D01*
X145720203Y-83986802D02*
X145744012Y-84034421D01*
X155730961Y-129557221D02*
X155747797Y-129528060D01*
X155747797Y-129528060D02*
X155810629Y-129486575D01*
X155810629Y-129486575D02*
X155856626Y-129474250D01*
X155856626Y-129474250D02*
X155931783Y-129478761D01*
X155931783Y-129478761D02*
X155990104Y-129512433D01*
X155990104Y-129512433D02*
X156025427Y-129552267D01*
X156025427Y-129552267D02*
X156073074Y-129638098D01*
X156073074Y-129638098D02*
X156091562Y-129707093D01*
X156091562Y-129707093D02*
X156093213Y-129805248D01*
X156093213Y-129805248D02*
X156082539Y-129857407D01*
X156082539Y-129857407D02*
X156048867Y-129915728D01*
X156048867Y-129915728D02*
X155986035Y-129957213D01*
X155986035Y-129957213D02*
X155940039Y-129969538D01*
X155940039Y-129969538D02*
X155864882Y-129965027D01*
X155864882Y-129965027D02*
X155835721Y-129948191D01*
X155258672Y-129634472D02*
X155534650Y-129560523D01*
X155396661Y-129597497D02*
X155526070Y-130080460D01*
X155526070Y-130080460D02*
X155553580Y-129999141D01*
X155553580Y-129999141D02*
X155587252Y-129940820D01*
X155587252Y-129940820D02*
X155627086Y-129905497D01*
X155089104Y-130197545D02*
X155043108Y-130209870D01*
X155043108Y-130209870D02*
X154990949Y-130199196D01*
X154990949Y-130199196D02*
X154961789Y-130182360D01*
X154961789Y-130182360D02*
X154926466Y-130142526D01*
X154926466Y-130142526D02*
X154878818Y-130056696D01*
X154878818Y-130056696D02*
X154848006Y-129941705D01*
X154848006Y-129941705D02*
X154846355Y-129843549D01*
X154846355Y-129843549D02*
X154857028Y-129791390D01*
X154857028Y-129791390D02*
X154873864Y-129762230D01*
X154873864Y-129762230D02*
X154913698Y-129726907D01*
X154913698Y-129726907D02*
X154959695Y-129714582D01*
X154959695Y-129714582D02*
X155011854Y-129725256D01*
X155011854Y-129725256D02*
X155041014Y-129742092D01*
X155041014Y-129742092D02*
X155076337Y-129781926D01*
X155076337Y-129781926D02*
X155123985Y-129867756D01*
X155123985Y-129867756D02*
X155154797Y-129982747D01*
X155154797Y-129982747D02*
X155156448Y-130080903D01*
X155156448Y-130080903D02*
X155145774Y-130133062D01*
X155145774Y-130133062D02*
X155128939Y-130162222D01*
X155128939Y-130162222D02*
X155089104Y-130197545D01*
X158181226Y-86446764D02*
X157961254Y-86355649D01*
X157961254Y-86355649D02*
X158152596Y-85893709D01*
X158435432Y-86268576D02*
X158589412Y-86332357D01*
X158555177Y-86601660D02*
X158335206Y-86510545D01*
X158335206Y-86510545D02*
X158526547Y-86048605D01*
X158526547Y-86048605D02*
X158746519Y-86139720D01*
X158753151Y-86683663D02*
X158944493Y-86221724D01*
X158944493Y-86221724D02*
X159054478Y-86267281D01*
X159054478Y-86267281D02*
X159111358Y-86316613D01*
X159111358Y-86316613D02*
X159137130Y-86378830D01*
X159137130Y-86378830D02*
X159140904Y-86431936D01*
X159140904Y-86431936D02*
X159126455Y-86529036D01*
X159126455Y-86529036D02*
X159099120Y-86595027D01*
X159099120Y-86595027D02*
X159040677Y-86673904D01*
X159040677Y-86673904D02*
X159000457Y-86708787D01*
X159000457Y-86708787D02*
X158938240Y-86734558D01*
X158938240Y-86734558D02*
X158863137Y-86729221D01*
X158863137Y-86729221D02*
X158753151Y-86683663D01*
X159457059Y-86975232D02*
X159193094Y-86865894D01*
X159325077Y-86920563D02*
X159516418Y-86458623D01*
X159516418Y-86458623D02*
X159445089Y-86506391D01*
X159445089Y-86506391D02*
X159382872Y-86532163D01*
X159382872Y-86532163D02*
X159329766Y-86535937D01*
X160044349Y-86677299D02*
X159956360Y-86640853D01*
X159956360Y-86640853D02*
X159903255Y-86644627D01*
X159903255Y-86644627D02*
X159872146Y-86657513D01*
X159872146Y-86657513D02*
X159800817Y-86705281D01*
X159800817Y-86705281D02*
X159742374Y-86784158D01*
X159742374Y-86784158D02*
X159669482Y-86960135D01*
X159669482Y-86960135D02*
X159673256Y-87013241D01*
X159673256Y-87013241D02*
X159686142Y-87044350D01*
X159686142Y-87044350D02*
X159721024Y-87084570D01*
X159721024Y-87084570D02*
X159809013Y-87121016D01*
X159809013Y-87121016D02*
X159862119Y-87117242D01*
X159862119Y-87117242D02*
X159893227Y-87104356D01*
X159893227Y-87104356D02*
X159933448Y-87069473D01*
X159933448Y-87069473D02*
X159979005Y-86959488D01*
X159979005Y-86959488D02*
X159975231Y-86906382D01*
X159975231Y-86906382D02*
X159962345Y-86875273D01*
X159962345Y-86875273D02*
X159927463Y-86835053D01*
X159927463Y-86835053D02*
X159839474Y-86798607D01*
X159839474Y-86798607D02*
X159786368Y-86802381D01*
X159786368Y-86802381D02*
X159755260Y-86815267D01*
X159755260Y-86815267D02*
X159715040Y-86850150D01*
X128156375Y-107853177D02*
X128156375Y-108091272D01*
X128156375Y-108091272D02*
X127656375Y-108091272D01*
X127894470Y-107686510D02*
X127894470Y-107519843D01*
X128156375Y-107448415D02*
X128156375Y-107686510D01*
X128156375Y-107686510D02*
X127656375Y-107686510D01*
X127656375Y-107686510D02*
X127656375Y-107448415D01*
X128156375Y-107234129D02*
X127656375Y-107234129D01*
X127656375Y-107234129D02*
X127656375Y-107115081D01*
X127656375Y-107115081D02*
X127680185Y-107043653D01*
X127680185Y-107043653D02*
X127727804Y-106996034D01*
X127727804Y-106996034D02*
X127775423Y-106972224D01*
X127775423Y-106972224D02*
X127870661Y-106948415D01*
X127870661Y-106948415D02*
X127942089Y-106948415D01*
X127942089Y-106948415D02*
X128037327Y-106972224D01*
X128037327Y-106972224D02*
X128084946Y-106996034D01*
X128084946Y-106996034D02*
X128132566Y-107043653D01*
X128132566Y-107043653D02*
X128156375Y-107115081D01*
X128156375Y-107115081D02*
X128156375Y-107234129D01*
X127656375Y-106496034D02*
X127656375Y-106734129D01*
X127656375Y-106734129D02*
X127894470Y-106757938D01*
X127894470Y-106757938D02*
X127870661Y-106734129D01*
X127870661Y-106734129D02*
X127846851Y-106686510D01*
X127846851Y-106686510D02*
X127846851Y-106567462D01*
X127846851Y-106567462D02*
X127870661Y-106519843D01*
X127870661Y-106519843D02*
X127894470Y-106496034D01*
X127894470Y-106496034D02*
X127942089Y-106472224D01*
X127942089Y-106472224D02*
X128061137Y-106472224D01*
X128061137Y-106472224D02*
X128108756Y-106496034D01*
X128108756Y-106496034D02*
X128132566Y-106519843D01*
X128132566Y-106519843D02*
X128156375Y-106567462D01*
X128156375Y-106567462D02*
X128156375Y-106686510D01*
X128156375Y-106686510D02*
X128132566Y-106734129D01*
X128132566Y-106734129D02*
X128108756Y-106757938D01*
X136274381Y-92448104D02*
X136240709Y-92448104D01*
X136240709Y-92448104D02*
X136173365Y-92414432D01*
X136173365Y-92414432D02*
X136139694Y-92380760D01*
X136139694Y-92380760D02*
X136106022Y-92313417D01*
X136106022Y-92313417D02*
X136106022Y-92246073D01*
X136106022Y-92246073D02*
X136122858Y-92195566D01*
X136122858Y-92195566D02*
X136173365Y-92111386D01*
X136173365Y-92111386D02*
X136223873Y-92060879D01*
X136223873Y-92060879D02*
X136308052Y-92010371D01*
X136308052Y-92010371D02*
X136358560Y-91993535D01*
X136358560Y-91993535D02*
X136425903Y-91993535D01*
X136425903Y-91993535D02*
X136493247Y-92027207D01*
X136493247Y-92027207D02*
X136526919Y-92060879D01*
X136526919Y-92060879D02*
X136560590Y-92128222D01*
X136560590Y-92128222D02*
X136560590Y-92161894D01*
X136712113Y-92246073D02*
X136930980Y-92464940D01*
X136930980Y-92464940D02*
X136678442Y-92481775D01*
X136678442Y-92481775D02*
X136728949Y-92532283D01*
X136728949Y-92532283D02*
X136745785Y-92582791D01*
X136745785Y-92582791D02*
X136745785Y-92616462D01*
X136745785Y-92616462D02*
X136728949Y-92666970D01*
X136728949Y-92666970D02*
X136644770Y-92751149D01*
X136644770Y-92751149D02*
X136594262Y-92767985D01*
X136594262Y-92767985D02*
X136560590Y-92767985D01*
X136560590Y-92767985D02*
X136510083Y-92751149D01*
X136510083Y-92751149D02*
X136409068Y-92650134D01*
X136409068Y-92650134D02*
X136392232Y-92599627D01*
X136392232Y-92599627D02*
X136392232Y-92565955D01*
X172643624Y-106508727D02*
X172643624Y-106270632D01*
X172643624Y-106270632D02*
X173143624Y-106270632D01*
X172905529Y-106675394D02*
X172905529Y-106842061D01*
X172643624Y-106913489D02*
X172643624Y-106675394D01*
X172643624Y-106675394D02*
X173143624Y-106675394D01*
X173143624Y-106675394D02*
X173143624Y-106913489D01*
X172643624Y-107127775D02*
X173143624Y-107127775D01*
X173143624Y-107127775D02*
X173143624Y-107246823D01*
X173143624Y-107246823D02*
X173119814Y-107318251D01*
X173119814Y-107318251D02*
X173072195Y-107365870D01*
X173072195Y-107365870D02*
X173024576Y-107389680D01*
X173024576Y-107389680D02*
X172929338Y-107413489D01*
X172929338Y-107413489D02*
X172857910Y-107413489D01*
X172857910Y-107413489D02*
X172762672Y-107389680D01*
X172762672Y-107389680D02*
X172715053Y-107365870D01*
X172715053Y-107365870D02*
X172667434Y-107318251D01*
X172667434Y-107318251D02*
X172643624Y-107246823D01*
X172643624Y-107246823D02*
X172643624Y-107127775D01*
X172643624Y-107889680D02*
X172643624Y-107603966D01*
X172643624Y-107746823D02*
X173143624Y-107746823D01*
X173143624Y-107746823D02*
X173072195Y-107699204D01*
X173072195Y-107699204D02*
X173024576Y-107651585D01*
X173024576Y-107651585D02*
X173000767Y-107603966D01*
X173143624Y-108056346D02*
X173143624Y-108365870D01*
X173143624Y-108365870D02*
X172953148Y-108199203D01*
X172953148Y-108199203D02*
X172953148Y-108270632D01*
X172953148Y-108270632D02*
X172929338Y-108318251D01*
X172929338Y-108318251D02*
X172905529Y-108342060D01*
X172905529Y-108342060D02*
X172857910Y-108365870D01*
X172857910Y-108365870D02*
X172738862Y-108365870D01*
X172738862Y-108365870D02*
X172691243Y-108342060D01*
X172691243Y-108342060D02*
X172667434Y-108318251D01*
X172667434Y-108318251D02*
X172643624Y-108270632D01*
X172643624Y-108270632D02*
X172643624Y-108127775D01*
X172643624Y-108127775D02*
X172667434Y-108080156D01*
X172667434Y-108080156D02*
X172691243Y-108056346D01*
X172536658Y-101912551D02*
X172507796Y-101895209D01*
X172507796Y-101895209D02*
X172467413Y-101831662D01*
X172467413Y-101831662D02*
X172455893Y-101785458D01*
X172455893Y-101785458D02*
X172461715Y-101710391D01*
X172461715Y-101710391D02*
X172496400Y-101652666D01*
X172496400Y-101652666D02*
X172536844Y-101618044D01*
X172536844Y-101618044D02*
X172623493Y-101571902D01*
X172623493Y-101571902D02*
X172692800Y-101554621D01*
X172692800Y-101554621D02*
X172790969Y-101554683D01*
X172790969Y-101554683D02*
X172842934Y-101566266D01*
X172842934Y-101566266D02*
X172900658Y-101600950D01*
X172900658Y-101600950D02*
X172941041Y-101664497D01*
X172941041Y-101664497D02*
X172952561Y-101710701D01*
X172952561Y-101710701D02*
X172946739Y-101785768D01*
X172946739Y-101785768D02*
X172929397Y-101814631D01*
X172605654Y-102386117D02*
X172536534Y-102108890D01*
X172571094Y-102247503D02*
X173056242Y-102126542D01*
X173056242Y-102126542D02*
X172975415Y-102097618D01*
X172975415Y-102097618D02*
X172917690Y-102062934D01*
X172917690Y-102062934D02*
X172883068Y-102022489D01*
X173032767Y-102721317D02*
X172709335Y-102801958D01*
X173188785Y-102559725D02*
X172813450Y-102530615D01*
X172813450Y-102530615D02*
X172888331Y-102830944D01*
X128072338Y-101499918D02*
X128090677Y-101528157D01*
X128090677Y-101528157D02*
X128099115Y-101602975D01*
X128099115Y-101602975D02*
X128089215Y-101649553D01*
X128089215Y-101649553D02*
X128051075Y-101714471D01*
X128051075Y-101714471D02*
X127994596Y-101751149D01*
X127994596Y-101751149D02*
X127943067Y-101764537D01*
X127943067Y-101764537D02*
X127844960Y-101768026D01*
X127844960Y-101768026D02*
X127775092Y-101753175D01*
X127775092Y-101753175D02*
X127686885Y-101710084D01*
X127686885Y-101710084D02*
X127645257Y-101676895D01*
X127645257Y-101676895D02*
X127608579Y-101620416D01*
X127608579Y-101620416D02*
X127600141Y-101545598D01*
X127600141Y-101545598D02*
X127610042Y-101499019D01*
X127610042Y-101499019D02*
X127648182Y-101434102D01*
X127648182Y-101434102D02*
X127676421Y-101415763D01*
X127881972Y-101021308D02*
X128208021Y-101090612D01*
X127670907Y-101098152D02*
X127995494Y-101288852D01*
X127995494Y-101288852D02*
X128059848Y-100986092D01*
X141376663Y-86961262D02*
X141156692Y-87052377D01*
X141156692Y-87052377D02*
X140965350Y-86590437D01*
X141430417Y-86655513D02*
X141584397Y-86591732D01*
X141750615Y-86806366D02*
X141530643Y-86897481D01*
X141530643Y-86897481D02*
X141339302Y-86435541D01*
X141339302Y-86435541D02*
X141559273Y-86344426D01*
X141948589Y-86724362D02*
X141757247Y-86262423D01*
X141757247Y-86262423D02*
X141867233Y-86216865D01*
X141867233Y-86216865D02*
X141942336Y-86211528D01*
X141942336Y-86211528D02*
X142004553Y-86237299D01*
X142004553Y-86237299D02*
X142044773Y-86272182D01*
X142044773Y-86272182D02*
X142103216Y-86351059D01*
X142103216Y-86351059D02*
X142130551Y-86417050D01*
X142130551Y-86417050D02*
X142145000Y-86514150D01*
X142145000Y-86514150D02*
X142141226Y-86567256D01*
X142141226Y-86567256D02*
X142115455Y-86629473D01*
X142115455Y-86629473D02*
X142058575Y-86678805D01*
X142058575Y-86678805D02*
X141948589Y-86724362D01*
X142215413Y-86124187D02*
X142228299Y-86093078D01*
X142228299Y-86093078D02*
X142263181Y-86052858D01*
X142263181Y-86052858D02*
X142373167Y-86007300D01*
X142373167Y-86007300D02*
X142426273Y-86011074D01*
X142426273Y-86011074D02*
X142457381Y-86023960D01*
X142457381Y-86023960D02*
X142497601Y-86058843D01*
X142497601Y-86058843D02*
X142515825Y-86102837D01*
X142515825Y-86102837D02*
X142521162Y-86177940D01*
X142521162Y-86177940D02*
X142366534Y-86551244D01*
X142366534Y-86551244D02*
X142652497Y-86432794D01*
X163922236Y-125829285D02*
X163927504Y-125796028D01*
X163927504Y-125796028D02*
X163971296Y-125734781D01*
X163971296Y-125734781D02*
X164009820Y-125706791D01*
X164009820Y-125706791D02*
X164081602Y-125684068D01*
X164081602Y-125684068D02*
X164148117Y-125694603D01*
X164148117Y-125694603D02*
X164195369Y-125719133D01*
X164195369Y-125719133D02*
X164270611Y-125782187D01*
X164270611Y-125782187D02*
X164312595Y-125839974D01*
X164312595Y-125839974D02*
X164349312Y-125931018D01*
X164349312Y-125931018D02*
X164358040Y-125983538D01*
X164358040Y-125983538D02*
X164347505Y-126050052D01*
X164347505Y-126050052D02*
X164303713Y-126111299D01*
X164303713Y-126111299D02*
X164265188Y-126139289D01*
X164265188Y-126139289D02*
X164193407Y-126162011D01*
X164193407Y-126162011D02*
X164160149Y-126156744D01*
X163509000Y-126070658D02*
X163740148Y-125902719D01*
X163624574Y-125986688D02*
X163918467Y-126391197D01*
X163918467Y-126391197D02*
X163915007Y-126305420D01*
X163915007Y-126305420D02*
X163925542Y-126238906D01*
X163925542Y-126238906D02*
X163950071Y-126191654D01*
X163123755Y-126350555D02*
X163354902Y-126182617D01*
X163239328Y-126266586D02*
X163533221Y-126671094D01*
X163533221Y-126671094D02*
X163529761Y-126585318D01*
X163529761Y-126585318D02*
X163540296Y-126518803D01*
X163540296Y-126518803D02*
X163564826Y-126471551D01*
X170647622Y-98056692D02*
X170556507Y-97836721D01*
X170556507Y-97836721D02*
X171018447Y-97645379D01*
X170953371Y-98110446D02*
X171017152Y-98264426D01*
X170802518Y-98430644D02*
X170711403Y-98210672D01*
X170711403Y-98210672D02*
X171173343Y-98019331D01*
X171173343Y-98019331D02*
X171264458Y-98239302D01*
X170884522Y-98628618D02*
X171346461Y-98437276D01*
X171346461Y-98437276D02*
X171392019Y-98547262D01*
X171392019Y-98547262D02*
X171397356Y-98622365D01*
X171397356Y-98622365D02*
X171371585Y-98684582D01*
X171371585Y-98684582D02*
X171336702Y-98724802D01*
X171336702Y-98724802D02*
X171257825Y-98783245D01*
X171257825Y-98783245D02*
X171191834Y-98810580D01*
X171191834Y-98810580D02*
X171094734Y-98825029D01*
X171094734Y-98825029D02*
X171041628Y-98821255D01*
X171041628Y-98821255D02*
X170979411Y-98795483D01*
X170979411Y-98795483D02*
X170930079Y-98738604D01*
X170930079Y-98738604D02*
X170884522Y-98628618D01*
X171176090Y-99332526D02*
X171066752Y-99068560D01*
X171121421Y-99200543D02*
X171583361Y-99009202D01*
X171583361Y-99009202D02*
X171499146Y-98992542D01*
X171499146Y-98992542D02*
X171436929Y-98966771D01*
X171436929Y-98966771D02*
X171396709Y-98931888D01*
X171648057Y-99600913D02*
X171340097Y-99728474D01*
X171778476Y-99418035D02*
X171402962Y-99444722D01*
X171402962Y-99444722D02*
X171521411Y-99730685D01*
X135209434Y-121284102D02*
X135209434Y-121317774D01*
X135209434Y-121317774D02*
X135175762Y-121385118D01*
X135175762Y-121385118D02*
X135142090Y-121418789D01*
X135142090Y-121418789D02*
X135074747Y-121452461D01*
X135074747Y-121452461D02*
X135007403Y-121452461D01*
X135007403Y-121452461D02*
X134956896Y-121435625D01*
X134956896Y-121435625D02*
X134872716Y-121385118D01*
X134872716Y-121385118D02*
X134822209Y-121334610D01*
X134822209Y-121334610D02*
X134771701Y-121250431D01*
X134771701Y-121250431D02*
X134754865Y-121199923D01*
X134754865Y-121199923D02*
X134754865Y-121132580D01*
X134754865Y-121132580D02*
X134788537Y-121065236D01*
X134788537Y-121065236D02*
X134822209Y-121031564D01*
X134822209Y-121031564D02*
X134889552Y-120997893D01*
X134889552Y-120997893D02*
X134923224Y-120997893D01*
X135007403Y-120846370D02*
X135243105Y-120610667D01*
X135243105Y-120610667D02*
X135445136Y-121115744D01*
X150953177Y-129543624D02*
X151191272Y-129543624D01*
X151191272Y-129543624D02*
X151191272Y-130043624D01*
X150786510Y-129805529D02*
X150619843Y-129805529D01*
X150548415Y-129543624D02*
X150786510Y-129543624D01*
X150786510Y-129543624D02*
X150786510Y-130043624D01*
X150786510Y-130043624D02*
X150548415Y-130043624D01*
X150334129Y-129543624D02*
X150334129Y-130043624D01*
X150334129Y-130043624D02*
X150215081Y-130043624D01*
X150215081Y-130043624D02*
X150143653Y-130019814D01*
X150143653Y-130019814D02*
X150096034Y-129972195D01*
X150096034Y-129972195D02*
X150072224Y-129924576D01*
X150072224Y-129924576D02*
X150048415Y-129829338D01*
X150048415Y-129829338D02*
X150048415Y-129757910D01*
X150048415Y-129757910D02*
X150072224Y-129662672D01*
X150072224Y-129662672D02*
X150096034Y-129615053D01*
X150096034Y-129615053D02*
X150143653Y-129567434D01*
X150143653Y-129567434D02*
X150215081Y-129543624D01*
X150215081Y-129543624D02*
X150334129Y-129543624D01*
X149810319Y-129543624D02*
X149715081Y-129543624D01*
X149715081Y-129543624D02*
X149667462Y-129567434D01*
X149667462Y-129567434D02*
X149643653Y-129591243D01*
X149643653Y-129591243D02*
X149596034Y-129662672D01*
X149596034Y-129662672D02*
X149572224Y-129757910D01*
X149572224Y-129757910D02*
X149572224Y-129948386D01*
X149572224Y-129948386D02*
X149596034Y-129996005D01*
X149596034Y-129996005D02*
X149619843Y-130019814D01*
X149619843Y-130019814D02*
X149667462Y-130043624D01*
X149667462Y-130043624D02*
X149762700Y-130043624D01*
X149762700Y-130043624D02*
X149810319Y-130019814D01*
X149810319Y-130019814D02*
X149834129Y-129996005D01*
X149834129Y-129996005D02*
X149857938Y-129948386D01*
X149857938Y-129948386D02*
X149857938Y-129829338D01*
X149857938Y-129829338D02*
X149834129Y-129781719D01*
X149834129Y-129781719D02*
X149810319Y-129757910D01*
X149810319Y-129757910D02*
X149762700Y-129734100D01*
X149762700Y-129734100D02*
X149667462Y-129734100D01*
X149667462Y-129734100D02*
X149619843Y-129757910D01*
X149619843Y-129757910D02*
X149596034Y-129781719D01*
X149596034Y-129781719D02*
X149572224Y-129829338D01*
X149498727Y-85946375D02*
X149260632Y-85946375D01*
X149260632Y-85946375D02*
X149260632Y-85446375D01*
X149665394Y-85684470D02*
X149832061Y-85684470D01*
X149903489Y-85946375D02*
X149665394Y-85946375D01*
X149665394Y-85946375D02*
X149665394Y-85446375D01*
X149665394Y-85446375D02*
X149903489Y-85446375D01*
X150117775Y-85946375D02*
X150117775Y-85446375D01*
X150117775Y-85446375D02*
X150236823Y-85446375D01*
X150236823Y-85446375D02*
X150308251Y-85470185D01*
X150308251Y-85470185D02*
X150355870Y-85517804D01*
X150355870Y-85517804D02*
X150379680Y-85565423D01*
X150379680Y-85565423D02*
X150403489Y-85660661D01*
X150403489Y-85660661D02*
X150403489Y-85732089D01*
X150403489Y-85732089D02*
X150379680Y-85827327D01*
X150379680Y-85827327D02*
X150355870Y-85874946D01*
X150355870Y-85874946D02*
X150308251Y-85922566D01*
X150308251Y-85922566D02*
X150236823Y-85946375D01*
X150236823Y-85946375D02*
X150117775Y-85946375D01*
X150879680Y-85946375D02*
X150593966Y-85946375D01*
X150736823Y-85946375D02*
X150736823Y-85446375D01*
X150736823Y-85446375D02*
X150689204Y-85517804D01*
X150689204Y-85517804D02*
X150641585Y-85565423D01*
X150641585Y-85565423D02*
X150593966Y-85589232D01*
X151046346Y-85446375D02*
X151379679Y-85446375D01*
X151379679Y-85446375D02*
X151165394Y-85946375D01*
X129603534Y-107594902D02*
X129627344Y-107618711D01*
X129627344Y-107618711D02*
X129651153Y-107690140D01*
X129651153Y-107690140D02*
X129651153Y-107737759D01*
X129651153Y-107737759D02*
X129627344Y-107809187D01*
X129627344Y-107809187D02*
X129579724Y-107856806D01*
X129579724Y-107856806D02*
X129532105Y-107880616D01*
X129532105Y-107880616D02*
X129436867Y-107904425D01*
X129436867Y-107904425D02*
X129365439Y-107904425D01*
X129365439Y-107904425D02*
X129270201Y-107880616D01*
X129270201Y-107880616D02*
X129222582Y-107856806D01*
X129222582Y-107856806D02*
X129174963Y-107809187D01*
X129174963Y-107809187D02*
X129151153Y-107737759D01*
X129151153Y-107737759D02*
X129151153Y-107690140D01*
X129151153Y-107690140D02*
X129174963Y-107618711D01*
X129174963Y-107618711D02*
X129198772Y-107594902D01*
X129151153Y-107142521D02*
X129151153Y-107380616D01*
X129151153Y-107380616D02*
X129389248Y-107404425D01*
X129389248Y-107404425D02*
X129365439Y-107380616D01*
X129365439Y-107380616D02*
X129341629Y-107332997D01*
X129341629Y-107332997D02*
X129341629Y-107213949D01*
X129341629Y-107213949D02*
X129365439Y-107166330D01*
X129365439Y-107166330D02*
X129389248Y-107142521D01*
X129389248Y-107142521D02*
X129436867Y-107118711D01*
X129436867Y-107118711D02*
X129555915Y-107118711D01*
X129555915Y-107118711D02*
X129603534Y-107142521D01*
X129603534Y-107142521D02*
X129627344Y-107166330D01*
X129627344Y-107166330D02*
X129651153Y-107213949D01*
X129651153Y-107213949D02*
X129651153Y-107332997D01*
X129651153Y-107332997D02*
X129627344Y-107380616D01*
X129627344Y-107380616D02*
X129603534Y-107404425D01*
X128148433Y-112409557D02*
X128177295Y-112426899D01*
X128177295Y-112426899D02*
X128217678Y-112490446D01*
X128217678Y-112490446D02*
X128229198Y-112536651D01*
X128229198Y-112536651D02*
X128223375Y-112611717D01*
X128223375Y-112611717D02*
X128188691Y-112669442D01*
X128188691Y-112669442D02*
X128148246Y-112704064D01*
X128148246Y-112704064D02*
X128061597Y-112750207D01*
X128061597Y-112750207D02*
X127992291Y-112767487D01*
X127992291Y-112767487D02*
X127894121Y-112767425D01*
X127894121Y-112767425D02*
X127842157Y-112755843D01*
X127842157Y-112755843D02*
X127784432Y-112721158D01*
X127784432Y-112721158D02*
X127744050Y-112657612D01*
X127744050Y-112657612D02*
X127732530Y-112611407D01*
X127732530Y-112611407D02*
X127738352Y-112536340D01*
X127738352Y-112536340D02*
X127755694Y-112507478D01*
X127605809Y-112103157D02*
X127628849Y-112195566D01*
X127628849Y-112195566D02*
X127663471Y-112236010D01*
X127663471Y-112236010D02*
X127692334Y-112253353D01*
X127692334Y-112253353D02*
X127773160Y-112282277D01*
X127773160Y-112282277D02*
X127871330Y-112282339D01*
X127871330Y-112282339D02*
X128056148Y-112236259D01*
X128056148Y-112236259D02*
X128096592Y-112201636D01*
X128096592Y-112201636D02*
X128113935Y-112172774D01*
X128113935Y-112172774D02*
X128125517Y-112120810D01*
X128125517Y-112120810D02*
X128102477Y-112028400D01*
X128102477Y-112028400D02*
X128067854Y-111987956D01*
X128067854Y-111987956D02*
X128038992Y-111970614D01*
X128038992Y-111970614D02*
X127987027Y-111959031D01*
X127987027Y-111959031D02*
X127871516Y-111987832D01*
X127871516Y-111987832D02*
X127831071Y-112022454D01*
X127831071Y-112022454D02*
X127813729Y-112051316D01*
X127813729Y-112051316D02*
X127802147Y-112103281D01*
X127802147Y-112103281D02*
X127825187Y-112195690D01*
X127825187Y-112195690D02*
X127859810Y-112236135D01*
X127859810Y-112236135D02*
X127888672Y-112253477D01*
X127888672Y-112253477D02*
X127940636Y-112265059D01*
X134280226Y-91962536D02*
X134111867Y-92130895D01*
X134111867Y-92130895D02*
X133758314Y-91777342D01*
X134212883Y-91659491D02*
X134330734Y-91541639D01*
X134566436Y-91676326D02*
X134398077Y-91844685D01*
X134398077Y-91844685D02*
X134044524Y-91491132D01*
X134044524Y-91491132D02*
X134212883Y-91322773D01*
X134717959Y-91524804D02*
X134364406Y-91171250D01*
X134364406Y-91171250D02*
X134448585Y-91087071D01*
X134448585Y-91087071D02*
X134515929Y-91053399D01*
X134515929Y-91053399D02*
X134583272Y-91053399D01*
X134583272Y-91053399D02*
X134633780Y-91070235D01*
X134633780Y-91070235D02*
X134717959Y-91120743D01*
X134717959Y-91120743D02*
X134768467Y-91171250D01*
X134768467Y-91171250D02*
X134818974Y-91255430D01*
X134818974Y-91255430D02*
X134835810Y-91305937D01*
X134835810Y-91305937D02*
X134835810Y-91373281D01*
X134835810Y-91373281D02*
X134802138Y-91440624D01*
X134802138Y-91440624D02*
X134717959Y-91524804D01*
X134684287Y-90851369D02*
X134903154Y-90632502D01*
X134903154Y-90632502D02*
X134919990Y-90885040D01*
X134919990Y-90885040D02*
X134970497Y-90834533D01*
X134970497Y-90834533D02*
X135021005Y-90817697D01*
X135021005Y-90817697D02*
X135054677Y-90817697D01*
X135054677Y-90817697D02*
X135105184Y-90834533D01*
X135105184Y-90834533D02*
X135189364Y-90918712D01*
X135189364Y-90918712D02*
X135206199Y-90969220D01*
X135206199Y-90969220D02*
X135206199Y-91002891D01*
X135206199Y-91002891D02*
X135189364Y-91053399D01*
X135189364Y-91053399D02*
X135088348Y-91154414D01*
X135088348Y-91154414D02*
X135037841Y-91171250D01*
X135037841Y-91171250D02*
X135004169Y-91171250D01*
X142398802Y-128062120D02*
X142618774Y-128153235D01*
X142618774Y-128153235D02*
X142427432Y-128615175D01*
X142144596Y-128240308D02*
X141990616Y-128176527D01*
X142024851Y-127907224D02*
X142244822Y-127998339D01*
X142244822Y-127998339D02*
X142053481Y-128460279D01*
X142053481Y-128460279D02*
X141833509Y-128369164D01*
X141826877Y-127825220D02*
X141635535Y-128287160D01*
X141635535Y-128287160D02*
X141525549Y-128241603D01*
X141525549Y-128241603D02*
X141468670Y-128192271D01*
X141468670Y-128192271D02*
X141442898Y-128130054D01*
X141442898Y-128130054D02*
X141439124Y-128076948D01*
X141439124Y-128076948D02*
X141453573Y-127979848D01*
X141453573Y-127979848D02*
X141480908Y-127913857D01*
X141480908Y-127913857D02*
X141539351Y-127834980D01*
X141539351Y-127834980D02*
X141579571Y-127800097D01*
X141579571Y-127800097D02*
X141641788Y-127774326D01*
X141641788Y-127774326D02*
X141716891Y-127779663D01*
X141716891Y-127779663D02*
X141826877Y-127825220D01*
X141189608Y-127870510D02*
X141224490Y-127910730D01*
X141224490Y-127910730D02*
X141237376Y-127941839D01*
X141237376Y-127941839D02*
X141241150Y-127994944D01*
X141241150Y-127994944D02*
X141232038Y-128016942D01*
X141232038Y-128016942D02*
X141191818Y-128051824D01*
X141191818Y-128051824D02*
X141160710Y-128064710D01*
X141160710Y-128064710D02*
X141107604Y-128068484D01*
X141107604Y-128068484D02*
X141019615Y-128032038D01*
X141019615Y-128032038D02*
X140984733Y-127991818D01*
X140984733Y-127991818D02*
X140971847Y-127960709D01*
X140971847Y-127960709D02*
X140968073Y-127907603D01*
X140968073Y-127907603D02*
X140977184Y-127885606D01*
X140977184Y-127885606D02*
X141017405Y-127850724D01*
X141017405Y-127850724D02*
X141048513Y-127837838D01*
X141048513Y-127837838D02*
X141101619Y-127834064D01*
X141101619Y-127834064D02*
X141189608Y-127870510D01*
X141189608Y-127870510D02*
X141242713Y-127866736D01*
X141242713Y-127866736D02*
X141273822Y-127853850D01*
X141273822Y-127853850D02*
X141314042Y-127818967D01*
X141314042Y-127818967D02*
X141350488Y-127730979D01*
X141350488Y-127730979D02*
X141346714Y-127677873D01*
X141346714Y-127677873D02*
X141333828Y-127646764D01*
X141333828Y-127646764D02*
X141298946Y-127606544D01*
X141298946Y-127606544D02*
X141210957Y-127570098D01*
X141210957Y-127570098D02*
X141157851Y-127573872D01*
X141157851Y-127573872D02*
X141126743Y-127586758D01*
X141126743Y-127586758D02*
X141086523Y-127621641D01*
X141086523Y-127621641D02*
X141050077Y-127709629D01*
X141050077Y-127709629D02*
X141053851Y-127762735D01*
X141053851Y-127762735D02*
X141066736Y-127793844D01*
X141066736Y-127793844D02*
X141101619Y-127834064D01*
X138237109Y-126699781D02*
X138269634Y-126691066D01*
X138269634Y-126691066D02*
X138343397Y-126706160D01*
X138343397Y-126706160D02*
X138384637Y-126729970D01*
X138384637Y-126729970D02*
X138434591Y-126786304D01*
X138434591Y-126786304D02*
X138452021Y-126851353D01*
X138452021Y-126851353D02*
X138448831Y-126904497D01*
X138448831Y-126904497D02*
X138421831Y-126998880D01*
X138421831Y-126998880D02*
X138386117Y-127060739D01*
X138386117Y-127060739D02*
X138317878Y-127131313D01*
X138317878Y-127131313D02*
X138273449Y-127160647D01*
X138273449Y-127160647D02*
X138208400Y-127178077D01*
X138208400Y-127178077D02*
X138134637Y-127162983D01*
X138134637Y-127162983D02*
X138093397Y-127139173D01*
X138093397Y-127139173D02*
X138043443Y-127082839D01*
X138043443Y-127082839D02*
X138034728Y-127050315D01*
X137870626Y-126763120D02*
X137899960Y-126807549D01*
X137899960Y-126807549D02*
X137908675Y-126840074D01*
X137908675Y-126840074D02*
X137905485Y-126893218D01*
X137905485Y-126893218D02*
X137893581Y-126913837D01*
X137893581Y-126913837D02*
X137849151Y-126943172D01*
X137849151Y-126943172D02*
X137816627Y-126951887D01*
X137816627Y-126951887D02*
X137763483Y-126948697D01*
X137763483Y-126948697D02*
X137681004Y-126901078D01*
X137681004Y-126901078D02*
X137651670Y-126856649D01*
X137651670Y-126856649D02*
X137642955Y-126824124D01*
X137642955Y-126824124D02*
X137646145Y-126770980D01*
X137646145Y-126770980D02*
X137658050Y-126750360D01*
X137658050Y-126750360D02*
X137702479Y-126721026D01*
X137702479Y-126721026D02*
X137735003Y-126712311D01*
X137735003Y-126712311D02*
X137788147Y-126715501D01*
X137788147Y-126715501D02*
X137870626Y-126763120D01*
X137870626Y-126763120D02*
X137923770Y-126766310D01*
X137923770Y-126766310D02*
X137956294Y-126757595D01*
X137956294Y-126757595D02*
X138000724Y-126728260D01*
X138000724Y-126728260D02*
X138048343Y-126645782D01*
X138048343Y-126645782D02*
X138051532Y-126592638D01*
X138051532Y-126592638D02*
X138042818Y-126560113D01*
X138042818Y-126560113D02*
X138013483Y-126515684D01*
X138013483Y-126515684D02*
X137931004Y-126468065D01*
X137931004Y-126468065D02*
X137877860Y-126464875D01*
X137877860Y-126464875D02*
X137845336Y-126473590D01*
X137845336Y-126473590D02*
X137800907Y-126502925D01*
X137800907Y-126502925D02*
X137753288Y-126585403D01*
X137753288Y-126585403D02*
X137750098Y-126638547D01*
X137750098Y-126638547D02*
X137758813Y-126671072D01*
X137758813Y-126671072D02*
X137788147Y-126715501D01*
X159643307Y-127547622D02*
X159863278Y-127456507D01*
X159863278Y-127456507D02*
X160054620Y-127918447D01*
X159589553Y-127853371D02*
X159435573Y-127917152D01*
X159269355Y-127702518D02*
X159489327Y-127611403D01*
X159489327Y-127611403D02*
X159680668Y-128073343D01*
X159680668Y-128073343D02*
X159460697Y-128164458D01*
X159071381Y-127784522D02*
X159262723Y-128246461D01*
X159262723Y-128246461D02*
X159152737Y-128292019D01*
X159152737Y-128292019D02*
X159077634Y-128297356D01*
X159077634Y-128297356D02*
X159015417Y-128271585D01*
X159015417Y-128271585D02*
X158975197Y-128236702D01*
X158975197Y-128236702D02*
X158916754Y-128157825D01*
X158916754Y-128157825D02*
X158889419Y-128091834D01*
X158889419Y-128091834D02*
X158874970Y-127994734D01*
X158874970Y-127994734D02*
X158878744Y-127941628D01*
X158878744Y-127941628D02*
X158904516Y-127879411D01*
X158904516Y-127879411D02*
X158961395Y-127830079D01*
X158961395Y-127830079D02*
X159071381Y-127784522D01*
X158367473Y-128076090D02*
X158631439Y-127966752D01*
X158499456Y-128021421D02*
X158690797Y-128483361D01*
X158690797Y-128483361D02*
X158707457Y-128399146D01*
X158707457Y-128399146D02*
X158733228Y-128336929D01*
X158733228Y-128336929D02*
X158768111Y-128296709D01*
X158272852Y-128656479D02*
X158228858Y-128674702D01*
X158228858Y-128674702D02*
X158175752Y-128670928D01*
X158175752Y-128670928D02*
X158144644Y-128658042D01*
X158144644Y-128658042D02*
X158104424Y-128623160D01*
X158104424Y-128623160D02*
X158045980Y-128544283D01*
X158045980Y-128544283D02*
X158000423Y-128434297D01*
X158000423Y-128434297D02*
X157985974Y-128337197D01*
X157985974Y-128337197D02*
X157989748Y-128284091D01*
X157989748Y-128284091D02*
X158002634Y-128252983D01*
X158002634Y-128252983D02*
X158037516Y-128212762D01*
X158037516Y-128212762D02*
X158081511Y-128194539D01*
X158081511Y-128194539D02*
X158134616Y-128198314D01*
X158134616Y-128198314D02*
X158165725Y-128211199D01*
X158165725Y-128211199D02*
X158205945Y-128246082D01*
X158205945Y-128246082D02*
X158264388Y-128324959D01*
X158264388Y-128324959D02*
X158309946Y-128434945D01*
X158309946Y-128434945D02*
X158324395Y-128532045D01*
X158324395Y-128532045D02*
X158320621Y-128585150D01*
X158320621Y-128585150D02*
X158307735Y-128616259D01*
X158307735Y-128616259D02*
X158272852Y-128656479D01*
X168835716Y-115572316D02*
X168804721Y-115585472D01*
X168804721Y-115585472D02*
X168729574Y-115580790D01*
X168729574Y-115580790D02*
X168685423Y-115562952D01*
X168685423Y-115562952D02*
X168628114Y-115514119D01*
X168628114Y-115514119D02*
X168601801Y-115452129D01*
X168601801Y-115452129D02*
X168597564Y-115399058D01*
X168597564Y-115399058D02*
X168611165Y-115301835D01*
X168611165Y-115301835D02*
X168637922Y-115235608D01*
X168637922Y-115235608D02*
X168695675Y-115156224D01*
X168695675Y-115156224D02*
X168735589Y-115120991D01*
X168735589Y-115120991D02*
X168797579Y-115094678D01*
X168797579Y-115094678D02*
X168872726Y-115099360D01*
X168872726Y-115099360D02*
X168916878Y-115117198D01*
X168916878Y-115117198D02*
X168974186Y-115166032D01*
X168974186Y-115166032D02*
X168987342Y-115197027D01*
X169259394Y-115794851D02*
X168994484Y-115687821D01*
X169126939Y-115741336D02*
X169314242Y-115277744D01*
X169314242Y-115277744D02*
X169243333Y-115326133D01*
X169243333Y-115326133D02*
X169181343Y-115352446D01*
X169181343Y-115352446D02*
X169128272Y-115356684D01*
X169605464Y-115446764D02*
X169636459Y-115433608D01*
X169636459Y-115433608D02*
X169689530Y-115429370D01*
X169689530Y-115429370D02*
X169799909Y-115473966D01*
X169799909Y-115473966D02*
X169835142Y-115513881D01*
X169835142Y-115513881D02*
X169848298Y-115544876D01*
X169848298Y-115544876D02*
X169852536Y-115597946D01*
X169852536Y-115597946D02*
X169834697Y-115642098D01*
X169834697Y-115642098D02*
X169785864Y-115699406D01*
X169785864Y-115699406D02*
X169413924Y-115857286D01*
X169413924Y-115857286D02*
X169700909Y-115973235D01*
X165569104Y-91011868D02*
X165400745Y-90843509D01*
X165400745Y-90843509D02*
X165754299Y-90489955D01*
X165872150Y-90944524D02*
X165990001Y-91062375D01*
X165855314Y-91298078D02*
X165686955Y-91129719D01*
X165686955Y-91129719D02*
X166040509Y-90776165D01*
X166040509Y-90776165D02*
X166208867Y-90944524D01*
X166006837Y-91449601D02*
X166360390Y-91096047D01*
X166360390Y-91096047D02*
X166444570Y-91180226D01*
X166444570Y-91180226D02*
X166478241Y-91247570D01*
X166478241Y-91247570D02*
X166478241Y-91314914D01*
X166478241Y-91314914D02*
X166461405Y-91365421D01*
X166461405Y-91365421D02*
X166410898Y-91449601D01*
X166410898Y-91449601D02*
X166360390Y-91500108D01*
X166360390Y-91500108D02*
X166276211Y-91550616D01*
X166276211Y-91550616D02*
X166225703Y-91567452D01*
X166225703Y-91567452D02*
X166158360Y-91567452D01*
X166158360Y-91567452D02*
X166091016Y-91533780D01*
X166091016Y-91533780D02*
X166006837Y-91449601D01*
X166545585Y-91988349D02*
X166343554Y-91786318D01*
X166444570Y-91887333D02*
X166798123Y-91533780D01*
X166798123Y-91533780D02*
X166713944Y-91550616D01*
X166713944Y-91550616D02*
X166646600Y-91550616D01*
X166646600Y-91550616D02*
X166596092Y-91533780D01*
X167219020Y-91954676D02*
X167050661Y-91786318D01*
X167050661Y-91786318D02*
X166865466Y-91937841D01*
X166865466Y-91937841D02*
X166899138Y-91937841D01*
X166899138Y-91937841D02*
X166949646Y-91954676D01*
X166949646Y-91954676D02*
X167033825Y-92038856D01*
X167033825Y-92038856D02*
X167050661Y-92089363D01*
X167050661Y-92089363D02*
X167050661Y-92123035D01*
X167050661Y-92123035D02*
X167033825Y-92173543D01*
X167033825Y-92173543D02*
X166949646Y-92257722D01*
X166949646Y-92257722D02*
X166899138Y-92274558D01*
X166899138Y-92274558D02*
X166865466Y-92274558D01*
X166865466Y-92274558D02*
X166814959Y-92257722D01*
X166814959Y-92257722D02*
X166730779Y-92173543D01*
X166730779Y-92173543D02*
X166713943Y-92123035D01*
X166713943Y-92123035D02*
X166713943Y-92089363D01*
X172995614Y-110798605D02*
X172975349Y-110771714D01*
X172975349Y-110771714D02*
X172961713Y-110697667D01*
X172961713Y-110697667D02*
X172968340Y-110650511D01*
X172968340Y-110650511D02*
X173001859Y-110583091D01*
X173001859Y-110583091D02*
X173055641Y-110542563D01*
X173055641Y-110542563D02*
X173106111Y-110525613D01*
X173106111Y-110525613D02*
X173203736Y-110515289D01*
X173203736Y-110515289D02*
X173274469Y-110525230D01*
X173274469Y-110525230D02*
X173365467Y-110562063D01*
X173365467Y-110562063D02*
X173409309Y-110592268D01*
X173409309Y-110592268D02*
X173449837Y-110646051D01*
X173449837Y-110646051D02*
X173463474Y-110720098D01*
X173463474Y-110720098D02*
X173456847Y-110767253D01*
X173456847Y-110767253D02*
X173423328Y-110834673D01*
X173423328Y-110834673D02*
X173396436Y-110854937D01*
X172882185Y-111263534D02*
X172921949Y-110980601D01*
X172902067Y-111122067D02*
X173397201Y-111191654D01*
X173397201Y-111191654D02*
X173333095Y-111134557D01*
X173333095Y-111134557D02*
X173292566Y-111080775D01*
X173292566Y-111080775D02*
X173275616Y-111030305D01*
X173354124Y-111498165D02*
X173311046Y-111804677D01*
X173311046Y-111804677D02*
X173145619Y-111613123D01*
X173145619Y-111613123D02*
X173135678Y-111683856D01*
X173135678Y-111683856D02*
X173105473Y-111727698D01*
X173105473Y-111727698D02*
X173078582Y-111747962D01*
X173078582Y-111747962D02*
X173028113Y-111764913D01*
X173028113Y-111764913D02*
X172910223Y-111748345D01*
X172910223Y-111748345D02*
X172866381Y-111718140D01*
X172866381Y-111718140D02*
X172846117Y-111691248D01*
X172846117Y-111691248D02*
X172829167Y-111640779D01*
X172829167Y-111640779D02*
X172849049Y-111499312D01*
X172849049Y-111499312D02*
X172879254Y-111455470D01*
X172879254Y-111455470D02*
X172906145Y-111435206D01*
X149816822Y-84896375D02*
X149578727Y-84896375D01*
X149578727Y-84896375D02*
X149578727Y-84396375D01*
X149983489Y-84634470D02*
X150150156Y-84634470D01*
X150221584Y-84896375D02*
X149983489Y-84896375D01*
X149983489Y-84896375D02*
X149983489Y-84396375D01*
X149983489Y-84396375D02*
X150221584Y-84396375D01*
X150435870Y-84896375D02*
X150435870Y-84396375D01*
X150435870Y-84396375D02*
X150554918Y-84396375D01*
X150554918Y-84396375D02*
X150626346Y-84420185D01*
X150626346Y-84420185D02*
X150673965Y-84467804D01*
X150673965Y-84467804D02*
X150697775Y-84515423D01*
X150697775Y-84515423D02*
X150721584Y-84610661D01*
X150721584Y-84610661D02*
X150721584Y-84682089D01*
X150721584Y-84682089D02*
X150697775Y-84777327D01*
X150697775Y-84777327D02*
X150673965Y-84824946D01*
X150673965Y-84824946D02*
X150626346Y-84872566D01*
X150626346Y-84872566D02*
X150554918Y-84896375D01*
X150554918Y-84896375D02*
X150435870Y-84896375D01*
X151197775Y-84896375D02*
X150912061Y-84896375D01*
X151054918Y-84896375D02*
X151054918Y-84396375D01*
X151054918Y-84396375D02*
X151007299Y-84467804D01*
X151007299Y-84467804D02*
X150959680Y-84515423D01*
X150959680Y-84515423D02*
X150912061Y-84539232D01*
X151353964Y-128836756D02*
X151592059Y-128836756D01*
X151592059Y-128836756D02*
X151592059Y-129336756D01*
X151187297Y-129098661D02*
X151020630Y-129098661D01*
X150949202Y-128836756D02*
X151187297Y-128836756D01*
X151187297Y-128836756D02*
X151187297Y-129336756D01*
X151187297Y-129336756D02*
X150949202Y-129336756D01*
X150734916Y-128836756D02*
X150734916Y-129336756D01*
X150734916Y-129336756D02*
X150615868Y-129336756D01*
X150615868Y-129336756D02*
X150544440Y-129312946D01*
X150544440Y-129312946D02*
X150496821Y-129265327D01*
X150496821Y-129265327D02*
X150473011Y-129217708D01*
X150473011Y-129217708D02*
X150449202Y-129122470D01*
X150449202Y-129122470D02*
X150449202Y-129051042D01*
X150449202Y-129051042D02*
X150473011Y-128955804D01*
X150473011Y-128955804D02*
X150496821Y-128908185D01*
X150496821Y-128908185D02*
X150544440Y-128860566D01*
X150544440Y-128860566D02*
X150615868Y-128836756D01*
X150615868Y-128836756D02*
X150734916Y-128836756D01*
X149973011Y-128836756D02*
X150258725Y-128836756D01*
X150115868Y-128836756D02*
X150115868Y-129336756D01*
X150115868Y-129336756D02*
X150163487Y-129265327D01*
X150163487Y-129265327D02*
X150211106Y-129217708D01*
X150211106Y-129217708D02*
X150258725Y-129193899D01*
X149687297Y-129122470D02*
X149734916Y-129146280D01*
X149734916Y-129146280D02*
X149758726Y-129170089D01*
X149758726Y-129170089D02*
X149782535Y-129217708D01*
X149782535Y-129217708D02*
X149782535Y-129241518D01*
X149782535Y-129241518D02*
X149758726Y-129289137D01*
X149758726Y-129289137D02*
X149734916Y-129312946D01*
X149734916Y-129312946D02*
X149687297Y-129336756D01*
X149687297Y-129336756D02*
X149592059Y-129336756D01*
X149592059Y-129336756D02*
X149544440Y-129312946D01*
X149544440Y-129312946D02*
X149520631Y-129289137D01*
X149520631Y-129289137D02*
X149496821Y-129241518D01*
X149496821Y-129241518D02*
X149496821Y-129217708D01*
X149496821Y-129217708D02*
X149520631Y-129170089D01*
X149520631Y-129170089D02*
X149544440Y-129146280D01*
X149544440Y-129146280D02*
X149592059Y-129122470D01*
X149592059Y-129122470D02*
X149687297Y-129122470D01*
X149687297Y-129122470D02*
X149734916Y-129098661D01*
X149734916Y-129098661D02*
X149758726Y-129074851D01*
X149758726Y-129074851D02*
X149782535Y-129027232D01*
X149782535Y-129027232D02*
X149782535Y-128931994D01*
X149782535Y-128931994D02*
X149758726Y-128884375D01*
X149758726Y-128884375D02*
X149734916Y-128860566D01*
X149734916Y-128860566D02*
X149687297Y-128836756D01*
X149687297Y-128836756D02*
X149592059Y-128836756D01*
X149592059Y-128836756D02*
X149544440Y-128860566D01*
X149544440Y-128860566D02*
X149520631Y-128884375D01*
X149520631Y-128884375D02*
X149496821Y-128931994D01*
X149496821Y-128931994D02*
X149496821Y-129027232D01*
X149496821Y-129027232D02*
X149520631Y-129074851D01*
X149520631Y-129074851D02*
X149544440Y-129098661D01*
X149544440Y-129098661D02*
X149592059Y-129122470D01*
X146666371Y-129899593D02*
X146693612Y-129879801D01*
X146693612Y-129879801D02*
X146767886Y-129867458D01*
X146767886Y-129867458D02*
X146814919Y-129874908D01*
X146814919Y-129874908D02*
X146881743Y-129909598D01*
X146881743Y-129909598D02*
X146921327Y-129964080D01*
X146921327Y-129964080D02*
X146937394Y-130014837D01*
X146937394Y-130014837D02*
X146946012Y-130112628D01*
X146946012Y-130112628D02*
X146934838Y-130183177D01*
X146934838Y-130183177D02*
X146896423Y-130273518D01*
X146896423Y-130273518D02*
X146865458Y-130316826D01*
X146865458Y-130316826D02*
X146810975Y-130356409D01*
X146810975Y-130356409D02*
X146736702Y-130368752D01*
X146736702Y-130368752D02*
X146689669Y-130361303D01*
X146689669Y-130361303D02*
X146622844Y-130326612D01*
X146622844Y-130326612D02*
X146603053Y-130299371D01*
X146438657Y-129815314D02*
X146344591Y-129800415D01*
X146344591Y-129800415D02*
X146293834Y-129816482D01*
X146293834Y-129816482D02*
X146266593Y-129836274D01*
X146266593Y-129836274D02*
X146208386Y-129899374D01*
X146208386Y-129899374D02*
X146169971Y-129989715D01*
X146169971Y-129989715D02*
X146140174Y-130177846D01*
X146140174Y-130177846D02*
X146156241Y-130228603D01*
X146156241Y-130228603D02*
X146176033Y-130255844D01*
X146176033Y-130255844D02*
X146219341Y-130286810D01*
X146219341Y-130286810D02*
X146313407Y-130301709D01*
X146313407Y-130301709D02*
X146364164Y-130285641D01*
X146364164Y-130285641D02*
X146391405Y-130265850D01*
X146391405Y-130265850D02*
X146422371Y-130222541D01*
X146422371Y-130222541D02*
X146440994Y-130104960D01*
X146440994Y-130104960D02*
X146424927Y-130054202D01*
X146424927Y-130054202D02*
X146405135Y-130026961D01*
X146405135Y-130026961D02*
X146361827Y-129995995D01*
X146361827Y-129995995D02*
X146267761Y-129981097D01*
X146267761Y-129981097D02*
X146217004Y-129997164D01*
X146217004Y-129997164D02*
X146189763Y-130016956D01*
X146189763Y-130016956D02*
X146158797Y-130060264D01*
X135062536Y-123419773D02*
X135230895Y-123588132D01*
X135230895Y-123588132D02*
X134877342Y-123941685D01*
X134759491Y-123487116D02*
X134641639Y-123369265D01*
X134776326Y-123133563D02*
X134944685Y-123301922D01*
X134944685Y-123301922D02*
X134591132Y-123655475D01*
X134591132Y-123655475D02*
X134422773Y-123487116D01*
X134624804Y-122982040D02*
X134271250Y-123335593D01*
X134271250Y-123335593D02*
X134187071Y-123251414D01*
X134187071Y-123251414D02*
X134153399Y-123184070D01*
X134153399Y-123184070D02*
X134153399Y-123116727D01*
X134153399Y-123116727D02*
X134170235Y-123066219D01*
X134170235Y-123066219D02*
X134220743Y-122982040D01*
X134220743Y-122982040D02*
X134271250Y-122931532D01*
X134271250Y-122931532D02*
X134355430Y-122881025D01*
X134355430Y-122881025D02*
X134405937Y-122864189D01*
X134405937Y-122864189D02*
X134473281Y-122864189D01*
X134473281Y-122864189D02*
X134540624Y-122897861D01*
X134540624Y-122897861D02*
X134624804Y-122982040D01*
X133951369Y-123015712D02*
X133715666Y-122780009D01*
X133715666Y-122780009D02*
X134220743Y-122577979D01*
X143506871Y-88162775D02*
X143492110Y-88193039D01*
X143492110Y-88193039D02*
X143432325Y-88238806D01*
X143432325Y-88238806D02*
X143387300Y-88254309D01*
X143387300Y-88254309D02*
X143312012Y-88255052D01*
X143312012Y-88255052D02*
X143251484Y-88225530D01*
X143251484Y-88225530D02*
X143213468Y-88188257D01*
X143213468Y-88188257D02*
X143159949Y-88105960D01*
X143159949Y-88105960D02*
X143136694Y-88038423D01*
X143136694Y-88038423D02*
X143128200Y-87940622D01*
X143128200Y-87940622D02*
X143135209Y-87887845D01*
X143135209Y-87887845D02*
X143164731Y-87827317D01*
X143164731Y-87827317D02*
X143224516Y-87781550D01*
X143224516Y-87781550D02*
X143269541Y-87766047D01*
X143269541Y-87766047D02*
X143344830Y-87765304D01*
X143344830Y-87765304D02*
X143375094Y-87780065D01*
X143555192Y-87718052D02*
X143569953Y-87687788D01*
X143569953Y-87687788D02*
X143607226Y-87649773D01*
X143607226Y-87649773D02*
X143719788Y-87611014D01*
X143719788Y-87611014D02*
X143772564Y-87618024D01*
X143772564Y-87618024D02*
X143802828Y-87632784D01*
X143802828Y-87632784D02*
X143840844Y-87670057D01*
X143840844Y-87670057D02*
X143856347Y-87715082D01*
X143856347Y-87715082D02*
X143857089Y-87790371D01*
X143857089Y-87790371D02*
X143679961Y-88153538D01*
X143679961Y-88153538D02*
X143972621Y-88052767D01*
X130061262Y-116323336D02*
X130152377Y-116543307D01*
X130152377Y-116543307D02*
X129690437Y-116734649D01*
X129755513Y-116269582D02*
X129691732Y-116115602D01*
X129906366Y-115949384D02*
X129997481Y-116169356D01*
X129997481Y-116169356D02*
X129535541Y-116360697D01*
X129535541Y-116360697D02*
X129444426Y-116140726D01*
X129824362Y-115751410D02*
X129362423Y-115942752D01*
X129362423Y-115942752D02*
X129316865Y-115832766D01*
X129316865Y-115832766D02*
X129311528Y-115757663D01*
X129311528Y-115757663D02*
X129337299Y-115695446D01*
X129337299Y-115695446D02*
X129372182Y-115655226D01*
X129372182Y-115655226D02*
X129451059Y-115596783D01*
X129451059Y-115596783D02*
X129517050Y-115569448D01*
X129517050Y-115569448D02*
X129614150Y-115554999D01*
X129614150Y-115554999D02*
X129667256Y-115558773D01*
X129667256Y-115558773D02*
X129729473Y-115584544D01*
X129729473Y-115584544D02*
X129778805Y-115641424D01*
X129778805Y-115641424D02*
X129824362Y-115751410D01*
X129089077Y-115282838D02*
X129125523Y-115370826D01*
X129125523Y-115370826D02*
X129165743Y-115405709D01*
X129165743Y-115405709D02*
X129196852Y-115418595D01*
X129196852Y-115418595D02*
X129281067Y-115435254D01*
X129281067Y-115435254D02*
X129378167Y-115420806D01*
X129378167Y-115420806D02*
X129554144Y-115347913D01*
X129554144Y-115347913D02*
X129589026Y-115307693D01*
X129589026Y-115307693D02*
X129601912Y-115276585D01*
X129601912Y-115276585D02*
X129605686Y-115223479D01*
X129605686Y-115223479D02*
X129569240Y-115135490D01*
X129569240Y-115135490D02*
X129529020Y-115100608D01*
X129529020Y-115100608D02*
X129497911Y-115087722D01*
X129497911Y-115087722D02*
X129444805Y-115083948D01*
X129444805Y-115083948D02*
X129334820Y-115129505D01*
X129334820Y-115129505D02*
X129299937Y-115169726D01*
X129299937Y-115169726D02*
X129287051Y-115200834D01*
X129287051Y-115200834D02*
X129283277Y-115253940D01*
X129283277Y-115253940D02*
X129319723Y-115341929D01*
X129319723Y-115341929D02*
X129359944Y-115376811D01*
X129359944Y-115376811D02*
X129391052Y-115389697D01*
X129391052Y-115389697D02*
X129444158Y-115393471D01*
X171253235Y-115081226D02*
X171344350Y-114861254D01*
X171344350Y-114861254D02*
X171806290Y-115052596D01*
X171431423Y-115335432D02*
X171367642Y-115489412D01*
X171098339Y-115455177D02*
X171189454Y-115235206D01*
X171189454Y-115235206D02*
X171651394Y-115426547D01*
X171651394Y-115426547D02*
X171560279Y-115646519D01*
X171016336Y-115653151D02*
X171478275Y-115844493D01*
X171478275Y-115844493D02*
X171432718Y-115954478D01*
X171432718Y-115954478D02*
X171383386Y-116011358D01*
X171383386Y-116011358D02*
X171321169Y-116037130D01*
X171321169Y-116037130D02*
X171268063Y-116040904D01*
X171268063Y-116040904D02*
X171170963Y-116026455D01*
X171170963Y-116026455D02*
X171104972Y-115999120D01*
X171104972Y-115999120D02*
X171026095Y-115940677D01*
X171026095Y-115940677D02*
X170991212Y-115900457D01*
X170991212Y-115900457D02*
X170965441Y-115838240D01*
X170965441Y-115838240D02*
X170970778Y-115763137D01*
X170970778Y-115763137D02*
X171016336Y-115653151D01*
X170724767Y-116357059D02*
X170834105Y-116093094D01*
X170779436Y-116225077D02*
X171241376Y-116416418D01*
X171241376Y-116416418D02*
X171193608Y-116345089D01*
X171193608Y-116345089D02*
X171167836Y-116282872D01*
X171167836Y-116282872D02*
X171164062Y-116229766D01*
X171069821Y-116706155D02*
X171082706Y-116737263D01*
X171082706Y-116737263D02*
X171086481Y-116790369D01*
X171086481Y-116790369D02*
X171040923Y-116900355D01*
X171040923Y-116900355D02*
X171000703Y-116935237D01*
X171000703Y-116935237D02*
X170969594Y-116948123D01*
X170969594Y-116948123D02*
X170916488Y-116951897D01*
X170916488Y-116951897D02*
X170872494Y-116933674D01*
X170872494Y-116933674D02*
X170815614Y-116884343D01*
X170815614Y-116884343D02*
X170660987Y-116511039D01*
X170660987Y-116511039D02*
X170542537Y-116797002D01*
X129909923Y-95564528D02*
X129818808Y-95784500D01*
X129818808Y-95784500D02*
X129356868Y-95593158D01*
X129731735Y-95310322D02*
X129795516Y-95156342D01*
X130064819Y-95190577D02*
X129973704Y-95410548D01*
X129973704Y-95410548D02*
X129511764Y-95219207D01*
X129511764Y-95219207D02*
X129602879Y-94999235D01*
X130146823Y-94992603D02*
X129684883Y-94801261D01*
X129684883Y-94801261D02*
X129730440Y-94691275D01*
X129730440Y-94691275D02*
X129779772Y-94634396D01*
X129779772Y-94634396D02*
X129841989Y-94608624D01*
X129841989Y-94608624D02*
X129895095Y-94604850D01*
X129895095Y-94604850D02*
X129992195Y-94619299D01*
X129992195Y-94619299D02*
X130058186Y-94646634D01*
X130058186Y-94646634D02*
X130137063Y-94705077D01*
X130137063Y-94705077D02*
X130171946Y-94745297D01*
X130171946Y-94745297D02*
X130197717Y-94807514D01*
X130197717Y-94807514D02*
X130192380Y-94882617D01*
X130192380Y-94882617D02*
X130146823Y-94992603D01*
X130112208Y-94205128D02*
X130420168Y-94332689D01*
X129890673Y-94242221D02*
X130175073Y-94488880D01*
X130175073Y-94488880D02*
X130293522Y-94202917D01*
X165364183Y-93816395D02*
X165364183Y-93850067D01*
X165364183Y-93850067D02*
X165330511Y-93917410D01*
X165330511Y-93917410D02*
X165296840Y-93951082D01*
X165296840Y-93951082D02*
X165229496Y-93984754D01*
X165229496Y-93984754D02*
X165162153Y-93984754D01*
X165162153Y-93984754D02*
X165111645Y-93967918D01*
X165111645Y-93967918D02*
X165027466Y-93917410D01*
X165027466Y-93917410D02*
X164976958Y-93866903D01*
X164976958Y-93866903D02*
X164926450Y-93782723D01*
X164926450Y-93782723D02*
X164909614Y-93732216D01*
X164909614Y-93732216D02*
X164909614Y-93664872D01*
X164909614Y-93664872D02*
X164943286Y-93597529D01*
X164943286Y-93597529D02*
X164976958Y-93563857D01*
X164976958Y-93563857D02*
X165044301Y-93530185D01*
X165044301Y-93530185D02*
X165077973Y-93530185D01*
X165734572Y-93513349D02*
X165532542Y-93715380D01*
X165633557Y-93614365D02*
X165280004Y-93260811D01*
X165280004Y-93260811D02*
X165296840Y-93344991D01*
X165296840Y-93344991D02*
X165296840Y-93412334D01*
X165296840Y-93412334D02*
X165280004Y-93462842D01*
X165700900Y-92839915D02*
X165532542Y-93008273D01*
X165532542Y-93008273D02*
X165684064Y-93193468D01*
X165684064Y-93193468D02*
X165684064Y-93159796D01*
X165684064Y-93159796D02*
X165700900Y-93109289D01*
X165700900Y-93109289D02*
X165785080Y-93025109D01*
X165785080Y-93025109D02*
X165835587Y-93008273D01*
X165835587Y-93008273D02*
X165869259Y-93008273D01*
X165869259Y-93008273D02*
X165919767Y-93025109D01*
X165919767Y-93025109D02*
X166003946Y-93109289D01*
X166003946Y-93109289D02*
X166020782Y-93159796D01*
X166020782Y-93159796D02*
X166020782Y-93193468D01*
X166020782Y-93193468D02*
X166003946Y-93243976D01*
X166003946Y-93243976D02*
X165919767Y-93328155D01*
X165919767Y-93328155D02*
X165869259Y-93344991D01*
X165869259Y-93344991D02*
X165835587Y-93344991D01*
D14*
%TO.C,LED11*%
X165344057Y-125828164D02*
X165344057Y-125828164D01*
X165414768Y-125757453D02*
X165414768Y-125757453D01*
D11*
X166192586Y-125828164D02*
X166475428Y-126111006D01*
X166475428Y-126111006D02*
X169303855Y-123282579D01*
X169303855Y-123282579D02*
X169021013Y-122999737D01*
D14*
X165344057Y-125828164D02*
G75*
G02*
X165414769Y-125757452I35356J35356D01*
G01*
X165414768Y-125757453D02*
G75*
G02*
X165344056Y-125828165I-35357J-35355D01*
G01*
D15*
%TO.C,C16*%
X158789083Y-88549476D02*
X158701362Y-88746504D01*
X158131330Y-88256628D02*
X158043609Y-88453656D01*
%TO.C,C1*%
X146366348Y-84279401D02*
X146366346Y-84063729D01*
X147086348Y-84279399D02*
X147086346Y-84063727D01*
%TO.C,C10*%
X155743504Y-130215020D02*
X155535183Y-130270841D01*
X155929855Y-130910487D02*
X155721534Y-130966308D01*
D11*
%TO.C,LED16*%
X157931785Y-83718849D02*
X157778712Y-84088399D01*
X161474230Y-85619133D02*
X161627303Y-85249581D01*
X161627303Y-85249581D02*
X157931785Y-83718849D01*
D14*
X161706560Y-86364803D02*
X161706560Y-86364803D01*
X161798948Y-86403071D02*
X161798948Y-86403071D01*
X161706560Y-86364803D02*
G75*
G02*
X161798948Y-86403071I46194J-19134D01*
G01*
X161798948Y-86403071D02*
G75*
G02*
X161706560Y-86364803I-46194J19134D01*
G01*
D11*
%TO.C,LED5*%
X125731566Y-105365654D02*
X125731566Y-109365654D01*
X125731566Y-109365654D02*
X126131566Y-109365654D01*
X126131566Y-105365654D02*
X125731566Y-105365654D01*
D14*
X126731566Y-104765654D02*
X126731566Y-104765654D01*
X126731566Y-104865654D02*
X126731566Y-104865654D01*
X126731566Y-104765654D02*
G75*
G02*
X126731566Y-104865654I0J-50000D01*
G01*
X126731566Y-104865654D02*
G75*
G02*
X126731566Y-104765654I0J50000D01*
G01*
D15*
%TO.C,C3*%
X135505536Y-93139874D02*
X135658041Y-93292376D01*
X136014651Y-92630756D02*
X136167156Y-92783258D01*
D14*
%TO.C,LED13*%
X174068434Y-109734346D02*
X174068434Y-109734346D01*
X174068434Y-109834346D02*
X174068434Y-109834346D01*
D11*
X174668434Y-109234346D02*
X175068434Y-109234346D01*
X175068434Y-105234346D02*
X174668434Y-105234346D01*
X175068434Y-109234346D02*
X175068434Y-105234346D01*
D14*
X174068434Y-109734346D02*
G75*
G02*
X174068434Y-109834346I0J-50000D01*
G01*
X174068434Y-109834346D02*
G75*
G02*
X174068434Y-109734346I0J50000D01*
G01*
D15*
%TO.C,C14*%
X173280951Y-101954026D02*
X173333129Y-102163291D01*
X173979563Y-101779841D02*
X174031741Y-101989106D01*
%TO.C,C4*%
X126716630Y-101841240D02*
X126671794Y-102052199D01*
X127420898Y-101990933D02*
X127376062Y-102201892D01*
D11*
%TO.C,LED2*%
X139051384Y-85299830D02*
X139204457Y-85669382D01*
X142746902Y-83769098D02*
X139051384Y-85299830D01*
X142899975Y-84138648D02*
X142746902Y-83769098D01*
D14*
X143591525Y-84501634D02*
X143591525Y-84501634D01*
X143683913Y-84463366D02*
X143683913Y-84463366D01*
X143591525Y-84501634D02*
G75*
G02*
X143683913Y-84463366I46194J19134D01*
G01*
X143683913Y-84463366D02*
G75*
G02*
X143591525Y-84501634I-46194J-19134D01*
G01*
D15*
%TO.C,C11*%
X164115192Y-126422471D02*
X163940712Y-126549241D01*
X164538400Y-127004961D02*
X164363920Y-127131731D01*
D11*
%TO.C,LED14*%
X172400170Y-95951384D02*
X172030618Y-96104457D01*
D14*
X173198366Y-100491525D02*
X173198366Y-100491525D01*
X173236634Y-100583913D02*
X173236634Y-100583913D01*
D11*
X173561352Y-99799975D02*
X173930902Y-99646902D01*
X173930902Y-99646902D02*
X172400170Y-95951384D01*
D14*
X173198366Y-100491525D02*
G75*
G02*
X173236634Y-100583913I19134J-46194D01*
G01*
X173236634Y-100583913D02*
G75*
G02*
X173198366Y-100491525I-19134J46194D01*
G01*
D15*
%TO.C,C7*%
X135395536Y-121583261D02*
X135548037Y-121430756D01*
X135904655Y-122092376D02*
X136057156Y-121939871D01*
D14*
%TO.C,LED9*%
X147865654Y-130968434D02*
X147865654Y-130968434D01*
X147965654Y-130968434D02*
X147965654Y-130968434D01*
D11*
X148465654Y-131568434D02*
X148465654Y-131968434D01*
X148465654Y-131968434D02*
X152465654Y-131968434D01*
X152465654Y-131968434D02*
X152465654Y-131568434D01*
D14*
X147865654Y-130968434D02*
G75*
G02*
X147965654Y-130968434I50000J0D01*
G01*
X147965654Y-130968434D02*
G75*
G02*
X147865654Y-130968434I-50000J0D01*
G01*
%TO.C,LED17*%
X147728346Y-86821566D02*
X147728346Y-86821566D01*
X147828346Y-86821566D02*
X147828346Y-86821566D01*
D11*
X148328346Y-87421566D02*
X148328346Y-87821566D01*
X148328346Y-87821566D02*
X152328346Y-87821566D01*
X152328346Y-87821566D02*
X152328346Y-87421566D01*
D14*
X147728346Y-86821566D02*
G75*
G02*
X147828346Y-86821566I50000J0D01*
G01*
X147828346Y-86821566D02*
G75*
G02*
X147728346Y-86821566I-50000J0D01*
G01*
D15*
%TO.C,C5*%
X129916346Y-107649405D02*
X129916344Y-107433733D01*
X130636346Y-107649403D02*
X130636344Y-107433731D01*
%TO.C,J2*%
X163676346Y-90011566D02*
G75*
G02*
X161276346Y-90011566I-1200000J0D01*
G01*
X161276346Y-90011566D02*
G75*
G02*
X163676346Y-90011566I1200000J0D01*
G01*
%TO.C,J1*%
X137202785Y-89659812D02*
X139238101Y-88388006D01*
X138474591Y-91695128D02*
X137202785Y-89659812D01*
X139238101Y-88388006D02*
X140509907Y-90423322D01*
X140509907Y-90423322D02*
X138474591Y-91695128D01*
%TO.C,C6*%
X126786119Y-112824245D02*
X126733941Y-112614979D01*
X127484731Y-112650059D02*
X127432553Y-112440793D01*
D11*
%TO.C,LED3*%
X131496145Y-91317421D02*
X131778987Y-91600263D01*
X134324572Y-88488994D02*
X131496145Y-91317421D01*
X134607414Y-88771836D02*
X134324572Y-88488994D01*
D14*
X135385232Y-88842547D02*
X135385232Y-88842547D01*
X135455943Y-88771836D02*
X135455943Y-88771836D01*
X135385232Y-88842547D02*
G75*
G02*
X135455944Y-88771835I35357J35355D01*
G01*
X135455943Y-88771836D02*
G75*
G02*
X135385231Y-88842548I-35356J-35356D01*
G01*
%TO.C,LED8*%
X139001052Y-128196929D02*
X139001052Y-128196929D01*
X139093440Y-128235197D02*
X139093440Y-128235197D01*
D11*
X139172697Y-129350419D02*
X142868215Y-130881151D01*
X139325770Y-128980867D02*
X139172697Y-129350419D01*
X142868215Y-130881151D02*
X143021288Y-130511601D01*
D14*
X139001052Y-128196929D02*
G75*
G02*
X139093440Y-128235197I46194J-19134D01*
G01*
X139093440Y-128235197D02*
G75*
G02*
X139001052Y-128196929I-46194J19134D01*
G01*
D15*
%TO.C,C8*%
X137615065Y-127905333D02*
X137428285Y-127797498D01*
X137975063Y-127281794D02*
X137788283Y-127173959D01*
D14*
%TO.C,LED10*%
X157116087Y-130136634D02*
X157116087Y-130136634D01*
X157208475Y-130098366D02*
X157208475Y-130098366D01*
D11*
X157900025Y-130461352D02*
X158053098Y-130830902D01*
X158053098Y-130830902D02*
X161748616Y-129300170D01*
X161748616Y-129300170D02*
X161595543Y-128930618D01*
D14*
X157116087Y-130136634D02*
G75*
G02*
X157208475Y-130098366I46194J19134D01*
G01*
X157208475Y-130098366D02*
G75*
G02*
X157116087Y-130136634I-46194J-19134D01*
G01*
D15*
%TO.C,C12*%
X169781187Y-114458176D02*
X169581218Y-114377384D01*
X169511474Y-115125748D02*
X169311505Y-115044956D01*
D11*
%TO.C,LED15*%
X166382579Y-88396145D02*
X166099737Y-88678987D01*
D14*
X168857453Y-92285232D02*
X168857453Y-92285232D01*
D11*
X168928164Y-91507414D02*
X169211006Y-91224572D01*
D14*
X168928164Y-92355943D02*
X168928164Y-92355943D01*
D11*
X169211006Y-91224572D02*
X166382579Y-88396145D01*
D14*
X168857453Y-92285232D02*
G75*
G02*
X168928165Y-92355944I35355J-35357D01*
G01*
X168928164Y-92355943D02*
G75*
G02*
X168857452Y-92285231I-35356J35356D01*
G01*
D15*
%TO.C,C13*%
X173616944Y-111129457D02*
X173586930Y-111343032D01*
X174329938Y-111229660D02*
X174299924Y-111443235D01*
D11*
%TO.C,LED1*%
X148334346Y-82631566D02*
X148334346Y-83031566D01*
X152334346Y-82631566D02*
X148334346Y-82631566D01*
X152334346Y-83031566D02*
X152334346Y-82631566D01*
D14*
X152834346Y-83631566D02*
X152834346Y-83631566D01*
X152934346Y-83631566D02*
X152934346Y-83631566D01*
X152834346Y-83631566D02*
G75*
G02*
X152934346Y-83631566I50000J0D01*
G01*
X152934346Y-83631566D02*
G75*
G02*
X152834346Y-83631566I-50000J0D01*
G01*
D11*
%TO.C,LED18*%
X148484346Y-126861566D02*
X148484346Y-127261566D01*
X152484346Y-126861566D02*
X148484346Y-126861566D01*
X152484346Y-127261566D02*
X152484346Y-126861566D01*
D14*
X152984346Y-127861566D02*
X152984346Y-127861566D01*
X153084346Y-127861566D02*
X153084346Y-127861566D01*
X152984346Y-127861566D02*
G75*
G02*
X153084346Y-127861566I50000J0D01*
G01*
X153084346Y-127861566D02*
G75*
G02*
X152984346Y-127861566I-50000J0D01*
G01*
D15*
%TO.C,C9*%
X146456540Y-131254003D02*
X146243522Y-131220266D01*
X146569170Y-130542866D02*
X146356152Y-130509129D01*
D11*
%TO.C,LED7*%
X131588994Y-123375428D02*
X134417421Y-126203855D01*
D14*
X131871836Y-122244057D02*
X131871836Y-122244057D01*
D11*
X131871836Y-123092586D02*
X131588994Y-123375428D01*
D14*
X131942547Y-122314768D02*
X131942547Y-122314768D01*
D11*
X134417421Y-126203855D02*
X134700263Y-125921013D01*
D14*
X131871836Y-122244057D02*
G75*
G02*
X131942548Y-122314769I35356J-35356D01*
G01*
X131942547Y-122314768D02*
G75*
G02*
X131871835Y-122244056I-35355J35357D01*
G01*
D15*
%TO.C,C2*%
X143557180Y-88476289D02*
X143761101Y-88406070D01*
X143791591Y-89157062D02*
X143995512Y-89086843D01*
D11*
%TO.C,LED6*%
X126869098Y-114953098D02*
X128399830Y-118648616D01*
X127238648Y-114800025D02*
X126869098Y-114953098D01*
D14*
X127563366Y-114016087D02*
X127563366Y-114016087D01*
X127601634Y-114108475D02*
X127601634Y-114108475D01*
D11*
X128399830Y-118648616D02*
X128769382Y-118495543D01*
D14*
X127563366Y-114016087D02*
G75*
G02*
X127601634Y-114108475I19134J-46194D01*
G01*
X127601634Y-114108475D02*
G75*
G02*
X127563366Y-114016087I-19134J46194D01*
G01*
%TO.C,LED12*%
X171296929Y-118698948D02*
X171296929Y-118698948D01*
X171335197Y-118606560D02*
X171335197Y-118606560D01*
D11*
X172080867Y-118374230D02*
X172450419Y-118527303D01*
X172450419Y-118527303D02*
X173981151Y-114831785D01*
X173981151Y-114831785D02*
X173611601Y-114678712D01*
D14*
X171296929Y-118698948D02*
G75*
G02*
X171335197Y-118606560I19134J46194D01*
G01*
X171335197Y-118606560D02*
G75*
G02*
X171296929Y-118698948I-19134J-46194D01*
G01*
D11*
%TO.C,LED4*%
X126818849Y-99768215D02*
X127188399Y-99921288D01*
X128349581Y-96072697D02*
X126818849Y-99768215D01*
X128719133Y-96225770D02*
X128349581Y-96072697D01*
D14*
X129464803Y-95993440D02*
X129464803Y-95993440D01*
X129503071Y-95901052D02*
X129503071Y-95901052D01*
X129464803Y-95993440D02*
G75*
G02*
X129503071Y-95901052I19134J46194D01*
G01*
X129503071Y-95901052D02*
G75*
G02*
X129464803Y-95993440I-19134J-46194D01*
G01*
D15*
%TO.C,C15*%
X165217156Y-93019871D02*
X165064655Y-93172375D01*
X164708037Y-92510757D02*
X164555536Y-92663261D01*
%TD*%
M02*
