%TF.GenerationSoftware,KiCad,Pcbnew,8.0.5*%
%TF.CreationDate,2025-07-02T22:11:18-04:00*%
%TF.ProjectId,tomorrowland_pendant,746f6d6f-7272-46f7-976c-616e645f7065,rev?*%
%TF.SameCoordinates,Original*%
%TF.FileFunction,Paste,Bot*%
%TF.FilePolarity,Positive*%
%FSLAX46Y46*%
G04 Gerber Fmt 4.6, Leading zero omitted, Abs format (unit mm)*
G04 Created by KiCad (PCBNEW 8.0.5) date 2025-07-02 22:11:18*
%MOMM*%
%LPD*%
G01*
G04 APERTURE LIST*
G04 Aperture macros list*
%AMRoundRect*
0 Rectangle with rounded corners*
0 $1 Rounding radius*
0 $2 $3 $4 $5 $6 $7 $8 $9 X,Y pos of 4 corners*
0 Add a 4 corners polygon primitive as box body*
4,1,4,$2,$3,$4,$5,$6,$7,$8,$9,$2,$3,0*
0 Add four circle primitives for the rounded corners*
1,1,$1+$1,$2,$3*
1,1,$1+$1,$4,$5*
1,1,$1+$1,$6,$7*
1,1,$1+$1,$8,$9*
0 Add four rect primitives between the rounded corners*
20,1,$1+$1,$2,$3,$4,$5,0*
20,1,$1+$1,$4,$5,$6,$7,0*
20,1,$1+$1,$6,$7,$8,$9,0*
20,1,$1+$1,$8,$9,$2,$3,0*%
%AMRotRect*
0 Rectangle, with rotation*
0 The origin of the aperture is its center*
0 $1 length*
0 $2 width*
0 $3 Rotation angle, in degrees counterclockwise*
0 Add horizontal line*
21,1,$1,$2,0,0,$3*%
%AMFreePoly0*
4,1,14,0.385355,0.085355,0.400000,0.050000,0.400000,0.000711,0.385355,-0.034644,0.334644,-0.085355,0.299289,-0.100000,-0.350000,-0.100000,-0.385355,-0.085355,-0.400000,-0.050000,-0.400000,0.050000,-0.385355,0.085355,-0.350000,0.100000,0.350000,0.100000,0.385355,0.085355,0.385355,0.085355,$1*%
%AMFreePoly1*
4,1,14,0.334644,0.085355,0.385355,0.034644,0.400000,-0.000711,0.400000,-0.050000,0.385355,-0.085355,0.350000,-0.100000,-0.350000,-0.100000,-0.385355,-0.085355,-0.400000,-0.050000,-0.400000,0.050000,-0.385355,0.085355,-0.350000,0.100000,0.299289,0.100000,0.334644,0.085355,0.334644,0.085355,$1*%
%AMFreePoly2*
4,1,14,0.085355,0.385355,0.100000,0.350000,0.100000,-0.350000,0.085355,-0.385355,0.050000,-0.400000,0.000711,-0.400000,-0.034644,-0.385355,-0.085355,-0.334644,-0.100000,-0.299289,-0.100000,0.350000,-0.085355,0.385355,-0.050000,0.400000,0.050000,0.400000,0.085355,0.385355,0.085355,0.385355,$1*%
%AMFreePoly3*
4,1,14,0.085355,0.385355,0.100000,0.350000,0.100000,-0.299289,0.085355,-0.334644,0.034644,-0.385355,-0.000711,-0.400000,-0.050000,-0.400000,-0.085355,-0.385355,-0.100000,-0.350000,-0.100000,0.350000,-0.085355,0.385355,-0.050000,0.400000,0.050000,0.400000,0.085355,0.385355,0.085355,0.385355,$1*%
%AMFreePoly4*
4,1,14,0.385355,0.085355,0.400000,0.050000,0.400000,-0.050000,0.385355,-0.085355,0.350000,-0.100000,-0.350000,-0.100000,-0.385355,-0.085355,-0.400000,-0.050000,-0.400000,-0.000711,-0.385355,0.034644,-0.334644,0.085355,-0.299289,0.100000,0.350000,0.100000,0.385355,0.085355,0.385355,0.085355,$1*%
%AMFreePoly5*
4,1,14,0.385355,0.085355,0.400000,0.050000,0.400000,-0.050000,0.385355,-0.085355,0.350000,-0.100000,-0.299289,-0.100000,-0.334644,-0.085355,-0.385355,-0.034644,-0.400000,0.000711,-0.400000,0.050000,-0.385355,0.085355,-0.350000,0.100000,0.350000,0.100000,0.385355,0.085355,0.385355,0.085355,$1*%
%AMFreePoly6*
4,1,14,0.034644,0.385355,0.085355,0.334644,0.100000,0.299289,0.100000,-0.350000,0.085355,-0.385355,0.050000,-0.400000,-0.050000,-0.400000,-0.085355,-0.385355,-0.100000,-0.350000,-0.100000,0.350000,-0.085355,0.385355,-0.050000,0.400000,-0.000711,0.400000,0.034644,0.385355,0.034644,0.385355,$1*%
%AMFreePoly7*
4,1,14,0.085355,0.385355,0.100000,0.350000,0.100000,-0.350000,0.085355,-0.385355,0.050000,-0.400000,-0.050000,-0.400000,-0.085355,-0.385355,-0.100000,-0.350000,-0.100000,0.299289,-0.085355,0.334644,-0.034644,0.385355,0.000711,0.400000,0.050000,0.400000,0.085355,0.385355,0.085355,0.385355,$1*%
G04 Aperture macros list end*
%ADD10RoundRect,0.172500X0.000000X0.243952X-0.243952X0.000000X0.000000X-0.243952X0.243952X0.000000X0*%
%ADD11FreePoly0,225.000000*%
%ADD12RoundRect,0.050000X0.212132X0.282843X-0.282843X-0.212132X-0.212132X-0.282843X0.282843X0.212132X0*%
%ADD13FreePoly1,225.000000*%
%ADD14FreePoly2,225.000000*%
%ADD15RoundRect,0.050000X-0.212132X0.282843X-0.282843X0.212132X0.212132X-0.282843X0.282843X-0.212132X0*%
%ADD16FreePoly3,225.000000*%
%ADD17FreePoly4,225.000000*%
%ADD18FreePoly5,225.000000*%
%ADD19FreePoly6,225.000000*%
%ADD20FreePoly7,225.000000*%
%ADD21RotRect,1.000000X0.750000X33.000000*%
%ADD22R,0.800000X0.750000*%
%ADD23R,0.800000X0.600000*%
%ADD24R,0.800000X0.400000*%
%ADD25R,0.800000X0.800000*%
%ADD26RoundRect,0.140000X-0.219203X-0.021213X-0.021213X-0.219203X0.219203X0.021213X0.021213X0.219203X0*%
%ADD27RotRect,1.000000X0.750000X327.000000*%
G04 APERTURE END LIST*
D10*
%TO.C,U1*%
X150998377Y-85651185D03*
X150397336Y-85050144D03*
X150397336Y-86252226D03*
X149796295Y-85651185D03*
D11*
X150856955Y-84060195D03*
D12*
X151139798Y-84343037D03*
X151422641Y-84625880D03*
X151705484Y-84908723D03*
D13*
X151988326Y-85191566D03*
D14*
X151988326Y-86110804D03*
D15*
X151705484Y-86393647D03*
X151422641Y-86676490D03*
X151139798Y-86959333D03*
D16*
X150856955Y-87242175D03*
D17*
X149937717Y-87242175D03*
D12*
X149654874Y-86959333D03*
X149372031Y-86676490D03*
X149089188Y-86393647D03*
D18*
X148806346Y-86110804D03*
D19*
X148806346Y-85191566D03*
D15*
X149089188Y-84908723D03*
X149372031Y-84625880D03*
X149654874Y-84343037D03*
D20*
X149937717Y-84060195D03*
%TD*%
D21*
%TO.C,SW1*%
X160998743Y-128936580D03*
X166030766Y-125668746D03*
X158956346Y-125791566D03*
X163988369Y-122523732D03*
%TD*%
D22*
%TO.C,LED19*%
X129606346Y-105841566D03*
D23*
X129606346Y-106966566D03*
D24*
X129606346Y-107846566D03*
D25*
X129606346Y-108826566D03*
%TD*%
D22*
%TO.C,LED20*%
X171206346Y-108755566D03*
D23*
X171206346Y-107630566D03*
D24*
X171206346Y-106750566D03*
D25*
X171206346Y-105770566D03*
%TD*%
D26*
%TO.C,C17*%
X152307524Y-83642744D03*
X152986346Y-84321566D03*
%TD*%
D27*
%TO.C,SW2*%
X134969136Y-125730158D03*
X140001160Y-128997990D03*
X137011532Y-122585142D03*
X142043556Y-125852974D03*
%TD*%
M02*
