%TF.GenerationSoftware,KiCad,Pcbnew,8.0.5*%
%TF.CreationDate,2025-07-02T22:11:18-04:00*%
%TF.ProjectId,tomorrowland_pendant,746f6d6f-7272-46f7-976c-616e645f7065,rev?*%
%TF.SameCoordinates,Original*%
%TF.FileFunction,Legend,Bot*%
%TF.FilePolarity,Positive*%
%FSLAX46Y46*%
G04 Gerber Fmt 4.6, Leading zero omitted, Abs format (unit mm)*
G04 Created by KiCad (PCBNEW 8.0.5) date 2025-07-02 22:11:18*
%MOMM*%
%LPD*%
G01*
G04 APERTURE LIST*
%ADD10C,0.200000*%
%ADD11C,0.300000*%
%ADD12C,0.100000*%
%ADD13C,0.260000*%
%ADD14C,0.125000*%
%ADD15C,0.150000*%
%ADD16C,0.120000*%
%ADD17C,0.127000*%
G04 APERTURE END LIST*
D10*
X128858461Y-97077719D02*
X129454598Y-97330763D01*
X129454598Y-97330763D02*
X129509846Y-97395600D01*
X129509846Y-97395600D02*
X129530028Y-97445552D01*
X129530028Y-97445552D02*
X129535325Y-97530571D01*
X129535325Y-97530571D02*
X129475785Y-97670838D01*
X129475785Y-97670838D02*
X129410948Y-97726087D01*
X129410948Y-97726087D02*
X129360996Y-97746269D01*
X129360996Y-97746269D02*
X129275978Y-97751566D01*
X129275978Y-97751566D02*
X128679841Y-97498521D01*
X129267395Y-98161774D02*
X128530991Y-97849189D01*
X128530991Y-97849189D02*
X128411911Y-98129724D01*
X128411911Y-98129724D02*
X128417208Y-98214743D01*
X128417208Y-98214743D02*
X128437390Y-98264694D01*
X128437390Y-98264694D02*
X128492639Y-98329531D01*
X128492639Y-98329531D02*
X128597839Y-98374186D01*
X128597839Y-98374186D02*
X128682858Y-98368889D01*
X128682858Y-98368889D02*
X128732810Y-98348708D01*
X128732810Y-98348708D02*
X128797647Y-98293459D01*
X128797647Y-98293459D02*
X128916727Y-98012924D01*
X128954810Y-98898178D02*
X128218406Y-98585593D01*
X128218406Y-98585593D02*
X128143982Y-98760927D01*
X128143982Y-98760927D02*
X128134393Y-98881013D01*
X128134393Y-98881013D02*
X128174757Y-98980916D01*
X128174757Y-98980916D02*
X128230006Y-99045753D01*
X128230006Y-99045753D02*
X128355388Y-99140360D01*
X128355388Y-99140360D02*
X128460589Y-99185015D01*
X128460589Y-99185015D02*
X128615741Y-99209488D01*
X128615741Y-99209488D02*
X128700760Y-99204191D01*
X128700760Y-99204191D02*
X128800664Y-99163828D01*
X128800664Y-99163828D02*
X128880385Y-99073512D01*
X128880385Y-99073512D02*
X128954810Y-98898178D01*
X128642225Y-99634582D02*
X127905822Y-99321997D01*
X127548582Y-100163601D02*
X127355077Y-100619470D01*
X127355077Y-100619470D02*
X127739807Y-100493082D01*
X127739807Y-100493082D02*
X127695152Y-100598283D01*
X127695152Y-100598283D02*
X127700448Y-100683301D01*
X127700448Y-100683301D02*
X127720630Y-100733253D01*
X127720630Y-100733253D02*
X127775879Y-100798090D01*
X127775879Y-100798090D02*
X127951213Y-100872515D01*
X127951213Y-100872515D02*
X128036232Y-100867218D01*
X128036232Y-100867218D02*
X128086184Y-100847036D01*
X128086184Y-100847036D02*
X128151021Y-100791788D01*
X128151021Y-100791788D02*
X128240331Y-100581387D01*
X128240331Y-100581387D02*
X128235034Y-100496368D01*
X128235034Y-100496368D02*
X128214852Y-100446416D01*
X127265767Y-100829871D02*
X127897976Y-101387924D01*
X127897976Y-101387924D02*
X127057377Y-101320807D01*
D11*
G36*
X164351224Y-88371260D02*
G01*
X164564666Y-88517955D01*
X164348892Y-88831908D01*
X164093556Y-88656419D01*
X164055492Y-88587567D01*
X164048411Y-88549357D01*
X164059271Y-88471438D01*
X164124348Y-88376750D01*
X164193200Y-88338687D01*
X164220527Y-88333623D01*
X164351224Y-88371260D01*
G37*
G36*
X164710979Y-87867356D02*
G01*
X164915299Y-88007781D01*
X164734588Y-88270717D01*
X164530268Y-88130292D01*
X164492205Y-88061440D01*
X164485124Y-88023230D01*
X164495984Y-87945310D01*
X164525998Y-87901641D01*
X164594849Y-87863577D01*
X164633059Y-87856496D01*
X164710979Y-87867356D01*
G37*
G36*
X165541040Y-87891808D02*
G01*
X164464867Y-89457648D01*
X163145387Y-88550794D01*
X163746500Y-88550794D01*
X163746952Y-88556104D01*
X163746738Y-88561433D01*
X163747734Y-88565268D01*
X163748999Y-88580093D01*
X163764953Y-88666173D01*
X163769084Y-88680466D01*
X163769529Y-88684405D01*
X163771638Y-88689301D01*
X163773119Y-88694422D01*
X163775276Y-88697744D01*
X163781165Y-88711410D01*
X163848136Y-88832554D01*
X163864817Y-88856770D01*
X163869028Y-88860127D01*
X163871966Y-88864651D01*
X163894451Y-88883601D01*
X164302590Y-89164107D01*
X164328339Y-89178307D01*
X164385588Y-89190475D01*
X164443134Y-89179810D01*
X164492219Y-89147934D01*
X164511170Y-89125449D01*
X165247498Y-88054085D01*
X165261698Y-88028335D01*
X165273866Y-87971087D01*
X165263201Y-87913541D01*
X165231325Y-87864455D01*
X165231318Y-87864450D01*
X165208840Y-87845505D01*
X164851719Y-87600062D01*
X164825969Y-87585862D01*
X164820699Y-87584741D01*
X164816051Y-87582011D01*
X164787465Y-87575117D01*
X164650367Y-87556008D01*
X164635497Y-87555408D01*
X164631624Y-87554585D01*
X164626313Y-87555037D01*
X164620985Y-87554823D01*
X164617149Y-87555819D01*
X164602325Y-87557084D01*
X164516244Y-87573038D01*
X164501945Y-87577171D01*
X164498011Y-87577615D01*
X164493119Y-87579722D01*
X164487995Y-87581204D01*
X164484669Y-87583363D01*
X164471006Y-87589251D01*
X164349863Y-87656223D01*
X164325646Y-87672904D01*
X164322286Y-87677117D01*
X164317768Y-87680052D01*
X164298817Y-87702536D01*
X164228691Y-87804570D01*
X164214490Y-87830320D01*
X164213369Y-87835591D01*
X164210639Y-87840239D01*
X164203745Y-87868825D01*
X164184636Y-88005923D01*
X164184036Y-88020792D01*
X164183213Y-88024666D01*
X164183665Y-88029976D01*
X164183451Y-88035305D01*
X164183471Y-88035382D01*
X164114595Y-88048148D01*
X164100301Y-88052279D01*
X164096363Y-88052724D01*
X164091467Y-88054833D01*
X164086346Y-88056314D01*
X164083021Y-88058472D01*
X164069357Y-88064361D01*
X163948213Y-88131333D01*
X163923997Y-88148013D01*
X163920637Y-88152226D01*
X163916117Y-88155162D01*
X163897167Y-88177647D01*
X163791977Y-88330699D01*
X163777777Y-88356449D01*
X163776656Y-88361718D01*
X163773926Y-88366367D01*
X163767032Y-88394953D01*
X163747923Y-88532051D01*
X163747323Y-88546920D01*
X163746500Y-88550794D01*
X163145387Y-88550794D01*
X162085126Y-87822097D01*
X162421241Y-87333046D01*
X162630429Y-87333046D01*
X162641094Y-87390592D01*
X162672970Y-87439677D01*
X162695455Y-87458628D01*
X163511732Y-88019640D01*
X163537482Y-88033840D01*
X163594730Y-88046008D01*
X163652276Y-88035343D01*
X163701361Y-88003467D01*
X163734512Y-87955232D01*
X163746680Y-87897984D01*
X163736015Y-87840438D01*
X163704139Y-87791353D01*
X163681654Y-87772402D01*
X162865377Y-87211390D01*
X162839627Y-87197190D01*
X162782379Y-87185022D01*
X162724833Y-87195687D01*
X162675748Y-87227563D01*
X162642597Y-87275798D01*
X162630429Y-87333046D01*
X162421241Y-87333046D01*
X163161298Y-86256256D01*
X165541040Y-87891808D01*
G37*
D12*
X141195738Y-90237846D02*
X141162742Y-90231133D01*
X141162742Y-90231133D02*
X141109892Y-90237561D01*
X141109892Y-90237561D02*
X141010620Y-90303268D01*
X141010620Y-90303268D02*
X140984053Y-90349405D01*
X140984053Y-90349405D02*
X140977339Y-90382401D01*
X140977339Y-90382401D02*
X140983768Y-90435251D01*
X140983768Y-90435251D02*
X141010050Y-90474960D01*
X141010050Y-90474960D02*
X141069329Y-90521382D01*
X141069329Y-90521382D02*
X141465278Y-90601939D01*
X141465278Y-90601939D02*
X141207171Y-90772777D01*
X141002199Y-90851340D02*
X140995486Y-90884335D01*
X140995486Y-90884335D02*
X141028481Y-90891048D01*
X141028481Y-90891048D02*
X141035194Y-90858053D01*
X141035194Y-90858053D02*
X141002199Y-90851340D01*
X141002199Y-90851340D02*
X141028481Y-90891048D01*
X140467269Y-90862772D02*
X140651248Y-91140734D01*
X140461410Y-90638230D02*
X140757802Y-90870340D01*
X140757802Y-90870340D02*
X140499695Y-91041177D01*
X140069611Y-91297291D02*
X140036615Y-91290578D01*
X140036615Y-91290578D02*
X139983765Y-91297006D01*
X139983765Y-91297006D02*
X139930630Y-91389280D01*
X139930630Y-91389280D02*
X139877780Y-91395709D01*
X139877780Y-91395709D02*
X139844784Y-91388996D01*
X139263432Y-91459707D02*
X139005325Y-91630544D01*
X139005325Y-91630544D02*
X139249437Y-91697390D01*
X139249437Y-91697390D02*
X139189873Y-91736814D01*
X139189873Y-91736814D02*
X139163306Y-91782951D01*
X139163306Y-91782951D02*
X139156593Y-91815947D01*
X139156593Y-91815947D02*
X139163021Y-91868797D01*
X139163021Y-91868797D02*
X139228728Y-91968069D01*
X139228728Y-91968069D02*
X139274865Y-91994637D01*
X139274865Y-91994637D02*
X139307861Y-92001350D01*
X139307861Y-92001350D02*
X139360711Y-91994922D01*
X139360711Y-91994922D02*
X139479837Y-91916074D01*
X139479837Y-91916074D02*
X139506405Y-91869936D01*
X139506405Y-91869936D02*
X139513118Y-91836941D01*
X139076321Y-92126050D02*
X139069608Y-92159046D01*
X139069608Y-92159046D02*
X139102604Y-92165759D01*
X139102604Y-92165759D02*
X139109317Y-92132763D01*
X139109317Y-92132763D02*
X139076321Y-92126050D01*
X139076321Y-92126050D02*
X139102604Y-92165759D01*
X138449401Y-91998502D02*
X138528819Y-91945936D01*
X138528819Y-91945936D02*
X138581669Y-91939508D01*
X138581669Y-91939508D02*
X138614665Y-91946221D01*
X138614665Y-91946221D02*
X138693798Y-91979502D01*
X138693798Y-91979502D02*
X138766218Y-92045778D01*
X138766218Y-92045778D02*
X138871349Y-92204613D01*
X138871349Y-92204613D02*
X138877777Y-92257464D01*
X138877777Y-92257464D02*
X138871064Y-92290459D01*
X138871064Y-92290459D02*
X138844496Y-92336597D01*
X138844496Y-92336597D02*
X138765079Y-92389162D01*
X138765079Y-92389162D02*
X138712229Y-92395590D01*
X138712229Y-92395590D02*
X138679233Y-92388877D01*
X138679233Y-92388877D02*
X138633096Y-92362310D01*
X138633096Y-92362310D02*
X138567389Y-92263038D01*
X138567389Y-92263038D02*
X138560961Y-92210187D01*
X138560961Y-92210187D02*
X138567674Y-92177192D01*
X138567674Y-92177192D02*
X138594241Y-92131054D01*
X138594241Y-92131054D02*
X138673659Y-92078489D01*
X138673659Y-92078489D02*
X138726509Y-92072061D01*
X138726509Y-92072061D02*
X138759505Y-92078774D01*
X138759505Y-92078774D02*
X138805642Y-92105341D01*
X138290566Y-92103632D02*
X138427554Y-92612565D01*
X138427554Y-92612565D02*
X138012604Y-92287611D01*
D13*
G36*
X138628186Y-87748488D02*
G01*
X138344473Y-87925772D01*
X138258222Y-87933978D01*
X138214031Y-87923776D01*
X138140108Y-87878592D01*
X138074221Y-87773150D01*
X138066015Y-87686898D01*
X138074059Y-87652054D01*
X138165764Y-87541064D01*
X138405115Y-87391500D01*
X138628186Y-87748488D01*
G37*
G36*
X138267336Y-87171008D02*
G01*
X138036121Y-87315487D01*
X137949870Y-87323693D01*
X137905679Y-87313491D01*
X137831757Y-87268307D01*
X137798674Y-87215362D01*
X137790468Y-87129111D01*
X137800670Y-87084921D01*
X137845854Y-87010998D01*
X138077070Y-86866518D01*
X138267336Y-87171008D01*
G37*
G36*
X139185497Y-87877154D02*
G01*
X136779697Y-89380465D01*
X136279297Y-88579658D01*
X136472513Y-88579658D01*
X136480884Y-88629686D01*
X136507764Y-88672702D01*
X136549059Y-88702157D01*
X136598482Y-88713567D01*
X136648510Y-88705196D01*
X136671342Y-88693874D01*
X136981081Y-88500327D01*
X137174628Y-88810066D01*
X137190186Y-88830251D01*
X137231481Y-88859706D01*
X137280904Y-88871116D01*
X137330932Y-88862745D01*
X137373948Y-88835865D01*
X137403403Y-88794570D01*
X137414813Y-88745147D01*
X137406442Y-88695119D01*
X137395120Y-88672287D01*
X137201573Y-88362547D01*
X137511312Y-88169001D01*
X137531497Y-88153443D01*
X137560952Y-88112148D01*
X137572362Y-88062725D01*
X137563991Y-88012697D01*
X137537111Y-87969681D01*
X137495816Y-87940226D01*
X137446393Y-87928816D01*
X137396365Y-87937187D01*
X137373533Y-87948509D01*
X137063794Y-88142055D01*
X136870247Y-87832316D01*
X136854689Y-87812132D01*
X136813394Y-87782677D01*
X136763971Y-87771267D01*
X136713943Y-87779638D01*
X136670927Y-87806518D01*
X136641472Y-87847813D01*
X136630062Y-87897236D01*
X136638433Y-87947264D01*
X136649755Y-87970096D01*
X136843301Y-88279834D01*
X136533562Y-88473382D01*
X136513378Y-88488940D01*
X136483923Y-88530235D01*
X136472513Y-88579658D01*
X136279297Y-88579658D01*
X135799936Y-87812519D01*
X136913871Y-87116455D01*
X137529115Y-87116455D01*
X137529681Y-87119837D01*
X137529638Y-87132738D01*
X137542749Y-87270539D01*
X137547638Y-87295550D01*
X137549825Y-87299676D01*
X137550597Y-87304284D01*
X137561919Y-87327116D01*
X137627528Y-87432112D01*
X137643086Y-87452296D01*
X137646887Y-87455007D01*
X137649638Y-87458784D01*
X137669975Y-87474142D01*
X137788082Y-87546334D01*
X137799691Y-87551949D01*
X137802487Y-87553943D01*
X137806864Y-87555418D01*
X137811024Y-87557430D01*
X137814415Y-87557963D01*
X137826637Y-87562082D01*
X137828050Y-87562408D01*
X137827627Y-87563665D01*
X137807933Y-87648968D01*
X137806277Y-87661758D01*
X137805270Y-87665041D01*
X137805254Y-87669663D01*
X137804662Y-87674242D01*
X137805228Y-87677624D01*
X137805185Y-87690525D01*
X137818296Y-87828326D01*
X137823185Y-87853337D01*
X137825373Y-87857463D01*
X137826144Y-87862070D01*
X137837466Y-87884902D01*
X137935878Y-88042396D01*
X137951437Y-88062581D01*
X137955239Y-88065293D01*
X137957989Y-88069069D01*
X137978326Y-88084427D01*
X138096434Y-88156619D01*
X138108042Y-88162233D01*
X138110839Y-88164228D01*
X138115219Y-88165704D01*
X138119377Y-88167715D01*
X138122767Y-88168247D01*
X138134989Y-88172367D01*
X138220291Y-88192061D01*
X138233081Y-88193716D01*
X138236364Y-88194724D01*
X138240986Y-88194739D01*
X138245565Y-88195332D01*
X138248947Y-88194765D01*
X138261848Y-88194809D01*
X138399649Y-88181698D01*
X138424660Y-88176809D01*
X138428786Y-88174620D01*
X138433393Y-88173850D01*
X138456225Y-88162528D01*
X138876211Y-87900092D01*
X138896396Y-87884534D01*
X138925851Y-87843240D01*
X138937261Y-87793816D01*
X138933761Y-87772900D01*
X138928889Y-87743788D01*
X138917568Y-87720956D01*
X138228673Y-86618494D01*
X138213115Y-86598309D01*
X138171821Y-86568854D01*
X138122397Y-86557444D01*
X138072369Y-86565815D01*
X138049538Y-86577137D01*
X137682049Y-86806769D01*
X137661865Y-86822327D01*
X137659153Y-86826128D01*
X137655377Y-86828879D01*
X137640019Y-86849216D01*
X137567827Y-86967324D01*
X137562212Y-86978932D01*
X137560219Y-86981728D01*
X137558742Y-86986107D01*
X137556732Y-86990266D01*
X137556199Y-86993656D01*
X137552080Y-87005878D01*
X137532386Y-87091181D01*
X137530730Y-87103971D01*
X137529723Y-87107254D01*
X137529707Y-87111876D01*
X137529115Y-87116455D01*
X136913871Y-87116455D01*
X138205735Y-86309208D01*
X139185497Y-87877154D01*
G37*
D10*
G36*
X130978884Y-97234409D02*
G01*
X130949872Y-97302756D01*
X130896513Y-97363206D01*
X130833541Y-97388649D01*
X130775680Y-97392254D01*
X130643524Y-97371408D01*
X130560994Y-97336376D01*
X130454194Y-97255791D01*
X130416594Y-97211665D01*
X130391152Y-97148694D01*
X130397570Y-97068315D01*
X130426580Y-96999971D01*
X130978884Y-97234409D01*
G37*
G36*
X131372255Y-97075478D02*
G01*
X128849999Y-103017542D01*
X127999755Y-102656635D01*
X128364513Y-102656635D01*
X128379129Y-102692812D01*
X128406477Y-102720642D01*
X128442394Y-102735888D01*
X128481410Y-102736228D01*
X128517587Y-102721612D01*
X128545417Y-102694264D01*
X128554808Y-102677056D01*
X128792968Y-102115986D01*
X128798823Y-102097278D01*
X128799163Y-102058261D01*
X128784547Y-102022084D01*
X128757199Y-101994254D01*
X128721282Y-101979008D01*
X128682266Y-101978668D01*
X128646089Y-101993285D01*
X128618258Y-102020633D01*
X128608867Y-102037840D01*
X128370708Y-102598910D01*
X128364853Y-102617619D01*
X128364513Y-102656635D01*
X127999755Y-102656635D01*
X127745393Y-102548665D01*
X128970678Y-99662073D01*
X129304548Y-99662073D01*
X129319164Y-99698250D01*
X129346512Y-99726080D01*
X129363720Y-99735471D01*
X129552204Y-99815477D01*
X129472198Y-100003962D01*
X129466343Y-100022671D01*
X129466003Y-100061687D01*
X129480619Y-100097864D01*
X129507967Y-100125694D01*
X129543884Y-100140940D01*
X129582900Y-100141280D01*
X129619077Y-100126664D01*
X129646907Y-100099316D01*
X129656298Y-100082108D01*
X129736304Y-99893623D01*
X129924790Y-99973631D01*
X129943498Y-99979486D01*
X129982515Y-99979826D01*
X130018692Y-99965210D01*
X130046522Y-99937862D01*
X130061768Y-99901945D01*
X130062108Y-99862929D01*
X130047491Y-99826752D01*
X130020143Y-99798921D01*
X130002936Y-99789530D01*
X129814451Y-99709523D01*
X129894458Y-99521039D01*
X129900313Y-99502331D01*
X129900653Y-99463314D01*
X129886037Y-99427137D01*
X129858689Y-99399307D01*
X129822772Y-99384061D01*
X129783756Y-99383721D01*
X129747579Y-99398338D01*
X129719749Y-99425686D01*
X129710357Y-99442893D01*
X129630350Y-99631377D01*
X129441866Y-99551371D01*
X129423157Y-99545516D01*
X129384141Y-99545176D01*
X129347964Y-99559792D01*
X129320134Y-99587140D01*
X129304888Y-99623057D01*
X129304548Y-99662073D01*
X128970678Y-99662073D01*
X130034312Y-97156308D01*
X130189908Y-97156308D01*
X130190270Y-97175908D01*
X130191376Y-97179326D01*
X130191345Y-97182919D01*
X130196872Y-97201727D01*
X130237235Y-97301631D01*
X130241836Y-97310423D01*
X130242649Y-97312934D01*
X130244676Y-97315850D01*
X130246325Y-97319000D01*
X130248176Y-97320883D01*
X130253840Y-97329030D01*
X130309089Y-97393867D01*
X130310189Y-97394927D01*
X130310555Y-97395549D01*
X130316936Y-97401429D01*
X130323204Y-97407470D01*
X130323847Y-97407798D01*
X130324971Y-97408834D01*
X130450354Y-97503440D01*
X130453270Y-97505221D01*
X130454305Y-97506274D01*
X130460777Y-97509806D01*
X130467084Y-97513658D01*
X130468515Y-97514029D01*
X130471513Y-97515665D01*
X130576713Y-97560320D01*
X130579972Y-97561340D01*
X130581234Y-97562112D01*
X130588385Y-97563973D01*
X130595421Y-97566175D01*
X130596895Y-97566187D01*
X130600205Y-97567049D01*
X130755358Y-97591522D01*
X130756885Y-97591611D01*
X130757567Y-97591845D01*
X130766225Y-97592156D01*
X130774928Y-97592664D01*
X130775633Y-97592494D01*
X130777157Y-97592549D01*
X130862176Y-97587252D01*
X130871969Y-97585667D01*
X130874610Y-97585691D01*
X130878017Y-97584689D01*
X130881527Y-97584122D01*
X130883901Y-97582960D01*
X130893418Y-97580164D01*
X130993322Y-97539800D01*
X131010691Y-97530711D01*
X131013253Y-97528192D01*
X131016481Y-97526614D01*
X131030831Y-97513259D01*
X131110553Y-97422945D01*
X131116356Y-97414901D01*
X131118243Y-97413048D01*
X131119947Y-97409925D01*
X131122024Y-97407047D01*
X131122880Y-97404550D01*
X131127634Y-97395840D01*
X131202059Y-97220505D01*
X131207913Y-97201796D01*
X131208053Y-97185709D01*
X131208253Y-97162780D01*
X131205639Y-97156308D01*
X131193637Y-97126602D01*
X131166289Y-97098772D01*
X131166280Y-97098768D01*
X131149081Y-97089382D01*
X130412677Y-96776797D01*
X130393968Y-96770943D01*
X130354952Y-96770603D01*
X130318775Y-96785219D01*
X130290945Y-96812567D01*
X130281554Y-96829775D01*
X130207129Y-97005109D01*
X130204166Y-97014576D01*
X130202964Y-97016929D01*
X130202335Y-97020426D01*
X130201274Y-97023818D01*
X130201250Y-97026459D01*
X130199496Y-97036223D01*
X130189908Y-97156308D01*
X130034312Y-97156308D01*
X130267649Y-96606601D01*
X131372255Y-97075478D01*
G37*
D14*
X148771129Y-83497602D02*
X149057339Y-83783812D01*
X149057339Y-83783812D02*
X149074175Y-83834320D01*
X149074175Y-83834320D02*
X149074175Y-83867992D01*
X149074175Y-83867992D02*
X149057339Y-83918499D01*
X149057339Y-83918499D02*
X148989996Y-83985843D01*
X148989996Y-83985843D02*
X148939488Y-84002679D01*
X148939488Y-84002679D02*
X148905816Y-84002679D01*
X148905816Y-84002679D02*
X148855309Y-83985843D01*
X148855309Y-83985843D02*
X148569099Y-83699633D01*
X148569099Y-84406740D02*
X148771129Y-84204710D01*
X148670114Y-84305725D02*
X148316560Y-83952171D01*
X148316560Y-83952171D02*
X148400740Y-83969007D01*
X148400740Y-83969007D02*
X148468083Y-83969007D01*
X148468083Y-83969007D02*
X148518591Y-83952171D01*
D15*
X166345398Y-124272720D02*
X166251204Y-124197620D01*
X166251204Y-124197620D02*
X166147463Y-124037873D01*
X166147463Y-124037873D02*
X166137916Y-123953226D01*
X166137916Y-123953226D02*
X166149118Y-123900529D01*
X166149118Y-123900529D02*
X166192268Y-123827083D01*
X166192268Y-123827083D02*
X166256167Y-123785587D01*
X166256167Y-123785587D02*
X166340814Y-123776040D01*
X166340814Y-123776040D02*
X166393511Y-123787241D01*
X166393511Y-123787241D02*
X166466957Y-123830392D01*
X166466957Y-123830392D02*
X166581899Y-123937441D01*
X166581899Y-123937441D02*
X166655345Y-123980591D01*
X166655345Y-123980591D02*
X166708042Y-123991793D01*
X166708042Y-123991793D02*
X166792689Y-123982246D01*
X166792689Y-123982246D02*
X166856588Y-123940749D01*
X166856588Y-123940749D02*
X166899738Y-123867304D01*
X166899738Y-123867304D02*
X166910939Y-123814606D01*
X166910939Y-123814606D02*
X166901392Y-123729959D01*
X166901392Y-123729959D02*
X166797652Y-123570212D01*
X166797652Y-123570212D02*
X166703458Y-123495113D01*
X166590170Y-123250719D02*
X165815493Y-123526683D01*
X165815493Y-123526683D02*
X166211741Y-123087663D01*
X166211741Y-123087663D02*
X165649508Y-123271088D01*
X165649508Y-123271088D02*
X166216703Y-122675630D01*
X165151552Y-122504304D02*
X165400530Y-122887696D01*
X165276041Y-122696000D02*
X165946977Y-122260288D01*
X165946977Y-122260288D02*
X165892625Y-122386432D01*
X165892625Y-122386432D02*
X165870223Y-122491827D01*
X165870223Y-122491827D02*
X165879770Y-122576474D01*
D14*
X128371155Y-106483947D02*
X128371155Y-106245852D01*
X128371155Y-106245852D02*
X127871155Y-106245852D01*
X128109250Y-106650614D02*
X128109250Y-106817281D01*
X128371155Y-106888709D02*
X128371155Y-106650614D01*
X128371155Y-106650614D02*
X127871155Y-106650614D01*
X127871155Y-106650614D02*
X127871155Y-106888709D01*
X128371155Y-107102995D02*
X127871155Y-107102995D01*
X127871155Y-107102995D02*
X127871155Y-107222043D01*
X127871155Y-107222043D02*
X127894965Y-107293471D01*
X127894965Y-107293471D02*
X127942584Y-107341090D01*
X127942584Y-107341090D02*
X127990203Y-107364900D01*
X127990203Y-107364900D02*
X128085441Y-107388709D01*
X128085441Y-107388709D02*
X128156869Y-107388709D01*
X128156869Y-107388709D02*
X128252107Y-107364900D01*
X128252107Y-107364900D02*
X128299726Y-107341090D01*
X128299726Y-107341090D02*
X128347346Y-107293471D01*
X128347346Y-107293471D02*
X128371155Y-107222043D01*
X128371155Y-107222043D02*
X128371155Y-107102995D01*
X128371155Y-107864900D02*
X128371155Y-107579186D01*
X128371155Y-107722043D02*
X127871155Y-107722043D01*
X127871155Y-107722043D02*
X127942584Y-107674424D01*
X127942584Y-107674424D02*
X127990203Y-107626805D01*
X127990203Y-107626805D02*
X128014012Y-107579186D01*
X128371155Y-108102995D02*
X128371155Y-108198233D01*
X128371155Y-108198233D02*
X128347346Y-108245852D01*
X128347346Y-108245852D02*
X128323536Y-108269661D01*
X128323536Y-108269661D02*
X128252107Y-108317280D01*
X128252107Y-108317280D02*
X128156869Y-108341090D01*
X128156869Y-108341090D02*
X127966393Y-108341090D01*
X127966393Y-108341090D02*
X127918774Y-108317280D01*
X127918774Y-108317280D02*
X127894965Y-108293471D01*
X127894965Y-108293471D02*
X127871155Y-108245852D01*
X127871155Y-108245852D02*
X127871155Y-108150614D01*
X127871155Y-108150614D02*
X127894965Y-108102995D01*
X127894965Y-108102995D02*
X127918774Y-108079185D01*
X127918774Y-108079185D02*
X127966393Y-108055376D01*
X127966393Y-108055376D02*
X128085441Y-108055376D01*
X128085441Y-108055376D02*
X128133060Y-108079185D01*
X128133060Y-108079185D02*
X128156869Y-108102995D01*
X128156869Y-108102995D02*
X128180679Y-108150614D01*
X128180679Y-108150614D02*
X128180679Y-108245852D01*
X128180679Y-108245852D02*
X128156869Y-108293471D01*
X128156869Y-108293471D02*
X128133060Y-108317280D01*
X128133060Y-108317280D02*
X128085441Y-108341090D01*
X172371536Y-108119184D02*
X172371536Y-108357279D01*
X172371536Y-108357279D02*
X172871536Y-108357279D01*
X172633441Y-107952517D02*
X172633441Y-107785850D01*
X172371536Y-107714422D02*
X172371536Y-107952517D01*
X172371536Y-107952517D02*
X172871536Y-107952517D01*
X172871536Y-107952517D02*
X172871536Y-107714422D01*
X172371536Y-107500136D02*
X172871536Y-107500136D01*
X172871536Y-107500136D02*
X172871536Y-107381088D01*
X172871536Y-107381088D02*
X172847726Y-107309660D01*
X172847726Y-107309660D02*
X172800107Y-107262041D01*
X172800107Y-107262041D02*
X172752488Y-107238231D01*
X172752488Y-107238231D02*
X172657250Y-107214422D01*
X172657250Y-107214422D02*
X172585822Y-107214422D01*
X172585822Y-107214422D02*
X172490584Y-107238231D01*
X172490584Y-107238231D02*
X172442965Y-107262041D01*
X172442965Y-107262041D02*
X172395346Y-107309660D01*
X172395346Y-107309660D02*
X172371536Y-107381088D01*
X172371536Y-107381088D02*
X172371536Y-107500136D01*
X172823917Y-107023945D02*
X172847726Y-107000136D01*
X172847726Y-107000136D02*
X172871536Y-106952517D01*
X172871536Y-106952517D02*
X172871536Y-106833469D01*
X172871536Y-106833469D02*
X172847726Y-106785850D01*
X172847726Y-106785850D02*
X172823917Y-106762041D01*
X172823917Y-106762041D02*
X172776298Y-106738231D01*
X172776298Y-106738231D02*
X172728679Y-106738231D01*
X172728679Y-106738231D02*
X172657250Y-106762041D01*
X172657250Y-106762041D02*
X172371536Y-107047755D01*
X172371536Y-107047755D02*
X172371536Y-106738231D01*
X172871536Y-106428708D02*
X172871536Y-106381089D01*
X172871536Y-106381089D02*
X172847726Y-106333470D01*
X172847726Y-106333470D02*
X172823917Y-106309660D01*
X172823917Y-106309660D02*
X172776298Y-106285851D01*
X172776298Y-106285851D02*
X172681060Y-106262041D01*
X172681060Y-106262041D02*
X172562012Y-106262041D01*
X172562012Y-106262041D02*
X172466774Y-106285851D01*
X172466774Y-106285851D02*
X172419155Y-106309660D01*
X172419155Y-106309660D02*
X172395346Y-106333470D01*
X172395346Y-106333470D02*
X172371536Y-106381089D01*
X172371536Y-106381089D02*
X172371536Y-106428708D01*
X172371536Y-106428708D02*
X172395346Y-106476327D01*
X172395346Y-106476327D02*
X172419155Y-106500136D01*
X172419155Y-106500136D02*
X172466774Y-106523946D01*
X172466774Y-106523946D02*
X172562012Y-106547755D01*
X172562012Y-106547755D02*
X172681060Y-106547755D01*
X172681060Y-106547755D02*
X172776298Y-106523946D01*
X172776298Y-106523946D02*
X172823917Y-106500136D01*
X172823917Y-106500136D02*
X172847726Y-106476327D01*
X172847726Y-106476327D02*
X172871536Y-106428708D01*
X153918337Y-85544142D02*
X153918337Y-85577814D01*
X153918337Y-85577814D02*
X153952009Y-85645157D01*
X153952009Y-85645157D02*
X153985680Y-85678829D01*
X153985680Y-85678829D02*
X154053024Y-85712501D01*
X154053024Y-85712501D02*
X154120367Y-85712501D01*
X154120367Y-85712501D02*
X154170875Y-85695665D01*
X154170875Y-85695665D02*
X154255054Y-85645157D01*
X154255054Y-85645157D02*
X154305562Y-85594650D01*
X154305562Y-85594650D02*
X154356070Y-85510470D01*
X154356070Y-85510470D02*
X154372906Y-85459963D01*
X154372906Y-85459963D02*
X154372906Y-85392619D01*
X154372906Y-85392619D02*
X154339234Y-85325276D01*
X154339234Y-85325276D02*
X154305562Y-85291604D01*
X154305562Y-85291604D02*
X154238219Y-85257932D01*
X154238219Y-85257932D02*
X154204547Y-85257932D01*
X153547948Y-85241096D02*
X153749978Y-85443127D01*
X153648963Y-85342112D02*
X154002516Y-84988558D01*
X154002516Y-84988558D02*
X153985680Y-85072738D01*
X153985680Y-85072738D02*
X153985680Y-85140081D01*
X153985680Y-85140081D02*
X154002516Y-85190589D01*
X153783650Y-84769692D02*
X153547948Y-84533990D01*
X153547948Y-84533990D02*
X153345917Y-85039066D01*
D15*
X135599191Y-122643555D02*
X135568896Y-122760151D01*
X135568896Y-122760151D02*
X135465155Y-122919898D01*
X135465155Y-122919898D02*
X135391709Y-122963049D01*
X135391709Y-122963049D02*
X135339012Y-122974250D01*
X135339012Y-122974250D02*
X135254365Y-122964703D01*
X135254365Y-122964703D02*
X135190466Y-122923207D01*
X135190466Y-122923207D02*
X135147316Y-122849761D01*
X135147316Y-122849761D02*
X135136115Y-122797064D01*
X135136115Y-122797064D02*
X135145662Y-122712417D01*
X135145662Y-122712417D02*
X135196705Y-122563871D01*
X135196705Y-122563871D02*
X135206252Y-122479224D01*
X135206252Y-122479224D02*
X135195051Y-122426527D01*
X135195051Y-122426527D02*
X135151900Y-122353081D01*
X135151900Y-122353081D02*
X135088001Y-122311585D01*
X135088001Y-122311585D02*
X135003354Y-122302038D01*
X135003354Y-122302038D02*
X134950657Y-122313239D01*
X134950657Y-122313239D02*
X134877211Y-122356390D01*
X134877211Y-122356390D02*
X134773471Y-122516136D01*
X134773471Y-122516136D02*
X134743175Y-122632733D01*
X134565989Y-122835630D02*
X135133185Y-123431088D01*
X135133185Y-123431088D02*
X134570952Y-123247663D01*
X134570952Y-123247663D02*
X134967199Y-123686683D01*
X134967199Y-123686683D02*
X134192522Y-123410718D01*
X134111184Y-123675861D02*
X134058486Y-123687062D01*
X134058486Y-123687062D02*
X133985040Y-123730212D01*
X133985040Y-123730212D02*
X133881300Y-123889959D01*
X133881300Y-123889959D02*
X133871753Y-123974606D01*
X133871753Y-123974606D02*
X133882954Y-124027303D01*
X133882954Y-124027303D02*
X133926104Y-124100749D01*
X133926104Y-124100749D02*
X133990003Y-124142245D01*
X133990003Y-124142245D02*
X134106599Y-124172540D01*
X134106599Y-124172540D02*
X134738969Y-124038126D01*
X134738969Y-124038126D02*
X134469243Y-124453468D01*
D16*
%TO.C,U1*%
X148120452Y-85651185D02*
X148438650Y-85332987D01*
X148438650Y-85969383D02*
X148120452Y-85651185D01*
X150079138Y-87609871D02*
X150397336Y-87928069D01*
X150185204Y-83586433D02*
X150079138Y-83692499D01*
X150397336Y-87928069D02*
X150715534Y-87609871D01*
X150567042Y-83544007D02*
X150715534Y-83692499D01*
X152356022Y-85332987D02*
X152674220Y-85651185D01*
X152674220Y-85651185D02*
X152356022Y-85969383D01*
X150397336Y-83374301D02*
X149994285Y-83310662D01*
X150333696Y-82971250D01*
X150397336Y-83374301D01*
G36*
X150397336Y-83374301D02*
G01*
X149994285Y-83310662D01*
X150333696Y-82971250D01*
X150397336Y-83374301D01*
G37*
D17*
%TO.C,SW1*%
X159217717Y-124816984D02*
X162991735Y-122366110D01*
X159712272Y-126129353D02*
X160997620Y-128108617D01*
X161995377Y-129094202D02*
X165769395Y-126643328D01*
X165274840Y-125330959D02*
X163989492Y-123351695D01*
D10*
X160050404Y-129617378D02*
G75*
G02*
X159850406Y-129617378I-99999J0D01*
G01*
X159850406Y-129617378D02*
G75*
G02*
X160050404Y-129617378I99999J0D01*
G01*
D12*
%TO.C,LED19*%
X129606346Y-104733566D02*
X129606346Y-104733566D01*
X129606346Y-104833566D02*
X129606346Y-104833566D01*
D10*
X130206346Y-109333566D02*
X130606346Y-109333566D01*
X130606346Y-105333566D02*
X130206346Y-105333566D01*
X130606346Y-109333566D02*
X130606346Y-105333566D01*
D12*
X129606346Y-104733566D02*
G75*
G02*
X129606346Y-104833566I0J-50000D01*
G01*
X129606346Y-104833566D02*
G75*
G02*
X129606346Y-104733566I0J50000D01*
G01*
D16*
%TO.C,TP3*%
X131166346Y-102861566D02*
G75*
G02*
X129266346Y-102861566I-950000J0D01*
G01*
X129266346Y-102861566D02*
G75*
G02*
X131166346Y-102861566I950000J0D01*
G01*
%TO.C,TP2*%
X133126346Y-98191566D02*
G75*
G02*
X131226346Y-98191566I-950000J0D01*
G01*
X131226346Y-98191566D02*
G75*
G02*
X133126346Y-98191566I950000J0D01*
G01*
D10*
%TO.C,LED20*%
X170206346Y-105263566D02*
X170206346Y-109263566D01*
X170206346Y-109263566D02*
X170606346Y-109263566D01*
X170606346Y-105263566D02*
X170206346Y-105263566D01*
D12*
X171206346Y-109763566D02*
X171206346Y-109763566D01*
X171206346Y-109863566D02*
X171206346Y-109863566D01*
X171206346Y-109763566D02*
G75*
G02*
X171206346Y-109863566I0J-50000D01*
G01*
X171206346Y-109863566D02*
G75*
G02*
X171206346Y-109763566I0J50000D01*
G01*
D16*
%TO.C,C17*%
X152468628Y-84312965D02*
X152316125Y-84160462D01*
X152977745Y-83803848D02*
X152825242Y-83651345D01*
%TO.C,TP1*%
X132126346Y-100521566D02*
G75*
G02*
X130226346Y-100521566I-950000J0D01*
G01*
X130226346Y-100521566D02*
G75*
G02*
X132126346Y-100521566I950000J0D01*
G01*
D17*
%TO.C,SW2*%
X135230507Y-126704738D02*
X139004525Y-129155615D01*
X137010410Y-123413106D02*
X135725064Y-125392368D01*
X138008167Y-122427517D02*
X141782185Y-124878394D01*
X140002282Y-128170026D02*
X141287628Y-126190764D01*
D10*
X134020798Y-125049357D02*
G75*
G02*
X133820798Y-125049357I-100000J0D01*
G01*
X133820798Y-125049357D02*
G75*
G02*
X134020798Y-125049357I100000J0D01*
G01*
%TD*%
M02*
